  0
SECTION
  2
HEADER
  9
$ACADVER
  1
AC1032
  9
$ACADMAINTVER
 90
      174
  9
$DWGCODEPAGE
  3
ANSI_1252
  9
$LASTSAVEDBY
  1
sergi
  9
$REQUIREDVERSIONS
160
                 0
  9
$INSBASE
 10
0.0
 20
0.0
 30
0.0
  9
$EXTMIN
 10
-54999.17261265034
 20
-52014.27087828878
 30
0.0
  9
$EXTMAX
 10
54999.17261265034
 20
54101.66356037493
 30
0.0
  9
$LIMMIN
 10
0.0
 20
0.0
  9
$LIMMAX
 10
420.0
 20
297.0
  9
$ORTHOMODE
 70
     0
  9
$REGENMODE
 70
     1
  9
$FILLMODE
 70
     1
  9
$QTEXTMODE
 70
     0
  9
$MIRRTEXT
 70
     1
  9
$LTSCALE
 40
1.0
  9
$ATTMODE
 70
     1
  9
$TEXTSIZE
 40
2.5
  9
$TRACEWID
 40
1.0
  9
$TEXTSTYLE
  7
Standard
  9
$CLAYER
  8
0
  9
$CELTYPE
  6
ByLayer
  9
$CECOLOR
 62
   256
  9
$CELTSCALE
 40
1.0
  9
$DISPSILH
 70
     0
  9
$DIMSCALE
 40
1.0
  9
$DIMASZ
 40
2.5
  9
$DIMEXO
 40
0.625
  9
$DIMDLI
 40
3.75
  9
$DIMRND
 40
0.0
  9
$DIMDLE
 40
0.0
  9
$DIMEXE
 40
1.25
  9
$DIMTP
 40
0.0
  9
$DIMTM
 40
0.0
  9
$DIMTXT
 40
2.5
  9
$DIMCEN
 40
2.5
  9
$DIMTSZ
 40
0.0
  9
$DIMTOL
 70
     0
  9
$DIMLIM
 70
     0
  9
$DIMTIH
 70
     0
  9
$DIMTOH
 70
     0
  9
$DIMSE1
 70
     0
  9
$DIMSE2
 70
     0
  9
$DIMTAD
 70
     1
  9
$DIMZIN
 70
     8
  9
$DIMBLK
  1

  9
$DIMASO
 70
     1
  9
$DIMSHO
 70
     1
  9
$DIMPOST
  1

  9
$DIMAPOST
  1

  9
$DIMALT
 70
     0
  9
$DIMALTD
 70
     3
  9
$DIMALTF
 40
0.03937007874
  9
$DIMLFAC
 40
1.0
  9
$DIMTOFL
 70
     1
  9
$DIMTVP
 40
0.0
  9
$DIMTIX
 70
     0
  9
$DIMSOXD
 70
     0
  9
$DIMSAH
 70
     0
  9
$DIMBLK1
  1

  9
$DIMBLK2
  1

  9
$DIMSTYLE
  2
Standard
  9
$DIMCLRD
 70
     0
  9
$DIMCLRE
 70
     0
  9
$DIMCLRT
 70
     0
  9
$DIMTFAC
 40
1.0
  9
$DIMGAP
 40
0.625
  9
$DIMJUST
 70
     0
  9
$DIMSD1
 70
     0
  9
$DIMSD2
 70
     0
  9
$DIMTOLJ
 70
     0
  9
$DIMTZIN
 70
     8
  9
$DIMALTZ
 70
     0
  9
$DIMALTTZ
 70
     0
  9
$DIMUPT
 70
     0
  9
$DIMDEC
 70
     2
  9
$DIMTDEC
 70
     2
  9
$DIMALTU
 70
     2
  9
$DIMALTTD
 70
     3
  9
$DIMTXSTY
  7
Standard
  9
$DIMAUNIT
 70
     0
  9
$DIMADEC
 70
     0
  9
$DIMALTRND
 40
0.0
  9
$DIMAZIN
 70
     0
  9
$DIMDSEP
 70
    44
  9
$DIMATFIT
 70
     3
  9
$DIMFRAC
 70
     0
  9
$DIMLDRBLK
  1

  9
$DIMLUNIT
 70
     2
  9
$DIMLWD
 70
    -2
  9
$DIMLWE
 70
    -2
  9
$DIMTMOVE
 70
     0
  9
$DIMFXL
 40
1.0
  9
$DIMFXLON
 70
     0
  9
$DIMJOGANG
 40
0.785398163397
  9
$DIMTFILL
 70
     0
  9
$DIMTFILLCLR
 70
     0
  9
$DIMARCSYM
 70
     0
  9
$DIMLTYPE
  6

  9
$DIMLTEX1
  6

  9
$DIMLTEX2
  6

  9
$DIMTXTDIRECTION
 70
     0
  9
$LUNITS
 70
     2
  9
$LUPREC
 70
     4
  9
$SKETCHINC
 40
1.0
  9
$FILLETRAD
 40
50.0
  9
$AUNITS
 70
     0
  9
$AUPREC
 70
     2
  9
$MENU
  1
.
  9
$ELEVATION
 40
0.0
  9
$PELEVATION
 40
0.0
  9
$THICKNESS
 40
0.0
  9
$LIMCHECK
 70
     0
  9
$CHAMFERA
 40
0.0
  9
$CHAMFERB
 40
0.0
  9
$CHAMFERC
 40
0.0
  9
$CHAMFERD
 40
0.0
  9
$SKPOLY
 70
     0
  9
$TDCREATE
 40
2458531.945659722
  9
$TDUCREATE
 40
2458532.153996898
  9
$TDUPDATE
 40
2459236.955902778
  9
$TDUUPDATE
 40
2459237.164236111
  9
$TDINDWG
 40
0.1791087963
  9
$TDUSRTIMER
 40
0.1791087963
  9
$USRTIMER
 70
     1
  9
$ANGBASE
 50
0.0
  9
$ANGDIR
 70
     0
  9
$PDMODE
 70
     0
  9
$PDSIZE
 40
0.0
  9
$PLINEWID
 40
0.0
  9
$SPLFRAME
 70
     0
  9
$SPLINETYPE
 70
     6
  9
$SPLINESEGS
 70
     8
  9
$HANDSEED
  5
52A
  9
$SURFTAB1
 70
     6
  9
$SURFTAB2
 70
     6
  9
$SURFTYPE
 70
     6
  9
$SURFU
 70
     6
  9
$SURFV
 70
     6
  9
$UCSBASE
  2

  9
$UCSNAME
  2

  9
$UCSORG
 10
0.0
 20
0.0
 30
0.0
  9
$UCSXDIR
 10
1.0
 20
0.0
 30
0.0
  9
$UCSYDIR
 10
0.0
 20
1.0
 30
0.0
  9
$UCSORTHOREF
  2

  9
$UCSORTHOVIEW
 70
     0
  9
$UCSORGTOP
 10
0.0
 20
0.0
 30
0.0
  9
$UCSORGBOTTOM
 10
0.0
 20
0.0
 30
0.0
  9
$UCSORGLEFT
 10
0.0
 20
0.0
 30
0.0
  9
$UCSORGRIGHT
 10
0.0
 20
0.0
 30
0.0
  9
$UCSORGFRONT
 10
0.0
 20
0.0
 30
0.0
  9
$UCSORGBACK
 10
0.0
 20
0.0
 30
0.0
  9
$PUCSBASE
  2

  9
$PUCSNAME
  2

  9
$PUCSORG
 10
0.0
 20
0.0
 30
0.0
  9
$PUCSXDIR
 10
1.0
 20
0.0
 30
0.0
  9
$PUCSYDIR
 10
0.0
 20
1.0
 30
0.0
  9
$PUCSORTHOREF
  2

  9
$PUCSORTHOVIEW
 70
     0
  9
$PUCSORGTOP
 10
0.0
 20
0.0
 30
0.0
  9
$PUCSORGBOTTOM
 10
0.0
 20
0.0
 30
0.0
  9
$PUCSORGLEFT
 10
0.0
 20
0.0
 30
0.0
  9
$PUCSORGRIGHT
 10
0.0
 20
0.0
 30
0.0
  9
$PUCSORGFRONT
 10
0.0
 20
0.0
 30
0.0
  9
$PUCSORGBACK
 10
0.0
 20
0.0
 30
0.0
  9
$USERI1
 70
     0
  9
$USERI2
 70
     0
  9
$USERI3
 70
     0
  9
$USERI4
 70
     0
  9
$USERI5
 70
     0
  9
$USERR1
 40
0.0
  9
$USERR2
 40
0.0
  9
$USERR3
 40
0.0
  9
$USERR4
 40
0.0
  9
$USERR5
 40
0.0
  9
$WORLDVIEW
 70
     1
  9
$SHADEDGE
 70
     3
  9
$SHADEDIF
 70
    70
  9
$TILEMODE
 70
     1
  9
$MAXACTVP
 70
    64
  9
$PINSBASE
 10
0.0
 20
0.0
 30
0.0
  9
$PLIMCHECK
 70
     0
  9
$PEXTMIN
 10
1.000000000000000E+20
 20
1.000000000000000E+20
 30
1.000000000000000E+20
  9
$PEXTMAX
 10
-1.000000000000000E+20
 20
-1.000000000000000E+20
 30
-1.000000000000000E+20
  9
$PLIMMIN
 10
0.0
 20
0.0
  9
$PLIMMAX
 10
420.0
 20
297.0
  9
$UNITMODE
 70
     0
  9
$VISRETAIN
 70
     1
  9
$PLINEGEN
 70
     0
  9
$PSLTSCALE
 70
     1
  9
$TREEDEPTH
 70
  3020
  9
$CMLSTYLE
  2
Standard
  9
$CMLJUST
 70
     0
  9
$CMLSCALE
 40
20.0
  9
$PROXYGRAPHICS
 70
     1
  9
$MEASUREMENT
 70
     1
  9
$CELWEIGHT
370
    -1
  9
$ENDCAPS
280
     0
  9
$JOINSTYLE
280
     0
  9
$LWDISPLAY
290
     0
  9
$INSUNITS
 70
     6
  9
$HYPERLINKBASE
  1

  9
$STYLESHEET
  1

  9
$XEDIT
290
     1
  9
$CEPSNTYPE
380
     0
  9
$PSTYLEMODE
290
     1
  9
$FINGERPRINTGUID
  2
FEF270A1-5C2E-11EB-A1FF-8CAE4CDC2091
  9
$VERSIONGUID
  2
{D0163338-7483-D24C-9B01-28C891AB8B67}
  9
$EXTNAMES
290
     1
  9
$PSVPSCALE
 40
0.0
  9
$OLESTARTUP
290
     0
  9
$SORTENTS
280
   127
  9
$INDEXCTL
280
     0
  9
$HIDETEXT
280
     1
  9
$XCLIPFRAME
280
     2
  9
$HALOGAP
280
     0
  9
$OBSCOLOR
 70
   257
  9
$OBSLTYPE
280
     0
  9
$INTERSECTIONDISPLAY
280
     0
  9
$INTERSECTIONCOLOR
 70
   257
  9
$DIMASSOC
280
     2
  9
$PROJECTNAME
  1

  9
$CAMERADISPLAY
290
     0
  9
$LENSLENGTH
 40
50.0
  9
$CAMERAHEIGHT
 40
0.0
  9
$STEPSPERSEC
 40
24.0
  9
$STEPSIZE
 40
100.0
  9
$3DDWFPREC
 40
2.0
  9
$PSOLWIDTH
 40
0.005
  9
$PSOLHEIGHT
 40
0.08
  9
$LOFTANG1
 40
1.570796326795
  9
$LOFTANG2
 40
1.570796326795
  9
$LOFTMAG1
 40
0.0
  9
$LOFTMAG2
 40
0.0
  9
$LOFTPARAM
 70
     7
  9
$LOFTNORMALS
280
     1
  9
$LATITUDE
 40
37.795
  9
$LONGITUDE
 40
-122.394
  9
$NORTHDIRECTION
 40
0.0
  9
$TIMEZONE
 70
 -8000
  9
$LIGHTGLYPHDISPLAY
280
     1
  9
$TILEMODELIGHTSYNCH
280
     1
  9
$CMATERIAL
347
20
  9
$SOLIDHIST
280
     0
  9
$SHOWHIST
280
     1
  9
$DWFFRAME
280
     2
  9
$DGNFRAME
280
     2
  9
$REALWORLDSCALE
290
     1
  9
$INTERFERECOLOR
 62
   256
  9
$INTERFEREOBJVS
345
368
  9
$INTERFEREVPVS
346
365
  9
$CSHADOW
280
     0
  9
$SHADOWPLANELOCATION
 40
0.0
  0
ENDSEC
  0
SECTION
  2
CLASSES
  0
CLASS
  1
ACDBDICTIONARYWDFLT
  2
AcDbDictionaryWithDefault
  3
ObjectDBX Classes
 90
        0
 91
        1
280
     0
281
     0
  0
CLASS
  1
SUN
  2
AcDbSun
  3
SCENEOE
 90
     1153
 91
        0
280
     0
281
     0
  0
CLASS
  1
VISUALSTYLE
  2
AcDbVisualStyle
  3
ObjectDBX Classes
 90
     4095
 91
       24
280
     0
281
     0
  0
CLASS
  1
MATERIAL
  2
AcDbMaterial
  3
ObjectDBX Classes
 90
     1153
 91
        3
280
     0
281
     0
  0
CLASS
  1
SCALE
  2
AcDbScale
  3
ObjectDBX Classes
 90
     1153
 91
       17
280
     0
281
     0
  0
CLASS
  1
TABLESTYLE
  2
AcDbTableStyle
  3
ObjectDBX Classes
 90
     4095
 91
        1
280
     0
281
     0
  0
CLASS
  1
MLEADERSTYLE
  2
AcDbMLeaderStyle
  3
ACDB_MLEADERSTYLE_CLASS
 90
     4095
 91
        1
280
     0
281
     0
  0
CLASS
  1
DICTIONARYVAR
  2
AcDbDictionaryVar
  3
ObjectDBX Classes
 90
        0
 91
       10
280
     0
281
     0
  0
CLASS
  1
CELLSTYLEMAP
  2
AcDbCellStyleMap
  3
ObjectDBX Classes
 90
     1152
 91
        2
280
     0
281
     0
  0
CLASS
  1
MENTALRAYRENDERSETTINGS
  2
AcDbMentalRayRenderSettings
  3
SCENEOE
 90
     1024
 91
        0
280
     0
281
     0
  0
CLASS
  1
ACDBDETAILVIEWSTYLE
  2
AcDbDetailViewStyle
  3
ObjectDBX Classes
 90
     1025
 91
        1
280
     0
281
     0
  0
CLASS
  1
ACDBSECTIONVIEWSTYLE
  2
AcDbSectionViewStyle
  3
ObjectDBX Classes
 90
     1025
 91
        1
280
     0
281
     0
  0
CLASS
  1
RASTERVARIABLES
  2
AcDbRasterVariables
  3
ISM
 90
        0
 91
        0
280
     0
281
     0
  0
CLASS
  1
DIMASSOC
  2
AcDbDimAssoc
  3
"AcDbDimAssoc|Product Desc:     AcDim ARX App For Dimension|Company:          Autodesk, Inc.|WEB Address:      www.autodesk.com"
 90
        0
 91
        2
280
     0
281
     0
  0
CLASS
  1
SORTENTSTABLE
  2
AcDbSortentsTable
  3
ObjectDBX Classes
 90
        0
 91
        3
280
     0
281
     0
  0
ENDSEC
  0
SECTION
  2
TABLES
  0
TABLE
  2
VPORT
  5
8
330
0
100
AcDbSymbolTable
 70
     1
  0
VPORT
  5
23
330
8
100
AcDbSymbolTableRecord
100
AcDbViewportTableRecord
  2
*Active
 70
     0
 10
0.0
 20
0.0
 11
1.0
 21
1.0
 12
10947.77968171053
 22
-2349.453628035157
 13
0.0
 23
0.0
 14
0.5
 24
0.5
 15
0.5
 25
0.5
 16
0.0
 26
0.0
 36
1.0
 17
0.0
 27
0.0
 37
0.0
 40
33460.54117336116
 41
2.862891207153502
 42
50.0
 43
0.0
 44
0.0
 50
0.0
 51
0.0
 71
     0
 72
  1000
 73
     1
 74
     3
 75
     0
 76
     0
 77
     0
 78
     0
281
     0
 65
     0
110
0.0
120
0.0
130
0.0
111
1.0
121
0.0
131
0.0
112
0.0
122
1.0
132
0.0
 79
     0
146
0.0
348
364
 60
     3
 61
     5
292
     1
282
     1
141
0.0
142
0.0
 63
   250
421
  3355443
1001
ACAD_NAV_VCDISPLAY
1070
     3
  0
ENDTAB
  0
TABLE
  2
LTYPE
  5
2
330
0
100
AcDbSymbolTable
 70
     1
  0
LTYPE
  5
24
330
2
100
AcDbSymbolTableRecord
100
AcDbLinetypeTableRecord
  2
ByBlock
 70
     0
  3

 72
    65
 73
     0
 40
0.0
  0
LTYPE
  5
25
330
2
100
AcDbSymbolTableRecord
100
AcDbLinetypeTableRecord
  2
ByLayer
 70
     0
  3

 72
    65
 73
     0
 40
0.0
  0
LTYPE
  5
26
330
2
100
AcDbSymbolTableRecord
100
AcDbLinetypeTableRecord
  2
Continuous
 70
     0
  3

 72
    65
 73
     0
 40
0.0
  0
ENDTAB
  0
TABLE
  2
LAYER
  5
1
102
{ACAD_XDICTIONARY
360
3A9
102
}
330
0
100
AcDbSymbolTable
 70
     8
  0
LAYER
  5
27
330
1
100
AcDbSymbolTableRecord
100
AcDbLayerTableRecord
  2
0
 70
     0
 62
     7
  6
Continuous
370
    -3
390
13
347
21
348
0
  0
LAYER
  5
28
330
1
100
AcDbSymbolTableRecord
100
AcDbLayerTableRecord
  2
Defpoints
 70
     0
 62
     7
  6
Continuous
290
     0
370
    -3
390
13
347
21
348
0
  0
LAYER
  5
2D
330
1
100
AcDbSymbolTableRecord
100
AcDbLayerTableRecord
  2
wafer_int
 70
     0
 62
     8
  6
Continuous
370
    -3
390
13
347
21
348
0
  0
LAYER
  5
2E
330
1
100
AcDbSymbolTableRecord
100
AcDbLayerTableRecord
  2
wafer_ext
 70
     0
 62
     8
  6
Continuous
370
    -3
390
13
347
21
348
0
  0
LAYER
  5
2F
330
1
100
AcDbSymbolTableRecord
100
AcDbLayerTableRecord
  2
eDura_outline_int
 70
     0
 62
     6
  6
Continuous
370
    -3
390
13
347
21
348
0
  0
LAYER
  5
30
330
1
100
AcDbSymbolTableRecord
100
AcDbLayerTableRecord
  2
eDura_outline_ext
 70
     0
 62
     6
  6
Continuous
370
    -3
390
13
347
21
348
0
  0
LAYER
  5
31
330
1
100
AcDbSymbolTableRecord
100
AcDbLayerTableRecord
  2
metal
 70
     0
 62
     4
  6
Continuous
370
    -3
390
13
347
21
348
0
  0
LAYER
  5
32
330
1
100
AcDbSymbolTableRecord
100
AcDbLayerTableRecord
  2
etch
 70
     0
 62
     3
  6
Continuous
370
    -3
390
13
347
21
348
0
  0
ENDTAB
  0
TABLE
  2
STYLE
  5
5
330
0
100
AcDbSymbolTable
 70
     1
  0
STYLE
  5
29
330
5
100
AcDbSymbolTableRecord
100
AcDbTextStyleTableRecord
  2
Standard
 70
     0
 40
0.0
 41
1.0
 50
0.0
 71
     0
 42
2.5
  3
txt
  4

  0
ENDTAB
  0
TABLE
  2
VIEW
  5
7
330
0
100
AcDbSymbolTable
 70
     2
  0
ENDTAB
  0
TABLE
  2
UCS
  5
6
330
0
100
AcDbSymbolTable
 70
     0
  0
ENDTAB
  0
TABLE
  2
APPID
  5
3
330
0
100
AcDbSymbolTable
 70
     5
  0
APPID
  5
2A
330
3
100
AcDbSymbolTableRecord
100
AcDbRegAppTableRecord
  2
ACAD
 70
     0
  0
APPID
  5
35C
330
3
100
AcDbSymbolTableRecord
100
AcDbRegAppTableRecord
  2
HATCHBACKGROUNDCOLOR
 70
     0
  0
APPID
  5
3A8
330
3
100
AcDbSymbolTableRecord
100
AcDbRegAppTableRecord
  2
ACAD_NAV_VCDISPLAY
 70
     0
  0
APPID
  5
407
330
3
100
AcDbSymbolTableRecord
100
AcDbRegAppTableRecord
  2
ACAD_EXEMPT_FROM_CAD_STANDARDS
 70
     0
  0
APPID
  5
4E9
330
3
100
AcDbSymbolTableRecord
100
AcDbRegAppTableRecord
  2
ACAD_DSTYLE_DIMRADIAL_EXTENSION
 70
     0
  0
ENDTAB
  0
TABLE
  2
DIMSTYLE
  5
4
330
0
100
AcDbSymbolTable
 70
     1
100
AcDbDimStyleTable
 71
     1
340
2B
  0
DIMSTYLE
105
2B
102
{ACAD_REACTORS
330
4EA
102
}
330
4
100
AcDbSymbolTableRecord
100
AcDbDimStyleTableRecord
  2
Standard
 70
     0
 41
2.5
 42
0.625
 43
3.75
 44
1.25
 49
2.5
 73
     0
 74
     0
 77
     1
 78
     8
140
2.5
141
2.5
143
0.03937007874
147
0.625
171
     3
172
     1
271
     0
272
     2
274
     3
278
    44
283
     0
284
     8
340
29
  0
ENDTAB
  0
TABLE
  2
BLOCK_RECORD
  5
9
330
0
100
AcDbSymbolTable
 70
     5
  0
BLOCK_RECORD
  5
17
102
{ACAD_XDICTIONARY
360
3F2
102
}
330
9
100
AcDbSymbolTableRecord
100
AcDbBlockTableRecord
  2
*Model_Space
340
1A
 70
     0
280
     1
281
     0
  0
BLOCK_RECORD
  5
1B
330
9
100
AcDbSymbolTableRecord
100
AcDbBlockTableRecord
  2
*Paper_Space
340
1E
 70
     0
280
     1
281
     0
  0
BLOCK_RECORD
  5
4EB
330
9
100
AcDbSymbolTableRecord
100
AcDbBlockTableRecord
  2
*D3
340
0
 70
     0
280
     1
281
     0
  0
BLOCK_RECORD
  5
501
330
9
100
AcDbSymbolTableRecord
100
AcDbBlockTableRecord
  2
*D4
340
0
 70
     0
280
     1
281
     0
  0
ENDTAB
  0
ENDSEC
  0
SECTION
  2
BLOCKS
  0
BLOCK
  5
18
330
17
100
AcDbEntity
  8
0
100
AcDbBlockBegin
  2
*Model_Space
 70
     0
 10
0.0
 20
0.0
 30
0.0
  3
*Model_Space
  1

  0
ENDBLK
  5
19
330
17
100
AcDbEntity
  8
0
100
AcDbBlockEnd
  0
BLOCK
  5
1C
330
1B
100
AcDbEntity
 67
     1
  8
0
100
AcDbBlockBegin
  2
*Paper_Space
 70
     0
 10
0.0
 20
0.0
 30
0.0
  3
*Paper_Space
  1

  0
ENDBLK
  5
1D
330
1B
100
AcDbEntity
 67
     1
  8
0
100
AcDbBlockEnd
  0
BLOCK
  5
4EC
330
4EB
100
AcDbEntity
  8
0
100
AcDbBlockBegin
  2
*D3
 70
     1
 10
0.0
 20
0.0
 30
0.0
  3
*D3
  1

  0
LINE
  5
4F7
330
4EB
100
AcDbEntity
  8
0
 62
     0
440
 16777216
370
    -2
100
AcDbLine
 10
-3734.458214225365
 20
6529.318272154821
 30
0.0
 11
-3738.602690431934
 21
6520.217540482412
 31
0.0
  0
LINE
  5
4F8
330
4EB
100
AcDbEntity
  8
0
 62
     0
440
 16777216
370
    -2
100
AcDbLine
 10
-3761.397309568066
 20
6470.163516284165
 30
0.0
 11
-3762.433428619708
 21
6467.888333366062
 31
0.0
  0
MTEXT
  5
4F9
330
4EB
100
AcDbEntity
  8
0
 62
     0
440
 16777216
100
AcDbMText
 10
-3737.718779991405
 20
6526.6825870664
 30
0.0
 40
2.5
 41
0.0
 46
0.0
 71
     5
 72
     1
  1
∅50
 11
0.4144476206569362
 21
0.9100731672408569
 31
0.0
 73
     1
 44
1.0
  0
LINE
  5
4FA
330
4EB
100
AcDbEntity
  8
0
 62
     0
440
 16777216
370
    -2
100
AcDbLine
 10
-3760.361190516423
 20
6472.438699202266
 30
0.0
 11
-3739.638809483576
 21
6517.94235756431
 31
0.0
  0
SOLID
  5
4FB
330
4EB
100
AcDbEntity
  8
0
 62
     0
440
 16777216
100
AcDbTrace
 10
-3761.776506721083
 20
6470.336202792771
 30
0.0
 11
-3761.018112415048
 21
6469.990829775557
 31
0.0
 12
-3760.361190516423
 22
6472.438699202266
 32
0.0
 13
-3760.361190516423
 23
6472.438699202266
 33
0.0
  0
SOLID
  5
4FC
330
4EB
100
AcDbEntity
  8
0
 62
     0
440
 16777216
100
AcDbTrace
 10
-3738.981887584951
 20
6520.39022699102
 30
0.0
 11
-3738.223493278916
 21
6520.044853973804
 31
0.0
 12
-3739.638809483576
 22
6517.94235756431
 32
0.0
 13
-3739.638809483576
 23
6517.94235756431
 33
0.0
  0
POINT
  5
4FD
330
4EB
100
AcDbEntity
  8
Defpoints
 62
     0
440
 16777216
100
AcDbPoint
 10
-3739.638809483576
 20
6517.94235756431
 30
0.0
  0
POINT
  5
4FE
330
4EB
100
AcDbEntity
  8
Defpoints
 62
     0
440
 16777216
100
AcDbPoint
 10
-3760.361190516423
 20
6472.438699202266
 30
0.0
  0
ENDBLK
  5
4ED
330
4EB
100
AcDbEntity
  8
0
100
AcDbBlockEnd
  0
BLOCK
  5
502
330
501
100
AcDbEntity
  8
0
100
AcDbBlockBegin
  2
*D4
 70
     1
 10
0.0
 20
0.0
 30
0.0
  3
*D4
  1

  0
LINE
  5
50D
330
501
100
AcDbEntity
  8
0
 62
     0
440
 16777216
370
    -2
100
AcDbLine
 10
3784.961921697411
 20
-6444.965281109794
 30
0.0
 11
3765.711122473709
 21
-6472.620401431583
 31
0.0
  0
LINE
  5
50E
330
501
100
AcDbEntity
  8
0
 62
     0
440
 16777216
370
    -2
100
AcDbLine
 10
3734.288877526294
 20
-6517.760655334996
 30
0.0
 11
3732.860593665048
 21
-6519.812485057878
 31
0.0
  0
MTEXT
  5
50F
330
501
100
AcDbEntity
  8
0
 62
     0
440
 16777216
100
AcDbMText
 10
3781.280623613378
 20
-6446.971812798183
 30
0.0
 40
2.5
 41
0.0
 46
0.0
 71
     5
 72
     1
  1
∅50
 11
0.571313544498472
 21
0.8207318891529634
 31
0.0
 73
     1
 44
1.0
  0
LINE
  5
510
330
501
100
AcDbEntity
  8
0
 62
     0
440
 16777216
370
    -2
100
AcDbLine
 10
3735.71716138754
 20
-6515.708825612112
 30
0.0
 11
3764.282838612464
 21
-6474.672231154466
 31
0.0
  0
SOLID
  5
511
330
501
100
AcDbEntity
  8
0
 62
     0
440
 16777216
100
AcDbTrace
 10
3733.946905905813
 20
-6517.522608024788
 30
0.0
 11
3734.630849146775
 21
-6517.998702645204
 31
0.0
 12
3735.71716138754
 22
-6515.708825612112
 32
0.0
 13
3735.71716138754
 23
-6515.708825612112
 33
0.0
  0
SOLID
  5
512
330
501
100
AcDbEntity
  8
0
 62
     0
440
 16777216
100
AcDbTrace
 10
3765.369150853229
 20
-6472.382354121375
 30
0.0
 11
3766.05309409419
 21
-6472.85844874179
 31
0.0
 12
3764.282838612464
 22
-6474.672231154466
 32
0.0
 13
3764.282838612464
 23
-6474.672231154466
 33
0.0
  0
POINT
  5
513
330
501
100
AcDbEntity
  8
Defpoints
 62
     0
440
 16777216
100
AcDbPoint
 10
3764.282838612464
 20
-6474.672231154466
 30
0.0
  0
POINT
  5
514
330
501
100
AcDbEntity
  8
Defpoints
 62
     0
440
 16777216
100
AcDbPoint
 10
3735.71716138754
 20
-6515.708825612112
 30
0.0
  0
ENDBLK
  5
503
330
501
100
AcDbEntity
  8
0
100
AcDbBlockEnd
  0
ENDSEC
  0
SECTION
  2
ENTITIES
  0
LWPOLYLINE
  5
33
330
17
100
AcDbEntity
  8
wafer_int
100
AcDbPolyline
 90
      104
 70
     1
 43
0.0
 10
16250.0
 20
-47285.70079844433
 10
18762.98442252996
 20
-46345.98597030706
 10
21221.94529951152
 20
-45272.8289121029
 10
23619.80263866053
 20
-44069.31952402628
 10
25949.65238077921
 20
-42738.92302476421
 10
28204.78627835055
 20
-41285.46997422422
 10
30378.71121033955
 20
-39713.14524434938
 10
32465.16787758903
 20
-38026.47596977613
 10
34458.14882498102
 20
-36230.318513028
 10
36351.91573847313
 20
-34329.84448177636
 10
38141.0159672074
 20
-32330.52583842753
 10
39820.29822312005
 20
-30238.11914491016
 10
41384.9274128486
 20
-28058.648988026
 10
42830.39855923196
 20
-25798.3906330868
 10
44152.54977231931
 20
-23463.85195578224
 10
45347.57423254113
 20
-21061.7547043016
 10
46412.03115153968
 20
-18599.01514566056
 10
47342.85567909957
 20
-16082.72415195727
 10
48137.36772765427
 20
-13520.1267838948
 10
48793.27968895995
 20
-10918.60143035403
 10
49308.70302071866
 20
-8285.638564079985
 10
49682.15368418624
 20
-5628.819174649279
 10
49912.55641710834
 20
-2955.792940815929
 10
49999.24782968212
 20
-274.2562050829871
 10
49941.97831462924
 20
2408.070186082885
 10
49740.9127658805
 20
5083.463112590258
 10
49396.63010380304
 20
7744.219417608099
 10
48910.12160833708
 20
10382.67808697146
 10
48282.78806484131
 20
12991.2423072475
 10
47516.43573086504
 20
15562.40133895061
 10
46613.27113545976
 20
18088.75214192823
 10
45575.89472600414
 20
20563.02069065214
 10
44407.29338083506
 20
22978.08291804263
 10
43110.83180924273
 20
25326.98522752332
 10
41690.24286359156
 20
27602.96451424651
 10
40149.61679146066
 20
29799.46763784314
 10
38493.38945874992
 20
31910.17029062992
 10
36726.32957766059
 20
33928.99520694732
 10
34853.52497632401
 20
35850.1296611987
 10
32880.36794961208
 20
37668.04220420969
 10
30812.53973330833
 20
39377.49858971866
 10
28655.99414634232
 20
40973.57684514247
 10
26416.94044818581
 20
42451.68144322442
 10
24101.82546076884
 20
43807.55653376064
 10
21717.3150063911
 20
45037.2981973073
 10
19270.27471507399
 20
46137.36568558699
 10
16767.75025661395
 20
47104.59161623019
 10
14216.94705425405
 20
47936.19109249855
 10
11625.20953838365
 20
48629.76972173192
 10
9000.000000000007
 20
49183.33050943174
 10
9000.0
 20
49183.33050943174
 10
-9000.0
 20
49183.33050943174
 10
-9000.0
 20
49183.33050943174
 10
-11625.20953838364
 20
48629.76972173192
 10
-14216.94705425403
 20
47936.19109249856
 10
-16767.75025661393
 20
47104.59161623019
 10
-19270.27471507398
 20
46137.36568558699
 10
-21717.31500639109
 20
45037.29819730731
 10
-24101.82546076884
 20
43807.55653376064
 10
-26416.94044818581
 20
42451.68144322441
 10
-28655.99414634233
 20
40973.57684514245
 10
-30812.53973330833
 20
39377.49858971867
 10
-32880.36794961207
 20
37668.04220420971
 10
-34853.52497632399
 20
35850.12966119871
 10
-36726.32957766058
 20
33928.99520694732
 10
-38493.38945874992
 20
31910.17029062993
 10
-40149.61679146066
 20
29799.46763784314
 10
-41690.24286359156
 20
27602.96451424653
 10
-43110.83180924273
 20
25326.98522752333
 10
-44407.29338083506
 20
22978.08291804265
 10
-45575.89472600413
 20
20563.02069065215
 10
-46613.27113545976
 20
18088.75214192825
 10
-47516.43573086504
 20
15562.40133895061
 10
-48282.78806484131
 20
12991.24230724751
 10
-48910.12160833708
 20
10382.67808697147
 10
-49396.63010380304
 20
7744.219417608092
 10
-49740.9127658805
 20
5083.463112590253
 10
-49941.97831462924
 20
2408.07018608288
 10
-49999.24782968212
 20
-274.2562050829921
 10
-49912.55641710834
 20
-2955.792940815912
 10
-49682.15368418624
 20
-5628.819174649271
 10
-49308.70302071866
 20
-8285.638564079979
 10
-48793.27968895995
 20
-10918.601430354
 10
-48137.36772765427
 20
-13520.12678389478
 10
-47342.85567909957
 20
-16082.72415195726
 10
-46412.03115153968
 20
-18599.01514566054
 10
-45347.57423254116
 20
-21061.75470430158
 10
-44152.54977231931
 20
-23463.85195578222
 10
-42830.39855923196
 20
-25798.39063308679
 10
-41384.92741284861
 20
-28058.64898802599
 10
-39820.29822312005
 20
-30238.11914491016
 10
-38141.0159672074
 20
-32330.52583842753
 10
-36351.91573847313
 20
-34329.84448177636
 10
-34458.14882498101
 20
-36230.31851302801
 10
-32465.16787758903
 20
-38026.47596977613
 10
-30378.71121033954
 20
-39713.14524434939
 10
-28204.78627835057
 20
-41285.46997422419
 10
-25949.65238077924
 20
-42738.92302476418
 10
-23619.80263866055
 20
-44069.31952402628
 10
-21221.94529951154
 20
-45272.8289121029
 10
-18762.98442252998
 20
-46345.98597030705
 10
-16250.00000000002
 20
-47285.70079844433
 10
-16250.0
 20
-47285.70079844433
 10
16250.0
 20
-47285.70079844433
  0
LWPOLYLINE
  5
34
330
17
100
AcDbEntity
  8
wafer_ext
100
AcDbPolyline
 90
      104
 70
     1
 43
0.0
 10
17875.0
 20
-52014.27087828878
 10
20639.28286478296
 20
-50980.58456733776
 10
23344.13982946267
 20
-49800.1118033132
 10
25981.78290252658
 20
-48476.25147642891
 10
28544.61761885713
 20
-47012.81532724061
 10
31025.26490618561
 20
-45414.01697164663
 10
33416.5823313735
 20
-43684.45976878431
 10
35711.68466534793
 20
-41829.12356675373
 10
37903.96370747911
 20
-39853.35036433081
 10
39987.10731232043
 20
-37762.82892995399
 10
41955.11756392814
 20
-35563.57842227029
 10
43802.32804543204
 20
-33261.93105940118
 10
45523.42015413347
 20
-30864.5138868286
 10
47113.43841515516
 20
-28378.22969639547
 10
48567.80474955125
 20
-25810.23715136045
 10
49882.33165579526
 20
-23167.93017473176
 10
51053.23426669365
 20
-20458.91666022661
 10
52077.14124700952
 20
-17690.996567153
 10
52951.10450041969
 20
-14872.13946228428
 10
53672.60765785593
 20
-12010.46157338943
 10
54239.57332279053
 20
-9114.202420487982
 10
54650.36905260487
 20
-6191.701092114206
 10
54903.81205881917
 20
-3251.372234897523
 10
54999.17261265034
 20
-301.681825591286
 10
54936.17614609218
 20
2648.877204691174
 10
54715.00404246857
 20
5591.809423849284
 10
54336.29311418336
 20
8518.641359368906
 10
53801.1337691708
 20
11420.94589566861
 10
53111.06687132544
 20
14290.36653797225
 10
52268.07930395155
 20
17118.64147284567
 10
51274.59824900574
 20
19897.62735612106
 10
50133.48419860456
 20
22619.32275971735
 10
48848.02271891857
 20
25275.89120984689
 10
47421.914990167
 20
27859.68375027565
 10
45859.26714995073
 20
30363.26096567116
 10
44164.57847060672
 20
32779.41440162745
 10
42342.72840462489
 20
35101.18731969292
 10
40398.96253542665
 20
37321.89472764204
 10
38338.87747395641
 20
39435.14262731858
 10
36168.4047445733
 20
41434.84642463066
 10
33893.79370663917
 20
43315.24844869051
 10
31521.59356097655
 20
45070.93452965671
 10
29058.63449300439
 20
46696.84958754687
 10
26512.00800684572
 20
48188.31218713671
 10
23889.04650703022
 20
49541.02801703802
 10
21197.3021865814
 20
50751.10225414568
 10
18444.52528227534
 20
51815.0507778532
 10
15638.64175967946
 20
52729.81020174841
 10
12787.73049222201
 20
53492.74669390512
 10
9900.000000000011
 20
54101.66356037493
 10
9900.0
 20
54101.66356037493
 10
-9900.0
 20
54101.66356037493
 10
-9900.0
 20
54101.66356037493
 10
-12787.730492222
 20
53492.74669390512
 10
-15638.64175967944
 20
52729.81020174841
 10
-18444.52528227533
 20
51815.05077785321
 10
-21197.30218658137
 20
50751.10225414568
 10
-23889.0465070302
 20
49541.02801703803
 10
-26512.00800684572
 20
48188.31218713671
 10
-29058.6344930044
 20
46696.84958754686
 10
-31521.59356097656
 20
45070.93452965671
 10
-33893.79370663916
 20
43315.24844869053
 10
-36168.40474457328
 20
41434.84642463066
 10
-38338.87747395639
 20
39435.14262731858
 10
-40398.96253542663
 20
37321.89472764205
 10
-42342.72840462489
 20
35101.18731969293
 10
-44164.57847060672
 20
32779.41440162746
 10
-45859.26714995071
 20
30363.26096567119
 10
-47421.914990167
 20
27859.68375027567
 10
-48848.02271891857
 20
25275.89120984691
 10
-50133.48419860455
 20
22619.32275971736
 10
-51274.59824900573
 20
19897.62735612108
 10
-52268.07930395155
 20
17118.64147284568
 10
-53111.06687132544
 20
14290.36653797226
 10
-53801.1337691708
 20
11420.94589566861
 10
-54336.29311418336
 20
8518.641359368901
 10
-54715.00404246857
 20
5591.809423849278
 10
-54936.17614609218
 20
2648.877204691168
 10
-54999.17261265034
 20
-301.6818255912914
 10
-54903.81205881917
 20
-3251.372234897504
 10
-54650.36905260487
 20
-6191.701092114199
 10
-54239.57332279053
 20
-9114.202420487975
 10
-53672.60765785593
 20
-12010.4615733894
 10
-52951.1045004197
 20
-14872.13946228426
 10
-52077.14124700953
 20
-17690.99656715298
 10
-51053.23426669365
 20
-20458.9166602266
 10
-49882.33165579527
 20
-23167.93017473174
 10
-48567.80474955125
 20
-25810.23715136044
 10
-47113.43841515516
 20
-28378.22969639546
 10
-45523.42015413347
 20
-30864.51388682859
 10
-43802.32804543205
 20
-33261.93105940118
 10
-41955.11756392814
 20
-35563.57842227029
 10
-39987.10731232043
 20
-37762.82892995399
 10
-37903.9637074791
 20
-39853.35036433081
 10
-35711.68466534793
 20
-41829.12356675373
 10
-33416.5823313735
 20
-43684.45976878433
 10
-31025.26490618563
 20
-45414.01697164661
 10
-28544.61761885716
 20
-47012.81532724061
 10
-25981.78290252661
 20
-48476.25147642891
 10
-23344.1398294627
 20
-49800.11180331319
 10
-20639.28286478298
 20
-50980.58456733776
 10
-17875.00000000002
 20
-52014.27087828877
 10
17875.0
 20
-52014.27087828878
 10
-17875.0
 20
-52014.27087828878
  0
LWPOLYLINE
  5
35
330
17
100
AcDbEntity
  8
eDura_outline_int
100
AcDbPolyline
 90
      108
 70
     1
 43
0.0
 10
-8660.254037844385
 20
5000.000000000005
 10
-8438.695627580832
 20
5365.483771762631
 10
-8201.722545969557
 20
5721.1666012217
 10
-7949.767663483974
 20
6066.398774942555
 10
-7683.291217331275
 20
6400.549669339351
 10
-7402.779970753154
 20
6723.00890261317
 10
-7108.746323872349
 20
7033.187449715197
 10
-6801.727377709193
 20
7330.518718298264
 10
-6482.283953077882
 20
7614.459583691346
 10
-6150.999566154638
 20
7884.49138100648
 10
-5808.479362589026
 20
8140.120852565848
 10
-5455.349012105486
 20
8380.881048918407
 10
-5092.253565614231
 20
8606.332181800164
 10
-4719.856276919229
 20
8816.062427480092
 10
-4338.83739117558
 20
9009.688679024192
 10
-3949.892902309386
 20
9186.857246103585
 10
-3553.733281669887
 20
9347.24450106831
 10
-3151.082180236207
 20
9490.55747010669
 10
-2742.675106749304
 20
9616.534368410365
 10
-2329.258084183786
 20
9724.945078367513
 10
-1911.586287013723
 20
9815.591569910655
 10
-1490.422661761745
 20
9888.308262251285
 10
-1066.536533351202
 20
9942.962326340536
 10
-640.7021998071305
 20
9979.453927503364
 10
-213.6975178730148
 20
9997.71640780308
 10
213.697517873016
 20
9997.71640780308
 10
640.7021998071295
 20
9979.453927503364
 10
1066.536533351202
 20
9942.962326340536
 10
1490.422661761744
 20
9888.308262251285
 10
1911.586287013722
 20
9815.591569910655
 10
2329.258084183785
 20
9724.945078367513
 10
2742.675106749304
 20
9616.534368410365
 10
3151.082180236207
 20
9490.55747010669
 10
3553.733281669887
 20
9347.244501068312
 10
3949.892902309385
 20
9186.857246103585
 10
4338.837391175579
 20
9009.688679024192
 10
4719.856276919229
 20
8816.062427480092
 10
5092.25356561423
 20
8606.332181800164
 10
5455.349012105486
 20
8380.881048918409
 10
5808.479362589026
 20
8140.120852565848
 10
6150.999566154638
 20
7884.49138100648
 10
6482.283953077882
 20
7614.459583691346
 10
6801.72737770919
 20
7330.518718298264
 10
7108.746323872349
 20
7033.1874497152
 10
7402.779970753153
 20
6723.008902613172
 10
7683.291217331275
 20
6400.549669339354
 10
7949.767663483974
 20
6066.398774942555
 10
8201.722545969557
 20
5721.1666012217
 10
8438.695627580832
 20
5365.483771762631
 10
8660.254037844387
 20
5000.0
 10
8660.254037844387
 20
5000.0
 10
28660.25403784439
 20
5000.0
 10
28660.25403784439
 20
-5000.0
 10
8660.254037844387
 20
-5000.0
 10
8660.254037844385
 20
-5000.000000000005
 10
8438.695627580832
 20
-5365.483771762631
 10
8201.722545969557
 20
-5721.1666012217
 10
7949.767663483974
 20
-6066.398774942555
 10
7683.291217331275
 20
-6400.549669339351
 10
7402.779970753154
 20
-6723.00890261317
 10
7108.746323872349
 20
-7033.187449715197
 10
6801.727377709193
 20
-7330.518718298264
 10
6482.283953077882
 20
-7614.459583691346
 10
6150.999566154638
 20
-7884.49138100648
 10
5808.479362589026
 20
-8140.120852565848
 10
5455.349012105486
 20
-8380.881048918407
 10
5092.253565614231
 20
-8606.332181800164
 10
4719.856276919229
 20
-8816.062427480092
 10
4338.83739117558
 20
-9009.688679024192
 10
3949.892902309386
 20
-9186.857246103585
 10
3553.733281669887
 20
-9347.24450106831
 10
3151.082180236207
 20
-9490.55747010669
 10
2742.675106749304
 20
-9616.534368410365
 10
2329.258084183786
 20
-9724.945078367513
 10
1911.586287013723
 20
-9815.591569910655
 10
1490.422661761745
 20
-9888.308262251285
 10
1066.536533351202
 20
-9942.962326340536
 10
640.7021998071305
 20
-9979.453927503364
 10
213.6975178730148
 20
-9997.71640780308
 10
-213.697517873016
 20
-9997.71640780308
 10
-640.7021998071295
 20
-9979.453927503364
 10
-1066.536533351202
 20
-9942.962326340536
 10
-1490.422661761744
 20
-9888.308262251285
 10
-1911.586287013722
 20
-9815.591569910655
 10
-2329.258084183785
 20
-9724.945078367513
 10
-2742.675106749304
 20
-9616.534368410365
 10
-3151.082180236207
 20
-9490.55747010669
 10
-3553.733281669887
 20
-9347.244501068312
 10
-3949.892902309385
 20
-9186.857246103585
 10
-4338.837391175579
 20
-9009.688679024192
 10
-4719.856276919229
 20
-8816.062427480092
 10
-5092.25356561423
 20
-8606.332181800164
 10
-5455.349012105486
 20
-8380.881048918409
 10
-5808.479362589026
 20
-8140.120852565848
 10
-6150.999566154638
 20
-7884.49138100648
 10
-6482.283953077882
 20
-7614.459583691346
 10
-6801.72737770919
 20
-7330.518718298264
 10
-7108.746323872349
 20
-7033.1874497152
 10
-7402.779970753153
 20
-6723.008902613172
 10
-7683.291217331275
 20
-6400.549669339354
 10
-7949.767663483974
 20
-6066.398774942555
 10
-8201.722545969557
 20
-5721.1666012217
 10
-8438.695627580832
 20
-5365.483771762631
 10
-8660.254037844387
 20
-5000.0
 10
-8660.254037844387
 20
-5000.0
 10
-28660.25403784439
 20
-5000.0
 10
-28660.25403784439
 20
5000.0
 10
-8660.254037844387
 20
5000.0
  0
LWPOLYLINE
  5
36
330
17
100
AcDbEntity
  8
eDura_outline_ext
100
AcDbPolyline
 90
      108
 70
     1
 43
0.0
 10
-8888.194417315588
 20
5400.000000000002
 10
-8654.600846995073
 20
5766.964901851942
 10
-8405.865790415303
 20
6123.840323973647
 10
-8142.42441708993
 20
6470.001902007272
 10
-7864.737625679076
 20
6804.844015789623
 10
-7573.291237633191
 20
7127.780848902997
 10
-7268.595147233698
 20
7438.247413578733
 10
-6951.182429517522
 20
7735.700539160423
 10
-6621.608407646147
 20
8019.619822397432
 10
-6280.449681350961
 20
8289.508537906129
 10
-5928.303118154536
 20
8544.894507205999
 10
-5565.784809132836
 20
8785.330924810185
 10
-5193.528991045226
 20
9010.397139925229
 10
-4812.186936718049
 20
9219.699392392367
 10
-4422.425815623099
 20
9412.87150158284
 10
-4024.927526644424
 20
9589.57550704201
 10
-3620.387505075583
 20
9749.502259761401
 10
-3209.513505934533
 20
9892.371963044245
 10
-2793.024365724802
 20
10017.93466201829
 10
-2371.648744809256
 20
10125.97068093941
 10
-1946.123852596723
 20
10216.29100752098
 10
-1517.194157771817
 20
10288.73762361657
 10
-1085.610085824423
 20
10343.18378167749
 10
-652.1267061575843
 20
10379.5342265015
 10
-217.5024110707091
 20
10397.72536188461
 10
217.5024110707104
 20
10397.72536188461
 10
652.1267061575835
 20
10379.5342265015
 10
1085.610085824422
 20
10343.18378167749
 10
1517.194157771815
 20
10288.73762361657
 10
1946.123852596721
 20
10216.29100752098
 10
2371.648744809254
 20
10125.97068093941
 10
2793.024365724801
 20
10017.93466201829
 10
3209.513505934531
 20
9892.371963044245
 10
3620.387505075581
 20
9749.502259761401
 10
4024.927526644423
 20
9589.57550704201
 10
4422.425815623098
 20
9412.87150158284
 10
4812.186936718048
 20
9219.699392392367
 10
5193.528991045224
 20
9010.397139925231
 10
5565.784809132834
 20
8785.330924810185
 10
5928.303118154534
 20
8544.894507205999
 10
6280.449681350961
 20
8289.508537906129
 10
6621.608407646147
 20
8019.619822397435
 10
6951.182429517522
 20
7735.700539160426
 10
7268.595147233698
 20
7438.247413578735
 10
7573.291237633191
 20
7127.780848902998
 10
7864.737625679076
 20
6804.844015789625
 10
8142.424417089928
 20
6470.001902007272
 10
8405.865790415303
 20
6123.84032397365
 10
8654.600846995073
 20
5766.964901851938
 10
8888.194417315592
 20
5400.0
 10
8888.194417315588
 20
5400.0
 10
29088.19441731559
 20
5400.0
 10
29088.19441731559
 20
-5400.0
 10
8888.194417315588
 20
-5400.0
 10
8888.194417315588
 20
-5400.000000000002
 10
8654.600846995073
 20
-5766.964901851942
 10
8405.865790415303
 20
-6123.840323973647
 10
8142.42441708993
 20
-6470.001902007272
 10
7864.737625679076
 20
-6804.844015789623
 10
7573.291237633191
 20
-7127.780848902997
 10
7268.595147233698
 20
-7438.247413578733
 10
6951.182429517522
 20
-7735.700539160423
 10
6621.608407646147
 20
-8019.619822397432
 10
6280.449681350961
 20
-8289.508537906129
 10
5928.303118154536
 20
-8544.894507205999
 10
5565.784809132836
 20
-8785.330924810185
 10
5193.528991045226
 20
-9010.397139925229
 10
4812.186936718049
 20
-9219.699392392367
 10
4422.425815623099
 20
-9412.87150158284
 10
4024.927526644424
 20
-9589.57550704201
 10
3620.387505075583
 20
-9749.502259761401
 10
3209.513505934533
 20
-9892.371963044245
 10
2793.024365724802
 20
-10017.93466201829
 10
2371.648744809256
 20
-10125.97068093941
 10
1946.123852596723
 20
-10216.29100752098
 10
1517.194157771817
 20
-10288.73762361657
 10
1085.610085824423
 20
-10343.18378167749
 10
652.1267061575843
 20
-10379.5342265015
 10
217.5024110707091
 20
-10397.72536188461
 10
-217.5024110707104
 20
-10397.72536188461
 10
-652.1267061575835
 20
-10379.5342265015
 10
-1085.610085824422
 20
-10343.18378167749
 10
-1517.194157771815
 20
-10288.73762361657
 10
-1946.123852596721
 20
-10216.29100752098
 10
-2371.648744809254
 20
-10125.97068093941
 10
-2793.024365724801
 20
-10017.93466201829
 10
-3209.513505934531
 20
-9892.371963044245
 10
-3620.387505075581
 20
-9749.502259761401
 10
-4024.927526644423
 20
-9589.57550704201
 10
-4422.425815623098
 20
-9412.87150158284
 10
-4812.186936718048
 20
-9219.699392392367
 10
-5193.528991045224
 20
-9010.397139925231
 10
-5565.784809132834
 20
-8785.330924810185
 10
-5928.303118154534
 20
-8544.894507205999
 10
-6280.449681350961
 20
-8289.508537906129
 10
-6621.608407646147
 20
-8019.619822397435
 10
-6951.182429517522
 20
-7735.700539160426
 10
-7268.595147233698
 20
-7438.247413578735
 10
-7573.291237633191
 20
-7127.780848902998
 10
-7864.737625679076
 20
-6804.844015789625
 10
-8142.424417089928
 20
-6470.001902007272
 10
-8405.865790415303
 20
-6123.84032397365
 10
-8654.600846995073
 20
-5766.964901851938
 10
-8888.194417315592
 20
-5400.0
 10
-8888.194417315588
 20
-5400.0
 10
-29088.19441731559
 20
-5400.0
 10
-29088.19441731559
 20
5400.0
 10
-8888.194417315588
 20
5400.0
  0
CIRCLE
  5
37
102
{ACAD_REACTORS
330
4FF
102
}
330
17
100
AcDbEntity
  8
metal
100
AcDbCircle
 10
-3750.0
 20
6495.190528383289
 30
0.0
 40
25.0
  0
CIRCLE
  5
38
330
17
100
AcDbEntity
  8
etch
100
AcDbCircle
 10
-3750.0
 20
6495.190528383289
 30
0.0
 40
5.0
  0
CIRCLE
  5
39
330
17
100
AcDbEntity
  8
metal
100
AcDbCircle
 10
-1250.0
 20
6495.190528383289
 30
0.0
 40
25.0
  0
CIRCLE
  5
3A
330
17
100
AcDbEntity
  8
etch
100
AcDbCircle
 10
-1250.0
 20
6495.190528383289
 30
0.0
 40
5.0
  0
CIRCLE
  5
3B
330
17
100
AcDbEntity
  8
metal
100
AcDbCircle
 10
1250.0
 20
6495.190528383289
 30
0.0
 40
25.0
  0
CIRCLE
  5
3C
330
17
100
AcDbEntity
  8
etch
100
AcDbCircle
 10
1250.0
 20
6495.190528383289
 30
0.0
 40
5.0
  0
CIRCLE
  5
3D
330
17
100
AcDbEntity
  8
metal
100
AcDbCircle
 10
3750.0
 20
6495.190528383289
 30
0.0
 40
25.0
  0
CIRCLE
  5
3E
330
17
100
AcDbEntity
  8
etch
100
AcDbCircle
 10
3750.0
 20
6495.190528383289
 30
0.0
 40
5.0
  0
CIRCLE
  5
3F
330
17
100
AcDbEntity
  8
metal
100
AcDbCircle
 10
-5000.0
 20
4330.127018922193
 30
0.0
 40
25.0
  0
CIRCLE
  5
40
330
17
100
AcDbEntity
  8
etch
100
AcDbCircle
 10
-5000.0
 20
4330.127018922193
 30
0.0
 40
5.0
  0
CIRCLE
  5
41
330
17
100
AcDbEntity
  8
metal
100
AcDbCircle
 10
-2500.0
 20
4330.127018922193
 30
0.0
 40
25.0
  0
CIRCLE
  5
42
330
17
100
AcDbEntity
  8
etch
100
AcDbCircle
 10
-2500.0
 20
4330.127018922193
 30
0.0
 40
5.0
  0
CIRCLE
  5
43
330
17
100
AcDbEntity
  8
metal
100
AcDbCircle
 10
0.0
 20
4330.127018922193
 30
0.0
 40
25.0
  0
CIRCLE
  5
44
330
17
100
AcDbEntity
  8
etch
100
AcDbCircle
 10
0.0
 20
4330.127018922193
 30
0.0
 40
5.0
  0
CIRCLE
  5
45
330
17
100
AcDbEntity
  8
metal
100
AcDbCircle
 10
2500.0
 20
4330.127018922193
 30
0.0
 40
25.0
  0
CIRCLE
  5
46
330
17
100
AcDbEntity
  8
etch
100
AcDbCircle
 10
2500.0
 20
4330.127018922193
 30
0.0
 40
5.0
  0
CIRCLE
  5
47
330
17
100
AcDbEntity
  8
metal
100
AcDbCircle
 10
5000.0
 20
4330.127018922193
 30
0.0
 40
25.0
  0
CIRCLE
  5
48
330
17
100
AcDbEntity
  8
etch
100
AcDbCircle
 10
5000.0
 20
4330.127018922193
 30
0.0
 40
5.0
  0
CIRCLE
  5
49
330
17
100
AcDbEntity
  8
metal
100
AcDbCircle
 10
-6250.0
 20
2165.063509461097
 30
0.0
 40
25.0
  0
CIRCLE
  5
4A
330
17
100
AcDbEntity
  8
etch
100
AcDbCircle
 10
-6250.0
 20
2165.063509461097
 30
0.0
 40
5.0
  0
CIRCLE
  5
4B
330
17
100
AcDbEntity
  8
metal
100
AcDbCircle
 10
-3750.0
 20
2165.063509461097
 30
0.0
 40
25.0
  0
CIRCLE
  5
4C
330
17
100
AcDbEntity
  8
etch
100
AcDbCircle
 10
-3750.0
 20
2165.063509461097
 30
0.0
 40
5.0
  0
CIRCLE
  5
4D
330
17
100
AcDbEntity
  8
metal
100
AcDbCircle
 10
-1250.0
 20
2165.063509461097
 30
0.0
 40
25.0
  0
CIRCLE
  5
4E
330
17
100
AcDbEntity
  8
etch
100
AcDbCircle
 10
-1250.0
 20
2165.063509461097
 30
0.0
 40
5.0
  0
CIRCLE
  5
4F
330
17
100
AcDbEntity
  8
metal
100
AcDbCircle
 10
1250.0
 20
2165.063509461097
 30
0.0
 40
25.0
  0
CIRCLE
  5
50
330
17
100
AcDbEntity
  8
etch
100
AcDbCircle
 10
1250.0
 20
2165.063509461097
 30
0.0
 40
5.0
  0
CIRCLE
  5
51
330
17
100
AcDbEntity
  8
metal
100
AcDbCircle
 10
3750.0
 20
2165.063509461097
 30
0.0
 40
25.0
  0
CIRCLE
  5
52
330
17
100
AcDbEntity
  8
etch
100
AcDbCircle
 10
3750.0
 20
2165.063509461097
 30
0.0
 40
5.0
  0
CIRCLE
  5
53
330
17
100
AcDbEntity
  8
metal
100
AcDbCircle
 10
6250.0
 20
2165.063509461097
 30
0.0
 40
25.0
  0
CIRCLE
  5
54
330
17
100
AcDbEntity
  8
etch
100
AcDbCircle
 10
6250.0
 20
2165.063509461097
 30
0.0
 40
5.0
  0
CIRCLE
  5
55
330
17
100
AcDbEntity
  8
metal
100
AcDbCircle
 10
-7500.0
 20
0.0
 30
0.0
 40
25.0
  0
CIRCLE
  5
56
330
17
100
AcDbEntity
  8
etch
100
AcDbCircle
 10
-7500.0
 20
0.0
 30
0.0
 40
5.0
  0
CIRCLE
  5
57
330
17
100
AcDbEntity
  8
metal
100
AcDbCircle
 10
-5000.0
 20
0.0
 30
0.0
 40
25.0
  0
CIRCLE
  5
58
330
17
100
AcDbEntity
  8
etch
100
AcDbCircle
 10
-5000.0
 20
0.0
 30
0.0
 40
5.0
  0
CIRCLE
  5
59
330
17
100
AcDbEntity
  8
metal
100
AcDbCircle
 10
-2500.0
 20
0.0
 30
0.0
 40
25.0
  0
CIRCLE
  5
5A
330
17
100
AcDbEntity
  8
etch
100
AcDbCircle
 10
-2500.0
 20
0.0
 30
0.0
 40
5.0
  0
CIRCLE
  5
5B
330
17
100
AcDbEntity
  8
metal
100
AcDbCircle
 10
0.0
 20
0.0
 30
0.0
 40
25.0
  0
CIRCLE
  5
5C
330
17
100
AcDbEntity
  8
etch
100
AcDbCircle
 10
0.0
 20
0.0
 30
0.0
 40
5.0
  0
CIRCLE
  5
5D
330
17
100
AcDbEntity
  8
metal
100
AcDbCircle
 10
2500.0
 20
0.0
 30
0.0
 40
25.0
  0
CIRCLE
  5
5E
330
17
100
AcDbEntity
  8
etch
100
AcDbCircle
 10
2500.0
 20
0.0
 30
0.0
 40
5.0
  0
CIRCLE
  5
5F
330
17
100
AcDbEntity
  8
metal
100
AcDbCircle
 10
5000.0
 20
0.0
 30
0.0
 40
25.0
  0
CIRCLE
  5
60
330
17
100
AcDbEntity
  8
etch
100
AcDbCircle
 10
5000.0
 20
0.0
 30
0.0
 40
5.0
  0
CIRCLE
  5
61
330
17
100
AcDbEntity
  8
metal
100
AcDbCircle
 10
7500.0
 20
0.0
 30
0.0
 40
25.0
  0
CIRCLE
  5
62
330
17
100
AcDbEntity
  8
etch
100
AcDbCircle
 10
7500.0
 20
0.0
 30
0.0
 40
5.0
  0
CIRCLE
  5
63
330
17
100
AcDbEntity
  8
metal
100
AcDbCircle
 10
-6250.0
 20
-2165.063509461097
 30
0.0
 40
25.0
  0
CIRCLE
  5
64
330
17
100
AcDbEntity
  8
etch
100
AcDbCircle
 10
-6250.0
 20
-2165.063509461097
 30
0.0
 40
5.0
  0
CIRCLE
  5
65
330
17
100
AcDbEntity
  8
metal
100
AcDbCircle
 10
-3750.0
 20
-2165.063509461097
 30
0.0
 40
25.0
  0
CIRCLE
  5
66
330
17
100
AcDbEntity
  8
etch
100
AcDbCircle
 10
-3750.0
 20
-2165.063509461097
 30
0.0
 40
5.0
  0
CIRCLE
  5
67
330
17
100
AcDbEntity
  8
metal
100
AcDbCircle
 10
-1250.0
 20
-2165.063509461097
 30
0.0
 40
25.0
  0
CIRCLE
  5
68
330
17
100
AcDbEntity
  8
etch
100
AcDbCircle
 10
-1250.0
 20
-2165.063509461097
 30
0.0
 40
5.0
  0
CIRCLE
  5
69
330
17
100
AcDbEntity
  8
metal
100
AcDbCircle
 10
1250.0
 20
-2165.063509461097
 30
0.0
 40
25.0
  0
CIRCLE
  5
6A
330
17
100
AcDbEntity
  8
etch
100
AcDbCircle
 10
1250.0
 20
-2165.063509461097
 30
0.0
 40
5.0
  0
CIRCLE
  5
6B
330
17
100
AcDbEntity
  8
metal
100
AcDbCircle
 10
3750.0
 20
-2165.063509461097
 30
0.0
 40
25.0
  0
CIRCLE
  5
6C
330
17
100
AcDbEntity
  8
etch
100
AcDbCircle
 10
3750.0
 20
-2165.063509461097
 30
0.0
 40
5.0
  0
CIRCLE
  5
6D
330
17
100
AcDbEntity
  8
metal
100
AcDbCircle
 10
6250.0
 20
-2165.063509461097
 30
0.0
 40
25.0
  0
CIRCLE
  5
6E
330
17
100
AcDbEntity
  8
etch
100
AcDbCircle
 10
6250.0
 20
-2165.063509461097
 30
0.0
 40
5.0
  0
CIRCLE
  5
6F
330
17
100
AcDbEntity
  8
metal
100
AcDbCircle
 10
-5000.0
 20
-4330.127018922193
 30
0.0
 40
25.0
  0
CIRCLE
  5
70
330
17
100
AcDbEntity
  8
etch
100
AcDbCircle
 10
-5000.0
 20
-4330.127018922193
 30
0.0
 40
5.0
  0
CIRCLE
  5
71
330
17
100
AcDbEntity
  8
metal
100
AcDbCircle
 10
-2500.0
 20
-4330.127018922193
 30
0.0
 40
25.0
  0
CIRCLE
  5
72
330
17
100
AcDbEntity
  8
etch
100
AcDbCircle
 10
-2500.0
 20
-4330.127018922193
 30
0.0
 40
5.0
  0
CIRCLE
  5
73
330
17
100
AcDbEntity
  8
metal
100
AcDbCircle
 10
0.0
 20
-4330.127018922193
 30
0.0
 40
25.0
  0
CIRCLE
  5
74
330
17
100
AcDbEntity
  8
etch
100
AcDbCircle
 10
0.0
 20
-4330.127018922193
 30
0.0
 40
5.0
  0
CIRCLE
  5
75
330
17
100
AcDbEntity
  8
metal
100
AcDbCircle
 10
2500.0
 20
-4330.127018922193
 30
0.0
 40
25.0
  0
CIRCLE
  5
76
330
17
100
AcDbEntity
  8
etch
100
AcDbCircle
 10
2500.0
 20
-4330.127018922193
 30
0.0
 40
5.0
  0
CIRCLE
  5
77
330
17
100
AcDbEntity
  8
metal
100
AcDbCircle
 10
5000.0
 20
-4330.127018922193
 30
0.0
 40
25.0
  0
CIRCLE
  5
78
330
17
100
AcDbEntity
  8
etch
100
AcDbCircle
 10
5000.0
 20
-4330.127018922193
 30
0.0
 40
5.0
  0
CIRCLE
  5
79
330
17
100
AcDbEntity
  8
metal
100
AcDbCircle
 10
-3750.0
 20
-6495.190528383289
 30
0.0
 40
25.0
  0
CIRCLE
  5
7A
330
17
100
AcDbEntity
  8
etch
100
AcDbCircle
 10
-3750.0
 20
-6495.190528383289
 30
0.0
 40
5.0
  0
CIRCLE
  5
7B
330
17
100
AcDbEntity
  8
metal
100
AcDbCircle
 10
-1250.0
 20
-6495.190528383289
 30
0.0
 40
25.0
  0
CIRCLE
  5
7C
330
17
100
AcDbEntity
  8
etch
100
AcDbCircle
 10
-1250.0
 20
-6495.190528383289
 30
0.0
 40
5.0
  0
CIRCLE
  5
7D
330
17
100
AcDbEntity
  8
metal
100
AcDbCircle
 10
1250.0
 20
-6495.190528383289
 30
0.0
 40
25.0
  0
CIRCLE
  5
7E
330
17
100
AcDbEntity
  8
etch
100
AcDbCircle
 10
1250.0
 20
-6495.190528383289
 30
0.0
 40
5.0
  0
CIRCLE
  5
7F
330
17
100
AcDbEntity
  8
metal
100
AcDbCircle
 10
3750.0
 20
-6495.190528383289
 30
0.0
 40
25.0
  0
CIRCLE
  5
80
330
17
100
AcDbEntity
  8
etch
100
AcDbCircle
 10
3750.0
 20
-6495.190528383289
 30
0.0
 40
5.0
  0
LWPOLYLINE
  5
84
330
17
100
AcDbEntity
  8
metal
100
AcDbPolyline
 90
        2
 70
     0
 43
10.0
 10
-3750.0
 20
6495.190528383289
 10
-3750.0
 20
6495.190528383289
  0
LWPOLYLINE
  5
89
330
17
100
AcDbEntity
  8
metal
100
AcDbPolyline
 90
        2
 70
     0
 43
10.0
 10
5000.0
 20
4330.127018922193
 10
5000.0
 20
4330.127018922193
  0
LWPOLYLINE
  5
8F
330
17
100
AcDbEntity
  8
metal
100
AcDbPolyline
 90
        2
 70
     0
 43
10.0
 10
-6250.0
 20
2165.063509461097
 10
-6250.0
 20
2165.063509461097
  0
LWPOLYLINE
  5
96
330
17
100
AcDbEntity
  8
metal
100
AcDbPolyline
 90
        2
 70
     0
 43
10.0
 10
7500.0
 20
0.0
 10
7500.0
 20
0.0
  0
LWPOLYLINE
  5
9C
330
17
100
AcDbEntity
  8
metal
100
AcDbPolyline
 90
        2
 70
     0
 43
10.0
 10
-6250.0
 20
-2165.063509461097
 10
-6250.0
 20
-2165.063509461097
  0
LWPOLYLINE
  5
A1
330
17
100
AcDbEntity
  8
metal
100
AcDbPolyline
 90
        2
 70
     0
 43
10.0
 10
5000.0
 20
-4330.127018922193
 10
5000.0
 20
-4330.127018922193
  0
LWPOLYLINE
  5
A5
330
17
100
AcDbEntity
  8
metal
100
AcDbPolyline
 90
        2
 70
     0
 43
10.0
 10
-3750.0
 20
-6495.190528383289
 10
-3750.0
 20
-6495.190528383289
  0
POLYLINE
  5
13C
330
17
100
AcDbEntity
  8
metal
100
AcDb2dPolyline
 66
     1
 10
0.0
 20
0.0
 30
0.0
 70
     1
  0
VERTEX
  5
13E
330
13C
100
AcDbEntity
  8
metal
100
AcDbVertex
100
AcDb2dVertex
 10
27305.25403784439
 20
2730.0
 30
0.0
  0
VERTEX
  5
13F
330
13C
100
AcDbEntity
  8
metal
100
AcDbVertex
100
AcDb2dVertex
 10
27665.25403784439
 20
2730.0
 30
0.0
  0
VERTEX
  5
140
330
13C
100
AcDbEntity
  8
metal
100
AcDbVertex
100
AcDb2dVertex
 10
27665.25403784439
 20
2370.0
 30
0.0
  0
VERTEX
  5
141
330
13C
100
AcDbEntity
  8
metal
100
AcDbVertex
100
AcDb2dVertex
 10
27305.25403784439
 20
2370.0
 30
0.0
  0
VERTEX
  5
142
330
13C
100
AcDbEntity
  8
metal
100
AcDbVertex
100
AcDb2dVertex
 10
27305.25403784439
 20
2730.0
 30
0.0
  0
SEQEND
  5
13D
330
13C
100
AcDbEntity
  8
metal
  0
POLYLINE
  5
143
330
17
100
AcDbEntity
  8
metal
100
AcDb2dPolyline
 66
     1
 10
0.0
 20
0.0
 30
0.0
 70
     1
  0
VERTEX
  5
145
330
143
100
AcDbEntity
  8
metal
100
AcDbVertex
100
AcDb2dVertex
 10
-27665.25403784439
 20
2730.0
 30
0.0
  0
VERTEX
  5
146
330
143
100
AcDbEntity
  8
metal
100
AcDbVertex
100
AcDb2dVertex
 10
-27305.25403784439
 20
2730.0
 30
0.0
  0
VERTEX
  5
147
330
143
100
AcDbEntity
  8
metal
100
AcDbVertex
100
AcDb2dVertex
 10
-27305.25403784439
 20
2370.0
 30
0.0
  0
VERTEX
  5
148
330
143
100
AcDbEntity
  8
metal
100
AcDbVertex
100
AcDb2dVertex
 10
-27665.25403784439
 20
2370.0
 30
0.0
  0
VERTEX
  5
149
330
143
100
AcDbEntity
  8
metal
100
AcDbVertex
100
AcDb2dVertex
 10
-27665.25403784439
 20
2730.0
 30
0.0
  0
SEQEND
  5
144
330
143
100
AcDbEntity
  8
metal
  0
POLYLINE
  5
14A
330
17
100
AcDbEntity
  8
etch
100
AcDb2dPolyline
 66
     1
 10
0.0
 20
0.0
 30
0.0
 70
     1
  0
VERTEX
  5
14C
330
14A
100
AcDbEntity
  8
etch
100
AcDbVertex
100
AcDb2dVertex
 10
27310.25403784439
 20
2725.0
 30
0.0
  0
VERTEX
  5
14D
330
14A
100
AcDbEntity
  8
etch
100
AcDbVertex
100
AcDb2dVertex
 10
27660.25403784439
 20
2725.0
 30
0.0
  0
VERTEX
  5
14E
330
14A
100
AcDbEntity
  8
etch
100
AcDbVertex
100
AcDb2dVertex
 10
27660.25403784439
 20
2375.0
 30
0.0
  0
VERTEX
  5
14F
330
14A
100
AcDbEntity
  8
etch
100
AcDbVertex
100
AcDb2dVertex
 10
27310.25403784439
 20
2375.0
 30
0.0
  0
VERTEX
  5
150
330
14A
100
AcDbEntity
  8
etch
100
AcDbVertex
100
AcDb2dVertex
 10
27310.25403784439
 20
2725.0
 30
0.0
  0
SEQEND
  5
14B
330
14A
100
AcDbEntity
  8
etch
  0
POLYLINE
  5
151
330
17
100
AcDbEntity
  8
etch
100
AcDb2dPolyline
 66
     1
 10
0.0
 20
0.0
 30
0.0
 70
     1
  0
VERTEX
  5
153
330
151
100
AcDbEntity
  8
etch
100
AcDbVertex
100
AcDb2dVertex
 10
-27660.25403784439
 20
2725.0
 30
0.0
  0
VERTEX
  5
154
330
151
100
AcDbEntity
  8
etch
100
AcDbVertex
100
AcDb2dVertex
 10
-27310.25403784439
 20
2725.0
 30
0.0
  0
VERTEX
  5
155
330
151
100
AcDbEntity
  8
etch
100
AcDbVertex
100
AcDb2dVertex
 10
-27310.25403784439
 20
2375.0
 30
0.0
  0
VERTEX
  5
156
330
151
100
AcDbEntity
  8
etch
100
AcDbVertex
100
AcDb2dVertex
 10
-27660.25403784439
 20
2375.0
 30
0.0
  0
VERTEX
  5
157
330
151
100
AcDbEntity
  8
etch
100
AcDbVertex
100
AcDb2dVertex
 10
-27660.25403784439
 20
2725.0
 30
0.0
  0
SEQEND
  5
152
330
151
100
AcDbEntity
  8
etch
  0
POLYLINE
  5
158
330
17
100
AcDbEntity
  8
metal
100
AcDb2dPolyline
 66
     1
 10
0.0
 20
0.0
 30
0.0
 70
     1
  0
VERTEX
  5
15A
330
158
100
AcDbEntity
  8
metal
100
AcDbVertex
100
AcDb2dVertex
 10
26605.25403784439
 20
2730.0
 30
0.0
  0
VERTEX
  5
15B
330
158
100
AcDbEntity
  8
metal
100
AcDbVertex
100
AcDb2dVertex
 10
26965.25403784439
 20
2730.0
 30
0.0
  0
VERTEX
  5
15C
330
158
100
AcDbEntity
  8
metal
100
AcDbVertex
100
AcDb2dVertex
 10
26965.25403784439
 20
2370.0
 30
0.0
  0
VERTEX
  5
15D
330
158
100
AcDbEntity
  8
metal
100
AcDbVertex
100
AcDb2dVertex
 10
26605.25403784439
 20
2370.0
 30
0.0
  0
VERTEX
  5
15E
330
158
100
AcDbEntity
  8
metal
100
AcDbVertex
100
AcDb2dVertex
 10
26605.25403784439
 20
2730.0
 30
0.0
  0
SEQEND
  5
159
330
158
100
AcDbEntity
  8
metal
  0
POLYLINE
  5
15F
330
17
100
AcDbEntity
  8
metal
100
AcDb2dPolyline
 66
     1
 10
0.0
 20
0.0
 30
0.0
 70
     1
  0
VERTEX
  5
161
330
15F
100
AcDbEntity
  8
metal
100
AcDbVertex
100
AcDb2dVertex
 10
-26965.25403784439
 20
2730.0
 30
0.0
  0
VERTEX
  5
162
330
15F
100
AcDbEntity
  8
metal
100
AcDbVertex
100
AcDb2dVertex
 10
-26605.25403784439
 20
2730.0
 30
0.0
  0
VERTEX
  5
163
330
15F
100
AcDbEntity
  8
metal
100
AcDbVertex
100
AcDb2dVertex
 10
-26605.25403784439
 20
2370.0
 30
0.0
  0
VERTEX
  5
164
330
15F
100
AcDbEntity
  8
metal
100
AcDbVertex
100
AcDb2dVertex
 10
-26965.25403784439
 20
2370.0
 30
0.0
  0
VERTEX
  5
165
330
15F
100
AcDbEntity
  8
metal
100
AcDbVertex
100
AcDb2dVertex
 10
-26965.25403784439
 20
2730.0
 30
0.0
  0
SEQEND
  5
160
330
15F
100
AcDbEntity
  8
metal
  0
POLYLINE
  5
166
330
17
100
AcDbEntity
  8
etch
100
AcDb2dPolyline
 66
     1
 10
0.0
 20
0.0
 30
0.0
 70
     1
  0
VERTEX
  5
168
330
166
100
AcDbEntity
  8
etch
100
AcDbVertex
100
AcDb2dVertex
 10
26610.25403784439
 20
2725.0
 30
0.0
  0
VERTEX
  5
169
330
166
100
AcDbEntity
  8
etch
100
AcDbVertex
100
AcDb2dVertex
 10
26960.25403784439
 20
2725.0
 30
0.0
  0
VERTEX
  5
16A
330
166
100
AcDbEntity
  8
etch
100
AcDbVertex
100
AcDb2dVertex
 10
26960.25403784439
 20
2375.0
 30
0.0
  0
VERTEX
  5
16B
330
166
100
AcDbEntity
  8
etch
100
AcDbVertex
100
AcDb2dVertex
 10
26610.25403784439
 20
2375.0
 30
0.0
  0
VERTEX
  5
16C
330
166
100
AcDbEntity
  8
etch
100
AcDbVertex
100
AcDb2dVertex
 10
26610.25403784439
 20
2725.0
 30
0.0
  0
SEQEND
  5
167
330
166
100
AcDbEntity
  8
etch
  0
POLYLINE
  5
16D
330
17
100
AcDbEntity
  8
etch
100
AcDb2dPolyline
 66
     1
 10
0.0
 20
0.0
 30
0.0
 70
     1
  0
VERTEX
  5
16F
330
16D
100
AcDbEntity
  8
etch
100
AcDbVertex
100
AcDb2dVertex
 10
-26960.25403784439
 20
2725.0
 30
0.0
  0
VERTEX
  5
170
330
16D
100
AcDbEntity
  8
etch
100
AcDbVertex
100
AcDb2dVertex
 10
-26610.25403784439
 20
2725.0
 30
0.0
  0
VERTEX
  5
171
330
16D
100
AcDbEntity
  8
etch
100
AcDbVertex
100
AcDb2dVertex
 10
-26610.25403784439
 20
2375.0
 30
0.0
  0
VERTEX
  5
172
330
16D
100
AcDbEntity
  8
etch
100
AcDbVertex
100
AcDb2dVertex
 10
-26960.25403784439
 20
2375.0
 30
0.0
  0
VERTEX
  5
173
330
16D
100
AcDbEntity
  8
etch
100
AcDbVertex
100
AcDb2dVertex
 10
-26960.25403784439
 20
2725.0
 30
0.0
  0
SEQEND
  5
16E
330
16D
100
AcDbEntity
  8
etch
  0
POLYLINE
  5
174
330
17
100
AcDbEntity
  8
metal
100
AcDb2dPolyline
 66
     1
 10
0.0
 20
0.0
 30
0.0
 70
     1
  0
VERTEX
  5
176
330
174
100
AcDbEntity
  8
metal
100
AcDbVertex
100
AcDb2dVertex
 10
25905.25403784439
 20
2730.0
 30
0.0
  0
VERTEX
  5
177
330
174
100
AcDbEntity
  8
metal
100
AcDbVertex
100
AcDb2dVertex
 10
26265.25403784439
 20
2730.0
 30
0.0
  0
VERTEX
  5
178
330
174
100
AcDbEntity
  8
metal
100
AcDbVertex
100
AcDb2dVertex
 10
26265.25403784439
 20
2370.0
 30
0.0
  0
VERTEX
  5
179
330
174
100
AcDbEntity
  8
metal
100
AcDbVertex
100
AcDb2dVertex
 10
25905.25403784439
 20
2370.0
 30
0.0
  0
VERTEX
  5
17A
330
174
100
AcDbEntity
  8
metal
100
AcDbVertex
100
AcDb2dVertex
 10
25905.25403784439
 20
2730.0
 30
0.0
  0
SEQEND
  5
175
330
174
100
AcDbEntity
  8
metal
  0
POLYLINE
  5
17B
330
17
100
AcDbEntity
  8
metal
100
AcDb2dPolyline
 66
     1
 10
0.0
 20
0.0
 30
0.0
 70
     1
  0
VERTEX
  5
17D
330
17B
100
AcDbEntity
  8
metal
100
AcDbVertex
100
AcDb2dVertex
 10
-26265.25403784439
 20
2730.0
 30
0.0
  0
VERTEX
  5
17E
330
17B
100
AcDbEntity
  8
metal
100
AcDbVertex
100
AcDb2dVertex
 10
-25905.25403784439
 20
2730.0
 30
0.0
  0
VERTEX
  5
17F
330
17B
100
AcDbEntity
  8
metal
100
AcDbVertex
100
AcDb2dVertex
 10
-25905.25403784439
 20
2370.0
 30
0.0
  0
VERTEX
  5
180
330
17B
100
AcDbEntity
  8
metal
100
AcDbVertex
100
AcDb2dVertex
 10
-26265.25403784439
 20
2370.0
 30
0.0
  0
VERTEX
  5
181
330
17B
100
AcDbEntity
  8
metal
100
AcDbVertex
100
AcDb2dVertex
 10
-26265.25403784439
 20
2730.0
 30
0.0
  0
SEQEND
  5
17C
330
17B
100
AcDbEntity
  8
metal
  0
POLYLINE
  5
182
330
17
100
AcDbEntity
  8
etch
100
AcDb2dPolyline
 66
     1
 10
0.0
 20
0.0
 30
0.0
 70
     1
  0
VERTEX
  5
184
330
182
100
AcDbEntity
  8
etch
100
AcDbVertex
100
AcDb2dVertex
 10
25910.25403784439
 20
2725.0
 30
0.0
  0
VERTEX
  5
185
330
182
100
AcDbEntity
  8
etch
100
AcDbVertex
100
AcDb2dVertex
 10
26260.25403784439
 20
2725.0
 30
0.0
  0
VERTEX
  5
186
330
182
100
AcDbEntity
  8
etch
100
AcDbVertex
100
AcDb2dVertex
 10
26260.25403784439
 20
2375.0
 30
0.0
  0
VERTEX
  5
187
330
182
100
AcDbEntity
  8
etch
100
AcDbVertex
100
AcDb2dVertex
 10
25910.25403784439
 20
2375.0
 30
0.0
  0
VERTEX
  5
188
330
182
100
AcDbEntity
  8
etch
100
AcDbVertex
100
AcDb2dVertex
 10
25910.25403784439
 20
2725.0
 30
0.0
  0
SEQEND
  5
183
330
182
100
AcDbEntity
  8
etch
  0
POLYLINE
  5
189
330
17
100
AcDbEntity
  8
etch
100
AcDb2dPolyline
 66
     1
 10
0.0
 20
0.0
 30
0.0
 70
     1
  0
VERTEX
  5
18B
330
189
100
AcDbEntity
  8
etch
100
AcDbVertex
100
AcDb2dVertex
 10
-26260.25403784439
 20
2725.0
 30
0.0
  0
VERTEX
  5
18C
330
189
100
AcDbEntity
  8
etch
100
AcDbVertex
100
AcDb2dVertex
 10
-25910.25403784439
 20
2725.0
 30
0.0
  0
VERTEX
  5
18D
330
189
100
AcDbEntity
  8
etch
100
AcDbVertex
100
AcDb2dVertex
 10
-25910.25403784439
 20
2375.0
 30
0.0
  0
VERTEX
  5
18E
330
189
100
AcDbEntity
  8
etch
100
AcDbVertex
100
AcDb2dVertex
 10
-26260.25403784439
 20
2375.0
 30
0.0
  0
VERTEX
  5
18F
330
189
100
AcDbEntity
  8
etch
100
AcDbVertex
100
AcDb2dVertex
 10
-26260.25403784439
 20
2725.0
 30
0.0
  0
SEQEND
  5
18A
330
189
100
AcDbEntity
  8
etch
  0
POLYLINE
  5
190
330
17
100
AcDbEntity
  8
metal
100
AcDb2dPolyline
 66
     1
 10
0.0
 20
0.0
 30
0.0
 70
     1
  0
VERTEX
  5
192
330
190
100
AcDbEntity
  8
metal
100
AcDbVertex
100
AcDb2dVertex
 10
25205.25403784439
 20
2730.0
 30
0.0
  0
VERTEX
  5
193
330
190
100
AcDbEntity
  8
metal
100
AcDbVertex
100
AcDb2dVertex
 10
25565.25403784439
 20
2730.0
 30
0.0
  0
VERTEX
  5
194
330
190
100
AcDbEntity
  8
metal
100
AcDbVertex
100
AcDb2dVertex
 10
25565.25403784439
 20
2370.0
 30
0.0
  0
VERTEX
  5
195
330
190
100
AcDbEntity
  8
metal
100
AcDbVertex
100
AcDb2dVertex
 10
25205.25403784439
 20
2370.0
 30
0.0
  0
VERTEX
  5
196
330
190
100
AcDbEntity
  8
metal
100
AcDbVertex
100
AcDb2dVertex
 10
25205.25403784439
 20
2730.0
 30
0.0
  0
SEQEND
  5
191
330
190
100
AcDbEntity
  8
metal
  0
POLYLINE
  5
197
330
17
100
AcDbEntity
  8
metal
100
AcDb2dPolyline
 66
     1
 10
0.0
 20
0.0
 30
0.0
 70
     1
  0
VERTEX
  5
199
330
197
100
AcDbEntity
  8
metal
100
AcDbVertex
100
AcDb2dVertex
 10
-25565.25403784439
 20
2730.0
 30
0.0
  0
VERTEX
  5
19A
330
197
100
AcDbEntity
  8
metal
100
AcDbVertex
100
AcDb2dVertex
 10
-25205.25403784439
 20
2730.0
 30
0.0
  0
VERTEX
  5
19B
330
197
100
AcDbEntity
  8
metal
100
AcDbVertex
100
AcDb2dVertex
 10
-25205.25403784439
 20
2370.0
 30
0.0
  0
VERTEX
  5
19C
330
197
100
AcDbEntity
  8
metal
100
AcDbVertex
100
AcDb2dVertex
 10
-25565.25403784439
 20
2370.0
 30
0.0
  0
VERTEX
  5
19D
330
197
100
AcDbEntity
  8
metal
100
AcDbVertex
100
AcDb2dVertex
 10
-25565.25403784439
 20
2730.0
 30
0.0
  0
SEQEND
  5
198
330
197
100
AcDbEntity
  8
metal
  0
POLYLINE
  5
19E
330
17
100
AcDbEntity
  8
etch
100
AcDb2dPolyline
 66
     1
 10
0.0
 20
0.0
 30
0.0
 70
     1
  0
VERTEX
  5
1A0
330
19E
100
AcDbEntity
  8
etch
100
AcDbVertex
100
AcDb2dVertex
 10
25210.25403784439
 20
2725.0
 30
0.0
  0
VERTEX
  5
1A1
330
19E
100
AcDbEntity
  8
etch
100
AcDbVertex
100
AcDb2dVertex
 10
25560.25403784439
 20
2725.0
 30
0.0
  0
VERTEX
  5
1A2
330
19E
100
AcDbEntity
  8
etch
100
AcDbVertex
100
AcDb2dVertex
 10
25560.25403784439
 20
2375.0
 30
0.0
  0
VERTEX
  5
1A3
330
19E
100
AcDbEntity
  8
etch
100
AcDbVertex
100
AcDb2dVertex
 10
25210.25403784439
 20
2375.0
 30
0.0
  0
VERTEX
  5
1A4
330
19E
100
AcDbEntity
  8
etch
100
AcDbVertex
100
AcDb2dVertex
 10
25210.25403784439
 20
2725.0
 30
0.0
  0
SEQEND
  5
19F
330
19E
100
AcDbEntity
  8
etch
  0
POLYLINE
  5
1A5
330
17
100
AcDbEntity
  8
etch
100
AcDb2dPolyline
 66
     1
 10
0.0
 20
0.0
 30
0.0
 70
     1
  0
VERTEX
  5
1A7
330
1A5
100
AcDbEntity
  8
etch
100
AcDbVertex
100
AcDb2dVertex
 10
-25560.25403784439
 20
2725.0
 30
0.0
  0
VERTEX
  5
1A8
330
1A5
100
AcDbEntity
  8
etch
100
AcDbVertex
100
AcDb2dVertex
 10
-25210.25403784439
 20
2725.0
 30
0.0
  0
VERTEX
  5
1A9
330
1A5
100
AcDbEntity
  8
etch
100
AcDbVertex
100
AcDb2dVertex
 10
-25210.25403784439
 20
2375.0
 30
0.0
  0
VERTEX
  5
1AA
330
1A5
100
AcDbEntity
  8
etch
100
AcDbVertex
100
AcDb2dVertex
 10
-25560.25403784439
 20
2375.0
 30
0.0
  0
VERTEX
  5
1AB
330
1A5
100
AcDbEntity
  8
etch
100
AcDbVertex
100
AcDb2dVertex
 10
-25560.25403784439
 20
2725.0
 30
0.0
  0
SEQEND
  5
1A6
330
1A5
100
AcDbEntity
  8
etch
  0
POLYLINE
  5
1AC
330
17
100
AcDbEntity
  8
metal
100
AcDb2dPolyline
 66
     1
 10
0.0
 20
0.0
 30
0.0
 70
     1
  0
VERTEX
  5
1AE
330
1AC
100
AcDbEntity
  8
metal
100
AcDbVertex
100
AcDb2dVertex
 10
27305.25403784439
 20
1030.0
 30
0.0
  0
VERTEX
  5
1AF
330
1AC
100
AcDbEntity
  8
metal
100
AcDbVertex
100
AcDb2dVertex
 10
27665.25403784439
 20
1030.0
 30
0.0
  0
VERTEX
  5
1B0
330
1AC
100
AcDbEntity
  8
metal
100
AcDbVertex
100
AcDb2dVertex
 10
27665.25403784439
 20
670.0
 30
0.0
  0
VERTEX
  5
1B1
330
1AC
100
AcDbEntity
  8
metal
100
AcDbVertex
100
AcDb2dVertex
 10
27305.25403784439
 20
670.0
 30
0.0
  0
VERTEX
  5
1B2
330
1AC
100
AcDbEntity
  8
metal
100
AcDbVertex
100
AcDb2dVertex
 10
27305.25403784439
 20
1030.0
 30
0.0
  0
SEQEND
  5
1AD
330
1AC
100
AcDbEntity
  8
metal
  0
POLYLINE
  5
1B3
330
17
100
AcDbEntity
  8
metal
100
AcDb2dPolyline
 66
     1
 10
0.0
 20
0.0
 30
0.0
 70
     1
  0
VERTEX
  5
1B5
330
1B3
100
AcDbEntity
  8
metal
100
AcDbVertex
100
AcDb2dVertex
 10
-27665.25403784439
 20
1030.0
 30
0.0
  0
VERTEX
  5
1B6
330
1B3
100
AcDbEntity
  8
metal
100
AcDbVertex
100
AcDb2dVertex
 10
-27305.25403784439
 20
1030.0
 30
0.0
  0
VERTEX
  5
1B7
330
1B3
100
AcDbEntity
  8
metal
100
AcDbVertex
100
AcDb2dVertex
 10
-27305.25403784439
 20
670.0
 30
0.0
  0
VERTEX
  5
1B8
330
1B3
100
AcDbEntity
  8
metal
100
AcDbVertex
100
AcDb2dVertex
 10
-27665.25403784439
 20
670.0
 30
0.0
  0
VERTEX
  5
1B9
330
1B3
100
AcDbEntity
  8
metal
100
AcDbVertex
100
AcDb2dVertex
 10
-27665.25403784439
 20
1030.0
 30
0.0
  0
SEQEND
  5
1B4
330
1B3
100
AcDbEntity
  8
metal
  0
POLYLINE
  5
1BA
330
17
100
AcDbEntity
  8
etch
100
AcDb2dPolyline
 66
     1
 10
0.0
 20
0.0
 30
0.0
 70
     1
  0
VERTEX
  5
1BC
330
1BA
100
AcDbEntity
  8
etch
100
AcDbVertex
100
AcDb2dVertex
 10
27310.25403784439
 20
1025.0
 30
0.0
  0
VERTEX
  5
1BD
330
1BA
100
AcDbEntity
  8
etch
100
AcDbVertex
100
AcDb2dVertex
 10
27660.25403784439
 20
1025.0
 30
0.0
  0
VERTEX
  5
1BE
330
1BA
100
AcDbEntity
  8
etch
100
AcDbVertex
100
AcDb2dVertex
 10
27660.25403784439
 20
675.0
 30
0.0
  0
VERTEX
  5
1BF
330
1BA
100
AcDbEntity
  8
etch
100
AcDbVertex
100
AcDb2dVertex
 10
27310.25403784439
 20
675.0
 30
0.0
  0
VERTEX
  5
1C0
330
1BA
100
AcDbEntity
  8
etch
100
AcDbVertex
100
AcDb2dVertex
 10
27310.25403784439
 20
1025.0
 30
0.0
  0
SEQEND
  5
1BB
330
1BA
100
AcDbEntity
  8
etch
  0
POLYLINE
  5
1C1
330
17
100
AcDbEntity
  8
etch
100
AcDb2dPolyline
 66
     1
 10
0.0
 20
0.0
 30
0.0
 70
     1
  0
VERTEX
  5
1C3
330
1C1
100
AcDbEntity
  8
etch
100
AcDbVertex
100
AcDb2dVertex
 10
-27660.25403784439
 20
1025.0
 30
0.0
  0
VERTEX
  5
1C4
330
1C1
100
AcDbEntity
  8
etch
100
AcDbVertex
100
AcDb2dVertex
 10
-27310.25403784439
 20
1025.0
 30
0.0
  0
VERTEX
  5
1C5
330
1C1
100
AcDbEntity
  8
etch
100
AcDbVertex
100
AcDb2dVertex
 10
-27310.25403784439
 20
675.0
 30
0.0
  0
VERTEX
  5
1C6
330
1C1
100
AcDbEntity
  8
etch
100
AcDbVertex
100
AcDb2dVertex
 10
-27660.25403784439
 20
675.0
 30
0.0
  0
VERTEX
  5
1C7
330
1C1
100
AcDbEntity
  8
etch
100
AcDbVertex
100
AcDb2dVertex
 10
-27660.25403784439
 20
1025.0
 30
0.0
  0
SEQEND
  5
1C2
330
1C1
100
AcDbEntity
  8
etch
  0
POLYLINE
  5
1C8
330
17
100
AcDbEntity
  8
metal
100
AcDb2dPolyline
 66
     1
 10
0.0
 20
0.0
 30
0.0
 70
     1
  0
VERTEX
  5
1CA
330
1C8
100
AcDbEntity
  8
metal
100
AcDbVertex
100
AcDb2dVertex
 10
26605.25403784439
 20
1030.0
 30
0.0
  0
VERTEX
  5
1CB
330
1C8
100
AcDbEntity
  8
metal
100
AcDbVertex
100
AcDb2dVertex
 10
26965.25403784439
 20
1030.0
 30
0.0
  0
VERTEX
  5
1CC
330
1C8
100
AcDbEntity
  8
metal
100
AcDbVertex
100
AcDb2dVertex
 10
26965.25403784439
 20
670.0
 30
0.0
  0
VERTEX
  5
1CD
330
1C8
100
AcDbEntity
  8
metal
100
AcDbVertex
100
AcDb2dVertex
 10
26605.25403784439
 20
670.0
 30
0.0
  0
VERTEX
  5
1CE
330
1C8
100
AcDbEntity
  8
metal
100
AcDbVertex
100
AcDb2dVertex
 10
26605.25403784439
 20
1030.0
 30
0.0
  0
SEQEND
  5
1C9
330
1C8
100
AcDbEntity
  8
metal
  0
POLYLINE
  5
1CF
330
17
100
AcDbEntity
  8
metal
100
AcDb2dPolyline
 66
     1
 10
0.0
 20
0.0
 30
0.0
 70
     1
  0
VERTEX
  5
1D1
330
1CF
100
AcDbEntity
  8
metal
100
AcDbVertex
100
AcDb2dVertex
 10
-26965.25403784439
 20
1030.0
 30
0.0
  0
VERTEX
  5
1D2
330
1CF
100
AcDbEntity
  8
metal
100
AcDbVertex
100
AcDb2dVertex
 10
-26605.25403784439
 20
1030.0
 30
0.0
  0
VERTEX
  5
1D3
330
1CF
100
AcDbEntity
  8
metal
100
AcDbVertex
100
AcDb2dVertex
 10
-26605.25403784439
 20
670.0
 30
0.0
  0
VERTEX
  5
1D4
330
1CF
100
AcDbEntity
  8
metal
100
AcDbVertex
100
AcDb2dVertex
 10
-26965.25403784439
 20
670.0
 30
0.0
  0
VERTEX
  5
1D5
330
1CF
100
AcDbEntity
  8
metal
100
AcDbVertex
100
AcDb2dVertex
 10
-26965.25403784439
 20
1030.0
 30
0.0
  0
SEQEND
  5
1D0
330
1CF
100
AcDbEntity
  8
metal
  0
POLYLINE
  5
1D6
330
17
100
AcDbEntity
  8
etch
100
AcDb2dPolyline
 66
     1
 10
0.0
 20
0.0
 30
0.0
 70
     1
  0
VERTEX
  5
1D8
330
1D6
100
AcDbEntity
  8
etch
100
AcDbVertex
100
AcDb2dVertex
 10
26610.25403784439
 20
1025.0
 30
0.0
  0
VERTEX
  5
1D9
330
1D6
100
AcDbEntity
  8
etch
100
AcDbVertex
100
AcDb2dVertex
 10
26960.25403784439
 20
1025.0
 30
0.0
  0
VERTEX
  5
1DA
330
1D6
100
AcDbEntity
  8
etch
100
AcDbVertex
100
AcDb2dVertex
 10
26960.25403784439
 20
675.0
 30
0.0
  0
VERTEX
  5
1DB
330
1D6
100
AcDbEntity
  8
etch
100
AcDbVertex
100
AcDb2dVertex
 10
26610.25403784439
 20
675.0
 30
0.0
  0
VERTEX
  5
1DC
330
1D6
100
AcDbEntity
  8
etch
100
AcDbVertex
100
AcDb2dVertex
 10
26610.25403784439
 20
1025.0
 30
0.0
  0
SEQEND
  5
1D7
330
1D6
100
AcDbEntity
  8
etch
  0
POLYLINE
  5
1DD
330
17
100
AcDbEntity
  8
etch
100
AcDb2dPolyline
 66
     1
 10
0.0
 20
0.0
 30
0.0
 70
     1
  0
VERTEX
  5
1DF
330
1DD
100
AcDbEntity
  8
etch
100
AcDbVertex
100
AcDb2dVertex
 10
-26960.25403784439
 20
1025.0
 30
0.0
  0
VERTEX
  5
1E0
330
1DD
100
AcDbEntity
  8
etch
100
AcDbVertex
100
AcDb2dVertex
 10
-26610.25403784439
 20
1025.0
 30
0.0
  0
VERTEX
  5
1E1
330
1DD
100
AcDbEntity
  8
etch
100
AcDbVertex
100
AcDb2dVertex
 10
-26610.25403784439
 20
675.0
 30
0.0
  0
VERTEX
  5
1E2
330
1DD
100
AcDbEntity
  8
etch
100
AcDbVertex
100
AcDb2dVertex
 10
-26960.25403784439
 20
675.0
 30
0.0
  0
VERTEX
  5
1E3
330
1DD
100
AcDbEntity
  8
etch
100
AcDbVertex
100
AcDb2dVertex
 10
-26960.25403784439
 20
1025.0
 30
0.0
  0
SEQEND
  5
1DE
330
1DD
100
AcDbEntity
  8
etch
  0
POLYLINE
  5
1E4
330
17
100
AcDbEntity
  8
metal
100
AcDb2dPolyline
 66
     1
 10
0.0
 20
0.0
 30
0.0
 70
     1
  0
VERTEX
  5
1E6
330
1E4
100
AcDbEntity
  8
metal
100
AcDbVertex
100
AcDb2dVertex
 10
25905.25403784439
 20
1030.0
 30
0.0
  0
VERTEX
  5
1E7
330
1E4
100
AcDbEntity
  8
metal
100
AcDbVertex
100
AcDb2dVertex
 10
26265.25403784439
 20
1030.0
 30
0.0
  0
VERTEX
  5
1E8
330
1E4
100
AcDbEntity
  8
metal
100
AcDbVertex
100
AcDb2dVertex
 10
26265.25403784439
 20
670.0
 30
0.0
  0
VERTEX
  5
1E9
330
1E4
100
AcDbEntity
  8
metal
100
AcDbVertex
100
AcDb2dVertex
 10
25905.25403784439
 20
670.0
 30
0.0
  0
VERTEX
  5
1EA
330
1E4
100
AcDbEntity
  8
metal
100
AcDbVertex
100
AcDb2dVertex
 10
25905.25403784439
 20
1030.0
 30
0.0
  0
SEQEND
  5
1E5
330
1E4
100
AcDbEntity
  8
metal
  0
POLYLINE
  5
1EB
330
17
100
AcDbEntity
  8
metal
100
AcDb2dPolyline
 66
     1
 10
0.0
 20
0.0
 30
0.0
 70
     1
  0
VERTEX
  5
1ED
330
1EB
100
AcDbEntity
  8
metal
100
AcDbVertex
100
AcDb2dVertex
 10
-26265.25403784439
 20
1030.0
 30
0.0
  0
VERTEX
  5
1EE
330
1EB
100
AcDbEntity
  8
metal
100
AcDbVertex
100
AcDb2dVertex
 10
-25905.25403784439
 20
1030.0
 30
0.0
  0
VERTEX
  5
1EF
330
1EB
100
AcDbEntity
  8
metal
100
AcDbVertex
100
AcDb2dVertex
 10
-25905.25403784439
 20
670.0
 30
0.0
  0
VERTEX
  5
1F0
330
1EB
100
AcDbEntity
  8
metal
100
AcDbVertex
100
AcDb2dVertex
 10
-26265.25403784439
 20
670.0
 30
0.0
  0
VERTEX
  5
1F1
330
1EB
100
AcDbEntity
  8
metal
100
AcDbVertex
100
AcDb2dVertex
 10
-26265.25403784439
 20
1030.0
 30
0.0
  0
SEQEND
  5
1EC
330
1EB
100
AcDbEntity
  8
metal
  0
POLYLINE
  5
1F2
330
17
100
AcDbEntity
  8
etch
100
AcDb2dPolyline
 66
     1
 10
0.0
 20
0.0
 30
0.0
 70
     1
  0
VERTEX
  5
1F4
330
1F2
100
AcDbEntity
  8
etch
100
AcDbVertex
100
AcDb2dVertex
 10
25910.25403784439
 20
1025.0
 30
0.0
  0
VERTEX
  5
1F5
330
1F2
100
AcDbEntity
  8
etch
100
AcDbVertex
100
AcDb2dVertex
 10
26260.25403784439
 20
1025.0
 30
0.0
  0
VERTEX
  5
1F6
330
1F2
100
AcDbEntity
  8
etch
100
AcDbVertex
100
AcDb2dVertex
 10
26260.25403784439
 20
675.0
 30
0.0
  0
VERTEX
  5
1F7
330
1F2
100
AcDbEntity
  8
etch
100
AcDbVertex
100
AcDb2dVertex
 10
25910.25403784439
 20
675.0
 30
0.0
  0
VERTEX
  5
1F8
330
1F2
100
AcDbEntity
  8
etch
100
AcDbVertex
100
AcDb2dVertex
 10
25910.25403784439
 20
1025.0
 30
0.0
  0
SEQEND
  5
1F3
330
1F2
100
AcDbEntity
  8
etch
  0
POLYLINE
  5
1F9
330
17
100
AcDbEntity
  8
etch
100
AcDb2dPolyline
 66
     1
 10
0.0
 20
0.0
 30
0.0
 70
     1
  0
VERTEX
  5
1FB
330
1F9
100
AcDbEntity
  8
etch
100
AcDbVertex
100
AcDb2dVertex
 10
-26260.25403784439
 20
1025.0
 30
0.0
  0
VERTEX
  5
1FC
330
1F9
100
AcDbEntity
  8
etch
100
AcDbVertex
100
AcDb2dVertex
 10
-25910.25403784439
 20
1025.0
 30
0.0
  0
VERTEX
  5
1FD
330
1F9
100
AcDbEntity
  8
etch
100
AcDbVertex
100
AcDb2dVertex
 10
-25910.25403784439
 20
675.0
 30
0.0
  0
VERTEX
  5
1FE
330
1F9
100
AcDbEntity
  8
etch
100
AcDbVertex
100
AcDb2dVertex
 10
-26260.25403784439
 20
675.0
 30
0.0
  0
VERTEX
  5
1FF
330
1F9
100
AcDbEntity
  8
etch
100
AcDbVertex
100
AcDb2dVertex
 10
-26260.25403784439
 20
1025.0
 30
0.0
  0
SEQEND
  5
1FA
330
1F9
100
AcDbEntity
  8
etch
  0
POLYLINE
  5
200
330
17
100
AcDbEntity
  8
metal
100
AcDb2dPolyline
 66
     1
 10
0.0
 20
0.0
 30
0.0
 70
     1
  0
VERTEX
  5
202
330
200
100
AcDbEntity
  8
metal
100
AcDbVertex
100
AcDb2dVertex
 10
25205.25403784439
 20
1030.0
 30
0.0
  0
VERTEX
  5
203
330
200
100
AcDbEntity
  8
metal
100
AcDbVertex
100
AcDb2dVertex
 10
25565.25403784439
 20
1030.0
 30
0.0
  0
VERTEX
  5
204
330
200
100
AcDbEntity
  8
metal
100
AcDbVertex
100
AcDb2dVertex
 10
25565.25403784439
 20
670.0
 30
0.0
  0
VERTEX
  5
205
330
200
100
AcDbEntity
  8
metal
100
AcDbVertex
100
AcDb2dVertex
 10
25205.25403784439
 20
670.0
 30
0.0
  0
VERTEX
  5
206
330
200
100
AcDbEntity
  8
metal
100
AcDbVertex
100
AcDb2dVertex
 10
25205.25403784439
 20
1030.0
 30
0.0
  0
SEQEND
  5
201
330
200
100
AcDbEntity
  8
metal
  0
POLYLINE
  5
207
330
17
100
AcDbEntity
  8
metal
100
AcDb2dPolyline
 66
     1
 10
0.0
 20
0.0
 30
0.0
 70
     1
  0
VERTEX
  5
209
330
207
100
AcDbEntity
  8
metal
100
AcDbVertex
100
AcDb2dVertex
 10
-25565.25403784439
 20
1030.0
 30
0.0
  0
VERTEX
  5
20A
330
207
100
AcDbEntity
  8
metal
100
AcDbVertex
100
AcDb2dVertex
 10
-25205.25403784439
 20
1030.0
 30
0.0
  0
VERTEX
  5
20B
330
207
100
AcDbEntity
  8
metal
100
AcDbVertex
100
AcDb2dVertex
 10
-25205.25403784439
 20
670.0
 30
0.0
  0
VERTEX
  5
20C
330
207
100
AcDbEntity
  8
metal
100
AcDbVertex
100
AcDb2dVertex
 10
-25565.25403784439
 20
670.0
 30
0.0
  0
VERTEX
  5
20D
330
207
100
AcDbEntity
  8
metal
100
AcDbVertex
100
AcDb2dVertex
 10
-25565.25403784439
 20
1030.0
 30
0.0
  0
SEQEND
  5
208
330
207
100
AcDbEntity
  8
metal
  0
POLYLINE
  5
20E
330
17
100
AcDbEntity
  8
etch
100
AcDb2dPolyline
 66
     1
 10
0.0
 20
0.0
 30
0.0
 70
     1
  0
VERTEX
  5
210
330
20E
100
AcDbEntity
  8
etch
100
AcDbVertex
100
AcDb2dVertex
 10
25210.25403784439
 20
1025.0
 30
0.0
  0
VERTEX
  5
211
330
20E
100
AcDbEntity
  8
etch
100
AcDbVertex
100
AcDb2dVertex
 10
25560.25403784439
 20
1025.0
 30
0.0
  0
VERTEX
  5
212
330
20E
100
AcDbEntity
  8
etch
100
AcDbVertex
100
AcDb2dVertex
 10
25560.25403784439
 20
675.0
 30
0.0
  0
VERTEX
  5
213
330
20E
100
AcDbEntity
  8
etch
100
AcDbVertex
100
AcDb2dVertex
 10
25210.25403784439
 20
675.0
 30
0.0
  0
VERTEX
  5
214
330
20E
100
AcDbEntity
  8
etch
100
AcDbVertex
100
AcDb2dVertex
 10
25210.25403784439
 20
1025.0
 30
0.0
  0
SEQEND
  5
20F
330
20E
100
AcDbEntity
  8
etch
  0
POLYLINE
  5
215
330
17
100
AcDbEntity
  8
etch
100
AcDb2dPolyline
 66
     1
 10
0.0
 20
0.0
 30
0.0
 70
     1
  0
VERTEX
  5
217
330
215
100
AcDbEntity
  8
etch
100
AcDbVertex
100
AcDb2dVertex
 10
-25560.25403784439
 20
1025.0
 30
0.0
  0
VERTEX
  5
218
330
215
100
AcDbEntity
  8
etch
100
AcDbVertex
100
AcDb2dVertex
 10
-25210.25403784439
 20
1025.0
 30
0.0
  0
VERTEX
  5
219
330
215
100
AcDbEntity
  8
etch
100
AcDbVertex
100
AcDb2dVertex
 10
-25210.25403784439
 20
675.0
 30
0.0
  0
VERTEX
  5
21A
330
215
100
AcDbEntity
  8
etch
100
AcDbVertex
100
AcDb2dVertex
 10
-25560.25403784439
 20
675.0
 30
0.0
  0
VERTEX
  5
21B
330
215
100
AcDbEntity
  8
etch
100
AcDbVertex
100
AcDb2dVertex
 10
-25560.25403784439
 20
1025.0
 30
0.0
  0
SEQEND
  5
216
330
215
100
AcDbEntity
  8
etch
  0
POLYLINE
  5
21C
330
17
100
AcDbEntity
  8
metal
100
AcDb2dPolyline
 66
     1
 10
0.0
 20
0.0
 30
0.0
 70
     1
  0
VERTEX
  5
21E
330
21C
100
AcDbEntity
  8
metal
100
AcDbVertex
100
AcDb2dVertex
 10
27305.25403784439
 20
-670.0
 30
0.0
  0
VERTEX
  5
21F
330
21C
100
AcDbEntity
  8
metal
100
AcDbVertex
100
AcDb2dVertex
 10
27665.25403784439
 20
-670.0
 30
0.0
  0
VERTEX
  5
220
330
21C
100
AcDbEntity
  8
metal
100
AcDbVertex
100
AcDb2dVertex
 10
27665.25403784439
 20
-1030.0
 30
0.0
  0
VERTEX
  5
221
330
21C
100
AcDbEntity
  8
metal
100
AcDbVertex
100
AcDb2dVertex
 10
27305.25403784439
 20
-1030.0
 30
0.0
  0
VERTEX
  5
222
330
21C
100
AcDbEntity
  8
metal
100
AcDbVertex
100
AcDb2dVertex
 10
27305.25403784439
 20
-670.0
 30
0.0
  0
SEQEND
  5
21D
330
21C
100
AcDbEntity
  8
metal
  0
POLYLINE
  5
223
330
17
100
AcDbEntity
  8
metal
100
AcDb2dPolyline
 66
     1
 10
0.0
 20
0.0
 30
0.0
 70
     1
  0
VERTEX
  5
225
330
223
100
AcDbEntity
  8
metal
100
AcDbVertex
100
AcDb2dVertex
 10
-27665.25403784439
 20
-670.0
 30
0.0
  0
VERTEX
  5
226
330
223
100
AcDbEntity
  8
metal
100
AcDbVertex
100
AcDb2dVertex
 10
-27305.25403784439
 20
-670.0
 30
0.0
  0
VERTEX
  5
227
330
223
100
AcDbEntity
  8
metal
100
AcDbVertex
100
AcDb2dVertex
 10
-27305.25403784439
 20
-1030.0
 30
0.0
  0
VERTEX
  5
228
330
223
100
AcDbEntity
  8
metal
100
AcDbVertex
100
AcDb2dVertex
 10
-27665.25403784439
 20
-1030.0
 30
0.0
  0
VERTEX
  5
229
330
223
100
AcDbEntity
  8
metal
100
AcDbVertex
100
AcDb2dVertex
 10
-27665.25403784439
 20
-670.0
 30
0.0
  0
SEQEND
  5
224
330
223
100
AcDbEntity
  8
metal
  0
POLYLINE
  5
22A
330
17
100
AcDbEntity
  8
etch
100
AcDb2dPolyline
 66
     1
 10
0.0
 20
0.0
 30
0.0
 70
     1
  0
VERTEX
  5
22C
330
22A
100
AcDbEntity
  8
etch
100
AcDbVertex
100
AcDb2dVertex
 10
27310.25403784439
 20
-675.0
 30
0.0
  0
VERTEX
  5
22D
330
22A
100
AcDbEntity
  8
etch
100
AcDbVertex
100
AcDb2dVertex
 10
27660.25403784439
 20
-675.0
 30
0.0
  0
VERTEX
  5
22E
330
22A
100
AcDbEntity
  8
etch
100
AcDbVertex
100
AcDb2dVertex
 10
27660.25403784439
 20
-1025.0
 30
0.0
  0
VERTEX
  5
22F
330
22A
100
AcDbEntity
  8
etch
100
AcDbVertex
100
AcDb2dVertex
 10
27310.25403784439
 20
-1025.0
 30
0.0
  0
VERTEX
  5
230
330
22A
100
AcDbEntity
  8
etch
100
AcDbVertex
100
AcDb2dVertex
 10
27310.25403784439
 20
-675.0
 30
0.0
  0
SEQEND
  5
22B
330
22A
100
AcDbEntity
  8
etch
  0
POLYLINE
  5
231
330
17
100
AcDbEntity
  8
etch
100
AcDb2dPolyline
 66
     1
 10
0.0
 20
0.0
 30
0.0
 70
     1
  0
VERTEX
  5
233
330
231
100
AcDbEntity
  8
etch
100
AcDbVertex
100
AcDb2dVertex
 10
-27660.25403784439
 20
-675.0
 30
0.0
  0
VERTEX
  5
234
330
231
100
AcDbEntity
  8
etch
100
AcDbVertex
100
AcDb2dVertex
 10
-27310.25403784439
 20
-675.0
 30
0.0
  0
VERTEX
  5
235
330
231
100
AcDbEntity
  8
etch
100
AcDbVertex
100
AcDb2dVertex
 10
-27310.25403784439
 20
-1025.0
 30
0.0
  0
VERTEX
  5
236
330
231
100
AcDbEntity
  8
etch
100
AcDbVertex
100
AcDb2dVertex
 10
-27660.25403784439
 20
-1025.0
 30
0.0
  0
VERTEX
  5
237
330
231
100
AcDbEntity
  8
etch
100
AcDbVertex
100
AcDb2dVertex
 10
-27660.25403784439
 20
-675.0
 30
0.0
  0
SEQEND
  5
232
330
231
100
AcDbEntity
  8
etch
  0
POLYLINE
  5
238
330
17
100
AcDbEntity
  8
metal
100
AcDb2dPolyline
 66
     1
 10
0.0
 20
0.0
 30
0.0
 70
     1
  0
VERTEX
  5
23A
330
238
100
AcDbEntity
  8
metal
100
AcDbVertex
100
AcDb2dVertex
 10
26605.25403784439
 20
-670.0
 30
0.0
  0
VERTEX
  5
23B
330
238
100
AcDbEntity
  8
metal
100
AcDbVertex
100
AcDb2dVertex
 10
26965.25403784439
 20
-670.0
 30
0.0
  0
VERTEX
  5
23C
330
238
100
AcDbEntity
  8
metal
100
AcDbVertex
100
AcDb2dVertex
 10
26965.25403784439
 20
-1030.0
 30
0.0
  0
VERTEX
  5
23D
330
238
100
AcDbEntity
  8
metal
100
AcDbVertex
100
AcDb2dVertex
 10
26605.25403784439
 20
-1030.0
 30
0.0
  0
VERTEX
  5
23E
330
238
100
AcDbEntity
  8
metal
100
AcDbVertex
100
AcDb2dVertex
 10
26605.25403784439
 20
-670.0
 30
0.0
  0
SEQEND
  5
239
330
238
100
AcDbEntity
  8
metal
  0
POLYLINE
  5
23F
330
17
100
AcDbEntity
  8
metal
100
AcDb2dPolyline
 66
     1
 10
0.0
 20
0.0
 30
0.0
 70
     1
  0
VERTEX
  5
241
330
23F
100
AcDbEntity
  8
metal
100
AcDbVertex
100
AcDb2dVertex
 10
-26965.25403784439
 20
-670.0
 30
0.0
  0
VERTEX
  5
242
330
23F
100
AcDbEntity
  8
metal
100
AcDbVertex
100
AcDb2dVertex
 10
-26605.25403784439
 20
-670.0
 30
0.0
  0
VERTEX
  5
243
330
23F
100
AcDbEntity
  8
metal
100
AcDbVertex
100
AcDb2dVertex
 10
-26605.25403784439
 20
-1030.0
 30
0.0
  0
VERTEX
  5
244
330
23F
100
AcDbEntity
  8
metal
100
AcDbVertex
100
AcDb2dVertex
 10
-26965.25403784439
 20
-1030.0
 30
0.0
  0
VERTEX
  5
245
330
23F
100
AcDbEntity
  8
metal
100
AcDbVertex
100
AcDb2dVertex
 10
-26965.25403784439
 20
-670.0
 30
0.0
  0
SEQEND
  5
240
330
23F
100
AcDbEntity
  8
metal
  0
POLYLINE
  5
246
330
17
100
AcDbEntity
  8
etch
100
AcDb2dPolyline
 66
     1
 10
0.0
 20
0.0
 30
0.0
 70
     1
  0
VERTEX
  5
248
330
246
100
AcDbEntity
  8
etch
100
AcDbVertex
100
AcDb2dVertex
 10
26610.25403784439
 20
-675.0
 30
0.0
  0
VERTEX
  5
249
330
246
100
AcDbEntity
  8
etch
100
AcDbVertex
100
AcDb2dVertex
 10
26960.25403784439
 20
-675.0
 30
0.0
  0
VERTEX
  5
24A
330
246
100
AcDbEntity
  8
etch
100
AcDbVertex
100
AcDb2dVertex
 10
26960.25403784439
 20
-1025.0
 30
0.0
  0
VERTEX
  5
24B
330
246
100
AcDbEntity
  8
etch
100
AcDbVertex
100
AcDb2dVertex
 10
26610.25403784439
 20
-1025.0
 30
0.0
  0
VERTEX
  5
24C
330
246
100
AcDbEntity
  8
etch
100
AcDbVertex
100
AcDb2dVertex
 10
26610.25403784439
 20
-675.0
 30
0.0
  0
SEQEND
  5
247
330
246
100
AcDbEntity
  8
etch
  0
POLYLINE
  5
24D
330
17
100
AcDbEntity
  8
etch
100
AcDb2dPolyline
 66
     1
 10
0.0
 20
0.0
 30
0.0
 70
     1
  0
VERTEX
  5
24F
330
24D
100
AcDbEntity
  8
etch
100
AcDbVertex
100
AcDb2dVertex
 10
-26960.25403784439
 20
-675.0
 30
0.0
  0
VERTEX
  5
250
330
24D
100
AcDbEntity
  8
etch
100
AcDbVertex
100
AcDb2dVertex
 10
-26610.25403784439
 20
-675.0
 30
0.0
  0
VERTEX
  5
251
330
24D
100
AcDbEntity
  8
etch
100
AcDbVertex
100
AcDb2dVertex
 10
-26610.25403784439
 20
-1025.0
 30
0.0
  0
VERTEX
  5
252
330
24D
100
AcDbEntity
  8
etch
100
AcDbVertex
100
AcDb2dVertex
 10
-26960.25403784439
 20
-1025.0
 30
0.0
  0
VERTEX
  5
253
330
24D
100
AcDbEntity
  8
etch
100
AcDbVertex
100
AcDb2dVertex
 10
-26960.25403784439
 20
-675.0
 30
0.0
  0
SEQEND
  5
24E
330
24D
100
AcDbEntity
  8
etch
  0
POLYLINE
  5
254
330
17
100
AcDbEntity
  8
metal
100
AcDb2dPolyline
 66
     1
 10
0.0
 20
0.0
 30
0.0
 70
     1
  0
VERTEX
  5
256
330
254
100
AcDbEntity
  8
metal
100
AcDbVertex
100
AcDb2dVertex
 10
25905.25403784439
 20
-670.0
 30
0.0
  0
VERTEX
  5
257
330
254
100
AcDbEntity
  8
metal
100
AcDbVertex
100
AcDb2dVertex
 10
26265.25403784439
 20
-670.0
 30
0.0
  0
VERTEX
  5
258
330
254
100
AcDbEntity
  8
metal
100
AcDbVertex
100
AcDb2dVertex
 10
26265.25403784439
 20
-1030.0
 30
0.0
  0
VERTEX
  5
259
330
254
100
AcDbEntity
  8
metal
100
AcDbVertex
100
AcDb2dVertex
 10
25905.25403784439
 20
-1030.0
 30
0.0
  0
VERTEX
  5
25A
330
254
100
AcDbEntity
  8
metal
100
AcDbVertex
100
AcDb2dVertex
 10
25905.25403784439
 20
-670.0
 30
0.0
  0
SEQEND
  5
255
330
254
100
AcDbEntity
  8
metal
  0
POLYLINE
  5
25B
330
17
100
AcDbEntity
  8
metal
100
AcDb2dPolyline
 66
     1
 10
0.0
 20
0.0
 30
0.0
 70
     1
  0
VERTEX
  5
25D
330
25B
100
AcDbEntity
  8
metal
100
AcDbVertex
100
AcDb2dVertex
 10
-26265.25403784439
 20
-670.0
 30
0.0
  0
VERTEX
  5
25E
330
25B
100
AcDbEntity
  8
metal
100
AcDbVertex
100
AcDb2dVertex
 10
-25905.25403784439
 20
-670.0
 30
0.0
  0
VERTEX
  5
25F
330
25B
100
AcDbEntity
  8
metal
100
AcDbVertex
100
AcDb2dVertex
 10
-25905.25403784439
 20
-1030.0
 30
0.0
  0
VERTEX
  5
260
330
25B
100
AcDbEntity
  8
metal
100
AcDbVertex
100
AcDb2dVertex
 10
-26265.25403784439
 20
-1030.0
 30
0.0
  0
VERTEX
  5
261
330
25B
100
AcDbEntity
  8
metal
100
AcDbVertex
100
AcDb2dVertex
 10
-26265.25403784439
 20
-670.0
 30
0.0
  0
SEQEND
  5
25C
330
25B
100
AcDbEntity
  8
metal
  0
POLYLINE
  5
262
330
17
100
AcDbEntity
  8
etch
100
AcDb2dPolyline
 66
     1
 10
0.0
 20
0.0
 30
0.0
 70
     1
  0
VERTEX
  5
264
330
262
100
AcDbEntity
  8
etch
100
AcDbVertex
100
AcDb2dVertex
 10
25910.25403784439
 20
-675.0
 30
0.0
  0
VERTEX
  5
265
330
262
100
AcDbEntity
  8
etch
100
AcDbVertex
100
AcDb2dVertex
 10
26260.25403784439
 20
-675.0
 30
0.0
  0
VERTEX
  5
266
330
262
100
AcDbEntity
  8
etch
100
AcDbVertex
100
AcDb2dVertex
 10
26260.25403784439
 20
-1025.0
 30
0.0
  0
VERTEX
  5
267
330
262
100
AcDbEntity
  8
etch
100
AcDbVertex
100
AcDb2dVertex
 10
25910.25403784439
 20
-1025.0
 30
0.0
  0
VERTEX
  5
268
330
262
100
AcDbEntity
  8
etch
100
AcDbVertex
100
AcDb2dVertex
 10
25910.25403784439
 20
-675.0
 30
0.0
  0
SEQEND
  5
263
330
262
100
AcDbEntity
  8
etch
  0
POLYLINE
  5
269
330
17
100
AcDbEntity
  8
etch
100
AcDb2dPolyline
 66
     1
 10
0.0
 20
0.0
 30
0.0
 70
     1
  0
VERTEX
  5
26B
330
269
100
AcDbEntity
  8
etch
100
AcDbVertex
100
AcDb2dVertex
 10
-26260.25403784439
 20
-675.0
 30
0.0
  0
VERTEX
  5
26C
330
269
100
AcDbEntity
  8
etch
100
AcDbVertex
100
AcDb2dVertex
 10
-25910.25403784439
 20
-675.0
 30
0.0
  0
VERTEX
  5
26D
330
269
100
AcDbEntity
  8
etch
100
AcDbVertex
100
AcDb2dVertex
 10
-25910.25403784439
 20
-1025.0
 30
0.0
  0
VERTEX
  5
26E
330
269
100
AcDbEntity
  8
etch
100
AcDbVertex
100
AcDb2dVertex
 10
-26260.25403784439
 20
-1025.0
 30
0.0
  0
VERTEX
  5
26F
330
269
100
AcDbEntity
  8
etch
100
AcDbVertex
100
AcDb2dVertex
 10
-26260.25403784439
 20
-675.0
 30
0.0
  0
SEQEND
  5
26A
330
269
100
AcDbEntity
  8
etch
  0
POLYLINE
  5
270
330
17
100
AcDbEntity
  8
metal
100
AcDb2dPolyline
 66
     1
 10
0.0
 20
0.0
 30
0.0
 70
     1
  0
VERTEX
  5
272
330
270
100
AcDbEntity
  8
metal
100
AcDbVertex
100
AcDb2dVertex
 10
25205.25403784439
 20
-670.0
 30
0.0
  0
VERTEX
  5
273
330
270
100
AcDbEntity
  8
metal
100
AcDbVertex
100
AcDb2dVertex
 10
25565.25403784439
 20
-670.0
 30
0.0
  0
VERTEX
  5
274
330
270
100
AcDbEntity
  8
metal
100
AcDbVertex
100
AcDb2dVertex
 10
25565.25403784439
 20
-1030.0
 30
0.0
  0
VERTEX
  5
275
330
270
100
AcDbEntity
  8
metal
100
AcDbVertex
100
AcDb2dVertex
 10
25205.25403784439
 20
-1030.0
 30
0.0
  0
VERTEX
  5
276
330
270
100
AcDbEntity
  8
metal
100
AcDbVertex
100
AcDb2dVertex
 10
25205.25403784439
 20
-670.0
 30
0.0
  0
SEQEND
  5
271
330
270
100
AcDbEntity
  8
metal
  0
POLYLINE
  5
277
330
17
100
AcDbEntity
  8
metal
100
AcDb2dPolyline
 66
     1
 10
0.0
 20
0.0
 30
0.0
 70
     1
  0
VERTEX
  5
279
330
277
100
AcDbEntity
  8
metal
100
AcDbVertex
100
AcDb2dVertex
 10
-25565.25403784439
 20
-670.0
 30
0.0
  0
VERTEX
  5
27A
330
277
100
AcDbEntity
  8
metal
100
AcDbVertex
100
AcDb2dVertex
 10
-25205.25403784439
 20
-670.0
 30
0.0
  0
VERTEX
  5
27B
330
277
100
AcDbEntity
  8
metal
100
AcDbVertex
100
AcDb2dVertex
 10
-25205.25403784439
 20
-1030.0
 30
0.0
  0
VERTEX
  5
27C
330
277
100
AcDbEntity
  8
metal
100
AcDbVertex
100
AcDb2dVertex
 10
-25565.25403784439
 20
-1030.0
 30
0.0
  0
VERTEX
  5
27D
330
277
100
AcDbEntity
  8
metal
100
AcDbVertex
100
AcDb2dVertex
 10
-25565.25403784439
 20
-670.0
 30
0.0
  0
SEQEND
  5
278
330
277
100
AcDbEntity
  8
metal
  0
POLYLINE
  5
27E
330
17
100
AcDbEntity
  8
etch
100
AcDb2dPolyline
 66
     1
 10
0.0
 20
0.0
 30
0.0
 70
     1
  0
VERTEX
  5
280
330
27E
100
AcDbEntity
  8
etch
100
AcDbVertex
100
AcDb2dVertex
 10
25210.25403784439
 20
-675.0
 30
0.0
  0
VERTEX
  5
281
330
27E
100
AcDbEntity
  8
etch
100
AcDbVertex
100
AcDb2dVertex
 10
25560.25403784439
 20
-675.0
 30
0.0
  0
VERTEX
  5
282
330
27E
100
AcDbEntity
  8
etch
100
AcDbVertex
100
AcDb2dVertex
 10
25560.25403784439
 20
-1025.0
 30
0.0
  0
VERTEX
  5
283
330
27E
100
AcDbEntity
  8
etch
100
AcDbVertex
100
AcDb2dVertex
 10
25210.25403784439
 20
-1025.0
 30
0.0
  0
VERTEX
  5
284
330
27E
100
AcDbEntity
  8
etch
100
AcDbVertex
100
AcDb2dVertex
 10
25210.25403784439
 20
-675.0
 30
0.0
  0
SEQEND
  5
27F
330
27E
100
AcDbEntity
  8
etch
  0
POLYLINE
  5
285
330
17
100
AcDbEntity
  8
etch
100
AcDb2dPolyline
 66
     1
 10
0.0
 20
0.0
 30
0.0
 70
     1
  0
VERTEX
  5
287
330
285
100
AcDbEntity
  8
etch
100
AcDbVertex
100
AcDb2dVertex
 10
-25560.25403784439
 20
-675.0
 30
0.0
  0
VERTEX
  5
288
330
285
100
AcDbEntity
  8
etch
100
AcDbVertex
100
AcDb2dVertex
 10
-25210.25403784439
 20
-675.0
 30
0.0
  0
VERTEX
  5
289
330
285
100
AcDbEntity
  8
etch
100
AcDbVertex
100
AcDb2dVertex
 10
-25210.25403784439
 20
-1025.0
 30
0.0
  0
VERTEX
  5
28A
330
285
100
AcDbEntity
  8
etch
100
AcDbVertex
100
AcDb2dVertex
 10
-25560.25403784439
 20
-1025.0
 30
0.0
  0
VERTEX
  5
28B
330
285
100
AcDbEntity
  8
etch
100
AcDbVertex
100
AcDb2dVertex
 10
-25560.25403784439
 20
-675.0
 30
0.0
  0
SEQEND
  5
286
330
285
100
AcDbEntity
  8
etch
  0
POLYLINE
  5
28C
330
17
100
AcDbEntity
  8
metal
100
AcDb2dPolyline
 66
     1
 10
0.0
 20
0.0
 30
0.0
 70
     1
  0
VERTEX
  5
28E
330
28C
100
AcDbEntity
  8
metal
100
AcDbVertex
100
AcDb2dVertex
 10
27305.25403784439
 20
-2370.0
 30
0.0
  0
VERTEX
  5
28F
330
28C
100
AcDbEntity
  8
metal
100
AcDbVertex
100
AcDb2dVertex
 10
27665.25403784439
 20
-2370.0
 30
0.0
  0
VERTEX
  5
290
330
28C
100
AcDbEntity
  8
metal
100
AcDbVertex
100
AcDb2dVertex
 10
27665.25403784439
 20
-2730.0
 30
0.0
  0
VERTEX
  5
291
330
28C
100
AcDbEntity
  8
metal
100
AcDbVertex
100
AcDb2dVertex
 10
27305.25403784439
 20
-2730.0
 30
0.0
  0
VERTEX
  5
292
330
28C
100
AcDbEntity
  8
metal
100
AcDbVertex
100
AcDb2dVertex
 10
27305.25403784439
 20
-2370.0
 30
0.0
  0
SEQEND
  5
28D
330
28C
100
AcDbEntity
  8
metal
  0
POLYLINE
  5
293
330
17
100
AcDbEntity
  8
metal
100
AcDb2dPolyline
 66
     1
 10
0.0
 20
0.0
 30
0.0
 70
     1
  0
VERTEX
  5
295
330
293
100
AcDbEntity
  8
metal
100
AcDbVertex
100
AcDb2dVertex
 10
-27665.25403784439
 20
-2370.0
 30
0.0
  0
VERTEX
  5
296
330
293
100
AcDbEntity
  8
metal
100
AcDbVertex
100
AcDb2dVertex
 10
-27305.25403784439
 20
-2370.0
 30
0.0
  0
VERTEX
  5
297
330
293
100
AcDbEntity
  8
metal
100
AcDbVertex
100
AcDb2dVertex
 10
-27305.25403784439
 20
-2730.0
 30
0.0
  0
VERTEX
  5
298
330
293
100
AcDbEntity
  8
metal
100
AcDbVertex
100
AcDb2dVertex
 10
-27665.25403784439
 20
-2730.0
 30
0.0
  0
VERTEX
  5
299
330
293
100
AcDbEntity
  8
metal
100
AcDbVertex
100
AcDb2dVertex
 10
-27665.25403784439
 20
-2370.0
 30
0.0
  0
SEQEND
  5
294
330
293
100
AcDbEntity
  8
metal
  0
POLYLINE
  5
29A
330
17
100
AcDbEntity
  8
etch
100
AcDb2dPolyline
 66
     1
 10
0.0
 20
0.0
 30
0.0
 70
     1
  0
VERTEX
  5
29C
330
29A
100
AcDbEntity
  8
etch
100
AcDbVertex
100
AcDb2dVertex
 10
27310.25403784439
 20
-2375.0
 30
0.0
  0
VERTEX
  5
29D
330
29A
100
AcDbEntity
  8
etch
100
AcDbVertex
100
AcDb2dVertex
 10
27660.25403784439
 20
-2375.0
 30
0.0
  0
VERTEX
  5
29E
330
29A
100
AcDbEntity
  8
etch
100
AcDbVertex
100
AcDb2dVertex
 10
27660.25403784439
 20
-2725.0
 30
0.0
  0
VERTEX
  5
29F
330
29A
100
AcDbEntity
  8
etch
100
AcDbVertex
100
AcDb2dVertex
 10
27310.25403784439
 20
-2725.0
 30
0.0
  0
VERTEX
  5
2A0
330
29A
100
AcDbEntity
  8
etch
100
AcDbVertex
100
AcDb2dVertex
 10
27310.25403784439
 20
-2375.0
 30
0.0
  0
SEQEND
  5
29B
330
29A
100
AcDbEntity
  8
etch
  0
POLYLINE
  5
2A1
330
17
100
AcDbEntity
  8
etch
100
AcDb2dPolyline
 66
     1
 10
0.0
 20
0.0
 30
0.0
 70
     1
  0
VERTEX
  5
2A3
330
2A1
100
AcDbEntity
  8
etch
100
AcDbVertex
100
AcDb2dVertex
 10
-27660.25403784439
 20
-2375.0
 30
0.0
  0
VERTEX
  5
2A4
330
2A1
100
AcDbEntity
  8
etch
100
AcDbVertex
100
AcDb2dVertex
 10
-27310.25403784439
 20
-2375.0
 30
0.0
  0
VERTEX
  5
2A5
330
2A1
100
AcDbEntity
  8
etch
100
AcDbVertex
100
AcDb2dVertex
 10
-27310.25403784439
 20
-2725.0
 30
0.0
  0
VERTEX
  5
2A6
330
2A1
100
AcDbEntity
  8
etch
100
AcDbVertex
100
AcDb2dVertex
 10
-27660.25403784439
 20
-2725.0
 30
0.0
  0
VERTEX
  5
2A7
330
2A1
100
AcDbEntity
  8
etch
100
AcDbVertex
100
AcDb2dVertex
 10
-27660.25403784439
 20
-2375.0
 30
0.0
  0
SEQEND
  5
2A2
330
2A1
100
AcDbEntity
  8
etch
  0
POLYLINE
  5
2A8
330
17
100
AcDbEntity
  8
metal
100
AcDb2dPolyline
 66
     1
 10
0.0
 20
0.0
 30
0.0
 70
     1
  0
VERTEX
  5
2AA
330
2A8
100
AcDbEntity
  8
metal
100
AcDbVertex
100
AcDb2dVertex
 10
26605.25403784439
 20
-2370.0
 30
0.0
  0
VERTEX
  5
2AB
330
2A8
100
AcDbEntity
  8
metal
100
AcDbVertex
100
AcDb2dVertex
 10
26965.25403784439
 20
-2370.0
 30
0.0
  0
VERTEX
  5
2AC
330
2A8
100
AcDbEntity
  8
metal
100
AcDbVertex
100
AcDb2dVertex
 10
26965.25403784439
 20
-2730.0
 30
0.0
  0
VERTEX
  5
2AD
330
2A8
100
AcDbEntity
  8
metal
100
AcDbVertex
100
AcDb2dVertex
 10
26605.25403784439
 20
-2730.0
 30
0.0
  0
VERTEX
  5
2AE
330
2A8
100
AcDbEntity
  8
metal
100
AcDbVertex
100
AcDb2dVertex
 10
26605.25403784439
 20
-2370.0
 30
0.0
  0
SEQEND
  5
2A9
330
2A8
100
AcDbEntity
  8
metal
  0
POLYLINE
  5
2AF
330
17
100
AcDbEntity
  8
metal
100
AcDb2dPolyline
 66
     1
 10
0.0
 20
0.0
 30
0.0
 70
     1
  0
VERTEX
  5
2B1
330
2AF
100
AcDbEntity
  8
metal
100
AcDbVertex
100
AcDb2dVertex
 10
-26965.25403784439
 20
-2370.0
 30
0.0
  0
VERTEX
  5
2B2
330
2AF
100
AcDbEntity
  8
metal
100
AcDbVertex
100
AcDb2dVertex
 10
-26605.25403784439
 20
-2370.0
 30
0.0
  0
VERTEX
  5
2B3
330
2AF
100
AcDbEntity
  8
metal
100
AcDbVertex
100
AcDb2dVertex
 10
-26605.25403784439
 20
-2730.0
 30
0.0
  0
VERTEX
  5
2B4
330
2AF
100
AcDbEntity
  8
metal
100
AcDbVertex
100
AcDb2dVertex
 10
-26965.25403784439
 20
-2730.0
 30
0.0
  0
VERTEX
  5
2B5
330
2AF
100
AcDbEntity
  8
metal
100
AcDbVertex
100
AcDb2dVertex
 10
-26965.25403784439
 20
-2370.0
 30
0.0
  0
SEQEND
  5
2B0
330
2AF
100
AcDbEntity
  8
metal
  0
POLYLINE
  5
2B6
330
17
100
AcDbEntity
  8
etch
100
AcDb2dPolyline
 66
     1
 10
0.0
 20
0.0
 30
0.0
 70
     1
  0
VERTEX
  5
2B8
330
2B6
100
AcDbEntity
  8
etch
100
AcDbVertex
100
AcDb2dVertex
 10
26610.25403784439
 20
-2375.0
 30
0.0
  0
VERTEX
  5
2B9
330
2B6
100
AcDbEntity
  8
etch
100
AcDbVertex
100
AcDb2dVertex
 10
26960.25403784439
 20
-2375.0
 30
0.0
  0
VERTEX
  5
2BA
330
2B6
100
AcDbEntity
  8
etch
100
AcDbVertex
100
AcDb2dVertex
 10
26960.25403784439
 20
-2725.0
 30
0.0
  0
VERTEX
  5
2BB
330
2B6
100
AcDbEntity
  8
etch
100
AcDbVertex
100
AcDb2dVertex
 10
26610.25403784439
 20
-2725.0
 30
0.0
  0
VERTEX
  5
2BC
330
2B6
100
AcDbEntity
  8
etch
100
AcDbVertex
100
AcDb2dVertex
 10
26610.25403784439
 20
-2375.0
 30
0.0
  0
SEQEND
  5
2B7
330
2B6
100
AcDbEntity
  8
etch
  0
POLYLINE
  5
2BD
330
17
100
AcDbEntity
  8
etch
100
AcDb2dPolyline
 66
     1
 10
0.0
 20
0.0
 30
0.0
 70
     1
  0
VERTEX
  5
2BF
330
2BD
100
AcDbEntity
  8
etch
100
AcDbVertex
100
AcDb2dVertex
 10
-26960.25403784439
 20
-2375.0
 30
0.0
  0
VERTEX
  5
2C0
330
2BD
100
AcDbEntity
  8
etch
100
AcDbVertex
100
AcDb2dVertex
 10
-26610.25403784439
 20
-2375.0
 30
0.0
  0
VERTEX
  5
2C1
330
2BD
100
AcDbEntity
  8
etch
100
AcDbVertex
100
AcDb2dVertex
 10
-26610.25403784439
 20
-2725.0
 30
0.0
  0
VERTEX
  5
2C2
330
2BD
100
AcDbEntity
  8
etch
100
AcDbVertex
100
AcDb2dVertex
 10
-26960.25403784439
 20
-2725.0
 30
0.0
  0
VERTEX
  5
2C3
330
2BD
100
AcDbEntity
  8
etch
100
AcDbVertex
100
AcDb2dVertex
 10
-26960.25403784439
 20
-2375.0
 30
0.0
  0
SEQEND
  5
2BE
330
2BD
100
AcDbEntity
  8
etch
  0
POLYLINE
  5
2C4
330
17
100
AcDbEntity
  8
metal
100
AcDb2dPolyline
 66
     1
 10
0.0
 20
0.0
 30
0.0
 70
     1
  0
VERTEX
  5
2C6
330
2C4
100
AcDbEntity
  8
metal
100
AcDbVertex
100
AcDb2dVertex
 10
25905.25403784439
 20
-2370.0
 30
0.0
  0
VERTEX
  5
2C7
330
2C4
100
AcDbEntity
  8
metal
100
AcDbVertex
100
AcDb2dVertex
 10
26265.25403784439
 20
-2370.0
 30
0.0
  0
VERTEX
  5
2C8
330
2C4
100
AcDbEntity
  8
metal
100
AcDbVertex
100
AcDb2dVertex
 10
26265.25403784439
 20
-2730.0
 30
0.0
  0
VERTEX
  5
2C9
330
2C4
100
AcDbEntity
  8
metal
100
AcDbVertex
100
AcDb2dVertex
 10
25905.25403784439
 20
-2730.0
 30
0.0
  0
VERTEX
  5
2CA
330
2C4
100
AcDbEntity
  8
metal
100
AcDbVertex
100
AcDb2dVertex
 10
25905.25403784439
 20
-2370.0
 30
0.0
  0
SEQEND
  5
2C5
330
2C4
100
AcDbEntity
  8
metal
  0
POLYLINE
  5
2CB
330
17
100
AcDbEntity
  8
metal
100
AcDb2dPolyline
 66
     1
 10
0.0
 20
0.0
 30
0.0
 70
     1
  0
VERTEX
  5
2CD
330
2CB
100
AcDbEntity
  8
metal
100
AcDbVertex
100
AcDb2dVertex
 10
-26265.25403784439
 20
-2370.0
 30
0.0
  0
VERTEX
  5
2CE
330
2CB
100
AcDbEntity
  8
metal
100
AcDbVertex
100
AcDb2dVertex
 10
-25905.25403784439
 20
-2370.0
 30
0.0
  0
VERTEX
  5
2CF
330
2CB
100
AcDbEntity
  8
metal
100
AcDbVertex
100
AcDb2dVertex
 10
-25905.25403784439
 20
-2730.0
 30
0.0
  0
VERTEX
  5
2D0
330
2CB
100
AcDbEntity
  8
metal
100
AcDbVertex
100
AcDb2dVertex
 10
-26265.25403784439
 20
-2730.0
 30
0.0
  0
VERTEX
  5
2D1
330
2CB
100
AcDbEntity
  8
metal
100
AcDbVertex
100
AcDb2dVertex
 10
-26265.25403784439
 20
-2370.0
 30
0.0
  0
SEQEND
  5
2CC
330
2CB
100
AcDbEntity
  8
metal
  0
POLYLINE
  5
2D2
330
17
100
AcDbEntity
  8
etch
100
AcDb2dPolyline
 66
     1
 10
0.0
 20
0.0
 30
0.0
 70
     1
  0
VERTEX
  5
2D4
330
2D2
100
AcDbEntity
  8
etch
100
AcDbVertex
100
AcDb2dVertex
 10
25910.25403784439
 20
-2375.0
 30
0.0
  0
VERTEX
  5
2D5
330
2D2
100
AcDbEntity
  8
etch
100
AcDbVertex
100
AcDb2dVertex
 10
26260.25403784439
 20
-2375.0
 30
0.0
  0
VERTEX
  5
2D6
330
2D2
100
AcDbEntity
  8
etch
100
AcDbVertex
100
AcDb2dVertex
 10
26260.25403784439
 20
-2725.0
 30
0.0
  0
VERTEX
  5
2D7
330
2D2
100
AcDbEntity
  8
etch
100
AcDbVertex
100
AcDb2dVertex
 10
25910.25403784439
 20
-2725.0
 30
0.0
  0
VERTEX
  5
2D8
330
2D2
100
AcDbEntity
  8
etch
100
AcDbVertex
100
AcDb2dVertex
 10
25910.25403784439
 20
-2375.0
 30
0.0
  0
SEQEND
  5
2D3
330
2D2
100
AcDbEntity
  8
etch
  0
POLYLINE
  5
2D9
330
17
100
AcDbEntity
  8
etch
100
AcDb2dPolyline
 66
     1
 10
0.0
 20
0.0
 30
0.0
 70
     1
  0
VERTEX
  5
2DB
330
2D9
100
AcDbEntity
  8
etch
100
AcDbVertex
100
AcDb2dVertex
 10
-26260.25403784439
 20
-2375.0
 30
0.0
  0
VERTEX
  5
2DC
330
2D9
100
AcDbEntity
  8
etch
100
AcDbVertex
100
AcDb2dVertex
 10
-25910.25403784439
 20
-2375.0
 30
0.0
  0
VERTEX
  5
2DD
330
2D9
100
AcDbEntity
  8
etch
100
AcDbVertex
100
AcDb2dVertex
 10
-25910.25403784439
 20
-2725.0
 30
0.0
  0
VERTEX
  5
2DE
330
2D9
100
AcDbEntity
  8
etch
100
AcDbVertex
100
AcDb2dVertex
 10
-26260.25403784439
 20
-2725.0
 30
0.0
  0
VERTEX
  5
2DF
330
2D9
100
AcDbEntity
  8
etch
100
AcDbVertex
100
AcDb2dVertex
 10
-26260.25403784439
 20
-2375.0
 30
0.0
  0
SEQEND
  5
2DA
330
2D9
100
AcDbEntity
  8
etch
  0
POLYLINE
  5
2E0
330
17
100
AcDbEntity
  8
metal
100
AcDb2dPolyline
 66
     1
 10
0.0
 20
0.0
 30
0.0
 70
     1
  0
VERTEX
  5
2E2
330
2E0
100
AcDbEntity
  8
metal
100
AcDbVertex
100
AcDb2dVertex
 10
25205.25403784439
 20
-2370.0
 30
0.0
  0
VERTEX
  5
2E3
330
2E0
100
AcDbEntity
  8
metal
100
AcDbVertex
100
AcDb2dVertex
 10
25565.25403784439
 20
-2370.0
 30
0.0
  0
VERTEX
  5
2E4
330
2E0
100
AcDbEntity
  8
metal
100
AcDbVertex
100
AcDb2dVertex
 10
25565.25403784439
 20
-2730.0
 30
0.0
  0
VERTEX
  5
2E5
330
2E0
100
AcDbEntity
  8
metal
100
AcDbVertex
100
AcDb2dVertex
 10
25205.25403784439
 20
-2730.0
 30
0.0
  0
VERTEX
  5
2E6
330
2E0
100
AcDbEntity
  8
metal
100
AcDbVertex
100
AcDb2dVertex
 10
25205.25403784439
 20
-2370.0
 30
0.0
  0
SEQEND
  5
2E1
330
2E0
100
AcDbEntity
  8
metal
  0
POLYLINE
  5
2E7
330
17
100
AcDbEntity
  8
metal
100
AcDb2dPolyline
 66
     1
 10
0.0
 20
0.0
 30
0.0
 70
     1
  0
VERTEX
  5
2E9
330
2E7
100
AcDbEntity
  8
metal
100
AcDbVertex
100
AcDb2dVertex
 10
-25565.25403784439
 20
-2370.0
 30
0.0
  0
VERTEX
  5
2EA
330
2E7
100
AcDbEntity
  8
metal
100
AcDbVertex
100
AcDb2dVertex
 10
-25205.25403784439
 20
-2370.0
 30
0.0
  0
VERTEX
  5
2EB
330
2E7
100
AcDbEntity
  8
metal
100
AcDbVertex
100
AcDb2dVertex
 10
-25205.25403784439
 20
-2730.0
 30
0.0
  0
VERTEX
  5
2EC
330
2E7
100
AcDbEntity
  8
metal
100
AcDbVertex
100
AcDb2dVertex
 10
-25565.25403784439
 20
-2730.0
 30
0.0
  0
VERTEX
  5
2ED
330
2E7
100
AcDbEntity
  8
metal
100
AcDbVertex
100
AcDb2dVertex
 10
-25565.25403784439
 20
-2370.0
 30
0.0
  0
SEQEND
  5
2E8
330
2E7
100
AcDbEntity
  8
metal
  0
POLYLINE
  5
2EE
330
17
100
AcDbEntity
  8
etch
100
AcDb2dPolyline
 66
     1
 10
0.0
 20
0.0
 30
0.0
 70
     1
  0
VERTEX
  5
2F0
330
2EE
100
AcDbEntity
  8
etch
100
AcDbVertex
100
AcDb2dVertex
 10
25210.25403784439
 20
-2375.0
 30
0.0
  0
VERTEX
  5
2F1
330
2EE
100
AcDbEntity
  8
etch
100
AcDbVertex
100
AcDb2dVertex
 10
25560.25403784439
 20
-2375.0
 30
0.0
  0
VERTEX
  5
2F2
330
2EE
100
AcDbEntity
  8
etch
100
AcDbVertex
100
AcDb2dVertex
 10
25560.25403784439
 20
-2725.0
 30
0.0
  0
VERTEX
  5
2F3
330
2EE
100
AcDbEntity
  8
etch
100
AcDbVertex
100
AcDb2dVertex
 10
25210.25403784439
 20
-2725.0
 30
0.0
  0
VERTEX
  5
2F4
330
2EE
100
AcDbEntity
  8
etch
100
AcDbVertex
100
AcDb2dVertex
 10
25210.25403784439
 20
-2375.0
 30
0.0
  0
SEQEND
  5
2EF
330
2EE
100
AcDbEntity
  8
etch
  0
POLYLINE
  5
2F5
330
17
100
AcDbEntity
  8
etch
100
AcDb2dPolyline
 66
     1
 10
0.0
 20
0.0
 30
0.0
 70
     1
  0
VERTEX
  5
2F7
330
2F5
100
AcDbEntity
  8
etch
100
AcDbVertex
100
AcDb2dVertex
 10
-25560.25403784439
 20
-2375.0
 30
0.0
  0
VERTEX
  5
2F8
330
2F5
100
AcDbEntity
  8
etch
100
AcDbVertex
100
AcDb2dVertex
 10
-25210.25403784439
 20
-2375.0
 30
0.0
  0
VERTEX
  5
2F9
330
2F5
100
AcDbEntity
  8
etch
100
AcDbVertex
100
AcDb2dVertex
 10
-25210.25403784439
 20
-2725.0
 30
0.0
  0
VERTEX
  5
2FA
330
2F5
100
AcDbEntity
  8
etch
100
AcDbVertex
100
AcDb2dVertex
 10
-25560.25403784439
 20
-2725.0
 30
0.0
  0
VERTEX
  5
2FB
330
2F5
100
AcDbEntity
  8
etch
100
AcDbVertex
100
AcDb2dVertex
 10
-25560.25403784439
 20
-2375.0
 30
0.0
  0
SEQEND
  5
2F6
330
2F5
100
AcDbEntity
  8
etch
  0
LWPOLYLINE
  5
2FD
330
17
100
AcDbEntity
  8
metal
100
AcDbPolyline
 90
       18
 70
     0
 10
26785.25403784439
 20
2550.0
 40
50.0
 41
50.0
 10
26084.89869878686
 20
3250.355339059328
 40
50.0
 41
50.0
 42
0.198912367379651
 10
26049.54335972753
 20
3265.0
 40
50.0
 41
10.0
 10
23820.00612398507
 20
3265.0
 40
10.0
 41
10.0
 42
0.2679491924311237
 10
23776.70485379584
 20
3240.0
 40
10.0
 41
10.0
 10
23421.63443824426
 20
2625.0
 40
10.0
 41
10.0
 42
-0.2679491924311251
 10
23378.33316805504
 20
2600.0
 40
10.0
 41
10.0
 10
9336.047190431925
 20
2600.0
 40
10.0
 41
10.0
 42
-0.2679491924311126
 10
9292.745920242701
 20
2625.0
 40
10.0
 41
10.0
 10
8764.433756729795
 20
3540.063509461095
 40
10.0
 41
10.0
 42
0.2679491924311251
 10
8721.132486540566
 20
3565.063509461096
 40
10.0
 41
10.0
 10
6470.584470034879
 20
3565.063509461096
 40
10.0
 41
10.0
 42
-0.2679491924311237
 10
6427.283199845657
 20
3590.063509461096
 40
10.0
 41
10.0
 10
6264.433756729737
 20
3872.127018922191
 40
10.0
 41
10.0
 42
0.2679491924311237
 10
6221.132486540515
 20
3897.127018922191
 40
10.0
 41
10.0
 10
2778.860180018688
 20
3897.127018922191
 40
10.0
 41
10.0
 42
-0.2679491924311237
 10
2735.558909829466
 20
3922.127018922191
 40
10.0
 41
10.0
 10
2500.0
 20
4330.12701892219
 40
10.0
 41
10.0
  0
LWPOLYLINE
  5
2FE
330
17
100
AcDbEntity
  8
metal
100
AcDbPolyline
 90
       18
 70
     0
 10
26085.25403784439
 20
2550.0
 40
50.0
 41
50.0
 10
25654.89869878617
 20
2980.355339059329
 40
50.0
 41
50.0
 42
0.1989123673796491
 10
25619.54335972684
 20
2995.0
 40
50.0
 41
10.0
 10
23975.89069666627
 20
2995.0
 40
10.0
 41
10.0
 42
0.2679491924311251
 10
23932.58942647705
 20
2970.0
 40
10.0
 41
10.0
 10
23502.46347593083
 20
2225.0
 40
10.0
 41
10.0
 42
-0.2679491924311251
 10
23459.1622057416
 20
2200.0
 40
10.0
 41
10.0
 10
9336.047190431925
 20
2200.0
 40
10.0
 41
10.0
 42
-0.2679491924311251
 10
9292.745920242701
 20
2225.0
 40
10.0
 41
10.0
 10
8764.433756729795
 20
3140.063509461095
 40
10.0
 41
10.0
 42
0.2679491924311251
 10
8721.132486540566
 20
3165.063509461095
 40
10.0
 41
10.0
 10
6451.531911151626
 20
3165.063509461095
 40
10.0
 41
10.0
 42
-0.2679491924311223
 10
6408.230640962404
 20
3190.063509461095
 40
10.0
 41
10.0
 10
6264.433756729737
 20
3439.127018922191
 40
10.0
 41
10.0
 42
0.2679491924311202
 10
6221.132486540522
 20
3464.127018922191
 40
10.0
 41
10.0
 10
528.8528465778981
 20
3464.127018922191
 40
10.0
 41
10.0
 42
-0.2679491924311231
 10
485.551576388676
 20
3489.127018922191
 40
10.0
 41
10.0
 10
0.0
 20
4330.12701892219
 40
10.0
 41
10.0
  0
LWPOLYLINE
  5
2FF
330
17
100
AcDbEntity
  8
metal
100
AcDbPolyline
 90
       18
 70
     0
 10
25385.25403784439
 20
2550.0
 40
50.0
 41
50.0
 10
25224.89869878548
 20
2710.355339059328
 40
50.0
 41
50.0
 42
0.1989123673796491
 10
25189.54335972615
 20
2725.0
 40
50.0
 41
10.0
 10
24131.77526934747
 20
2725.0
 40
10.0
 41
10.0
 42
0.2679491924311237
 10
24088.47399915824
 20
2700.0
 40
10.0
 41
10.0
 10
23583.29251361737
 20
1825.0
 40
10.0
 41
10.0
 42
-0.2679491924311028
 10
23539.99124342816
 20
1800.0
 40
10.0
 41
10.0
 10
9336.047190431925
 20
1800.0
 40
10.0
 41
10.0
 42
-0.2679491924311237
 10
9292.745920242701
 20
1825.0
 40
10.0
 41
10.0
 10
8764.433756729795
 20
2740.063509461095
 40
10.0
 41
10.0
 42
0.2679491924311251
 10
8721.132486540566
 20
2765.063509461095
 40
10.0
 41
10.0
 10
6432.479352268365
 20
2765.063509461095
 40
10.0
 41
10.0
 42
-0.2679491924311223
 10
6389.178082079143
 20
2790.063509461095
 40
10.0
 41
10.0
 10
6264.433756729737
 20
3006.127018922191
 40
10.0
 41
10.0
 42
0.2679491924311237
 10
6221.132486540515
 20
3031.127018922191
 40
10.0
 41
10.0
 10
-1721.154486862888
 20
3031.127018922191
 40
10.0
 41
10.0
 42
-0.2679491924311224
 10
-1764.45575705211
 20
3056.12701892219
 40
10.0
 41
10.0
 10
-2500.0
 20
4330.12701892219
 40
10.0
 41
10.0
  0
LWPOLYLINE
  5
300
330
17
100
AcDbEntity
  8
metal
100
AcDbPolyline
 90
       18
 70
     0
 10
27485.25403784439
 20
850.0
 40
50.0
 41
50.0
 10
26514.8986987874
 20
1820.355339059328
 40
50.0
 41
50.0
 42
0.1989123673796491
 10
26479.54335972808
 20
1835.0
 40
50.0
 41
10.0
 10
24287.65984202867
 20
1835.0
 40
10.0
 41
10.0
 42
0.2679491924311237
 10
24244.35857183944
 20
1810.0
 40
10.0
 41
10.0
 10
24022.07871820146
 20
1425.0
 40
10.0
 41
10.0
 42
-0.2679491924311251
 10
23978.77744801224
 20
1400.0
 40
10.0
 41
10.0
 10
9336.047190431932
 20
1400.0
 40
10.0
 41
10.0
 42
-0.2679491924311251
 10
9292.745920242701
 20
1425.0
 40
10.0
 41
10.0
 10
8764.433756729795
 20
2340.063509461099
 40
10.0
 41
10.0
 42
0.2679491924311223
 10
8721.132486540573
 20
2365.063509461095
 40
10.0
 41
10.0
 10
6413.426793385112
 20
2365.063509461095
 40
10.0
 41
10.0
 42
-0.2679491924311237
 10
6370.125523195889
 20
2390.063509461095
 40
10.0
 41
10.0
 10
6264.433756729737
 20
2573.127018922191
 40
10.0
 41
10.0
 42
0.2679491924311286
 10
6221.132486540515
 20
2598.127018922191
 40
10.0
 41
10.0
 10
-3971.161820303678
 20
2598.127018922191
 40
10.0
 41
10.0
 42
-0.2679491924311237
 10
-4014.4630904929
 20
2623.127018922191
 40
10.0
 41
10.0
 10
-5000.0
 20
4330.12701892219
 40
10.0
 41
10.0
  0
LWPOLYLINE
  5
301
330
17
100
AcDbEntity
  8
metal
100
AcDbPolyline
 90
       14
 70
     0
 10
26785.25403784439
 20
850.0
 40
50.0
 41
50.0
 10
26084.89869878675
 20
1550.355339059327
 40
50.0
 41
50.0
 42
0.198912367379651
 10
26049.54335972743
 20
1565.0
 40
50.0
 41
10.0
 10
24443.54441470987
 20
1565.0
 40
10.0
 41
10.0
 42
0.267949192431123
 10
24400.24314452065
 20
1540.0
 40
10.0
 41
10.0
 10
24102.90775588802
 20
1025.0
 40
10.0
 41
10.0
 42
-0.2679491924311241
 10
24059.6064856988
 20
999.9999999999998
 40
10.0
 41
10.0
 10
8597.119015828717
 20
1000.0
 40
10.0
 41
10.0
 42
0.267949192431122
 10
8553.817745639495
 20
975.0
 40
10.0
 41
10.0
 10
7826.933756729737
 20
-284.0
 40
10.0
 41
10.0
 42
-0.267949192431124
 10
7783.632486540522
 20
-309.0
 40
10.0
 41
10.0
 10
5207.268746639075
 20
-309.0
 40
10.0
 41
10.0
 42
-0.2679491924311237
 10
5163.967476449852
 20
-284.0
 40
10.0
 41
10.0
 10
5000.0
 20
0.0
 40
10.0
 41
10.0
  0
LWPOLYLINE
  5
302
330
17
100
AcDbEntity
  8
metal
100
AcDbPolyline
 90
       14
 70
     0
 10
26085.25403784439
 20
850.0
 40
50.0
 41
50.0
 10
25654.8986987861
 20
1280.355339059326
 40
50.0
 41
50.0
 42
0.1989123673796719
 10
25619.54335972677
 20
1295.0
 40
50.0
 41
10.0
 10
24599.42898739106
 20
1295.0
 40
10.0
 41
10.0
 42
0.2679491924311237
 10
24556.12771720184
 20
1270.0
 40
10.0
 41
10.0
 10
24183.73679357458
 20
625.0
 40
10.0
 41
10.0
 42
-0.2679491924311237
 10
24140.43552338535
 20
600.0
 40
10.0
 41
10.0
 10
8544.580141332463
 20
600.0
 40
10.0
 41
10.0
 42
0.2679491924311223
 10
8501.27887114324
 20
575.0
 40
10.0
 41
10.0
 10
7826.933756729737
 20
-593.0
 40
10.0
 41
10.0
 42
-0.2679491924311237
 10
7783.632486540522
 20
-618.0
 40
10.0
 41
10.0
 10
2885.669979818671
 20
-618.0
 40
10.0
 41
10.0
 42
-0.2679491924311241
 10
2842.368709629449
 20
-593.0
 40
10.0
 41
10.0
 10
2500.0
 20
0.0
 40
10.0
 41
10.0
  0
LWPOLYLINE
  5
303
330
17
100
AcDbEntity
  8
metal
100
AcDbPolyline
 90
       14
 70
     0
 10
25385.25403784439
 20
850.0
 40
50.0
 41
50.0
 10
25224.89869878545
 20
1010.355339059327
 40
50.0
 41
50.0
 42
0.1989123673796514
 10
25189.54335972612
 20
1025.0
 40
50.0
 41
10.0
 10
24755.31356007226
 20
1025.0
 40
10.0
 41
10.0
 42
0.2679491924311241
 10
24712.01228988304
 20
999.9999999999998
 40
10.0
 41
10.0
 10
24264.56583126107
 20
224.9999999999997
 40
10.0
 41
10.0
 42
-0.2679491924311229
 10
24221.26456107185
 20
200.0
 40
10.0
 41
10.0
 10
8492.041266836201
 20
200.0
 40
10.0
 41
10.0
 42
0.2679491924311126
 10
8448.739996646985
 20
175.0
 40
10.0
 41
10.0
 10
7826.933756729737
 20
-902.0
 40
10.0
 41
10.0
 42
-0.2679491924311241
 10
7783.632486540522
 20
-927.0
 40
10.0
 41
10.0
 10
564.0712129982639
 20
-927.0
 40
10.0
 41
10.0
 42
-0.2679491924311221
 10
520.7699428090418
 20
-902.0
 40
10.0
 41
10.0
 10
0.0
 20
0.0
 40
10.0
 41
10.0
  0
LWPOLYLINE
  5
304
330
17
100
AcDbEntity
  8
metal
100
AcDbPolyline
 90
       16
 70
     0
 10
27485.25403784439
 20
-850.0
 40
50.0
 41
50.0
 10
26514.8986987874
 20
-1820.355339059328
 40
50.0
 41
50.0
 42
-0.1989123673796491
 10
26479.54335972808
 20
-1835.0
 40
50.0
 41
10.0
 10
24287.65984202867
 20
-1835.0
 40
10.0
 41
10.0
 42
-0.2679491924311237
 10
24244.35857183944
 20
-1810.0
 40
10.0
 41
10.0
 10
24022.07871820146
 20
-1425.0
 40
10.0
 41
10.0
 42
0.2679491924311251
 10
23978.77744801224
 20
-1400.0
 40
10.0
 41
10.0
 10
8398.547190431873
 20
-1400.0
 40
10.0
 41
10.0
 42
0.2679491924311294
 10
8355.24592024265
 20
-1425.000000000004
 40
10.0
 41
10.0
 10
7826.933756729737
 20
-2340.063509461099
 40
10.0
 41
10.0
 42
-0.2679491924311237
 10
7783.632486540515
 20
-2365.063509461099
 40
10.0
 41
10.0
 10
6475.897459622025
 20
-2365.063509461099
 40
10.0
 41
10.0
 42
0.2679491924311237
 10
6432.596189432796
 20
-2390.063509461099
 40
10.0
 41
10.0
 10
5326.933756729744
 20
-4305.127018922202
 40
10.0
 41
10.0
 42
-0.267949192431074
 10
5283.632486540522
 20
-4330.127018922194
 40
10.0
 41
10.0
 10
5000.0
 20
-4330.127018922194
 40
10.0
 41
10.0
  0
LWPOLYLINE
  5
305
330
17
100
AcDbEntity
  8
metal
100
AcDbPolyline
 90
       14
 70
     0
 10
26785.25403784439
 20
-850.0
 40
50.0
 41
50.0
 10
26084.89869878675
 20
-1550.355339059327
 40
50.0
 41
50.0
 42
-0.198912367379651
 10
26049.54335972743
 20
-1565.0
 40
50.0
 41
10.0
 10
24443.54441470987
 20
-1565.0
 40
10.0
 41
10.0
 42
-0.2679491924311301
 10
24400.24314452065
 20
-1539.999999999998
 40
10.0
 41
10.0
 10
24102.90775588802
 20
-1025.0
 40
10.0
 41
10.0
 42
0.2679491924311241
 10
24059.6064856988
 20
-999.9999999999998
 40
10.0
 41
10.0
 10
8334.424643347372
 20
-1000.0
 40
10.0
 41
10.0
 42
0.2679491924311405
 10
8291.123373158148
 20
-1025.0
 40
10.0
 41
10.0
 10
7826.933756729737
 20
-1829.0
 40
10.0
 41
10.0
 42
-0.267949192431123
 10
7783.632486540515
 20
-1854.0
 40
10.0
 41
10.0
 10
-6400.725087462951
 20
-1854.0
 40
10.0
 41
10.0
 42
-0.2679491924311237
 10
-6444.026357652171
 20
-1829.0
 40
10.0
 41
10.0
 10
-7500.0
 20
0.0
 40
10.0
 41
10.0
  0
LWPOLYLINE
  5
306
330
17
100
AcDbEntity
  8
metal
100
AcDbPolyline
 90
       14
 70
     0
 10
26085.25403784439
 20
-850.0
 40
50.0
 41
50.0
 10
25654.8986987861
 20
-1280.355339059326
 40
50.0
 41
50.0
 42
-0.1989123673796719
 10
25619.54335972677
 20
-1295.0
 40
50.0
 41
10.0
 10
24599.42898739106
 20
-1295.0
 40
10.0
 41
10.0
 42
-0.2679491924311301
 10
24556.12771720184
 20
-1269.999999999998
 40
10.0
 41
10.0
 10
24183.73679357458
 20
-625.0
 40
10.0
 41
10.0
 42
0.2679491924311237
 10
24140.43552338535
 20
-600.0
 40
10.0
 41
10.0
 10
8386.963517843618
 20
-600.0
 40
10.0
 41
10.0
 42
0.2679491924311513
 10
8343.662247654396
 20
-625.0000000000036
 40
10.0
 41
10.0
 10
7826.933756729737
 20
-1520.0
 40
10.0
 41
10.0
 42
-0.2679491924311237
 10
7783.632486540522
 20
-1545.0
 40
10.0
 41
10.0
 10
-4079.126320642546
 20
-1545.0
 40
10.0
 41
10.0
 42
-0.2679491924311237
 10
-4122.427590831768
 20
-1520.0
 40
10.0
 41
10.0
 10
-5000.0
 20
0.0
 40
10.0
 41
10.0
  0
LWPOLYLINE
  5
307
330
17
100
AcDbEntity
  8
metal
100
AcDbPolyline
 90
       14
 70
     0
 10
25385.25403784439
 20
-850.0
 40
50.0
 41
50.0
 10
25224.89869878545
 20
-1010.355339059327
 40
50.0
 41
50.0
 42
-0.1989123673796514
 10
25189.54335972612
 20
-1025.0
 40
50.0
 41
10.0
 10
24755.31356007226
 20
-1025.0
 40
10.0
 41
10.0
 42
-0.2679491924311304
 10
24712.01228988304
 20
-999.9999999999978
 40
10.0
 41
10.0
 10
24264.56583126114
 20
-224.9999999999994
 40
10.0
 41
10.0
 42
0.2679491924311218
 10
24221.26456107191
 20
-200.0
 40
10.0
 41
10.0
 10
8439.502392339873
 20
-200.0
 40
10.0
 41
10.0
 42
0.267949192431129
 10
8396.201122150644
 20
-225.0
 40
10.0
 41
10.0
 10
7826.933756729737
 20
-1211.0
 40
10.0
 41
10.0
 42
-0.267949192431123
 10
7783.632486540515
 20
-1236.0
 40
10.0
 41
10.0
 10
-1757.527553822139
 20
-1236.0
 40
10.0
 41
10.0
 42
-0.2679491924311224
 10
-1800.828824011361
 20
-1211.0
 40
10.0
 41
10.0
 10
-2500.0
 20
0.0
 40
10.0
 41
10.0
  0
LWPOLYLINE
  5
308
330
17
100
AcDbEntity
  8
metal
100
AcDbPolyline
 90
       18
 70
     0
 10
27485.25403784439
 20
-2550.0
 40
50.0
 41
50.0
 10
26514.89869878756
 20
-3520.355339059327
 40
50.0
 41
50.0
 42
-0.1989123673796719
 10
26479.54335972823
 20
-3535.0
 40
50.0
 41
10.0
 10
23664.12155130387
 20
-3535.0
 40
10.0
 41
10.0
 42
-0.2679491924311308
 10
23620.82028111465
 20
-3509.999999999998
 40
10.0
 41
10.0
 10
23340.80540055771
 20
-3025.0
 40
10.0
 41
10.0
 42
0.2679491924311237
 10
23297.50413036849
 20
-3000.0
 40
10.0
 41
10.0
 10
8398.547190431873
 20
-3000.0
 40
10.0
 41
10.0
 42
0.2679491924311308
 10
8355.245920242643
 20
-3025.000000000004
 40
10.0
 41
10.0
 10
7826.933756729737
 20
-3940.063509461097
 40
10.0
 41
10.0
 42
-0.2679491924311237
 10
7783.632486540515
 20
-3965.063509461097
 40
10.0
 41
10.0
 10
6552.107695155083
 20
-3965.063509461097
 40
10.0
 41
10.0
 42
0.2679491924311265
 10
6508.80642496586
 20
-3990.063509461099
 40
10.0
 41
10.0
 10
5326.933756729744
 20
-6037.127018922202
 40
10.0
 41
10.0
 42
-0.267949192431074
 10
5283.632486540522
 20
-6062.127018922194
 40
10.0
 41
10.0
 10
-3971.161820303678
 20
-6062.127018922194
 40
10.0
 41
10.0
 42
-0.2679491924311237
 10
-4014.4630904929
 20
-6037.127018922195
 40
10.0
 41
10.0
 10
-5000.0
 20
-4330.127018922194
 40
10.0
 41
10.0
  0
LWPOLYLINE
  5
309
330
17
100
AcDbEntity
  8
metal
100
AcDbPolyline
 90
       18
 70
     0
 10
26785.25403784439
 20
-2550.0
 40
50.0
 41
50.0
 10
26084.89869878686
 20
-3250.355339059328
 40
50.0
 41
50.0
 42
-0.198912367379651
 10
26049.54335972753
 20
-3265.0
 40
50.0
 41
10.0
 10
23820.00612398507
 20
-3265.0
 40
10.0
 41
10.0
 42
-0.2679491924311308
 10
23776.70485379584
 20
-3239.999999999998
 40
10.0
 41
10.0
 10
23421.63443824427
 20
-2625.0
 40
10.0
 41
10.0
 42
0.2679491924311237
 10
23378.33316805504
 20
-2600.0
 40
10.0
 41
10.0
 10
8398.547190431873
 20
-2600.0
 40
10.0
 41
10.0
 42
0.2679491924311405
 10
8355.245920242643
 20
-2625.0
 40
10.0
 41
10.0
 10
7826.933756729737
 20
-3540.063509461099
 40
10.0
 41
10.0
 42
-0.2679491924311237
 10
7783.632486540515
 20
-3565.063509461099
 40
10.0
 41
10.0
 10
6533.055136271821
 20
-3565.063509461099
 40
10.0
 41
10.0
 42
0.2679491924311237
 10
6489.7538660826
 20
-3590.063509461099
 40
10.0
 41
10.0
 10
5326.933756729744
 20
-5604.127018922202
 40
10.0
 41
10.0
 42
-0.2679491924310768
 10
5283.632486540522
 20
-5629.127018922194
 40
10.0
 41
10.0
 10
-1721.154486862888
 20
-5629.127018922194
 40
10.0
 41
10.0
 42
-0.2679491924311224
 10
-1764.45575705211
 20
-5604.127018922194
 40
10.0
 41
10.0
 10
-2500.0
 20
-4330.127018922194
 40
10.0
 41
10.0
  0
LWPOLYLINE
  5
30A
330
17
100
AcDbEntity
  8
metal
100
AcDbPolyline
 90
       18
 70
     0
 10
26085.25403784439
 20
-2550.0
 40
50.0
 41
50.0
 10
25654.89869878617
 20
-2980.355339059329
 40
50.0
 41
50.0
 42
-0.1989123673796491
 10
25619.54335972684
 20
-2995.0
 40
50.0
 41
10.0
 10
23975.89069666627
 20
-2995.0
 40
10.0
 41
10.0
 42
-0.2679491924311308
 10
23932.58942647705
 20
-2969.999999999998
 40
10.0
 41
10.0
 10
23502.46347593083
 20
-2225.0
 40
10.0
 41
10.0
 42
0.2679491924311251
 10
23459.1622057416
 20
-2200.0
 40
10.0
 41
10.0
 10
8398.547190431873
 20
-2200.0
 40
10.0
 41
10.0
 42
0.2679491924311405
 10
8355.245920242643
 20
-2225.000000000004
 40
10.0
 41
10.0
 10
7826.933756729737
 20
-3140.063509461099
 40
10.0
 41
10.0
 42
-0.2679491924311237
 10
7783.632486540515
 20
-3165.063509461099
 40
10.0
 41
10.0
 10
6514.002577388554
 20
-3165.063509461099
 40
10.0
 41
10.0
 42
0.2679491924311251
 10
6470.701307199331
 20
-3190.063509461099
 40
10.0
 41
10.0
 10
5326.933756729744
 20
-5171.127018922201
 40
10.0
 41
10.0
 42
-0.267949192431074
 10
5283.632486540522
 20
-5196.127018922194
 40
10.0
 41
10.0
 10
528.8528465778981
 20
-5196.127018922194
 40
10.0
 41
10.0
 42
-0.2679491924311231
 10
485.551576388676
 20
-5171.127018922194
 40
10.0
 41
10.0
 10
0.0
 20
-4330.127018922194
 40
10.0
 41
10.0
  0
LWPOLYLINE
  5
30B
330
17
100
AcDbEntity
  8
metal
100
AcDbPolyline
 90
       18
 70
     0
 10
25385.25403784439
 20
-2550.0
 40
50.0
 41
50.0
 10
25224.89869878548
 20
-2710.355339059328
 40
50.0
 41
50.0
 42
-0.1989123673796491
 10
25189.54335972615
 20
-2725.0
 40
50.0
 41
10.0
 10
24131.77526934747
 20
-2725.0
 40
10.0
 41
10.0
 42
-0.2679491924311308
 10
24088.47399915824
 20
-2699.999999999998
 40
10.0
 41
10.0
 10
23583.29251361738
 20
-1825.000000000001
 40
10.0
 41
10.0
 42
0.2679491924311259
 10
23539.99124342816
 20
-1800.0
 40
10.0
 41
10.0
 10
8398.547190431873
 20
-1800.0
 40
10.0
 41
10.0
 42
0.2679491924311391
 10
8355.245920242643
 20
-1825.0
 40
10.0
 41
10.0
 10
7826.933756729737
 20
-2740.063509461099
 40
10.0
 41
10.0
 42
-0.2679491924311237
 10
7783.632486540515
 20
-2765.063509461099
 40
10.0
 41
10.0
 10
6494.950018505285
 20
-2765.063509461099
 40
10.0
 41
10.0
 42
0.2679491924311237
 10
6451.648748316063
 20
-2790.063509461099
 40
10.0
 41
10.0
 10
5326.933756729744
 20
-4738.127018922202
 40
10.0
 41
10.0
 42
-0.2679491924310768
 10
5283.632486540522
 20
-4763.127018922194
 40
10.0
 41
10.0
 10
2778.860180018688
 20
-4763.127018922194
 40
10.0
 41
10.0
 42
-0.2679491924311213
 10
2735.558909829466
 20
-4738.127018922194
 40
10.0
 41
10.0
 10
2500.0
 20
-4330.127018922194
 40
10.0
 41
10.0
  0
LWPOLYLINE
  5
31C
330
17
100
AcDbEntity
  8
metal
100
AcDbPolyline
 90
       16
 70
     0
 10
27485.25403784439
 20
2550.0
 40
50.0
 41
50.0
 10
26514.89869878756
 20
3520.355339059327
 40
50.0
 41
50.0
 42
0.1989123673796719
 10
26479.54335972823
 20
3535.0
 40
50.0
 41
10.0
 10
23664.12155130387
 20
3535.0
 40
10.0
 41
10.0
 42
0.2679491924311223
 10
23620.82028111465
 20
3510.000000000001
 40
10.0
 41
10.0
 10
23340.80540055771
 20
3024.999999999999
 40
10.0
 41
10.0
 42
-0.2679491924311209
 10
23297.50413036849
 20
3000.0
 40
10.0
 41
10.0
 10
9336.047190431925
 20
3000.0
 40
10.0
 41
10.0
 42
-0.2679491924311126
 10
9292.745920242701
 20
3025.0
 40
10.0
 41
10.0
 10
8764.433756729795
 20
3940.063509461096
 40
10.0
 41
10.0
 42
0.2679491924311251
 10
8721.132486540566
 20
3965.063509461096
 40
10.0
 41
10.0
 10
6489.637028918235
 20
3965.063509461096
 40
10.0
 41
10.0
 42
-0.2679491924311251
 10
6446.335758729012
 20
3990.063509461096
 40
10.0
 41
10.0
 10
6264.433756729745
 20
4305.127018922195
 40
10.0
 41
10.0
 42
0.2679491924311161
 10
6221.132486540522
 20
4330.12701892219
 40
10.0
 41
10.0
 10
5000.0
 20
4330.12701892219
 40
10.0
 41
10.0
  0
LWPOLYLINE
  5
32D
330
17
100
AcDbEntity
  8
metal
100
AcDbPolyline
 90
       14
 70
     0
 10
-26785.25403784439
 20
2550.0
 40
50.0
 41
50.0
 10
-26084.89869878686
 20
3250.355339059328
 40
50.0
 41
50.0
 42
-0.198912367379651
 10
-26049.54335972753
 20
3265.0
 40
50.0
 41
10.0
 10
-23820.00612398507
 20
3265.0
 40
10.0
 41
10.0
 42
-0.2679491924311308
 10
-23776.70485379584
 20
3239.999999999998
 40
10.0
 41
10.0
 10
-23421.63443824427
 20
2625.0
 40
10.0
 41
10.0
 42
0.2679491924311237
 10
-23378.33316805504
 20
2600.0
 40
10.0
 41
10.0
 10
-6653.06382230395
 20
2600.0
 40
10.0
 41
10.0
 42
0.2679491924311237
 10
-6609.762552114728
 20
2625.0
 40
10.0
 41
10.0
 10
-5014.433756729744
 20
5388.190528383289
 40
10.0
 41
10.0
 42
-0.2679491924311237
 10
-4971.132486540522
 20
5413.190528383289
 40
10.0
 41
10.0
 10
596.439495277089
 20
5413.190528383289
 40
10.0
 41
10.0
 42
0.2679491924311237
 10
639.7407654663111
 20
5438.190528383289
 40
10.0
 41
10.0
 10
1250.0
 20
6495.19052838329
 40
10.0
 41
10.0
  0
LWPOLYLINE
  5
32E
330
17
100
AcDbEntity
  8
metal
100
AcDbPolyline
 90
       12
 70
     0
 10
-26085.25403784439
 20
2550.0
 40
50.0
 41
50.0
 10
-25654.89869878617
 20
2980.355339059329
 40
50.0
 41
50.0
 42
-0.1989123673796491
 10
-25619.54335972684
 20
2995.0
 40
50.0
 41
10.0
 10
-23975.89069666627
 20
2995.0
 40
10.0
 41
10.0
 42
-0.2679491924311308
 10
-23932.58942647705
 20
2969.999999999998
 40
10.0
 41
10.0
 10
-23502.46347593083
 20
2225.0
 40
10.0
 41
10.0
 42
0.2679491924311237
 10
-23459.1622057416
 20
2200.000000000001
 40
10.0
 41
10.0
 10
-7550.852410608382
 20
2200.0
 40
10.0
 41
10.0
 42
-0.2401598481097228
 10
-7510.392549865635
 20
2179.376856003957
 40
10.0
 41
10.0
 10
-7514.973930221192
 20
2185.686653457116
 40
10.0
 41
10.0
 42
0.2401598481095761
 10
-7474.514069478461
 20
2165.063509461095
 40
10.0
 41
10.0
 10
-6250.0
 20
2165.063509461095
 40
10.0
 41
10.0
  0
LWPOLYLINE
  5
32F
330
17
100
AcDbEntity
  8
metal
100
AcDbPolyline
 90
       14
 70
     0
 10
-25385.25403784439
 20
2550.0
 40
50.0
 41
50.0
 10
-25224.89869878548
 20
2710.355339059328
 40
50.0
 41
50.0
 42
-0.1989123673796491
 10
-25189.54335972615
 20
2725.0
 40
50.0
 41
10.0
 10
-24131.77526934747
 20
2725.0
 40
10.0
 41
10.0
 42
-0.2679491924311237
 10
-24088.47399915824
 20
2700.0
 40
10.0
 41
10.0
 10
-23583.29251361737
 20
1825.0
 40
10.0
 41
10.0
 42
0.2679491924311223
 10
-23539.99124342815
 20
1800.0
 40
10.0
 41
10.0
 10
-7535.887249484879
 20
1800.0
 40
10.0
 41
10.0
 42
0.0393143367841723
 10
-7528.060747357766
 20
1800.616340106728
 40
10.0
 41
10.0
 10
-7503.888982551206
 20
1804.447169354367
 40
10.0
 41
10.0
 42
-0.0393143367841721
 10
-7496.06248042409
 20
1805.063509461095
 40
10.0
 41
10.0
 10
-3986.713610367726
 20
1805.063509461095
 40
10.0
 41
10.0
 42
0.2679491924311245
 10
-3943.412340178504
 20
1830.063509461095
 40
10.0
 41
10.0
 10
-3750.0
 20
2165.063509461095
 40
10.0
 41
10.0
  0
LWPOLYLINE
  5
33C
330
17
100
AcDbEntity
  8
metal
100
AcDbPolyline
 90
       14
 70
     0
 10
-27485.25403784439
 20
2550.0
 40
50.0
 41
50.0
 10
-26514.89869878756
 20
3520.355339059327
 40
50.0
 41
50.0
 42
-0.1989123673796719
 10
-26479.54335972823
 20
3535.0
 40
50.0
 41
10.0
 10
-23664.12155130387
 20
3535.0
 40
10.0
 41
10.0
 42
-0.2679491924311308
 10
-23620.82028111465
 20
3509.999999999998
 40
10.0
 41
10.0
 10
-23340.80540055771
 20
3025.0
 40
10.0
 41
10.0
 42
0.2679491924311237
 10
-23297.50413036849
 20
3000.0
 40
10.0
 41
10.0
 10
-6734.470210259718
 20
3000.0
 40
10.0
 41
10.0
 42
0.2679491924311251
 10
-6691.168940070496
 20
3025.0
 40
10.0
 41
10.0
 10
-5014.433756729744
 20
5929.19052838329
 40
10.0
 41
10.0
 42
-0.2679491924311188
 10
-4971.132486540525
 20
5954.190528383289
 40
10.0
 41
10.0
 10
-1591.214009091192
 20
5954.190528383289
 40
10.0
 41
10.0
 42
0.2679491924311224
 10
-1547.91273890197
 20
5979.19052838329
 40
10.0
 41
10.0
 10
-1250.0
 20
6495.19052838329
 40
10.0
 41
10.0
  0
LWPOLYLINE
  5
347
330
17
100
AcDbEntity
  8
metal
100
AcDbPolyline
 90
       14
 70
     0
 10
-25385.25403784439
 20
-2550.0
 40
50.0
 41
50.0
 10
-25224.89869878548
 20
-2710.355339059328
 40
50.0
 41
50.0
 42
0.1989123673796491
 10
-25189.54335972615
 20
-2725.0
 40
50.0
 41
10.0
 10
-24131.77526934747
 20
-2725.0
 40
10.0
 41
10.0
 42
0.2679491924311308
 10
-24088.47399915824
 20
-2699.999999999998
 40
10.0
 41
10.0
 10
-23583.29251361738
 20
-1825.000000000001
 40
10.0
 41
10.0
 42
-0.2679491924311259
 10
-23539.99124342816
 20
-1800.0
 40
10.0
 41
10.0
 10
-7633.521416551103
 20
-1800.0
 40
10.0
 41
10.0
 42
-0.2679491924311245
 10
-7590.220146361881
 20
-1825.0
 40
10.0
 41
10.0
 10
-6576.933756729741
 20
-3580.063509461095
 40
10.0
 41
10.0
 42
0.2679491924311356
 10
-6533.632486540518
 20
-3605.063509461099
 40
10.0
 41
10.0
 10
2889.748098907549
 20
-3605.063509461099
 40
10.0
 41
10.0
 42
0.2679491924311213
 10
2933.049369096767
 20
-3580.063509461099
 40
10.0
 41
10.0
 10
3750.0
 20
-2165.063509461099
 40
10.0
 41
10.0
  0
LWPOLYLINE
  5
3D5
330
17
100
AcDbEntity
  8
metal
100
AcDbPolyline
 90
       14
 70
     0
 10
-1250.0
 20
2165.063509461095
 40
10.0
 41
10.0
 10
-1651.258437086744
 20
1470.063509461095
 40
10.0
 41
10.0
 42
-0.2679491924311224
 10
-1694.559707275966
 20
1445.063509461095
 40
10.0
 41
10.0
 10
-7471.132486540515
 20
1445.063509461095
 40
10.0
 41
10.0
 42
0.267949192431123
 10
-7514.433756729737
 20
1420.063509461095
 40
10.0
 41
10.0
 10
-7511.583672588251
 20
1424.999999999996
 40
10.0
 41
10.0
 42
-0.267949192431095
 10
-7554.884942777473
 20
1400.0
 40
10.0
 41
10.0
 10
-23978.77744801224
 20
1400.0
 40
10.0
 41
10.0
 42
-0.2679491924311251
 10
-24022.07871820146
 20
1425.0
 40
10.0
 41
10.0
 10
-24244.35857183944
 20
1810.0
 40
10.0
 41
10.0
 42
0.2679491924311237
 10
-24287.65984202867
 20
1835.0
 40
10.0
 41
50.0
 10
-26479.54335972808
 20
1835.0
 40
50.0
 41
50.0
 42
0.1989123673796491
 10
-26514.8986987874
 20
1820.355339059328
 40
50.0
 41
50.0
 10
-27485.25403784439
 20
850.0
 40
50.0
 41
50.0
  0
LWPOLYLINE
  5
3D7
330
17
100
AcDbEntity
  8
metal
100
AcDbPolyline
 90
       12
 70
     0
 10
-6250.0
 20
-2165.063509461099
 40
10.0
 41
10.0
 10
-6533.632486540518
 20
-2165.063509461099
 40
10.0
 41
10.0
 42
-0.2679491924311356
 10
-6576.933756729741
 20
-2140.063509461095
 40
10.0
 41
10.0
 10
-7682.59618943221
 20
-225.0
 40
10.0
 41
10.0
 42
0.2679491924311242
 10
-7725.897459621432
 20
-200.0
 40
10.0
 41
10.0
 10
-24221.26456107191
 20
-200.0
 40
10.0
 41
10.0
 42
0.2679491924311218
 10
-24264.56583126114
 20
-224.9999999999994
 40
10.0
 41
10.0
 10
-24712.01228988308
 20
-999.9999999999976
 40
10.0
 41
10.0
 42
-0.2679491924311311
 10
-24755.3135600723
 20
-1025.0
 40
10.0
 41
50.0
 10
-25189.54335972612
 20
-1025.0
 40
50.0
 41
50.0
 42
-0.198912367379651
 10
-25224.89869878545
 20
-1010.355339059327
 40
50.0
 41
50.0
 10
-25385.25403784439
 20
-850.0
 40
50.0
 41
50.0
  0
LWPOLYLINE
  5
3D8
330
17
100
AcDbEntity
  8
metal
100
AcDbPolyline
 90
       14
 70
     0
 10
6250.000000000003
 20
-2165.063509461099
 40
10.0
 41
10.0
 10
5225.203272188529
 20
-3940.063509461097
 40
10.0
 41
10.0
 42
-0.2679491924311237
 10
5181.902001999308
 20
-3965.063509461097
 40
10.0
 41
10.0
 10
-6533.632486540515
 20
-3965.063509461097
 40
10.0
 41
10.0
 42
-0.267949192431144
 10
-6576.933756729737
 20
-3940.063509461096
 40
10.0
 41
10.0
 10
-7567.126135594299
 20
-2225.0
 40
10.0
 41
10.0
 42
0.2679491924311237
 10
-7610.427405783521
 20
-2200.0
 40
10.0
 41
10.0
 10
-23459.1622057416
 20
-2200.0
 40
10.0
 41
10.0
 42
0.2679491924311237
 10
-23502.46347593083
 20
-2225.0
 40
10.0
 41
10.0
 10
-23932.58942647705
 20
-2969.999999999998
 40
10.0
 41
10.0
 42
-0.2679491924311308
 10
-23975.89069666627
 20
-2995.0
 40
10.0
 41
50.0
 10
-25619.54335972684
 20
-2995.0
 40
50.0
 41
50.0
 42
-0.1989123673796491
 10
-25654.89869878617
 20
-2980.355339059329
 40
50.0
 41
50.0
 10
-26085.25403784439
 20
-2550.0
 40
50.0
 41
50.0
  0
LWPOLYLINE
  5
3DA
330
17
100
AcDbEntity
  8
metal
100
AcDbPolyline
 90
       14
 70
     0
 10
-1250.0
 20
-2165.063509461099
 40
10.0
 41
10.0
 10
-1651.258437086744
 20
-2860.063509461099
 40
10.0
 41
10.0
 42
-0.2679491924311224
 10
-1694.559707275966
 20
-2885.063509461099
 40
10.0
 41
10.0
 10
-6533.632486540515
 20
-2885.063509461099
 40
10.0
 41
10.0
 42
-0.2679491924311343
 10
-6576.933756729741
 20
-2860.063509461096
 40
10.0
 41
10.0
 10
-7636.408167897046
 20
-1025.0
 40
10.0
 41
10.0
 42
0.2679491924311227
 10
-7679.709438086269
 20
-1000.0
 40
10.0
 41
10.0
 10
-24059.6064856988
 20
-1000.0
 40
10.0
 41
10.0
 42
0.2679491924311237
 10
-24102.90775588802
 20
-1025.0
 40
10.0
 41
10.0
 10
-24400.24314452065
 20
-1539.999999999998
 40
10.0
 41
10.0
 42
-0.2679491924311301
 10
-24443.54441470987
 20
-1565.0
 40
10.0
 41
50.0
 10
-26049.54335972743
 20
-1565.0
 40
50.0
 41
50.0
 42
-0.198912367379651
 10
-26084.89869878675
 20
-1550.355339059327
 40
50.0
 41
50.0
 10
-26785.25403784439
 20
-850.0
 40
50.0
 41
50.0
  0
LWPOLYLINE
  5
3DB
330
17
100
AcDbEntity
  8
metal
100
AcDbPolyline
 90
       14
 70
     0
 10
-3750.0
 20
-2165.063509461099
 40
10.0
 41
10.0
 10
-3943.412340178504
 20
-2500.063509461099
 40
10.0
 41
10.0
 42
-0.2679491924311237
 10
-3986.713610367726
 20
-2525.063509461099
 40
10.0
 41
10.0
 10
-6533.632486540515
 20
-2525.063509461099
 40
10.0
 41
10.0
 42
-0.2679491924311343
 10
-6576.933756729741
 20
-2500.063509461095
 40
10.0
 41
10.0
 10
-7659.502178664628
 20
-625.0
 40
10.0
 41
10.0
 42
0.2679491924311245
 10
-7702.803448853851
 20
-600.0
 40
10.0
 41
10.0
 10
-24140.43552338535
 20
-600.0
 40
10.0
 41
10.0
 42
0.2679491924311432
 10
-24183.73679357458
 20
-625.0
 40
10.0
 41
10.0
 10
-24556.12771720189
 20
-1269.999999999998
 40
10.0
 41
10.0
 42
-0.2679491924311279
 10
-24599.42898739111
 20
-1295.0
 40
10.0
 41
50.0
 10
-25619.54335972677
 20
-1295.0
 40
50.0
 41
50.0
 42
-0.1989123673796719
 10
-25654.8986987861
 20
-1280.355339059326
 40
50.0
 41
50.0
 10
-26085.25403784439
 20
-850.0
 40
50.0
 41
50.0
  0
LWPOLYLINE
  5
3DD
330
17
100
AcDbEntity
  8
metal
100
AcDbPolyline
 90
       18
 70
     0
 10
-1250.0
 20
-6495.19052838329
 40
10.0
 41
10.0
 10
-1547.91273890197
 20
-7011.19052838329
 40
10.0
 41
10.0
 42
-0.2679491924311224
 10
-1591.214009091192
 20
-7036.19052838329
 40
10.0
 41
10.0
 10
-4033.632486540522
 20
-7036.19052838329
 40
10.0
 41
10.0
 42
-0.267949192431074
 10
-4076.93375672974
 20
-7011.190528383297
 40
10.0
 41
10.0
 10
-5494.942685064518
 20
-4555.127018922195
 40
10.0
 41
10.0
 42
0.2679491924311265
 10
-5538.24395525374
 20
-4530.127018922192
 40
10.0
 41
10.0
 10
-6533.632486540522
 20
-4530.127018922192
 40
10.0
 41
10.0
 42
-0.267949192431074
 10
-6576.933756729741
 20
-4505.127018922201
 40
10.0
 41
10.0
 10
-7662.425597215613
 20
-2625.0
 40
10.0
 41
10.0
 42
0.2679491924311237
 10
-7705.726867404836
 20
-2600.0
 40
10.0
 41
10.0
 10
-23378.33316805504
 20
-2600.0
 40
10.0
 41
10.0
 42
0.2679491924311237
 10
-23421.63443824427
 20
-2625.0
 40
10.0
 41
10.0
 10
-23776.70485379585
 20
-3239.999999999997
 40
10.0
 41
10.0
 42
-0.2679491924311321
 10
-23820.00612398507
 20
-3265.0
 40
10.0
 41
50.0
 10
-26049.54335972753
 20
-3265.0
 40
50.0
 41
50.0
 42
-0.198912367379651
 10
-26084.89869878686
 20
-3250.355339059328
 40
50.0
 41
50.0
 10
-26785.25403784439
 20
-2550.0
 40
50.0
 41
50.0
  0
LWPOLYLINE
  5
3FC
330
17
100
AcDbEntity
  8
metal
100
AcDbPolyline
 90
       14
 70
     0
 10
-26785.25403784439
 20
850.0
 40
50.0
 41
50.0
 10
-26084.89869878675
 20
1550.355339059327
 40
50.0
 41
50.0
 42
-0.198912367379651
 10
-26049.54335972743
 20
1565.0
 40
50.0
 41
10.0
 10
-24443.54441470987
 20
1565.0
 40
10.0
 41
10.0
 42
-0.267949192431123
 10
-24400.24314452065
 20
1540.0
 40
10.0
 41
10.0
 10
-24102.90775588802
 20
1025.0
 40
10.0
 41
10.0
 42
0.2679491924311237
 10
-24059.6064856988
 20
1000.0
 40
10.0
 41
10.0
 10
-7577.978953545055
 20
1000.0
 40
10.0
 41
10.0
 42
0.2679491924311157
 10
-7534.677683355837
 20
1025.0
 40
10.0
 41
10.0
 10
-7514.433756729737
 20
1060.063509461095
 40
10.0
 41
10.0
 42
-0.267949192431123
 10
-7471.132486540515
 20
1085.063509461095
 40
10.0
 41
10.0
 10
597.5941958157891
 20
1085.063509461095
 40
10.0
 41
10.0
 42
0.2679491924311224
 10
640.8954660050112
 20
1110.063509461095
 40
10.0
 41
10.0
 10
1250.0
 20
2165.063509461095
 40
10.0
 41
10.0
  0
LWPOLYLINE
  5
3FD
330
17
100
AcDbEntity
  8
metal
100
AcDbPolyline
 90
       14
 70
     0
 10
-26085.25403784439
 20
850.0
 40
50.0
 41
50.0
 10
-25654.8986987861
 20
1280.355339059326
 40
50.0
 41
50.0
 42
-0.1989123673796719
 10
-25619.54335972677
 20
1295.0
 40
50.0
 41
10.0
 10
-24599.42898739106
 20
1295.0
 40
10.0
 41
10.0
 42
-0.2679491924311237
 10
-24556.12771720184
 20
1270.0
 40
10.0
 41
10.0
 10
-24183.73679357458
 20
625.0000000000003
 40
10.0
 41
10.0
 42
0.2679491924311233
 10
-24140.43552338535
 20
600.0000000000004
 40
10.0
 41
10.0
 10
-7601.072964312646
 20
600.0
 40
10.0
 41
10.0
 42
0.2679491924311237
 10
-7557.771694123424
 20
625.0
 40
10.0
 41
10.0
 10
-7514.433756729741
 20
700.0635094610952
 40
10.0
 41
10.0
 42
-0.2679491924311237
 10
-7471.132486540518
 20
725.0635094610952
 40
10.0
 41
10.0
 10
2889.748098907549
 20
725.0635094610952
 40
10.0
 41
10.0
 42
0.267949192431121
 10
2933.049369096767
 20
750.0635094610952
 40
10.0
 41
10.0
 10
3750.0
 20
2165.063509461095
 40
10.0
 41
10.0
  0
LWPOLYLINE
  5
3FE
330
17
100
AcDbEntity
  8
metal
100
AcDbPolyline
 90
       14
 70
     0
 10
-25385.25403784439
 20
850.0
 40
50.0
 41
50.0
 10
-25224.89869878545
 20
1010.355339059327
 40
50.0
 41
50.0
 42
-0.198912367379651
 10
-25189.54335972612
 20
1025.0
 40
50.0
 41
10.0
 10
-24755.31356007226
 20
1025.0
 40
10.0
 41
10.0
 42
-0.2679491924311241
 10
-24712.01228988304
 20
999.9999999999998
 40
10.0
 41
10.0
 10
-24264.56583126107
 20
225.0
 40
10.0
 41
10.0
 42
0.2679491924311227
 10
-24221.26456107185
 20
200.0000000000003
 40
10.0
 41
10.0
 10
-7624.166975080232
 20
200.0
 40
10.0
 41
10.0
 42
0.2679491924311233
 10
-7580.86570489101
 20
225.0
 40
10.0
 41
10.0
 10
-7514.433756729741
 20
340.0635094610952
 40
10.0
 41
10.0
 42
-0.2679491924311279
 10
-7471.132486540518
 20
365.0635094610952
 40
10.0
 41
10.0
 10
5181.902001999308
 20
365.0635094610952
 40
10.0
 41
10.0
 42
0.2679491924311241
 10
5225.203272188529
 20
390.0635094610952
 40
10.0
 41
10.0
 10
6250.000000000003
 20
2165.063509461095
 40
10.0
 41
10.0
  0
LWPOLYLINE
  5
402
330
17
100
AcDbEntity
  8
metal
100
AcDbPolyline
 90
       14
 70
     0
 10
-27485.25403784439
 20
-850.0
 40
50.0
 41
50.0
 10
-26514.8986987874
 20
-1820.355339059328
 40
50.0
 41
50.0
 42
0.1989123673796491
 10
-26479.54335972808
 20
-1835.0
 40
50.0
 41
10.0
 10
-24287.65984202867
 20
-1835.0
 40
10.0
 41
10.0
 42
0.2679491924311308
 10
-24244.35857183944
 20
-1809.999999999998
 40
10.0
 41
10.0
 10
-24022.07871820146
 20
-1425.0
 40
10.0
 41
10.0
 42
-0.2679491924311237
 10
-23978.77744801224
 20
-1400.0
 40
10.0
 41
10.0
 10
-7656.615427318688
 20
-1400.0
 40
10.0
 41
10.0
 42
-0.2679491924311223
 10
-7613.314157129465
 20
-1425.0
 40
10.0
 41
10.0
 10
-6576.933756729741
 20
-3220.063509461095
 40
10.0
 41
10.0
 42
0.2679491924311405
 10
-6533.632486540515
 20
-3245.063509461099
 40
10.0
 41
10.0
 10
597.5941958157891
 20
-3245.063509461099
 40
10.0
 41
10.0
 42
0.2679491924311219
 10
640.8954660050112
 20
-3220.063509461099
 40
10.0
 41
10.0
 10
1250.0
 20
-2165.063509461099
 40
10.0
 41
10.0
  0
LWPOLYLINE
  5
406
330
17
100
AcDbEntity
  8
metal
100
AcDbPolyline
 90
       18
 70
     0
 10
-27485.25403784439
 20
-2550.0
 40
50.0
 41
50.0
 10
-26514.89869878756
 20
-3520.355339059327
 40
50.0
 41
50.0
 42
0.1989123673796719
 10
-26479.54335972823
 20
-3535.0
 40
50.0
 41
10.0
 10
-23664.12155130387
 20
-3535.0
 40
10.0
 41
10.0
 42
0.2679491924311308
 10
-23620.82028111465
 20
-3509.999999999998
 40
10.0
 41
10.0
 10
-23340.80540055771
 20
-3025.0
 40
10.0
 41
10.0
 42
-0.2679491924311237
 10
-23297.50413036849
 20
-3000.0
 40
10.0
 41
10.0
 10
-7705.726867404836
 20
-3000.0
 40
10.0
 41
10.0
 42
-0.2679491924311237
 10
-7662.425597215613
 20
-3025.0
 40
10.0
 41
10.0
 10
-6576.933756729741
 20
-4905.127018922201
 40
10.0
 41
10.0
 42
0.267949192431074
 10
-6533.632486540522
 20
-4930.127018922192
 40
10.0
 41
10.0
 10
-5619.650343209508
 20
-4930.127018922192
 40
10.0
 41
10.0
 42
-0.2679491924311265
 10
-5576.349073020287
 20
-4955.127018922194
 40
10.0
 41
10.0
 10
-4076.933756729744
 20
-7552.190528383296
 40
10.0
 41
10.0
 42
0.2679491924310768
 10
-4033.632486540525
 20
-7577.190528383289
 40
10.0
 41
10.0
 10
596.439495277089
 20
-7577.190528383289
 40
10.0
 41
10.0
 42
0.2679491924311224
 10
639.7407654663111
 20
-7552.190528383289
 40
10.0
 41
10.0
 10
1250.0
 20
-6495.19052838329
 40
10.0
 41
10.0
  0
DIMENSION
  5
4EA
102
{ACAD_XDICTIONARY
360
4F6
102
}
102
{ACAD_REACTORS
330
4FF
102
}
330
17
100
AcDbEntity
  8
0
100
AcDbDimension
280
     0
  2
*D3
 10
-3760.361190516423
 20
6472.438699202266
 30
0.0
 11
-3737.718779991405
 21
6526.6825870664
 31
0.0
 70
    35
 71
     5
 42
50.00000000000091
 73
     0
 74
     0
 75
     0
  3
Standard
100
AcDbDiametricDimension
 15
-3739.638809483576
 25
6517.94235756431
 35
0.0
 40
0.0
1001
ACAD
1000
DSTYLE
1002
{
1070
    49
1040
1.0
1070
    50
1040
0.785398163397
1070
   271
1070
     2
1070
   288
1070
     1
1002
}
1001
ACAD_DSTYLE_DIMRADIAL_EXTENSION
1070
   387
1070
     1
1070
   388
1040
0.0
1070
   390
1040
0.0
  0
ENDSEC
  0
SECTION
  2
OBJECTS
  0
DICTIONARY
  5
A
330
0
100
AcDbDictionary
281
     1
  3
ACAD_CIP_PREVIOUS_PRODUCT_INFO
350
38F
  3
ACAD_COLOR
350
B
  3
ACAD_DETAILVIEWSTYLE
350
38B
  3
ACAD_GROUP
350
C
  3
ACAD_LAYOUT
350
D
  3
ACAD_MATERIAL
350
E
  3
ACAD_MLEADERSTYLE
350
F
  3
ACAD_MLINESTYLE
350
10
  3
ACAD_PLOTSETTINGS
350
11
  3
ACAD_PLOTSTYLENAME
350
12
  3
ACAD_SCALELIST
350
14
  3
ACAD_SECTIONVIEWSTYLE
350
389
  3
ACAD_TABLESTYLE
350
15
  3
ACAD_VISUALSTYLE
350
16
  3
ACDB_RECOMPOSE_DATA
350
529
  3
AcDbVariableDictionary
350
431
  0
DICTIONARY
  5
3A9
330
1
100
AcDbDictionary
280
     1
281
     1
  3
ACAD_LAYERSTATES
360
3AA
  0
DICTIONARY
  5
3F2
330
17
100
AcDbDictionary
280
     1
281
     1
  3
ACAD_SORTENTS
360
3F3
  0
DICTIONARY
  5
4F6
330
4EA
100
AcDbDictionary
280
     1
281
     1
  3
ACAD_DIMASSOC
360
4FF
  0
XRECORD
  5
38F
102
{ACAD_REACTORS
330
A
102
}
330
A
100
AcDbXrecord
280
     1
300
ACD
300
2021
300

  0
DICTIONARY
  5
B
330
A
100
AcDbDictionary
281
     1
  0
DICTIONARY
  5
38B
102
{ACAD_REACTORS
330
A
102
}
330
A
100
AcDbDictionary
281
     1
  3
Metric50
350
38C
  0
DICTIONARY
  5
C
330
A
100
AcDbDictionary
281
     1
  0
DICTIONARY
  5
D
330
A
100
AcDbDictionary
281
     1
  3
Layout1
350
1E
  3
Model
350
1A
  0
DICTIONARY
  5
E
330
A
100
AcDbDictionary
281
     1
  3
ByBlock
350
1F
  3
ByLayer
350
20
  3
Global
350
21
  0
DICTIONARY
  5
F
330
A
100
AcDbDictionary
281
     1
  3
Standard
350
2C
  0
DICTIONARY
  5
10
330
A
100
AcDbDictionary
281
     1
  3
Standard
350
22
  0
DICTIONARY
  5
11
330
A
100
AcDbDictionary
281
     1
  0
ACDBDICTIONARYWDFLT
  5
12
330
A
100
AcDbDictionary
281
     1
  3
Normal
350
13
100
AcDbDictionaryWithDefault
340
13
  0
DICTIONARY
  5
14
330
A
100
AcDbDictionary
281
     1
  3
A0
350
378
  3
A1
350
379
  3
A2
350
37A
  3
A3
350
37B
  3
A4
350
37C
  3
A5
350
37D
  3
A6
350
37E
  3
A7
350
37F
  3
A8
350
380
  3
A9
350
381
  3
B0
350
382
  3
B1
350
383
  3
B2
350
384
  3
B3
350
385
  3
B4
350
386
  3
B5
350
387
  3
B6
350
388
  0
DICTIONARY
  5
389
102
{ACAD_REACTORS
330
A
102
}
330
A
100
AcDbDictionary
281
     1
  3
Metric50
350
38A
  0
DICTIONARY
  5
15
330
A
100
AcDbDictionary
281
     1
  3
Standard
350
377
  0
DICTIONARY
  5
16
330
A
100
AcDbDictionary
281
     1
  3
2dWireframe
350
364
  3
Basic
350
363
  3
Brighten
350
36A
  3
ColorChange
350
36E
  3
Conceptual
350
367
  3
Dim
350
369
  3
EdgeColorOff
350
376
  3
Facepattern
350
36D
  3
Flat
350
35F
  3
FlatWithEdges
350
360
  3
Gouraud
350
361
  3
GouraudWithEdges
350
362
  3
Hidden
350
366
  3
JitterOff
350
374
  3
Linepattern
350
36C
  3
OverhangOff
350
375
  3
Realistic
350
368
  3
Shaded
350
373
  3
Shaded with edges
350
372
  3
Shades of Gray
350
36F
  3
Sketchy
350
370
  3
Thicken
350
36B
  3
Wireframe
350
365
  3
X-Ray
350
371
  0
XRECORD
  5
529
102
{ACAD_REACTORS
330
A
102
}
330
A
100
AcDbXrecord
280
     1
 90
        1
330
377
  0
DICTIONARY
  5
431
102
{ACAD_REACTORS
330
A
102
}
330
A
100
AcDbDictionary
281
     1
  3
CANNOSCALE
350
436
  3
CMLEADERSTYLE
350
433
  3
CTABLESTYLE
350
432
  3
CVIEWDETAILSTYLE
350
434
  3
CVIEWSECTIONSTYLE
350
435
  0
DICTIONARY
  5
3AA
102
{ACAD_REACTORS
330
3A9
102
}
330
3A9
100
AcDbDictionary
281
     1
  0
SORTENTSTABLE
  5
3F3
102
{ACAD_REACTORS
330
3F2
102
}
330
3F2
100
AcDbSortentsTable
330
17
331
3D5
  5
3DC
331
3D7
  5
3E2
331
3D8
  5
3E3
331
3DA
  5
3E6
331
3DB
  5
3E7
331
3DD
  5
3EA
331
3FC
  5
417
331
3FD
  5
418
331
3FE
  5
419
331
402
  5
414
331
406
  5
415
  0
DIMASSOC
  5
4FF
102
{ACAD_REACTORS
330
4F6
102
}
330
4F6
100
AcDbDimAssoc
330
4EA
 90
        2
 70
     0
 71
     0
  1
AcDbOsnapPointRef
 72
     3
331
37
 73
     2
 91
        0
 40
0.0
 10
0.0
 20
0.0
 30
0.0
 75
     0
  0
ACDBDETAILVIEWSTYLE
  5
38C
102
{ACAD_REACTORS
330
38B
102
}
330
38B
100
AcDbModelDocViewStyle
 70
     0
  3
Metric50
290
     0
300
Metric50
 90
        0
100
AcDbDetailViewStyle
 70
     0
 71
     0
 90
        3
 71
     1
340
29
 62
   256
 40
5.0
340
0
 62
   256
 40
5.0
300

 40
0.0
280
     1
 71
     2
340
26
 90
       25
 62
   256
 71
     3
340
29
 62
   256
 40
5.0
 90
        0
 40
15.0
 90
        1
300
%<\AcVar ViewDetailId>% (%<\AcVar ViewScale \f "%sn">%)
 71
     4
340
26
 90
       25
 62
   256
340
26
 90
       25
 62
   256
280
     0
  0
LAYOUT
  5
1E
330
D
100
AcDbPlotSettings
  1

  2
Adobe PDF
  4
A4
  6

 40
3.174999999999999
 41
3.174999999999999
 42
3.174999999999999
 43
3.174999999999999
 44
209.91
 45
297.03
 46
0.0
 47
0.0
 48
0.0
 49
0.0
140
0.0
141
0.0
142
1.0
143
1.0
 70
     0
 72
     0
 73
     1
 74
     5
  7

 75
    16
147
1.0
 76
     0
 77
     2
 78
   300
148
0.0
149
0.0
100
AcDbLayout
  1
Layout1
 70
     1
 71
     1
 10
0.0
 20
0.0
 11
420.0
 21
297.0
 12
0.0
 22
0.0
 32
0.0
 14
1.000000000000000E+20
 24
1.000000000000000E+20
 34
1.000000000000000E+20
 15
-1.000000000000000E+20
 25
-1.000000000000000E+20
 35
-1.000000000000000E+20
146
0.0
 13
0.0
 23
0.0
 33
0.0
 16
1.0
 26
0.0
 36
0.0
 17
0.0
 27
1.0
 37
0.0
 76
     0
330
1B
  0
LAYOUT
  5
1A
330
D
100
AcDbPlotSettings
  1

  2
Adobe PDF
  4
A4
  6

 40
3.174999999999999
 41
3.174999999999999
 42
3.174999999999999
 43
3.174999999999999
 44
209.91
 45
297.03
 46
0.0
 47
0.0
 48
0.0
 49
0.0
140
0.0
141
0.0
142
1.0
143
1.0
 70
  1024
 72
     0
 73
     1
 74
     5
  7

 75
    16
147
1.0
 76
     0
 77
     2
 78
   300
148
0.0
149
0.0
100
AcDbLayout
  1
Model
 70
     1
 71
     0
 10
-3.174999999999999
 20
-3.174999999999999
 11
293.857
 21
206.735
 12
0.0
 22
0.0
 32
0.0
 14
29.068
 24
20.356
 34
0.0
 15
261.6140000000001
 25
183.204
 35
0.0
146
0.0
 13
0.0
 23
0.0
 33
0.0
 16
1.0
 26
0.0
 36
0.0
 17
0.0
 27
1.0
 37
0.0
 76
     1
330
17
331
23
  0
MATERIAL
  5
1F
102
{ACAD_REACTORS
330
E
102
}
330
E
100
AcDbMaterial
  1
ByBlock
 71
     1
 91
-1023410177
 73
     1
 78
     1
172
     1
176
     1
270
     1
273
     1
274
     1
 94
       63
  0
MATERIAL
  5
20
102
{ACAD_REACTORS
330
E
102
}
330
E
100
AcDbMaterial
  1
ByLayer
 71
     1
 91
-1023410177
 73
     1
 78
     1
172
     1
176
     1
270
     1
273
     1
274
     1
 94
       63
  0
MATERIAL
  5
21
102
{ACAD_REACTORS
330
E
102
}
330
E
100
AcDbMaterial
  1
Global
 71
     1
 91
-1023410177
 73
     1
 78
     1
172
     1
176
     1
270
     1
273
     1
274
     1
 94
       63
  0
MLEADERSTYLE
  5
2C
102
{ACAD_REACTORS
330
F
102
}
330
F
100
AcDbMLeaderStyle
179
     2
170
     2
171
     1
172
     0
 90
        2
 40
0.0
 41
0.0
173
     1
 91
-1056964608
 92
       -2
290
     1
 42
2.0
291
     1
 43
8.0
  3
Standard
 44
4.0
300

342
29
174
     1
178
     1
175
     1
176
     0
 93
-1056964608
 45
4.0
292
     0
297
     0
 46
4.0
 94
-1056964608
 47
1.0
 49
0.0
140
1.0
293
     1
141
0.0
294
     1
177
     0
142
1.0
295
     0
296
     0
143
3.75
271
     0
272
     9
273
     9
298
     1
  0
MLINESTYLE
  5
22
102
{ACAD_REACTORS
330
10
102
}
330
10
100
AcDbMlineStyle
  2
STANDARD
 70
     0
  3

 62
   256
 51
90.0
 52
90.0
 71
     2
 49
0.5
 62
   256
  6
BYLAYER
 49
-0.5
 62
   256
  6
BYLAYER
  0
ACDBPLACEHOLDER
  5
13
330
12
  0
SCALE
  5
378
102
{ACAD_REACTORS
330
14
102
}
330
14
100
AcDbScale
 70
     0
300
1:1
140
1.0
141
1.0
290
     1
  0
SCALE
  5
379
102
{ACAD_REACTORS
330
14
102
}
330
14
100
AcDbScale
 70
     0
300
1:2
140
1.0
141
2.0
290
     0
  0
SCALE
  5
37A
102
{ACAD_REACTORS
330
14
102
}
330
14
100
AcDbScale
 70
     0
300
1:4
140
1.0
141
4.0
290
     0
  0
SCALE
  5
37B
102
{ACAD_REACTORS
330
14
102
}
330
14
100
AcDbScale
 70
     0
300
1:5
140
1.0
141
5.0
290
     0
  0
SCALE
  5
37C
102
{ACAD_REACTORS
330
14
102
}
330
14
100
AcDbScale
 70
     0
300
1:8
140
1.0
141
8.0
290
     0
  0
SCALE
  5
37D
102
{ACAD_REACTORS
330
14
102
}
330
14
100
AcDbScale
 70
     0
300
1:10
140
1.0
141
10.0
290
     0
  0
SCALE
  5
37E
102
{ACAD_REACTORS
330
14
102
}
330
14
100
AcDbScale
 70
     0
300
1:16
140
1.0
141
16.0
290
     0
  0
SCALE
  5
37F
102
{ACAD_REACTORS
330
14
102
}
330
14
100
AcDbScale
 70
     0
300
1:20
140
1.0
141
20.0
290
     0
  0
SCALE
  5
380
102
{ACAD_REACTORS
330
14
102
}
330
14
100
AcDbScale
 70
     0
300
1:30
140
1.0
141
30.0
290
     0
  0
SCALE
  5
381
102
{ACAD_REACTORS
330
14
102
}
330
14
100
AcDbScale
 70
     0
300
1:40
140
1.0
141
40.0
290
     0
  0
SCALE
  5
382
102
{ACAD_REACTORS
330
14
102
}
330
14
100
AcDbScale
 70
     0
300
1:50
140
1.0
141
50.0
290
     0
  0
SCALE
  5
383
102
{ACAD_REACTORS
330
14
102
}
330
14
100
AcDbScale
 70
     0
300
1:100
140
1.0
141
100.0
290
     0
  0
SCALE
  5
384
102
{ACAD_REACTORS
330
14
102
}
330
14
100
AcDbScale
 70
     0
300
2:1
140
2.0
141
1.0
290
     0
  0
SCALE
  5
385
102
{ACAD_REACTORS
330
14
102
}
330
14
100
AcDbScale
 70
     0
300
4:1
140
4.0
141
1.0
290
     0
  0
SCALE
  5
386
102
{ACAD_REACTORS
330
14
102
}
330
14
100
AcDbScale
 70
     0
300
8:1
140
8.0
141
1.0
290
     0
  0
SCALE
  5
387
102
{ACAD_REACTORS
330
14
102
}
330
14
100
AcDbScale
 70
     0
300
10:1
140
10.0
141
1.0
290
     0
  0
SCALE
  5
388
102
{ACAD_REACTORS
330
14
102
}
330
14
100
AcDbScale
 70
     0
300
100:1
140
100.0
141
1.0
290
     0
  0
ACDBSECTIONVIEWSTYLE
  5
38A
102
{ACAD_REACTORS
330
389
102
}
330
389
100
AcDbModelDocViewStyle
 70
     0
  3
Metric50
290
     0
300
Metric50
 90
        0
100
AcDbSectionViewStyle
 70
     0
 71
     0
 90
      102
 71
     1
340
29
 62
   256
 40
5.0
340
0
340
0
 62
   256
 40
5.0
300
I, O, Q, S, X, Z
 40
10.0
 90
        0
 40
2.5
 90
        0
 71
     2
340
26
 90
       25
 62
   256
340
26
 90
       50
 62
   256
 40
5.0
 40
2.5
 40
5.0
 71
     3
340
29
 62
   256
 40
5.0
 90
        0
 40
15.0
 90
        1
300
%<\AcVar ViewSectionStartId>%-%<\AcVar ViewSectionEndId>% (%<\AcVar ViewScale \f "%sn">%)
 71
     4
 62
   256
 62
   257
300
ANSI31
 40
1.0
 90
        0
290
     0
290
     0
 90
        6
 40
0.0
 40
1.570796326794896
 40
0.2617993877991494
 40
1.308996938995747
 40
-0.2617993877991494
 40
1.832595714594046
  0
TABLESTYLE
  5
377
102
{ACAD_XDICTIONARY
360
527
102
}
102
{ACAD_REACTORS
330
15
102
}
330
15
100
AcDbTableStyle
280
     0
  3
Standard
 70
     0
 71
     0
 40
1.5
 41
1.5
280
     0
281
     0
  7
Standard
140
4.5
170
     2
 62
     0
 63
     7
283
     0
 90
      512
 91
        0
  1

274
    -2
284
     1
 64
     0
275
    -2
285
     1
 65
     0
276
    -2
286
     1
 66
     0
277
    -2
287
     1
 67
     0
278
    -2
288
     1
 68
     0
279
    -2
289
     1
 69
     0
  7
Standard
140
6.0
170
     5
 62
     0
 63
     7
283
     0
 90
      512
 91
        0
  1

274
    -2
284
     1
 64
     0
275
    -2
285
     1
 65
     0
276
    -2
286
     1
 66
     0
277
    -2
287
     1
 67
     0
278
    -2
288
     1
 68
     0
279
    -2
289
     1
 69
     0
  7
Standard
140
4.5
170
     5
 62
     0
 63
     7
283
     0
 90
      512
 91
        0
  1

274
    -2
284
     1
 64
     0
275
    -2
285
     1
 65
     0
276
    -2
286
     1
 66
     0
277
    -2
287
     1
 67
     0
278
    -2
288
     1
 68
     0
279
    -2
289
     1
 69
     0
  0
VISUALSTYLE
  5
364
102
{ACAD_REACTORS
330
16
102
}
330
16
100
AcDbVisualStyle
  2
2dWireframe
 70
     4
177
     3
291
     0
 70
    58
 90
        0
176
     1
 90
        2
176
     1
 90
        0
176
     1
 90
        0
176
     1
 40
0.6
176
     1
 40
30.0
176
     1
 62
     7
420
 16777215
176
     1
 90
        1
176
     1
 90
        4
176
     1
 62
     7
176
     1
 62
   257
176
     1
 90
        1
176
     1
 90
        1
176
     1
 40
1.0
176
     1
 90
        0
176
     1
 62
   257
176
     1
 40
1.0
176
     1
 90
        1
176
     1
 90
        6
176
     1
 90
        2
176
     1
 62
     7
176
     1
 90
        5
176
     1
 90
        0
176
     1
 90
        0
176
     1
290
     0
176
     1
 90
        1
176
     1
 40
0.0
176
     1
 90
        0
176
     1
290
     1
176
     1
290
     1
176
     1
290
     0
176
     1
290
     0
176
     1
290
     0
176
     1
290
     0
176
     1
290
     0
176
     1
290
     0
176
     1
290
     0
176
     1
 90
       50
176
     1
 40
0.0
176
     1
 40
1.0
176
     1
 90
        0
176
     1
 62
    18
420
        0
176
     1
 90
       50
176
     1
 90
        3
176
     1
 62
     5
420
      255
176
     1
290
     0
176
     1
 90
       50
176
     1
 90
       50
176
     1
 90
       50
176
     1
290
     0
176
     1
 90
       50
176
     1
 62
   256
176
     0
 40
1.0
176
     0
 90
        2
176
     1
  1
strokes_ogs.tif
176
     1
290
     0
176
     1
 40
1.0
176
     1
 40
1.0
176
     1
  0
VISUALSTYLE
  5
363
102
{ACAD_REACTORS
330
16
102
}
330
16
100
AcDbVisualStyle
  2
Basic
 70
     7
177
     3
291
     1
 70
    58
 90
        1
176
     1
 90
        0
176
     1
 90
        1
176
     1
 90
        0
176
     1
 40
0.6
176
     1
 40
30.0
176
     1
 62
     7
420
 16777215
176
     1
 90
        0
176
     1
 90
        4
176
     1
 62
     7
176
     1
 62
   257
176
     1
 90
        1
176
     1
 90
        1
176
     1
 40
1.0
176
     1
 90
        8
176
     1
 62
     7
176
     1
 40
1.0
176
     1
 90
        1
176
     1
 90
        6
176
     1
 90
        2
176
     1
 62
     7
176
     1
 90
        5
176
     1
 90
        0
176
     1
 90
        0
176
     1
290
     0
176
     1
 90
        1
176
     1
 40
0.0
176
     1
 90
        0
176
     1
290
     0
176
     1
290
     1
176
     1
290
     1
176
     1
290
     0
176
     1
290
     0
176
     1
290
     0
176
     1
290
     0
176
     1
290
     0
176
     1
290
     0
176
     1
 90
       50
176
     1
 40
0.0
176
     1
 40
1.0
176
     1
 90
        0
176
     1
 62
    18
420
        0
176
     1
 90
       50
176
     1
 90
        3
176
     1
 62
     5
420
      255
176
     1
290
     0
176
     1
 90
       50
176
     1
 90
       50
176
     1
 90
       50
176
     1
290
     0
176
     1
 90
       50
176
     1
 62
   256
176
     0
 40
1.0
176
     0
 90
        2
176
     1
  1
strokes_ogs.tif
176
     1
290
     0
176
     1
 40
1.0
176
     1
 40
1.0
176
     1
  0
VISUALSTYLE
  5
36A
102
{ACAD_REACTORS
330
16
102
}
330
16
100
AcDbVisualStyle
  2
Brighten
 70
    12
177
     3
291
     1
 70
    58
 90
        2
176
     1
 90
        2
176
     1
 90
        0
176
     1
 90
        0
176
     1
 40
0.6
176
     1
 40
30.0
176
     1
 62
     7
420
 16777215
176
     1
 90
        1
176
     1
 90
        4
176
     1
 62
     7
176
     1
 62
   257
176
     1
 90
        1
176
     1
 90
        1
176
     1
 40
1.0
176
     1
 90
        8
176
     1
 62
     7
176
     1
 40
1.0
176
     1
 90
        1
176
     1
 90
        6
176
     1
 90
        2
176
     1
 62
     7
176
     1
 90
        5
176
     1
 90
        0
176
     1
 90
        0
176
     1
290
     0
176
     1
 90
        1
176
     1
 40
50.0
176
     1
 90
        0
176
     1
290
     0
176
     1
290
     1
176
     1
290
     1
176
     1
290
     0
176
     1
290
     0
176
     1
290
     0
176
     1
290
     0
176
     1
290
     0
176
     1
290
     0
176
     1
 90
       50
176
     1
 40
0.0
176
     1
 40
1.0
176
     1
 90
        0
176
     1
 62
    18
420
        0
176
     1
 90
       50
176
     1
 90
        3
176
     1
 62
     5
420
      255
176
     1
290
     0
176
     1
 90
       50
176
     1
 90
       50
176
     1
 90
       50
176
     1
290
     0
176
     1
 90
       50
176
     1
 62
   256
176
     0
 40
1.0
176
     0
 90
        2
176
     1
  1
strokes_ogs.tif
176
     1
290
     0
176
     1
 40
1.0
176
     1
 40
1.0
176
     1
  0
VISUALSTYLE
  5
36E
102
{ACAD_REACTORS
330
16
102
}
330
16
100
AcDbVisualStyle
  2
ColorChange
 70
    16
177
     3
291
     1
 70
    58
 90
        2
176
     1
 90
        2
176
     1
 90
        3
176
     1
 90
        0
176
     1
 40
0.6
176
     1
 40
30.0
176
     1
 62
     8
420
  8421504
176
     1
 90
        1
176
     1
 90
        4
176
     1
 62
     7
176
     1
 62
   257
176
     1
 90
        1
176
     1
 90
        1
176
     1
 40
1.0
176
     1
 90
        8
176
     1
 62
     8
420
  8421504
176
     1
 40
1.0
176
     1
 90
        1
176
     1
 90
        6
176
     1
 90
        2
176
     1
 62
     7
176
     1
 90
        5
176
     1
 90
        0
176
     1
 90
        0
176
     1
290
     0
176
     1
 90
        1
176
     1
 40
0.0
176
     1
 90
        0
176
     1
290
     0
176
     1
290
     1
176
     1
290
     1
176
     1
290
     0
176
     1
290
     0
176
     1
290
     0
176
     1
290
     0
176
     1
290
     0
176
     1
290
     0
176
     1
 90
       50
176
     1
 40
0.0
176
     1
 40
1.0
176
     1
 90
        0
176
     1
 62
    18
420
        0
176
     1
 90
       50
176
     1
 90
        3
176
     1
 62
     5
420
      255
176
     1
290
     0
176
     1
 90
       50
176
     1
 90
       50
176
     1
 90
       50
176
     1
290
     0
176
     1
 90
       50
176
     1
 62
   256
176
     0
 40
1.0
176
     0
 90
        2
176
     1
  1
strokes_ogs.tif
176
     1
290
     0
176
     1
 40
1.0
176
     1
 40
1.0
176
     1
  0
VISUALSTYLE
  5
367
102
{ACAD_REACTORS
330
16
102
}
330
16
100
AcDbVisualStyle
  2
Conceptual
 70
     9
177
     3
291
     0
 70
    58
 90
        3
176
     1
 90
        2
176
     1
 90
        0
176
     1
 90
        0
176
     1
 40
0.6
176
     1
 40
30.0
176
     1
 62
     7
420
 16777215
176
     1
 90
        2
176
     1
 90
        2
176
     1
 62
     7
176
     1
 62
   257
176
     1
 90
        1
176
     1
 90
        1
176
     1
 40
179.0
176
     1
 90
        8
176
     1
 62
     7
176
     1
 40
1.0
176
     1
 90
        1
176
     1
 90
        6
176
     1
 90
        2
176
     1
 62
     7
176
     1
 90
        3
176
     1
 90
        0
176
     1
 90
        0
176
     1
290
     0
176
     1
 90
        1
176
     1
 40
0.0
176
     1
 90
        0
176
     1
290
     0
176
     1
290
     1
176
     1
290
     1
176
     1
290
     0
176
     1
290
     0
176
     1
290
     0
176
     1
290
     0
176
     1
290
     0
176
     1
290
     0
176
     1
 90
       50
176
     1
 40
0.0
176
     1
 40
1.0
176
     1
 90
        0
176
     1
 62
    18
420
        0
176
     1
 90
       50
176
     1
 90
        3
176
     1
 62
     5
420
      255
176
     1
290
     0
176
     1
 90
       50
176
     1
 90
       50
176
     1
 90
       50
176
     1
290
     0
176
     1
 90
       50
176
     1
 62
   256
176
     0
 40
1.0
176
     0
 90
        2
176
     1
  1
strokes_ogs.tif
176
     1
290
     0
176
     1
 40
1.0
176
     1
 40
1.0
176
     1
  0
VISUALSTYLE
  5
369
102
{ACAD_REACTORS
330
16
102
}
330
16
100
AcDbVisualStyle
  2
Dim
 70
    11
177
     3
291
     1
 70
    58
 90
        2
176
     1
 90
        2
176
     1
 90
        0
176
     1
 90
        0
176
     1
 40
0.6
176
     1
 40
30.0
176
     1
 62
     7
420
 16777215
176
     1
 90
        1
176
     1
 90
        4
176
     1
 62
     7
176
     1
 62
   257
176
     1
 90
        1
176
     1
 90
        1
176
     1
 40
1.0
176
     1
 90
        8
176
     1
 62
     7
176
     1
 40
1.0
176
     1
 90
        1
176
     1
 90
        6
176
     1
 90
        2
176
     1
 62
     7
176
     1
 90
        5
176
     1
 90
        0
176
     1
 90
        0
176
     1
290
     0
176
     1
 90
        1
176
     1
 40
-50.0
176
     1
 90
        0
176
     1
290
     0
176
     1
290
     1
176
     1
290
     1
176
     1
290
     0
176
     1
290
     0
176
     1
290
     0
176
     1
290
     0
176
     1
290
     0
176
     1
290
     0
176
     1
 90
       50
176
     1
 40
0.0
176
     1
 40
1.0
176
     1
 90
        0
176
     1
 62
    18
420
        0
176
     1
 90
       50
176
     1
 90
        3
176
     1
 62
     5
420
      255
176
     1
290
     0
176
     1
 90
       50
176
     1
 90
       50
176
     1
 90
       50
176
     1
290
     0
176
     1
 90
       50
176
     1
 62
   256
176
     0
 40
1.0
176
     0
 90
        2
176
     1
  1
strokes_ogs.tif
176
     1
290
     0
176
     1
 40
1.0
176
     1
 40
1.0
176
     1
  0
VISUALSTYLE
  5
376
102
{ACAD_REACTORS
330
16
102
}
330
16
100
AcDbVisualStyle
  2
EdgeColorOff
 70
    22
177
     3
291
     1
 70
    58
 90
        2
176
     0
 90
        2
176
     0
 90
        0
176
     0
 90
        0
176
     0
 40
0.6
176
     0
 40
30.0
176
     0
 62
     7
420
 16777215
176
     0
 90
        1
176
     0
 90
        4
176
     0
 62
     7
176
     0
 62
   257
176
     0
 90
        1
176
     0
 90
        1
176
     0
 40
1.0
176
     0
 90
        8
176
     2
 62
     7
176
     0
 40
1.0
176
     0
 90
        1
176
     0
 90
        6
176
     0
 90
        2
176
     0
 62
     7
176
     0
 90
        5
176
     0
 90
        0
176
     0
 90
        0
176
     0
290
     0
176
     0
 90
        1
176
     0
 40
0.0
176
     0
 90
        0
176
     0
290
     0
176
     0
290
     1
176
     0
290
     1
176
     0
290
     0
176
     0
290
     0
176
     0
290
     0
176
     0
290
     0
176
     0
290
     0
176
     0
290
     0
176
     0
 90
       50
176
     0
 40
0.0
176
     0
 40
1.0
176
     0
 90
        0
176
     0
 62
    18
420
        0
176
     0
 90
       50
176
     0
 90
        3
176
     0
 62
     5
420
      255
176
     0
290
     0
176
     0
 90
       50
176
     0
 90
       50
176
     0
 90
       50
176
     0
290
     0
176
     0
 90
       50
176
     0
 62
   256
176
     0
 40
1.0
176
     0
 90
        2
176
     0
  1
strokes_ogs.tif
176
     0
290
     0
176
     0
 40
1.0
176
     0
 40
1.0
176
     0
  0
VISUALSTYLE
  5
36D
102
{ACAD_REACTORS
330
16
102
}
330
16
100
AcDbVisualStyle
  2
Facepattern
 70
    15
177
     3
291
     1
 70
    58
 90
        2
176
     1
 90
        2
176
     1
 90
        0
176
     1
 90
        0
176
     1
 40
0.6
176
     1
 40
30.0
176
     1
 62
     7
420
 16777215
176
     1
 90
        1
176
     1
 90
        4
176
     1
 62
     7
176
     1
 62
   257
176
     1
 90
        1
176
     1
 90
        1
176
     1
 40
1.0
176
     1
 90
        8
176
     1
 62
     7
176
     1
 40
1.0
176
     1
 90
        1
176
     1
 90
        6
176
     1
 90
        2
176
     1
 62
     7
176
     1
 90
        5
176
     1
 90
        0
176
     1
 90
        0
176
     1
290
     0
176
     1
 90
        1
176
     1
 40
0.0
176
     1
 90
        0
176
     1
290
     0
176
     1
290
     1
176
     1
290
     1
176
     1
290
     0
176
     1
290
     0
176
     1
290
     0
176
     1
290
     0
176
     1
290
     0
176
     1
290
     0
176
     1
 90
       50
176
     1
 40
0.0
176
     1
 40
1.0
176
     1
 90
        0
176
     1
 62
    18
420
        0
176
     1
 90
       50
176
     1
 90
        3
176
     1
 62
     5
420
      255
176
     1
290
     0
176
     1
 90
       50
176
     1
 90
       50
176
     1
 90
       50
176
     1
290
     0
176
     1
 90
       50
176
     1
 62
   256
176
     0
 40
1.0
176
     0
 90
        2
176
     1
  1
strokes_ogs.tif
176
     1
290
     0
176
     1
 40
1.0
176
     1
 40
1.0
176
     1
  0
VISUALSTYLE
  5
35F
102
{ACAD_REACTORS
330
16
102
}
330
16
100
AcDbVisualStyle
  2
Flat
 70
     0
177
     3
291
     1
 70
    58
 90
        2
176
     1
 90
        1
176
     1
 90
        1
176
     1
 90
        2
176
     1
 40
0.6
176
     1
 40
30.0
176
     1
 62
     7
420
 16777215
176
     1
 90
        0
176
     1
 90
        0
176
     1
 62
     7
176
     1
 62
   257
176
     1
 90
        1
176
     1
 90
        1
176
     1
 40
1.0
176
     1
 90
        8
176
     1
 62
     7
176
     1
 40
1.0
176
     1
 90
        1
176
     1
 90
        6
176
     1
 90
        2
176
     1
 62
     7
176
     1
 90
        5
176
     1
 90
        0
176
     1
 90
        0
176
     1
290
     0
176
     1
 90
       13
176
     1
 40
0.0
176
     1
 90
        0
176
     1
290
     0
176
     1
290
     1
176
     1
290
     1
176
     1
290
     0
176
     1
290
     0
176
     1
290
     0
176
     1
290
     0
176
     1
290
     0
176
     1
290
     0
176
     1
 90
       50
176
     1
 40
0.0
176
     1
 40
1.0
176
     1
 90
        0
176
     1
 62
    18
420
        0
176
     1
 90
       50
176
     1
 90
        3
176
     1
 62
     5
420
      255
176
     1
290
     0
176
     1
 90
       50
176
     1
 90
       50
176
     1
 90
       50
176
     1
290
     0
176
     1
 90
       50
176
     1
 62
   256
176
     0
 40
1.0
176
     0
 90
        2
176
     1
  1
strokes_ogs.tif
176
     1
290
     0
176
     1
 40
1.0
176
     1
 40
1.0
176
     1
  0
VISUALSTYLE
  5
360
102
{ACAD_REACTORS
330
16
102
}
330
16
100
AcDbVisualStyle
  2
FlatWithEdges
 70
     1
177
     3
291
     1
 70
    58
 90
        2
176
     1
 90
        1
176
     1
 90
        1
176
     1
 90
        2
176
     1
 40
0.6
176
     1
 40
30.0
176
     1
 62
     7
420
 16777215
176
     1
 90
        1
176
     1
 90
        0
176
     1
 62
     7
176
     1
 62
   257
176
     1
 90
        1
176
     1
 90
        1
176
     1
 40
1.0
176
     1
 90
        0
176
     1
 62
   257
176
     1
 40
1.0
176
     1
 90
        1
176
     1
 90
        6
176
     1
 90
        2
176
     1
 62
     7
176
     1
 90
        5
176
     1
 90
        0
176
     1
 90
        0
176
     1
290
     0
176
     1
 90
       13
176
     1
 40
0.0
176
     1
 90
        0
176
     1
290
     0
176
     1
290
     1
176
     1
290
     1
176
     1
290
     0
176
     1
290
     0
176
     1
290
     0
176
     1
290
     0
176
     1
290
     0
176
     1
290
     0
176
     1
 90
       50
176
     1
 40
0.0
176
     1
 40
1.0
176
     1
 90
        0
176
     1
 62
    18
420
        0
176
     1
 90
       50
176
     1
 90
        3
176
     1
 62
     5
420
      255
176
     1
290
     0
176
     1
 90
       50
176
     1
 90
       50
176
     1
 90
       50
176
     1
290
     0
176
     1
 90
       50
176
     1
 62
   256
176
     0
 40
1.0
176
     0
 90
        2
176
     1
  1
strokes_ogs.tif
176
     1
290
     0
176
     1
 40
1.0
176
     1
 40
1.0
176
     1
  0
VISUALSTYLE
  5
361
102
{ACAD_REACTORS
330
16
102
}
330
16
100
AcDbVisualStyle
  2
Gouraud
 70
     2
177
     3
291
     1
 70
    58
 90
        2
176
     1
 90
        2
176
     1
 90
        1
176
     1
 90
        2
176
     1
 40
0.6
176
     1
 40
30.0
176
     1
 62
     7
420
 16777215
176
     1
 90
        0
176
     1
 90
        0
176
     1
 62
     7
176
     1
 62
   257
176
     1
 90
        1
176
     1
 90
        1
176
     1
 40
1.0
176
     1
 90
        0
176
     1
 62
     7
176
     1
 40
1.0
176
     1
 90
        1
176
     1
 90
        6
176
     1
 90
        2
176
     1
 62
     7
176
     1
 90
        5
176
     1
 90
        0
176
     1
 90
        0
176
     1
290
     0
176
     1
 90
       13
176
     1
 40
0.0
176
     1
 90
        0
176
     1
290
     0
176
     1
290
     1
176
     1
290
     1
176
     1
290
     0
176
     1
290
     0
176
     1
290
     0
176
     1
290
     0
176
     1
290
     0
176
     1
290
     0
176
     1
 90
       50
176
     1
 40
0.0
176
     1
 40
1.0
176
     1
 90
        0
176
     1
 62
    18
420
        0
176
     1
 90
       50
176
     1
 90
        3
176
     1
 62
     5
420
      255
176
     1
290
     0
176
     1
 90
       50
176
     1
 90
       50
176
     1
 90
       50
176
     1
290
     0
176
     1
 90
       50
176
     1
 62
   256
176
     0
 40
1.0
176
     0
 90
        2
176
     1
  1
strokes_ogs.tif
176
     1
290
     0
176
     1
 40
1.0
176
     1
 40
1.0
176
     1
  0
VISUALSTYLE
  5
362
102
{ACAD_REACTORS
330
16
102
}
330
16
100
AcDbVisualStyle
  2
GouraudWithEdges
 70
     3
177
     3
291
     1
 70
    58
 90
        2
176
     1
 90
        2
176
     1
 90
        1
176
     1
 90
        2
176
     1
 40
0.6
176
     1
 40
30.0
176
     1
 62
     7
420
 16777215
176
     1
 90
        1
176
     1
 90
        0
176
     1
 62
     7
176
     1
 62
   257
176
     1
 90
        1
176
     1
 90
        1
176
     1
 40
1.0
176
     1
 90
        0
176
     1
 62
   257
176
     1
 40
1.0
176
     1
 90
        1
176
     1
 90
        6
176
     1
 90
        2
176
     1
 62
     7
176
     1
 90
        5
176
     1
 90
        0
176
     1
 90
        0
176
     1
290
     0
176
     1
 90
       13
176
     1
 40
0.0
176
     1
 90
        0
176
     1
290
     0
176
     1
290
     1
176
     1
290
     1
176
     1
290
     0
176
     1
290
     0
176
     1
290
     0
176
     1
290
     0
176
     1
290
     0
176
     1
290
     0
176
     1
 90
       50
176
     1
 40
0.0
176
     1
 40
1.0
176
     1
 90
        0
176
     1
 62
    18
420
        0
176
     1
 90
       50
176
     1
 90
        3
176
     1
 62
     5
420
      255
176
     1
290
     0
176
     1
 90
       50
176
     1
 90
       50
176
     1
 90
       50
176
     1
290
     0
176
     1
 90
       50
176
     1
 62
   256
176
     0
 40
1.0
176
     0
 90
        2
176
     1
  1
strokes_ogs.tif
176
     1
290
     0
176
     1
 40
1.0
176
     1
 40
1.0
176
     1
  0
VISUALSTYLE
  5
366
102
{ACAD_REACTORS
330
16
102
}
330
16
100
AcDbVisualStyle
  2
Hidden
 70
     6
177
     3
291
     0
 70
    58
 90
        1
176
     1
 90
        2
176
     1
 90
        2
176
     1
 90
        0
176
     1
 40
0.6
176
     1
 40
30.0
176
     1
 62
     7
420
 16777215
176
     1
 90
        2
176
     1
 90
        2
176
     1
 62
     7
176
     1
 62
   257
176
     1
 90
        2
176
     1
 90
        1
176
     1
 40
40.0
176
     1
 90
        0
176
     1
 62
   257
176
     1
 40
1.0
176
     1
 90
        1
176
     1
 90
        6
176
     1
 90
        2
176
     1
 62
     7
176
     1
 90
        3
176
     1
 90
        0
176
     1
 90
        0
176
     1
290
     0
176
     1
 90
        1
176
     1
 40
0.0
176
     1
 90
        0
176
     1
290
     0
176
     1
290
     1
176
     1
290
     1
176
     1
290
     0
176
     1
290
     0
176
     1
290
     0
176
     1
290
     0
176
     1
290
     0
176
     1
290
     0
176
     1
 90
       50
176
     1
 40
0.0
176
     1
 40
1.0
176
     1
 90
        0
176
     1
 62
    18
420
        0
176
     1
 90
       50
176
     1
 90
        3
176
     1
 62
     5
420
      255
176
     1
290
     0
176
     1
 90
       50
176
     1
 90
       50
176
     1
 90
       50
176
     1
290
     0
176
     1
 90
       50
176
     1
 62
   256
176
     0
 40
1.0
176
     0
 90
        2
176
     1
  1
strokes_ogs.tif
176
     1
290
     0
176
     1
 40
1.0
176
     1
 40
1.0
176
     1
  0
VISUALSTYLE
  5
374
102
{ACAD_REACTORS
330
16
102
}
330
16
100
AcDbVisualStyle
  2
JitterOff
 70
    20
177
     3
291
     1
 70
    58
 90
        2
176
     0
 90
        2
176
     0
 90
        0
176
     0
 90
        0
176
     0
 40
0.6
176
     0
 40
30.0
176
     0
 62
     7
420
 16777215
176
     0
 90
        1
176
     0
 90
        4
176
     0
 62
     7
176
     0
 62
   257
176
     0
 90
        1
176
     0
 90
        1
176
     0
 40
1.0
176
     0
 90
       10
176
     2
 62
     7
176
     0
 40
1.0
176
     0
 90
        1
176
     0
 90
        6
176
     0
 90
        2
176
     0
 62
     7
176
     0
 90
        5
176
     0
 90
        0
176
     0
 90
        0
176
     0
290
     0
176
     0
 90
        1
176
     0
 40
0.0
176
     0
 90
        0
176
     0
290
     0
176
     0
290
     1
176
     0
290
     1
176
     0
290
     0
176
     0
290
     0
176
     0
290
     0
176
     0
290
     0
176
     0
290
     0
176
     0
290
     0
176
     0
 90
       50
176
     0
 40
0.0
176
     0
 40
1.0
176
     0
 90
        0
176
     0
 62
    18
420
        0
176
     0
 90
       50
176
     0
 90
        3
176
     0
 62
     5
420
      255
176
     0
290
     0
176
     0
 90
       50
176
     0
 90
       50
176
     0
 90
       50
176
     0
290
     0
176
     0
 90
       50
176
     0
 62
   256
176
     0
 40
1.0
176
     0
 90
        2
176
     0
  1
strokes_ogs.tif
176
     0
290
     0
176
     0
 40
1.0
176
     0
 40
1.0
176
     0
  0
VISUALSTYLE
  5
36C
102
{ACAD_REACTORS
330
16
102
}
330
16
100
AcDbVisualStyle
  2
Linepattern
 70
    14
177
     3
291
     1
 70
    58
 90
        2
176
     1
 90
        2
176
     1
 90
        0
176
     1
 90
        0
176
     1
 40
0.6
176
     1
 40
30.0
176
     1
 62
     7
420
 16777215
176
     1
 90
        1
176
     1
 90
        4
176
     1
 62
     7
176
     1
 62
   257
176
     1
 90
        7
176
     1
 90
        7
176
     1
 40
1.0
176
     1
 90
        8
176
     1
 62
     7
176
     1
 40
1.0
176
     1
 90
        1
176
     1
 90
        6
176
     1
 90
        2
176
     1
 62
     7
176
     1
 90
        5
176
     1
 90
        0
176
     1
 90
        0
176
     1
290
     0
176
     1
 90
        1
176
     1
 40
0.0
176
     1
 90
        0
176
     1
290
     0
176
     1
290
     1
176
     1
290
     1
176
     1
290
     0
176
     1
290
     0
176
     1
290
     0
176
     1
290
     0
176
     1
290
     0
176
     1
290
     0
176
     1
 90
       50
176
     1
 40
0.0
176
     1
 40
1.0
176
     1
 90
        0
176
     1
 62
    18
420
        0
176
     1
 90
       50
176
     1
 90
        3
176
     1
 62
     5
420
      255
176
     1
290
     0
176
     1
 90
       50
176
     1
 90
       50
176
     1
 90
       50
176
     1
290
     0
176
     1
 90
       50
176
     1
 62
   256
176
     0
 40
1.0
176
     0
 90
        2
176
     1
  1
strokes_ogs.tif
176
     1
290
     0
176
     1
 40
1.0
176
     1
 40
1.0
176
     1
  0
VISUALSTYLE
  5
375
102
{ACAD_REACTORS
330
16
102
}
330
16
100
AcDbVisualStyle
  2
OverhangOff
 70
    21
177
     3
291
     1
 70
    58
 90
        2
176
     0
 90
        2
176
     0
 90
        0
176
     0
 90
        0
176
     0
 40
0.6
176
     0
 40
30.0
176
     0
 62
     7
420
 16777215
176
     0
 90
        1
176
     0
 90
        4
176
     0
 62
     7
176
     0
 62
   257
176
     0
 90
        1
176
     0
 90
        1
176
     0
 40
1.0
176
     0
 90
        9
176
     2
 62
     7
176
     0
 40
1.0
176
     0
 90
        1
176
     0
 90
        6
176
     0
 90
        2
176
     0
 62
     7
176
     0
 90
        5
176
     0
 90
        0
176
     0
 90
        0
176
     0
290
     0
176
     0
 90
        1
176
     0
 40
0.0
176
     0
 90
        0
176
     0
290
     0
176
     0
290
     1
176
     0
290
     1
176
     0
290
     0
176
     0
290
     0
176
     0
290
     0
176
     0
290
     0
176
     0
290
     0
176
     0
290
     0
176
     0
 90
       50
176
     0
 40
0.0
176
     0
 40
1.0
176
     0
 90
        0
176
     0
 62
    18
420
        0
176
     0
 90
       50
176
     0
 90
        3
176
     0
 62
     5
420
      255
176
     0
290
     0
176
     0
 90
       50
176
     0
 90
       50
176
     0
 90
       50
176
     0
290
     0
176
     0
 90
       50
176
     0
 62
   256
176
     0
 40
1.0
176
     0
 90
        2
176
     0
  1
strokes_ogs.tif
176
     0
290
     0
176
     0
 40
1.0
176
     0
 40
1.0
176
     0
  0
VISUALSTYLE
  5
368
102
{ACAD_REACTORS
330
16
102
}
330
16
100
AcDbVisualStyle
  2
Realistic
 70
     8
177
     3
291
     0
 70
    58
 90
        2
176
     1
 90
        3
176
     1
 90
        0
176
     1
 90
        2
176
     1
 40
0.6
176
     1
 40
30.0
176
     1
 62
     7
420
 16777215
176
     1
 90
        0
176
     1
 90
        0
176
     1
 62
     7
176
     1
 62
   257
176
     1
 90
        1
176
     1
 90
        1
176
     1
 40
1.0
176
     1
 90
        8
176
     1
 62
   257
176
     1
 40
1.0
176
     1
 90
        1
176
     1
 90
        6
176
     1
 90
        2
176
     1
 62
     7
176
     1
 90
        3
176
     1
 90
        0
176
     1
 90
        0
176
     1
290
     0
176
     1
 90
       13
176
     1
 40
0.0
176
     1
 90
        0
176
     1
290
     0
176
     1
290
     1
176
     1
290
     1
176
     1
290
     0
176
     1
290
     0
176
     1
290
     0
176
     1
290
     0
176
     1
290
     0
176
     1
290
     0
176
     1
 90
       50
176
     1
 40
0.0
176
     1
 40
1.0
176
     1
 90
        0
176
     1
 62
    18
420
        0
176
     1
 90
       50
176
     1
 90
        3
176
     1
 62
     5
420
      255
176
     1
290
     0
176
     1
 90
       50
176
     1
 90
       50
176
     1
 90
       50
176
     1
290
     0
176
     1
 90
       50
176
     1
 62
   256
176
     0
 40
1.0
176
     0
 90
        2
176
     1
  1
strokes_ogs.tif
176
     1
290
     0
176
     1
 40
1.0
176
     1
 40
1.0
176
     1
  0
VISUALSTYLE
  5
373
102
{ACAD_REACTORS
330
16
102
}
330
16
100
AcDbVisualStyle
  2
Shaded
 70
    27
177
     3
291
     0
 70
    58
 90
        2
176
     1
 90
        2
176
     1
 90
        1
176
     1
 90
        2
176
     1
 40
0.6
176
     1
 40
30.0
176
     1
 62
     7
420
 16777215
176
     1
 90
        0
176
     1
 90
        4
176
     1
 62
     7
176
     1
 62
   257
176
     1
 90
        1
176
     1
 90
        1
176
     1
 40
1.0
176
     1
 90
        8
176
     1
 62
   257
176
     1
 40
1.0
176
     1
 90
        1
176
     1
 90
        6
176
     1
 90
        2
176
     1
 62
     8
420
  7895160
176
     1
 90
        3
176
     1
 90
        0
176
     1
 90
        0
176
     1
290
     0
176
     1
 90
        5
176
     1
 40
0.0
176
     1
 90
        0
176
     1
290
     0
176
     1
290
     1
176
     1
290
     1
176
     1
290
     0
176
     1
290
     0
176
     1
290
     0
176
     1
290
     0
176
     1
290
     0
176
     1
290
     0
176
     1
 90
       50
176
     1
 40
0.0
176
     1
 40
1.0
176
     1
 90
        0
176
     1
 62
    18
420
        0
176
     1
 90
       50
176
     1
 90
        3
176
     1
 62
     5
420
      255
176
     1
290
     0
176
     1
 90
       50
176
     1
 90
       50
176
     1
 90
       50
176
     1
290
     0
176
     1
 90
       50
176
     1
 62
   256
176
     0
 40
1.0
176
     0
 90
        2
176
     1
  1
strokes_ogs.tif
176
     1
290
     0
176
     1
 40
1.0
176
     1
 40
1.0
176
     1
  0
VISUALSTYLE
  5
372
102
{ACAD_REACTORS
330
16
102
}
330
16
100
AcDbVisualStyle
  2
Shaded with edges
 70
    26
177
     3
291
     0
 70
    58
 90
        2
176
     1
 90
        2
176
     1
 90
        1
176
     1
 90
        2
176
     1
 40
0.6
176
     1
 40
30.0
176
     1
 62
     7
420
 16777215
176
     1
 90
        1
176
     1
 90
        2
176
     1
 62
     7
176
     1
 62
   257
176
     1
 90
        2
176
     1
 90
        1
176
     1
 40
1.0
176
     1
 90
        8
176
     1
 62
   257
176
     1
 40
1.0
176
     1
 90
        1
176
     1
 90
        6
176
     1
 90
        2
176
     1
 62
     7
176
     1
 90
        3
176
     1
 90
        0
176
     1
 90
        0
176
     1
290
     0
176
     1
 90
        5
176
     1
 40
0.0
176
     1
 90
        0
176
     1
290
     0
176
     1
290
     1
176
     1
290
     1
176
     1
290
     0
176
     1
290
     0
176
     1
290
     0
176
     1
290
     0
176
     1
290
     0
176
     1
290
     0
176
     1
 90
       50
176
     1
 40
0.0
176
     1
 40
1.0
176
     1
 90
        0
176
     1
 62
    18
420
        0
176
     1
 90
       50
176
     1
 90
        3
176
     1
 62
     5
420
      255
176
     1
290
     0
176
     1
 90
       50
176
     1
 90
       50
176
     1
 90
       50
176
     1
290
     0
176
     1
 90
       50
176
     1
 62
   256
176
     0
 40
1.0
176
     0
 90
        2
176
     1
  1
strokes_ogs.tif
176
     1
290
     0
176
     1
 40
1.0
176
     1
 40
1.0
176
     1
  0
VISUALSTYLE
  5
36F
102
{ACAD_REACTORS
330
16
102
}
330
16
100
AcDbVisualStyle
  2
Shades of Gray
 70
    23
177
     3
291
     0
 70
    58
 90
        2
176
     1
 90
        2
176
     1
 90
        3
176
     1
 90
        0
176
     1
 40
0.6
176
     1
 40
30.0
176
     1
 62
     7
420
 16777215
176
     1
 90
        2
176
     1
 90
        2
176
     1
 62
     7
176
     1
 62
     7
176
     1
 90
        1
176
     1
 90
        1
176
     1
 40
40.0
176
     1
 90
        8
176
     1
 62
     7
176
     1
 40
1.0
176
     1
 90
        1
176
     1
 90
        6
176
     1
 90
        2
176
     1
 62
     7
176
     1
 90
        3
176
     1
 90
        0
176
     1
 90
        0
176
     1
290
     0
176
     1
 90
        1
176
     1
 40
0.0
176
     1
 90
        0
176
     1
290
     0
176
     1
290
     1
176
     1
290
     1
176
     1
290
     0
176
     1
290
     0
176
     1
290
     0
176
     1
290
     0
176
     1
290
     0
176
     1
290
     0
176
     1
 90
       50
176
     1
 40
0.0
176
     1
 40
1.0
176
     1
 90
        0
176
     1
 62
    18
420
        0
176
     1
 90
       50
176
     1
 90
        3
176
     1
 62
     5
420
      255
176
     1
290
     0
176
     1
 90
       50
176
     1
 90
       50
176
     1
 90
       50
176
     1
290
     0
176
     1
 90
       50
176
     1
 62
   256
176
     0
 40
1.0
176
     0
 90
        2
176
     1
  1
strokes_ogs.tif
176
     1
290
     0
176
     1
 40
1.0
176
     1
 40
1.0
176
     1
  0
VISUALSTYLE
  5
370
102
{ACAD_REACTORS
330
16
102
}
330
16
100
AcDbVisualStyle
  2
Sketchy
 70
    24
177
     3
291
     0
 70
    58
 90
        1
176
     1
 90
        2
176
     1
 90
        2
176
     1
 90
        0
176
     1
 40
0.6
176
     1
 40
30.0
176
     1
 62
     7
420
 16777215
176
     1
 90
        2
176
     1
 90
        2
176
     1
 62
     7
176
     1
 62
     7
176
     1
 90
        1
176
     1
 90
        1
176
     1
 40
40.0
176
     1
 90
       11
176
     1
 62
     7
176
     1
 40
1.0
176
     1
 90
        1
176
     1
 90
        6
176
     1
 90
        2
176
     1
 62
     7
176
     1
 90
        6
176
     1
 90
        0
176
     1
 90
        0
176
     1
290
     0
176
     1
 90
        1
176
     1
 40
0.0
176
     1
 90
        0
176
     1
290
     0
176
     1
290
     1
176
     1
290
     1
176
     1
290
     0
176
     1
290
     0
176
     1
290
     0
176
     1
290
     0
176
     1
290
     0
176
     1
290
     0
176
     1
 90
       50
176
     1
 40
0.0
176
     1
 40
1.0
176
     1
 90
        0
176
     1
 62
    18
420
        0
176
     1
 90
       50
176
     1
 90
        3
176
     1
 62
     5
420
      255
176
     1
290
     0
176
     1
 90
       50
176
     1
 90
       50
176
     1
 90
       50
176
     1
290
     0
176
     1
 90
       50
176
     1
 62
   256
176
     0
 40
1.0
176
     0
 90
        2
176
     1
  1
strokes_ogs.tif
176
     1
290
     0
176
     1
 40
1.0
176
     1
 40
1.0
176
     1
  0
VISUALSTYLE
  5
36B
102
{ACAD_REACTORS
330
16
102
}
330
16
100
AcDbVisualStyle
  2
Thicken
 70
    13
177
     3
291
     1
 70
    58
 90
        2
176
     1
 90
        2
176
     1
 90
        0
176
     1
 90
        0
176
     1
 40
0.6
176
     1
 40
30.0
176
     1
 62
     7
420
 16777215
176
     1
 90
        1
176
     1
 90
        4
176
     1
 62
     7
176
     1
 62
   257
176
     1
 90
        1
176
     1
 90
        1
176
     1
 40
1.0
176
     1
 90
       12
176
     1
 62
     7
176
     1
 40
1.0
176
     1
 90
        1
176
     1
 90
        6
176
     1
 90
        2
176
     1
 62
     7
176
     1
 90
        5
176
     1
 90
        0
176
     1
 90
        0
176
     1
290
     0
176
     1
 90
        1
176
     1
 40
0.0
176
     1
 90
        0
176
     1
290
     0
176
     1
290
     1
176
     1
290
     1
176
     1
290
     0
176
     1
290
     0
176
     1
290
     0
176
     1
290
     0
176
     1
290
     0
176
     1
290
     0
176
     1
 90
       50
176
     1
 40
0.0
176
     1
 40
1.0
176
     1
 90
        0
176
     1
 62
    18
420
        0
176
     1
 90
       50
176
     1
 90
        3
176
     1
 62
     5
420
      255
176
     1
290
     0
176
     1
 90
       50
176
     1
 90
       50
176
     1
 90
       50
176
     1
290
     0
176
     1
 90
       50
176
     1
 62
   256
176
     0
 40
1.0
176
     0
 90
        2
176
     1
  1
strokes_ogs.tif
176
     1
290
     0
176
     1
 40
1.0
176
     1
 40
1.0
176
     1
  0
VISUALSTYLE
  5
365
102
{ACAD_REACTORS
330
16
102
}
330
16
100
AcDbVisualStyle
  2
Wireframe
 70
     5
177
     3
291
     0
 70
    58
 90
        0
176
     1
 90
        2
176
     1
 90
        0
176
     1
 90
        0
176
     1
 40
0.6
176
     1
 40
30.0
176
     1
 62
     7
420
 16777215
176
     1
 90
        1
176
     1
 90
        4
176
     1
 62
     7
176
     1
 62
   257
176
     1
 90
        1
176
     1
 90
        1
176
     1
 40
1.0
176
     1
 90
        0
176
     1
 62
   257
176
     1
 40
1.0
176
     1
 90
        1
176
     1
 90
        6
176
     1
 90
        2
176
     1
 62
     7
176
     1
 90
        3
176
     1
 90
        0
176
     1
 90
        0
176
     1
290
     0
176
     1
 90
        1
176
     1
 40
0.0
176
     1
 90
        0
176
     1
290
     0
176
     1
290
     1
176
     1
290
     1
176
     1
290
     0
176
     1
290
     0
176
     1
290
     0
176
     1
290
     0
176
     1
290
     0
176
     1
290
     0
176
     1
 90
       50
176
     1
 40
0.0
176
     1
 40
1.0
176
     1
 90
        0
176
     1
 62
    18
420
        0
176
     1
 90
       50
176
     1
 90
        3
176
     1
 62
     5
420
      255
176
     1
290
     0
176
     1
 90
       50
176
     1
 90
       50
176
     1
 90
       50
176
     1
290
     0
176
     1
 90
       50
176
     1
 62
   256
176
     0
 40
1.0
176
     0
 90
        2
176
     1
  1
strokes_ogs.tif
176
     1
290
     0
176
     1
 40
1.0
176
     1
 40
1.0
176
     1
  0
VISUALSTYLE
  5
371
102
{ACAD_REACTORS
330
16
102
}
330
16
100
AcDbVisualStyle
  2
X-Ray
 70
    25
177
     3
291
     0
 70
    58
 90
        2
176
     1
 90
        2
176
     1
 90
        1
176
     1
 90
        1
176
     1
 40
0.5
176
     1
 40
30.0
176
     1
 62
     7
420
 16777215
176
     1
 90
        1
176
     1
 90
        0
176
     1
 62
     7
176
     1
 62
   257
176
     1
 90
        1
176
     1
 90
        1
176
     1
 40
1.0
176
     1
 90
        8
176
     1
 62
     7
176
     1
 40
1.0
176
     1
 90
        1
176
     1
 90
        6
176
     1
 90
        2
176
     1
 62
     7
176
     1
 90
        3
176
     1
 90
        0
176
     1
 90
        0
176
     1
290
     0
176
     1
 90
       13
176
     1
 40
0.0
176
     1
 90
        0
176
     1
290
     0
176
     1
290
     1
176
     1
290
     1
176
     1
290
     0
176
     1
290
     0
176
     1
290
     0
176
     1
290
     0
176
     1
290
     0
176
     1
290
     0
176
     1
 90
       50
176
     1
 40
0.0
176
     1
 40
1.0
176
     1
 90
        0
176
     1
 62
    18
420
        0
176
     1
 90
       50
176
     1
 90
        3
176
     1
 62
     5
420
      255
176
     1
290
     0
176
     1
 90
       50
176
     1
 90
       50
176
     1
 90
       50
176
     1
290
     0
176
     1
 90
       50
176
     1
 62
   256
176
     0
 40
1.0
176
     0
 90
        2
176
     1
  1
strokes_ogs.tif
176
     1
290
     0
176
     1
 40
1.0
176
     1
 40
1.0
176
     1
  0
DICTIONARYVAR
  5
436
102
{ACAD_REACTORS
330
431
102
}
330
431
100
DictionaryVariables
280
     0
  1
1:1
  0
DICTIONARYVAR
  5
433
102
{ACAD_REACTORS
330
431
102
}
330
431
100
DictionaryVariables
280
     0
  1
STANDARD
  0
DICTIONARYVAR
  5
432
102
{ACAD_REACTORS
330
431
102
}
330
431
100
DictionaryVariables
280
     0
  1
STANDARD
  0
DICTIONARYVAR
  5
434
102
{ACAD_REACTORS
330
431
102
}
330
431
100
DictionaryVariables
280
     0
  1
Metric50
  0
DICTIONARYVAR
  5
435
102
{ACAD_REACTORS
330
431
102
}
330
431
100
DictionaryVariables
280
     0
  1
Metric50
  0
DICTIONARY
  5
527
330
377
100
AcDbDictionary
280
     1
281
     1
  3
ACAD_ROUNDTRIP_2008_TABLESTYLE_CELLSTYLEMAP
360
528
  0
CELLSTYLEMAP
  5
528
102
{ACAD_REACTORS
330
527
102
}
330
527
100
AcDbCellStyleMap
 90
        3
300
CELLSTYLE
  1
TABLEFORMAT_BEGIN
 90
        5
170
     1
 91
        0
 92
    32768
 62
   257
 93
        1
300
CONTENTFORMAT
  1
CONTENTFORMAT_BEGIN
 90
        0
 91
        0
 92
      512
 93
        0
300

 40
0.0
140
1.0
 94
        5
 62
     0
340
29
144
6.0
309
CONTENTFORMAT_END
171
     1
301
MARGIN
  1
CELLMARGIN_BEGIN
 40
1.5
 40
1.5
 40
1.5
 40
1.5
 40
4.5
 40
4.5
309
CELLMARGIN_END
 94
        6
 95
        1
302
GRIDFORMAT
  1
GRIDFORMAT_BEGIN
 90
        0
 91
        1
 62
     0
 92
       -2
340
0
 93
        0
 40
1.125
309
GRIDFORMAT_END
 95
        2
302
GRIDFORMAT
  1
GRIDFORMAT_BEGIN
 90
        0
 91
        1
 62
     0
 92
       -2
340
0
 93
        0
 40
1.125
309
GRIDFORMAT_END
 95
        4
302
GRIDFORMAT
  1
GRIDFORMAT_BEGIN
 90
        0
 91
        1
 62
     0
 92
       -2
340
0
 93
        0
 40
1.125
309
GRIDFORMAT_END
 95
        8
302
GRIDFORMAT
  1
GRIDFORMAT_BEGIN
 90
        0
 91
        1
 62
     0
 92
       -2
340
0
 93
        0
 40
1.125
309
GRIDFORMAT_END
 95
       16
302
GRIDFORMAT
  1
GRIDFORMAT_BEGIN
 90
        0
 91
        1
 62
     0
 92
       -2
340
0
 93
        0
 40
1.125
309
GRIDFORMAT_END
 95
       32
302
GRIDFORMAT
  1
GRIDFORMAT_BEGIN
 90
        0
 91
        1
 62
     0
 92
       -2
340
0
 93
        0
 40
1.125
309
GRIDFORMAT_END
309
TABLEFORMAT_END
  1
CELLSTYLE_BEGIN
 90
        1
 91
        1
300
_TITLE
309
CELLSTYLE_END
300
CELLSTYLE
  1
TABLEFORMAT_BEGIN
 90
        5
170
     1
 91
        0
 92
        0
 62
   257
 93
        1
300
CONTENTFORMAT
  1
CONTENTFORMAT_BEGIN
 90
        0
 91
        0
 92
      512
 93
        0
300

 40
0.0
140
1.0
 94
        5
 62
     0
340
29
144
4.5
309
CONTENTFORMAT_END
171
     1
301
MARGIN
  1
CELLMARGIN_BEGIN
 40
1.5
 40
1.5
 40
1.5
 40
1.5
 40
4.5
 40
4.5
309
CELLMARGIN_END
 94
        6
 95
        1
302
GRIDFORMAT
  1
GRIDFORMAT_BEGIN
 90
        0
 91
        1
 62
     0
 92
       -2
340
0
 93
        0
 40
1.125
309
GRIDFORMAT_END
 95
        2
302
GRIDFORMAT
  1
GRIDFORMAT_BEGIN
 90
        0
 91
        1
 62
     0
 92
       -2
340
0
 93
        0
 40
1.125
309
GRIDFORMAT_END
 95
        4
302
GRIDFORMAT
  1
GRIDFORMAT_BEGIN
 90
        0
 91
        1
 62
     0
 92
       -2
340
0
 93
        0
 40
1.125
309
GRIDFORMAT_END
 95
        8
302
GRIDFORMAT
  1
GRIDFORMAT_BEGIN
 90
        0
 91
        1
 62
     0
 92
       -2
340
0
 93
        0
 40
1.125
309
GRIDFORMAT_END
 95
       16
302
GRIDFORMAT
  1
GRIDFORMAT_BEGIN
 90
        0
 91
        1
 62
     0
 92
       -2
340
0
 93
        0
 40
1.125
309
GRIDFORMAT_END
 95
       32
302
GRIDFORMAT
  1
GRIDFORMAT_BEGIN
 90
        0
 91
        1
 62
     0
 92
       -2
340
0
 93
        0
 40
1.125
309
GRIDFORMAT_END
309
TABLEFORMAT_END
  1
CELLSTYLE_BEGIN
 90
        2
 91
        1
300
_HEADER
309
CELLSTYLE_END
300
CELLSTYLE
  1
TABLEFORMAT_BEGIN
 90
        5
170
     1
 91
        0
 92
        0
 62
   257
 93
        1
300
CONTENTFORMAT
  1
CONTENTFORMAT_BEGIN
 90
        0
 91
        0
 92
      512
 93
        0
300

 40
0.0
140
1.0
 94
        2
 62
     0
340
29
144
4.5
309
CONTENTFORMAT_END
171
     1
301
MARGIN
  1
CELLMARGIN_BEGIN
 40
1.5
 40
1.5
 40
1.5
 40
1.5
 40
4.5
 40
4.5
309
CELLMARGIN_END
 94
        6
 95
        1
302
GRIDFORMAT
  1
GRIDFORMAT_BEGIN
 90
        0
 91
        1
 62
     0
 92
       -2
340
0
 93
        0
 40
1.125
309
GRIDFORMAT_END
 95
        2
302
GRIDFORMAT
  1
GRIDFORMAT_BEGIN
 90
        0
 91
        1
 62
     0
 92
       -2
340
0
 93
        0
 40
1.125
309
GRIDFORMAT_END
 95
        4
302
GRIDFORMAT
  1
GRIDFORMAT_BEGIN
 90
        0
 91
        1
 62
     0
 92
       -2
340
0
 93
        0
 40
1.125
309
GRIDFORMAT_END
 95
        8
302
GRIDFORMAT
  1
GRIDFORMAT_BEGIN
 90
        0
 91
        1
 62
     0
 92
       -2
340
0
 93
        0
 40
1.125
309
GRIDFORMAT_END
 95
       16
302
GRIDFORMAT
  1
GRIDFORMAT_BEGIN
 90
        0
 91
        1
 62
     0
 92
       -2
340
0
 93
        0
 40
1.125
309
GRIDFORMAT_END
 95
       32
302
GRIDFORMAT
  1
GRIDFORMAT_BEGIN
 90
        0
 91
        1
 62
     0
 92
       -2
340
0
 93
        0
 40
1.125
309
GRIDFORMAT_END
309
TABLEFORMAT_END
  1
CELLSTYLE_BEGIN
 90
        3
 91
        2
300
_DATA
309
CELLSTYLE_END
  0
ENDSEC
  0
SECTION
  2
ACDSDATA
 70
     2
 71
     8
  0
ACDSSCHEMA
 90
        0
  1
AcDb_Thumbnail_Schema
  2
AcDbDs::ID
280
    10
 91
        8
  2
Thumbnail_Data
280
    15
 91
        0
101
ACDSRECORD
 95
        0
 90
        1
  2
AcDbDs::TreatedAsObjectData
280
     1
291
     1
101
ACDSRECORD
 95
        0
 90
        2
  2
AcDbDs::Legacy
280
     1
291
     1
101
ACDSRECORD
  1
AcDbDs::ID
 90
        3
  2
AcDs:Indexable
280
     1
291
     1
101
ACDSRECORD
  1
AcDbDs::ID
 90
        4
  2
AcDbDs::HandleAttribute
280
     7
282
     1
  0
ACDSSCHEMA
 90
        1
  1
AcDbDs::TreatedAsObjectDataSchema
  2
AcDbDs::TreatedAsObjectData
280
     1
 91
        0
  0
ACDSSCHEMA
 90
        2
  1
AcDbDs::LegacySchema
  2
AcDbDs::Legacy
280
     1
 91
        0
  0
ACDSSCHEMA
 90
        3
  1
AcDbDs::IndexedPropertySchema
  2
AcDs:Indexable
280
     1
 91
        0
  0
ACDSSCHEMA
 90
        4
  1
AcDbDs::HandleAttributeSchema
  2
AcDbDs::HandleAttribute
280
     7
 91
        1
284
     1
  0
ACDSRECORD
 90
        0
  2
AcDbDs::ID
280
    10
320
1A
  2
Thumbnail_Data
280
    15
 94
     1482
310
89504E470D0A1A0A0000000D4948445200000100000000590803000000E65A0ADF00000300504C5445212830FFFFFF2128300000000000000000000000000000000000000000000000000000330000660000990000CC0000FF0033000033330033660033990033CC0033FF0066000066330066660066990066CC0066FF0099
310
000099330099660099990099CC0099FF00CC0000CC3300CC6600CC9900CCCC00CCFF00FF0000FF3300FF6600FF9900FFCC00FFFF3300003300333300663300993300CC3300FF3333003333333333663333993333CC3333FF3366003366333366663366993366CC3366FF3399003399333399663399993399CC3399FF33CC00
310
33CC3333CC6633CC9933CCCC33CCFF33FF0033FF3333FF6633FF9933FFCC33FFFF6600006600336600666600996600CC6600FF6633006633336633666633996633CC6633FF6666006666336666666666996666CC6666FF6699006699336699666699996699CC6699FF66CC0066CC3366CC6666CC9966CCCC66CCFF66FF0066
310
FF3366FF6666FF9966FFCC66FFFF9900009900339900669900999900CC9900FF9933009933339933669933999933CC9933FF9966009966339966669966999966CC9966FF9999009999339999669999999999CC9999FF99CC0099CC3399CC6699CC9999CCCC99CCFF99FF0099FF3399FF6699FF9999FFCC99FFFFCC0000CC00
310
33CC0066CC0099CC00CCCC00FFCC3300CC3333CC3366CC3399CC33CCCC33FFCC6600CC6633CC6666CC6699CC66CCCC66FFCC9900CC9933CC9966CC9999CC99CCCC99FFCCCC00CCCC33CCCC66CCCC99CCCCCCCCCCFFCCFF00CCFF33CCFF66CCFF99CCFFCCCCFFFFFF0000FF0033FF0066FF0099FF00CCFF00FFFF3300FF3333
310
FF3366FF3399FF33CCFF33FFFF6600FF6633FF6666FF6699FF66CCFF66FFFF9900FF9933FF9966FF9999FF99CCFF99FFFFCC00FFCC33FFCC66FFCC99FFCCCCFFCCFFFFFF00FFFF33FFFF66FFFF99FFFFCCFFFFFF0000000D0D0D1A1A1A2828283535354343435050505D5D5D6B6B6B787878868686939393A1A1A1AEAEAEBB
310
BBBBC9C9C9D6D6D6E4E4E4F1F1F1FFFFFF0000000000000000000000000000000000000000000000000000000000002E4550F1000002754944415478DAED9B4D9EC2200CC5739C6EB8FF01B88EDBD98F639D56CA8734D0BC96BEB87046FDD9E64FF288104486B747E1BF5B18010809100001DC1A00091000014001787F2E02
310
0F43CF5FF6F1C7AD003C1DF6810143019003892107468139809CAB3004B63950721384C014C0171721040C0154F807406007E0A9F59D3E744D007583EBCD09584D03D58EF95101AC7EFDCC4FEEF3693A0981C7E1FEBBC5020CC0183001B026C0D6E1CB01F04A8B02208883AED7382580C2805F0E404BB86D523FD4815C401C
310
BCB8600B60E3F456094B896102E03B81F7657477E972006A94211B53EF8FDB03D80FC145A3EE3256EF3C04C0DF359DC64AA3AEB6B7B2180270D3EBB11F436FD75F36DF8A29806936852F29ED9786B058EE650269803E1192F340341B54043F46045D8738AE990E6B3918035824C01D82410377428860473913358009218222
310
72889E2BBE1556092A0014B43F7C6D54001D67BF24018006B86600AD4924A04248390BF4743DD041EB59405B071CA29C883AA0B512ECFA330851092E75807498F55B7F0BCCE9685C084543D0AB14D64A807521D431F67B08A358AF07E85684EAE571F737C20AA1BD2BC2BBABBBF32E8A2A9784CBA570DBBAF80500AC737656
310
FCE40200F49B3615B237ECD6D8BA3728F96DE1FFD74E0D40199EE2A3CDB1ACFE8DB83D2EF9EDE158FF870410104894C2C37788AC49F0A543C4BE51CEAA4D6CF1CCA574EF83D3A04D5271159D9CF8C18D92E8565144AFAC75AFB0D7BE3B048062BFA47D972C0240EE6C04ECC804EAC4888FAB6B919B00888A7D419E9A029D1A
310
0B1908D060004E623C394A00F49F0008E0BE00180004C00C20006600013003180004C00C2000660001D07F022080D07E0156408F525D110B110000000049454E44AE4260824E44AE426082000049454E44AE426082
  0
ENDSEC
  0
EOF
