  0
SECTION
  2
HEADER
  9
$ACADVER
  1
AC1027
  9
$ACADMAINTVER
 70
105
  9
$DWGCODEPAGE
  3
ANSI_1252
  9
$LASTSAVEDBY
  1
ezdxf
  9
$REQUIREDVERSIONS
160
0
  9
$INSBASE
 10
0.0
 20
0.0
 30
0.0
  9
$EXTMIN
 10
-100
 20
-100
 30
-100
  9
$EXTMAX
 10
100
 20
100
 30
100
  9
$LIMMIN
 10
0.0
 20
0.0
  9
$LIMMAX
 10
420.0
 20
297.0
  9
$ORTHOMODE
 70
0
  9
$REGENMODE
 70
1
  9
$FILLMODE
 70
1
  9
$QTEXTMODE
 70
0
  9
$MIRRTEXT
 70
1
  9
$LTSCALE
 40
1.0
  9
$ATTMODE
 70
1
  9
$TEXTSIZE
 40
2.5
  9
$TRACEWID
 40
1.0
  9
$TEXTSTYLE
  7
Standard
  9
$CLAYER
  8
0
  9
$CELTYPE
  6
ByLayer
  9
$CECOLOR
 62
256
  9
$CELTSCALE
 40
1.0
  9
$DISPSILH
 70
0
  9
$DIMSCALE
 40
1.0
  9
$DIMASZ
 40
2.5
  9
$DIMEXO
 40
0.625
  9
$DIMDLI
 40
3.75
  9
$DIMRND
 40
0.0
  9
$DIMDLE
 40
0.0
  9
$DIMEXE
 40
1.25
  9
$DIMTP
 40
0.0
  9
$DIMTM
 40
0.0
  9
$DIMTXT
 40
2.5
  9
$DIMCEN
 40
2.5
  9
$DIMTSZ
 40
0.0
  9
$DIMTOL
 70
0
  9
$DIMLIM
 70
0
  9
$DIMTIH
 70
0
  9
$DIMTOH
 70
0
  9
$DIMSE1
 70
0
  9
$DIMSE2
 70
0
  9
$DIMTAD
 70
1
  9
$DIMZIN
 70
8
  9
$DIMBLK
  1

  9
$DIMASO
 70
1
  9
$DIMSHO
 70
1
  9
$DIMPOST
  1

  9
$DIMAPOST
  1

  9
$DIMALT
 70
0
  9
$DIMALTD
 70
3
  9
$DIMALTF
 40
0.03937007874
  9
$DIMLFAC
 40
1.0
  9
$DIMTOFL
 70
1
  9
$DIMTVP
 40
0.0
  9
$DIMTIX
 70
0
  9
$DIMSOXD
 70
0
  9
$DIMSAH
 70
0
  9
$DIMBLK1
  1

  9
$DIMBLK2
  1

  9
$DIMSTYLE
  2
ISO-25
  9
$DIMCLRD
 70
0
  9
$DIMCLRE
 70
0
  9
$DIMCLRT
 70
0
  9
$DIMTFAC
 40
1.0
  9
$DIMGAP
 40
0.625
  9
$DIMJUST
 70
0
  9
$DIMSD1
 70
0
  9
$DIMSD2
 70
0
  9
$DIMTOLJ
 70
0
  9
$DIMTZIN
 70
8
  9
$DIMALTZ
 70
0
  9
$DIMALTTZ
 70
0
  9
$DIMUPT
 70
0
  9
$DIMDEC
 70
2
  9
$DIMTDEC
 70
2
  9
$DIMALTU
 70
2
  9
$DIMALTTD
 70
3
  9
$DIMTXSTY
  7
Standard
  9
$DIMAUNIT
 70
0
  9
$DIMADEC
 70
0
  9
$DIMALTRND
 40
0.0
  9
$DIMAZIN
 70
0
  9
$DIMDSEP
 70
44
  9
$DIMATFIT
 70
3
  9
$DIMFRAC
 70
0
  9
$DIMLDRBLK
  1

  9
$DIMLUNIT
 70
2
  9
$DIMLWD
 70
-2
  9
$DIMLWE
 70
-2
  9
$DIMTMOVE
 70
0
  9
$DIMFXL
 40
1.0
  9
$DIMFXLON
 70
0
  9
$DIMJOGANG
 40
0.785398163397
  9
$DIMTFILL
 70
0
  9
$DIMTFILLCLR
 70
0
  9
$DIMARCSYM
 70
0
  9
$DIMLTYPE
  6

  9
$DIMLTEX1
  6

  9
$DIMLTEX2
  6

  9
$DIMTXTDIRECTION
 70
0
  9
$LUNITS
 70
2
  9
$LUPREC
 70
4
  9
$SKETCHINC
 40
1.0
  9
$FILLETRAD
 40
10.0
  9
$AUNITS
 70
0
  9
$AUPREC
 70
2
  9
$MENU
  1
.
  9
$ELEVATION
 40
0.0
  9
$PELEVATION
 40
0.0
  9
$THICKNESS
 40
0.0
  9
$LIMCHECK
 70
0
  9
$CHAMFERA
 40
0.0
  9
$CHAMFERB
 40
0.0
  9
$CHAMFERC
 40
0.0
  9
$CHAMFERD
 40
0.0
  9
$SKPOLY
 70
0
  9
$TDCREATE
 40
2459233.884849537
  9
$TDUCREATE
 40
2458532.153996898
  9
$TDUPDATE
 40
2459233.884849537
  9
$TDUUPDATE
 40
2458532.1544311
  9
$TDINDWG
 40
0.0
  9
$TDUSRTIMER
 40
0.0
  9
$USRTIMER
 70
1
  9
$ANGBASE
 50
0.0
  9
$ANGDIR
 70
0
  9
$PDMODE
 70
0
  9
$PDSIZE
 40
0.0
  9
$PLINEWID
 40
0.0
  9
$SPLFRAME
 70
0
  9
$SPLINETYPE
 70
6
  9
$SPLINESEGS
 70
8
  9
$HANDSEED
  5
37D
  9
$SURFTAB1
 70
6
  9
$SURFTAB2
 70
6
  9
$SURFTYPE
 70
6
  9
$SURFU
 70
6
  9
$SURFV
 70
6
  9
$UCSBASE
  2

  9
$UCSNAME
  2

  9
$UCSORG
 10
0.0
 20
0.0
 30
0.0
  9
$UCSXDIR
 10
1.0
 20
0.0
 30
0.0
  9
$UCSYDIR
 10
0.0
 20
1.0
 30
0.0
  9
$UCSORTHOREF
  2

  9
$UCSORTHOVIEW
 70
0
  9
$UCSORGTOP
 10
0.0
 20
0.0
 30
0.0
  9
$UCSORGBOTTOM
 10
0.0
 20
0.0
 30
0.0
  9
$UCSORGLEFT
 10
0.0
 20
0.0
 30
0.0
  9
$UCSORGRIGHT
 10
0.0
 20
0.0
 30
0.0
  9
$UCSORGFRONT
 10
0.0
 20
0.0
 30
0.0
  9
$UCSORGBACK
 10
0.0
 20
0.0
 30
0.0
  9
$PUCSBASE
  2

  9
$PUCSNAME
  2

  9
$PUCSORG
 10
0.0
 20
0.0
 30
0.0
  9
$PUCSXDIR
 10
1.0
 20
0.0
 30
0.0
  9
$PUCSYDIR
 10
0.0
 20
1.0
 30
0.0
  9
$PUCSORTHOREF
  2

  9
$PUCSORTHOVIEW
 70
0
  9
$PUCSORGTOP
 10
0.0
 20
0.0
 30
0.0
  9
$PUCSORGBOTTOM
 10
0.0
 20
0.0
 30
0.0
  9
$PUCSORGLEFT
 10
0.0
 20
0.0
 30
0.0
  9
$PUCSORGRIGHT
 10
0.0
 20
0.0
 30
0.0
  9
$PUCSORGFRONT
 10
0.0
 20
0.0
 30
0.0
  9
$PUCSORGBACK
 10
0.0
 20
0.0
 30
0.0
  9
$USERI1
 70
0
  9
$USERI2
 70
0
  9
$USERI3
 70
0
  9
$USERI4
 70
0
  9
$USERI5
 70
0
  9
$USERR1
 40
0.0
  9
$USERR2
 40
0.0
  9
$USERR3
 40
0.0
  9
$USERR4
 40
0.0
  9
$USERR5
 40
0.0
  9
$WORLDVIEW
 70
1
  9
$SHADEDGE
 70
3
  9
$SHADEDIF
 70
70
  9
$TILEMODE
 70
1
  9
$MAXACTVP
 70
64
  9
$PINSBASE
 10
0.0
 20
0.0
 30
0.0
  9
$PLIMCHECK
 70
0
  9
$PEXTMIN
 10
1e+20
 20
1e+20
 30
1e+20
  9
$PEXTMAX
 10
-1e+20
 20
-1e+20
 30
-1e+20
  9
$PLIMMIN
 10
0.0
 20
0.0
  9
$PLIMMAX
 10
420.0
 20
297.0
  9
$UNITMODE
 70
0
  9
$VISRETAIN
 70
1
  9
$PLINEGEN
 70
0
  9
$PSLTSCALE
 70
1
  9
$TREEDEPTH
 70
3020
  9
$CMLSTYLE
  2
Standard
  9
$CMLJUST
 70
0
  9
$CMLSCALE
 40
20.0
  9
$PROXYGRAPHICS
 70
1
  9
$MEASUREMENT
 70
1
  9
$CELWEIGHT
370
-1
  9
$ENDCAPS
280
0
  9
$JOINSTYLE
280
0
  9
$LWDISPLAY
290
0
  9
$INSUNITS
 70
6
  9
$HYPERLINKBASE
  1

  9
$STYLESHEET
  1

  9
$XEDIT
290
1
  9
$CEPSNTYPE
380
0
  9
$PSTYLEMODE
290
1
  9
$FINGERPRINTGUID
  2
04DF8857-59FC-11EB-A08D-645D86C18E5E
  9
$VERSIONGUID
  2
04ED619D-59FC-11EB-86A8-645D86C18E5E
  9
$EXTNAMES
290
1
  9
$PSVPSCALE
 40
0.0
  9
$OLESTARTUP
290
0
  9
$SORTENTS
280
127
  9
$INDEXCTL
280
0
  9
$HIDETEXT
280
1
  9
$XCLIPFRAME
280
2
  9
$HALOGAP
280
0
  9
$OBSCOLOR
 70
257
  9
$OBSLTYPE
280
0
  9
$INTERSECTIONDISPLAY
280
0
  9
$INTERSECTIONCOLOR
 70
257
  9
$DIMASSOC
280
2
  9
$PROJECTNAME
  1

  9
$CAMERADISPLAY
290
0
  9
$LENSLENGTH
 40
50.0
  9
$CAMERAHEIGHT
 40
0.0
  9
$STEPSPERSEC
 40
24.0
  9
$STEPSIZE
 40
100.0
  9
$3DDWFPREC
 40
2.0
  9
$PSOLWIDTH
 40
0.005
  9
$PSOLHEIGHT
 40
0.08
  9
$LOFTANG1
 40
1.570796326795
  9
$LOFTANG2
 40
1.570796326795
  9
$LOFTMAG1
 40
0.0
  9
$LOFTMAG2
 40
0.0
  9
$LOFTPARAM
 70
7
  9
$LOFTNORMALS
280
1
  9
$LATITUDE
 40
37.795
  9
$LONGITUDE
 40
-122.394
  9
$NORTHDIRECTION
 40
0.0
  9
$TIMEZONE
 70
-8000
  9
$LIGHTGLYPHDISPLAY
280
1
  9
$TILEMODELIGHTSYNCH
280
1
  9
$CMATERIAL
347
20
  9
$SOLIDHIST
280
0
  9
$SHOWHIST
280
1
  9
$DWFFRAME
280
2
  9
$DGNFRAME
280
2
  9
$REALWORLDSCALE
290
1
  9
$INTERFERECOLOR
 62
256
  9
$CSHADOW
280
0
  9
$SHADOWPLANELOCATION
 40
0.0
  0
ENDSEC
  0
SECTION
  2
CLASSES
  0
CLASS
  1
ACDBDICTIONARYWDFLT
  2
AcDbDictionaryWithDefault
  3
ObjectDBX Classes
 90
0
 91
0
280
0
281
0
  0
CLASS
  1
SUN
  2
AcDbSun
  3
SCENEOE
 90
1153
 91
0
280
0
281
0
  0
CLASS
  1
VISUALSTYLE
  2
AcDbVisualStyle
  3
ObjectDBX Classes
 90
4095
 91
0
280
0
281
0
  0
CLASS
  1
MATERIAL
  2
AcDbMaterial
  3
ObjectDBX Classes
 90
1153
 91
0
280
0
281
0
  0
CLASS
  1
SCALE
  2
AcDbScale
  3
ObjectDBX Classes
 90
1153
 91
0
280
0
281
0
  0
CLASS
  1
TABLESTYLE
  2
AcDbTableStyle
  3
ObjectDBX Classes
 90
4095
 91
0
280
0
281
0
  0
CLASS
  1
MLEADERSTYLE
  2
AcDbMLeaderStyle
  3
ACDB_MLEADERSTYLE_CLASS
 90
4095
 91
0
280
0
281
0
  0
CLASS
  1
DICTIONARYVAR
  2
AcDbDictionaryVar
  3
ObjectDBX Classes
 90
0
 91
0
280
0
281
0
  0
CLASS
  1
CELLSTYLEMAP
  2
AcDbCellStyleMap
  3
ObjectDBX Classes
 90
1152
 91
0
280
0
281
0
  0
CLASS
  1
MENTALRAYRENDERSETTINGS
  2
AcDbMentalRayRenderSettings
  3
SCENEOE
 90
1024
 91
0
280
0
281
0
  0
CLASS
  1
ACDBDETAILVIEWSTYLE
  2
AcDbDetailViewStyle
  3
ObjectDBX Classes
 90
1025
 91
0
280
0
281
0
  0
CLASS
  1
ACDBSECTIONVIEWSTYLE
  2
AcDbSectionViewStyle
  3
ObjectDBX Classes
 90
1025
 91
0
280
0
281
0
  0
CLASS
  1
RASTERVARIABLES
  2
AcDbRasterVariables
  3
ISM
 90
0
 91
0
280
0
281
0
  0
CLASS
  1
LAYOUT
  2
AcDbLayout
  3
ObjectDBX Classes
 90
0
 91
0
280
0
281
0
  0
CLASS
  1
ACDBPLACEHOLDER
  2
AcDbPlaceHolder
  3
ObjectDBX Classes
 90
0
 91
0
280
0
281
0
  0
ENDSEC
  0
SECTION
  2
TABLES
  0
TABLE
  2
VPORT
  5
8
330
0
100
AcDbSymbolTable
 70
1
  0
VPORT
  5
23
330
8
100
AcDbSymbolTableRecord
100
AcDbViewportTableRecord
  2
*Active
 70
0
 10
0.0
 20
0.0
 11
1.0
 21
1.0
 12
70.0
 22
50.0
 13
0.0
 23
0.0
 14
0.5
 24
0.5
 15
0.5
 25
0.5
 16
0.0
 26
0.0
 36
1.0
 17
0.0
 27
0.0
 37
0.0
 40
1.0
 41
1.34
 42
50.0
 43
0.0
 44
0.0
 50
0.0
 51
0.0
 71
0
 72
1000
 73
1
 74
3
 75
0
 76
0
 77
0
 78
0
281
0
 65
0
146
0.0
  0
ENDTAB
  0
TABLE
  2
LTYPE
  5
2
330
0
100
AcDbSymbolTable
 70
3
  0
LTYPE
  5
24
330
2
100
AcDbSymbolTableRecord
100
AcDbLinetypeTableRecord
  2
ByBlock
 70
0
  3

 72
65
 73
0
 40
0.0
  0
LTYPE
  5
25
330
2
100
AcDbSymbolTableRecord
100
AcDbLinetypeTableRecord
  2
ByLayer
 70
0
  3

 72
65
 73
0
 40
0.0
  0
LTYPE
  5
26
330
2
100
AcDbSymbolTableRecord
100
AcDbLinetypeTableRecord
  2
Continuous
 70
0
  3

 72
65
 73
0
 40
0.0
  0
ENDTAB
  0
TABLE
  2
LAYER
  5
1
330
0
100
AcDbSymbolTable
 70
8
  0
LAYER
  5
27
330
1
100
AcDbSymbolTableRecord
100
AcDbLayerTableRecord
  2
0
 70
0
 62
7
  6
Continuous
370
-3
390
13
347
21
  0
LAYER
  5
28
330
1
100
AcDbSymbolTableRecord
100
AcDbLayerTableRecord
  2
Defpoints
 70
0
 62
7
  6
Continuous
290
0
370
-3
390
13
347
21
  0
LAYER
  5
2D
330
1
100
AcDbSymbolTableRecord
100
AcDbLayerTableRecord
  2
wafer_int
 70
0
 62
8
  6
Continuous
370
-3
390
13
347
21
  0
LAYER
  5
2E
330
1
100
AcDbSymbolTableRecord
100
AcDbLayerTableRecord
  2
wafer_ext
 70
0
 62
8
  6
Continuous
370
-3
390
13
347
21
  0
LAYER
  5
2F
330
1
100
AcDbSymbolTableRecord
100
AcDbLayerTableRecord
  2
eDura_outline_int
 70
0
 62
6
  6
Continuous
370
-3
390
13
347
21
  0
LAYER
  5
30
330
1
100
AcDbSymbolTableRecord
100
AcDbLayerTableRecord
  2
eDura_outline_ext
 70
0
 62
6
  6
Continuous
370
-3
390
13
347
21
  0
LAYER
  5
31
330
1
100
AcDbSymbolTableRecord
100
AcDbLayerTableRecord
  2
metal
 70
0
 62
4
  6
Continuous
370
-3
390
13
347
21
  0
LAYER
  5
32
330
1
100
AcDbSymbolTableRecord
100
AcDbLayerTableRecord
  2
etch
 70
0
 62
3
  6
Continuous
370
-3
390
13
347
21
  0
ENDTAB
  0
TABLE
  2
STYLE
  5
5
330
0
100
AcDbSymbolTable
 70
1
  0
STYLE
  5
29
330
5
100
AcDbSymbolTableRecord
100
AcDbTextStyleTableRecord
  2
Standard
 70
0
 40
0.0
 41
1.0
 50
0.0
 71
0
 42
2.5
  3
txt
  4

  0
ENDTAB
  0
TABLE
  2
VIEW
  5
7
330
0
100
AcDbSymbolTable
 70
0
  0
ENDTAB
  0
TABLE
  2
UCS
  5
6
330
0
100
AcDbSymbolTable
 70
0
  0
ENDTAB
  0
TABLE
  2
APPID
  5
3
330
0
100
AcDbSymbolTable
 70
2
  0
APPID
  5
2A
330
3
100
AcDbSymbolTableRecord
100
AcDbRegAppTableRecord
  2
ACAD
 70
0
  0
APPID
  5
37C
330
3
100
AcDbSymbolTableRecord
100
AcDbRegAppTableRecord
  2
HATCHBACKGROUNDCOLOR
 70
0
  0
ENDTAB
  0
TABLE
  2
DIMSTYLE
  5
4
330
0
100
AcDbSymbolTable
 70
1
100
AcDbDimStyleTable
  0
DIMSTYLE
105
2B
330
4
100
AcDbSymbolTableRecord
100
AcDbDimStyleTableRecord
  2
Standard
 70
0
 40
1.0
 41
2.5
 42
0.625
 43
3.75
 44
1.25
 45
0.0
 46
0.0
 47
0.0
 48
0.0
 49
2.5
140
2.5
141
2.5
142
0.0
143
0.03937007874
144
1.0
145
0.0
146
1.0
147
0.625
148
0.0
 69
0
 70
0
 71
0
 72
0
 73
0
 74
0
 75
0
 76
0
 77
1
 78
8
 79
0
170
0
171
3
172
1
173
0
174
0
175
0
176
0
177
0
178
0
179
0
271
0
272
2
273
2
274
3
275
0
276
0
277
2
278
44
279
0
280
0
281
0
282
0
283
0
284
8
285
0
286
0
288
0
289
3
290
0
371
-2
372
-2
  0
ENDTAB
  0
TABLE
  2
BLOCK_RECORD
  5
9
330
0
100
AcDbSymbolTable
 70
2
  0
BLOCK_RECORD
  5
17
330
9
100
AcDbSymbolTableRecord
100
AcDbBlockTableRecord
  2
*Model_Space
340
1A
 70
0
280
1
281
0
  0
BLOCK_RECORD
  5
1B
330
9
100
AcDbSymbolTableRecord
100
AcDbBlockTableRecord
  2
*Paper_Space
340
1E
 70
0
280
1
281
0
  0
ENDTAB
  0
ENDSEC
  0
SECTION
  2
BLOCKS
  0
BLOCK
  5
18
330
17
100
AcDbEntity
  8
0
100
AcDbBlockBegin
  2
*Model_Space
 70
0
 10
0.0
 20
0.0
 30
0.0
  3
*Model_Space
  1

  0
ENDBLK
  5
19
330
17
100
AcDbEntity
  8
0
100
AcDbBlockEnd
  0
BLOCK
  5
1C
330
1B
100
AcDbEntity
  8
0
100
AcDbBlockBegin
  2
*Paper_Space
 70
0
 10
0.0
 20
0.0
 30
0.0
  3
*Paper_Space
  1

  0
ENDBLK
  5
1D
330
1B
100
AcDbEntity
  8
0
100
AcDbBlockEnd
  0
ENDSEC
  0
SECTION
  2
ENTITIES
  0
LWPOLYLINE
  5
33
330
17
100
AcDbEntity
  8
wafer_int
100
AcDbPolyline
 90
104
 70
1
 10
16250.000000000005
 20
-47285.70079844434
 10
18762.984422529964
 20
-46345.985970307054
 10
21221.945299511517
 20
-45272.82891210291
 10
23619.802638660527
 20
-44069.319524026294
 10
25949.652380779207
 20
-42738.923024764204
 10
28204.78627835055
 20
-41285.46997422421
 10
30378.71121033955
 20
-39713.14524434938
 10
32465.16787758903
 20
-38026.47596977613
 10
34458.14882498101
 20
-36230.318513028
 10
36351.915738473115
 20
-34329.84448177636
 10
38141.0159672074
 20
-32330.525838427526
 10
39820.298223120044
 20
-30238.119144910164
 10
41384.9274128486
 20
-28058.648988025998
 10
42830.398559231966
 20
-25798.390633086794
 10
44152.54977231932
 20
-23463.85195578223
 10
45347.57423254114
 20
-21061.7547043016
 10
46412.03115153968
 20
-18599.015145660553
 10
47342.855679099564
 20
-16082.724151957276
 10
48137.367727654266
 20
-13520.126783894804
 10
48793.27968895995
 20
-10918.601430354032
 10
49308.70302071867
 20
-8285.638564079984
 10
49682.15368418624
 20
-5628.819174649278
 10
49912.55641710834
 20
-2955.7929408159293
 10
49999.24782968213
 20
-274.2562050829872
 10
49941.978314629254
 20
2408.070186082885
 10
49740.91276588051
 20
5083.463112590258
 10
49396.63010380305
 20
7744.2194176080975
 10
48910.12160833709
 20
10382.678086971464
 10
48282.78806484131
 20
12991.242307247505
 10
47516.43573086504
 20
15562.40133895061
 10
46613.27113545976
 20
18088.752141928235
 10
45575.89472600414
 20
20563.020690652138
 10
44407.293380835064
 20
22978.08291804263
 10
43110.831809242736
 20
25326.985227523313
 10
41690.24286359157
 20
27602.96451424651
 10
40149.616791460656
 20
29799.467637843136
 10
38493.389458749916
 20
31910.170290629925
 10
36726.32957766059
 20
33928.99520694731
 10
34853.524976324006
 20
35850.1296611987
 10
32880.36794961208
 20
37668.04220420969
 10
30812.539733308335
 20
39377.498589718656
 10
28655.994146342317
 20
40973.57684514247
 10
26416.94044818581
 20
42451.68144322442
 10
24101.82546076884
 20
43807.556533760646
 10
21717.315006391105
 20
45037.298197307304
 10
19270.274715073992
 20
46137.36568558699
 10
16767.750256613952
 20
47104.59161623019
 10
14216.947054254053
 20
47936.19109249855
 10
11625.20953838365
 20
48629.769721731915
 10
9000.000000000007
 20
49183.33050943175
 10
9000.0
 20
49183.33050943175
 10
-9000.0
 20
49183.33050943175
 10
-9000.0
 20
49183.33050943175
 10
-11625.209538383644
 20
48629.769721731915
 10
-14216.947054254037
 20
47936.19109249856
 10
-16767.750256613934
 20
47104.59161623019
 10
-19270.274715073978
 20
46137.36568558699
 10
-21717.31500639109
 20
45037.29819730731
 10
-24101.825460768843
 20
43807.556533760646
 10
-26416.940448185815
 20
42451.681443224414
 10
-28655.994146342324
 20
40973.57684514246
 10
-30812.539733308324
 20
39377.49858971867
 10
-32880.367949612075
 20
37668.0422042097
 10
-34853.52497632399
 20
35850.12966119871
 10
-36726.32957766058
 20
33928.99520694731
 10
-38493.389458749916
 20
31910.17029062993
 10
-40149.616791460656
 20
29799.46763784314
 10
-41690.24286359156
 20
27602.964514246527
 10
-43110.831809242736
 20
25326.98522752333
 10
-44407.29338083506
 20
22978.082918042648
 10
-45575.89472600413
 20
20563.02069065215
 10
-46613.27113545976
 20
18088.752141928253
 10
-47516.43573086504
 20
15562.401338950618
 10
-48282.78806484131
 20
12991.24230724751
 10
-48910.12160833709
 20
10382.67808697147
 10
-49396.63010380305
 20
7744.219417608092
 10
-49740.91276588051
 20
5083.463112590253
 10
-49941.978314629254
 20
2408.0701860828794
 10
-49999.24782968213
 20
-274.2562050829922
 10
-49912.55641710834
 20
-2955.792940815912
 10
-49682.15368418624
 20
-5628.819174649271
 10
-49308.70302071867
 20
-8285.638564079978
 10
-48793.27968895995
 20
-10918.601430354005
 10
-48137.36772765427
 20
-13520.12678389478
 10
-47342.85567909957
 20
-16082.724151957258
 10
-46412.03115153968
 20
-18599.015145660538
 10
-45347.574232541156
 20
-21061.75470430158
 10
-44152.54977231932
 20
-23463.85195578222
 10
-42830.398559231966
 20
-25798.390633086787
 10
-41384.92741284861
 20
-28058.64898802599
 10
-39820.29822312005
 20
-30238.119144910157
 10
-38141.0159672074
 20
-32330.525838427526
 10
-36351.915738473115
 20
-34329.84448177636
 10
-34458.148824981006
 20
-36230.31851302801
 10
-32465.167877589025
 20
-38026.47596977613
 10
-30378.711210339538
 20
-39713.14524434939
 10
-28204.786278350573
 20
-41285.469974224194
 10
-25949.652380779236
 20
-42738.92302476418
 10
-23619.802638660552
 20
-44069.31952402628
 10
-21221.945299511543
 20
-45272.828912102894
 10
-18762.98442252998
 20
-46345.98597030705
 10
-16250.000000000024
 20
-47285.70079844433
 10
-16250.0
 20
-47285.70079844434
 10
16250.0
 20
-47285.70079844434
  0
LWPOLYLINE
  5
34
330
17
100
AcDbEntity
  8
wafer_ext
100
AcDbPolyline
 90
104
 70
1
 10
17875.000000000007
 20
-52014.27087828878
 10
20639.28286478296
 20
-50980.584567337755
 10
23344.139829462667
 20
-49800.1118033132
 10
25981.782902526582
 20
-48476.25147642892
 10
28544.61761885713
 20
-47012.81532724062
 10
31025.264906185606
 20
-45414.01697164663
 10
33416.5823313735
 20
-43684.45976878432
 10
35711.68466534793
 20
-41829.12356675374
 10
37903.96370747911
 20
-39853.35036433081
 10
39987.107312320426
 20
-37762.82892995399
 10
41955.11756392814
 20
-35563.57842227028
 10
43802.32804543205
 20
-33261.93105940118
 10
45523.42015413346
 20
-30864.513886828598
 10
47113.43841515516
 20
-28378.229696395472
 10
48567.80474955125
 20
-25810.237151360452
 10
49882.33165579526
 20
-23167.930174731755
 10
51053.234266693646
 20
-20458.91666022661
 10
52077.141247009524
 20
-17690.996567153004
 10
52951.10450041969
 20
-14872.139462284284
 10
53672.60765785594
 20
-12010.461573389437
 10
54239.57332279054
 20
-9114.202420487982
 10
54650.36905260487
 20
-6191.701092114205
 10
54903.812058819174
 20
-3251.3722348975225
 10
54999.17261265034
 20
-301.68182559128593
 10
54936.17614609218
 20
2648.8772046911736
 10
54715.00404246856
 20
5591.809423849284
 10
54336.293114183354
 20
8518.641359368907
 10
53801.133769170796
 20
11420.94589566861
 10
53111.06687132544
 20
14290.366537972255
 10
52268.07930395155
 20
17118.64147284567
 10
51274.59824900574
 20
19897.62735612106
 10
50133.48419860456
 20
22619.32275971735
 10
48848.02271891857
 20
25275.891209846894
 10
47421.91499016701
 20
27859.683750275646
 10
45859.26714995073
 20
30363.26096567116
 10
44164.57847060672
 20
32779.41440162745
 10
42342.728404624904
 20
35101.187319692915
 10
40398.962535426646
 20
37321.89472764204
 10
38338.87747395641
 20
39435.14262731857
 10
36168.404744573294
 20
41434.84642463066
 10
33893.79370663917
 20
43315.24844869052
 10
31521.593560976547
 20
45070.93452965671
 10
29058.634493004392
 20
46696.849587546865
 10
26512.00800684572
 20
48188.31218713671
 10
23889.046507030216
 20
49541.02801703803
 10
21197.302186581393
 20
50751.10225414569
 10
18444.525282275346
 20
51815.050777853205
 10
15638.641759679458
 20
52729.810201748405
 10
12787.730492222014
 20
53492.74669390511
 10
9900.000000000007
 20
54101.663560374924
 10
9900.0
 20
54101.663560374924
 10
-9900.0
 20
54101.663560374924
 10
-9900.0
 20
54101.663560374924
 10
-12787.730492222008
 20
53492.74669390511
 10
-15638.64175967944
 20
52729.810201748405
 10
-18444.52528227533
 20
51815.05077785321
 10
-21197.302186581375
 20
50751.10225414569
 10
-23889.0465070302
 20
49541.02801703804
 10
-26512.008006845725
 20
48188.31218713671
 10
-29058.634493004396
 20
46696.84958754686
 10
-31521.593560976555
 20
45070.93452965671
 10
-33893.79370663916
 20
43315.24844869054
 10
-36168.40474457328
 20
41434.84642463067
 10
-38338.87747395639
 20
39435.14262731858
 10
-40398.96253542664
 20
37321.894727642044
 10
-42342.728404624904
 20
35101.18731969292
 10
-44164.57847060672
 20
32779.41440162746
 10
-45859.26714995071
 20
30363.26096567118
 10
-47421.91499016701
 20
27859.683750275664
 10
-48848.02271891856
 20
25275.89120984691
 10
-50133.48419860455
 20
22619.322759717365
 10
-51274.598249005736
 20
19897.627356121076
 10
-52268.07930395155
 20
17118.64147284568
 10
-53111.06687132544
 20
14290.366537972262
 10
-53801.133769170796
 20
11420.945895668616
 10
-54336.293114183354
 20
8518.641359368901
 10
-54715.00404246856
 20
5591.809423849279
 10
-54936.17614609218
 20
2648.8772046911677
 10
-54999.17261265034
 20
-301.6818255912914
 10
-54903.812058819174
 20
-3251.3722348975034
 10
-54650.36905260487
 20
-6191.701092114198
 10
-54239.57332279054
 20
-9114.202420487976
 10
-53672.607657855944
 20
-12010.461573389406
 10
-52951.1045004197
 20
-14872.13946228426
 10
-52077.14124700953
 20
-17690.996567152986
 10
-51053.23426669365
 20
-20458.916660226594
 10
-49882.33165579527
 20
-23167.930174731737
 10
-48567.80474955125
 20
-25810.23715136044
 10
-47113.438415155164
 20
-28378.229696395465
 10
-45523.42015413346
 20
-30864.51388682859
 10
-43802.328045432056
 20
-33261.93105940118
 10
-41955.11756392814
 20
-35563.57842227028
 10
-39987.107312320426
 20
-37762.82892995399
 10
-37903.9637074791
 20
-39853.35036433081
 10
-35711.68466534793
 20
-41829.12356675374
 10
-33416.582331373495
 20
-43684.45976878433
 10
-31025.264906185632
 20
-45414.01697164661
 10
-28544.61761885716
 20
-47012.815327240605
 10
-25981.782902526607
 20
-48476.25147642891
 10
-23344.1398294627
 20
-49800.111803313186
 10
-20639.282864782977
 20
-50980.58456733775
 10
-17875.000000000025
 20
-52014.27087828877
 10
17875.0
 20
-52014.27087828878
 10
-17875.0
 20
-52014.27087828878
  0
LWPOLYLINE
  5
35
330
17
100
AcDbEntity
  8
eDura_outline_int
100
AcDbPolyline
 90
108
 70
1
 10
-9682.458365518542
 20
2500.0000000000027
 10
-9534.011992858519
 20
3017.0540797323997
 10
-9357.975977411697
 20
3525.3773707484966
 10
-9154.859734394608
 20
4023.498880770355
 10
-8925.251044124001
 20
4509.97713956107
 10
-8669.814351090821
 20
4983.404370269346
 10
-8389.288841182479
 20
5442.410563271676
 10
-8084.486302617477
 20
5885.667440723302
 10
-7756.288776782579
 20
6311.892300345167
 10
-7405.646005770409
 20
6719.851727323809
 10
-7033.572684003979
 20
7108.365163582485
 10
-6641.145521901281
 20
7476.30832409489
 10
-6229.500130077285
 20
7822.616450355155
 10
-5799.8277330997425
 20
8146.287391589318
 10
-5353.371722308724
 20
8446.3845047917
 10
-4891.424057675224
 20
8722.039365194132
 10
-4415.32152911129
 20
8972.454279324378
 10
-3926.4418880507146
 20
9196.904593381447
 10
-3426.1998604947603
 20
9394.740790247792
 10
-2916.043053060403
 20
9565.390369070055
 10
-2397.4477638782646
 20
9708.359501969171
 10
-1871.9147104626675
 20
9823.234463085642
 10
-1340.9646869165827
 20
9909.682825824584
 10
-806.1341630386905
 20
9967.454424835958
 10
-268.9708380679158
 20
9996.382079946177
 10
268.9708380679192
 20
9996.382079946177
 10
806.1341630386918
 20
9967.454424835958
 10
1340.964686916584
 20
9909.682825824584
 10
1871.9147104626686
 20
9823.234463085642
 10
2397.4477638782655
 20
9708.359501969171
 10
2916.043053060405
 20
9565.390369070055
 10
3426.199860494761
 20
9394.740790247792
 10
3926.4418880507155
 20
9196.904593381445
 10
4415.321529111289
 20
8972.454279324378
 10
4891.4240576752245
 20
8722.03936519413
 10
5353.371722308726
 20
8446.384504791697
 10
5799.827733099743
 20
8146.287391589318
 10
6229.500130077284
 20
7822.616450355156
 10
6641.145521901282
 20
7476.308324094889
 10
7033.572684003981
 20
7108.3651635824845
 10
7405.64600577041
 20
6719.851727323809
 10
7756.288776782579
 20
6311.892300345167
 10
8084.486302617478
 20
5885.667440723301
 10
8389.288841182479
 20
5442.4105632716755
 10
8669.814351090823
 20
4983.404370269345
 10
8925.251044124001
 20
4509.977139561069
 10
9154.859734394608
 20
4023.4988807703535
 10
9357.975977411697
 20
3525.377370748495
 10
9534.01199285852
 20
3017.0540797323943
 10
9682.458365518543
 20
2500.0
 10
9682.458365518542
 20
2500.0
 10
19682.45836551854
 20
2500.0
 10
19682.45836551854
 20
-2500.0
 10
9682.458365518542
 20
-2500.0
 10
9682.458365518542
 20
-2500.0000000000027
 10
9534.011992858519
 20
-3017.0540797323997
 10
9357.975977411697
 20
-3525.3773707484966
 10
9154.859734394608
 20
-4023.498880770355
 10
8925.251044124001
 20
-4509.97713956107
 10
8669.814351090821
 20
-4983.404370269346
 10
8389.288841182479
 20
-5442.410563271676
 10
8084.486302617477
 20
-5885.667440723302
 10
7756.288776782579
 20
-6311.892300345167
 10
7405.646005770409
 20
-6719.851727323809
 10
7033.572684003979
 20
-7108.365163582485
 10
6641.145521901281
 20
-7476.30832409489
 10
6229.500130077285
 20
-7822.616450355155
 10
5799.8277330997425
 20
-8146.287391589318
 10
5353.371722308724
 20
-8446.3845047917
 10
4891.424057675224
 20
-8722.039365194132
 10
4415.32152911129
 20
-8972.454279324378
 10
3926.4418880507146
 20
-9196.904593381447
 10
3426.1998604947603
 20
-9394.740790247792
 10
2916.043053060403
 20
-9565.390369070055
 10
2397.4477638782646
 20
-9708.359501969171
 10
1871.9147104626675
 20
-9823.234463085642
 10
1340.9646869165827
 20
-9909.682825824584
 10
806.1341630386905
 20
-9967.454424835958
 10
268.9708380679158
 20
-9996.382079946177
 10
-268.9708380679192
 20
-9996.382079946177
 10
-806.1341630386918
 20
-9967.454424835958
 10
-1340.964686916584
 20
-9909.682825824584
 10
-1871.9147104626686
 20
-9823.234463085642
 10
-2397.4477638782655
 20
-9708.359501969171
 10
-2916.043053060405
 20
-9565.390369070055
 10
-3426.199860494761
 20
-9394.740790247792
 10
-3926.4418880507155
 20
-9196.904593381445
 10
-4415.321529111289
 20
-8972.454279324378
 10
-4891.4240576752245
 20
-8722.03936519413
 10
-5353.371722308726
 20
-8446.384504791697
 10
-5799.827733099743
 20
-8146.287391589318
 10
-6229.500130077284
 20
-7822.616450355156
 10
-6641.145521901282
 20
-7476.308324094889
 10
-7033.572684003981
 20
-7108.3651635824845
 10
-7405.64600577041
 20
-6719.851727323809
 10
-7756.288776782579
 20
-6311.892300345167
 10
-8084.486302617478
 20
-5885.667440723301
 10
-8389.288841182479
 20
-5442.4105632716755
 10
-8669.814351090823
 20
-4983.404370269345
 10
-8925.251044124001
 20
-4509.977139561069
 10
-9154.859734394608
 20
-4023.4988807703535
 10
-9357.975977411697
 20
-3525.377370748495
 10
-9534.01199285852
 20
-3017.0540797323943
 10
-9682.458365518543
 20
-2500.0
 10
-9682.458365518542
 20
-2500.0
 10
-19682.45836551854
 20
-2500.0
 10
-19682.45836551854
 20
2500.0
 10
-9682.458365518542
 20
2500.0
  0
LWPOLYLINE
  5
36
330
17
100
AcDbEntity
  8
eDura_outline_ext
100
AcDbPolyline
 90
108
 70
1
 10
-9987.49217771909
 20
2899.999999999999
 10
-9821.278463915416
 20
3420.8901377026496
 10
-9627.918800525289
 20
3932.324957387381
 10
-9407.947632396574
 20
4432.890856549899
 10
-9161.972958402574
 20
4921.20427431132
 10
-8890.674650937122
 20
5395.915515571392
 10
-8594.802576751727
 20
5855.712481556953
 10
-8275.174524328748
 20
6299.324296454381
 10
-7932.673943519385
 20
6725.524820102042
 10
-7568.247503694034
 20
7133.1360370337125
 10
-7182.902477154347
 20
7521.0313125056155
 10
-6777.703955039146
 20
7888.138506507522
 10
-6353.771903419474
 20
8233.442937150732
 10
-5912.278067719683
 20
8555.990185242197
 10
-5454.442734020711
 20
8854.888732292951
 10
-4981.531356197356
 20
9129.31242466937
 10
-4494.8510582119725
 20
9378.502757076458
 10
-3995.7470212324106
 20
9601.770969061507
 10
-3485.598765560029
 20
9798.499948743502
 10
-2965.8163376445764
 20
9968.145938506343
 10
-2437.836412725027
 20
10110.240037941334
 10
-1903.1183238685712
 20
10224.389499884855
 10
-1363.1400283835587
 20
10310.278815968968
 10
-819.3940227551359
 20
10367.67058868448
 10
-273.3832173946925
 20
10396.406187546105
 10
273.38321739469376
 20
10396.406187546105
 10
819.3940227551349
 20
10367.67058868448
 10
1363.14002838356
 20
10310.278815968968
 10
1903.1183238685726
 20
10224.389499884855
 10
2437.836412725026
 20
10110.240037941334
 10
2965.8163376445777
 20
9968.145938506343
 10
3485.5987655600275
 20
9798.499948743502
 10
3995.747021232412
 20
9601.770969061505
 10
4494.851058211973
 20
9378.502757076458
 10
4981.531356197355
 20
9129.31242466937
 10
5454.442734020714
 20
8854.88873229295
 10
5912.278067719681
 20
8555.990185242199
 10
6353.771903419475
 20
8233.442937150732
 10
6777.703955039147
 20
7888.138506507521
 10
7182.902477154348
 20
7521.031312505615
 10
7568.247503694033
 20
7133.136037033715
 10
7932.673943519382
 20
6725.524820102045
 10
8275.174524328748
 20
6299.32429645438
 10
8594.802576751727
 20
5855.712481556952
 10
8890.674650937124
 20
5395.915515571391
 10
9161.972958402574
 20
4921.204274311319
 10
9407.947632396574
 20
4432.890856549901
 10
9627.918800525289
 20
3932.3249573873795
 10
9821.278463915416
 20
3420.890137702648
 10
9987.492177719088
 20
2899.9999999999995
 10
9987.49217771909
 20
2900.0
 10
20187.49217771909
 20
2900.0
 10
20187.49217771909
 20
-2900.0
 10
9987.49217771909
 20
-2900.0
 10
9987.49217771909
 20
-2899.999999999999
 10
9821.278463915416
 20
-3420.8901377026496
 10
9627.918800525289
 20
-3932.324957387381
 10
9407.947632396574
 20
-4432.890856549899
 10
9161.972958402574
 20
-4921.20427431132
 10
8890.674650937122
 20
-5395.915515571392
 10
8594.802576751727
 20
-5855.712481556953
 10
8275.174524328748
 20
-6299.324296454381
 10
7932.673943519385
 20
-6725.524820102042
 10
7568.247503694034
 20
-7133.1360370337125
 10
7182.902477154347
 20
-7521.0313125056155
 10
6777.703955039146
 20
-7888.138506507522
 10
6353.771903419474
 20
-8233.442937150732
 10
5912.278067719683
 20
-8555.990185242197
 10
5454.442734020711
 20
-8854.888732292951
 10
4981.531356197356
 20
-9129.31242466937
 10
4494.8510582119725
 20
-9378.502757076458
 10
3995.7470212324106
 20
-9601.770969061507
 10
3485.598765560029
 20
-9798.499948743502
 10
2965.8163376445764
 20
-9968.145938506343
 10
2437.836412725027
 20
-10110.240037941334
 10
1903.1183238685712
 20
-10224.389499884855
 10
1363.1400283835587
 20
-10310.278815968968
 10
819.3940227551359
 20
-10367.67058868448
 10
273.3832173946925
 20
-10396.406187546105
 10
-273.38321739469376
 20
-10396.406187546105
 10
-819.3940227551349
 20
-10367.67058868448
 10
-1363.14002838356
 20
-10310.278815968968
 10
-1903.1183238685726
 20
-10224.389499884855
 10
-2437.836412725026
 20
-10110.240037941334
 10
-2965.8163376445777
 20
-9968.145938506343
 10
-3485.5987655600275
 20
-9798.499948743502
 10
-3995.747021232412
 20
-9601.770969061505
 10
-4494.851058211973
 20
-9378.502757076458
 10
-4981.531356197355
 20
-9129.31242466937
 10
-5454.442734020714
 20
-8854.88873229295
 10
-5912.278067719681
 20
-8555.990185242199
 10
-6353.771903419475
 20
-8233.442937150732
 10
-6777.703955039147
 20
-7888.138506507521
 10
-7182.902477154348
 20
-7521.031312505615
 10
-7568.247503694033
 20
-7133.136037033715
 10
-7932.673943519382
 20
-6725.524820102045
 10
-8275.174524328748
 20
-6299.32429645438
 10
-8594.802576751727
 20
-5855.712481556952
 10
-8890.674650937124
 20
-5395.915515571391
 10
-9161.972958402574
 20
-4921.204274311319
 10
-9407.947632396574
 20
-4432.890856549901
 10
-9627.918800525289
 20
-3932.3249573873795
 10
-9821.278463915416
 20
-3420.890137702648
 10
-9987.492177719088
 20
-2899.9999999999995
 10
-9987.49217771909
 20
-2900.0
 10
-20187.49217771909
 20
-2900.0
 10
-20187.49217771909
 20
2900.0
 10
-9987.49217771909
 20
2900.0
  0
CIRCLE
  5
37
330
17
100
AcDbEntity
  8
metal
100
AcDbCircle
 10
-3750.0
 20
6495.190528383289
 30
0.0
 40
35.0
  0
CIRCLE
  5
38
330
17
100
AcDbEntity
  8
etch
100
AcDbCircle
 10
-3750.0
 20
6495.190528383289
 30
0.0
 40
25.0
  0
CIRCLE
  5
39
330
17
100
AcDbEntity
  8
metal
100
AcDbCircle
 10
-1250.0
 20
6495.190528383289
 30
0.0
 40
35.0
  0
CIRCLE
  5
3A
330
17
100
AcDbEntity
  8
etch
100
AcDbCircle
 10
-1250.0
 20
6495.190528383289
 30
0.0
 40
25.0
  0
CIRCLE
  5
3B
330
17
100
AcDbEntity
  8
metal
100
AcDbCircle
 10
1250.0
 20
6495.190528383289
 30
0.0
 40
35.0
  0
CIRCLE
  5
3C
330
17
100
AcDbEntity
  8
etch
100
AcDbCircle
 10
1250.0
 20
6495.190528383289
 30
0.0
 40
25.0
  0
CIRCLE
  5
3D
330
17
100
AcDbEntity
  8
metal
100
AcDbCircle
 10
3750.0
 20
6495.190528383289
 30
0.0
 40
35.0
  0
CIRCLE
  5
3E
330
17
100
AcDbEntity
  8
etch
100
AcDbCircle
 10
3750.0
 20
6495.190528383289
 30
0.0
 40
25.0
  0
CIRCLE
  5
3F
330
17
100
AcDbEntity
  8
metal
100
AcDbCircle
 10
-5000.0
 20
4330.127018922193
 30
0.0
 40
35.0
  0
CIRCLE
  5
40
330
17
100
AcDbEntity
  8
etch
100
AcDbCircle
 10
-5000.0
 20
4330.127018922193
 30
0.0
 40
25.0
  0
CIRCLE
  5
41
330
17
100
AcDbEntity
  8
metal
100
AcDbCircle
 10
-2500.0
 20
4330.127018922193
 30
0.0
 40
35.0
  0
CIRCLE
  5
42
330
17
100
AcDbEntity
  8
etch
100
AcDbCircle
 10
-2500.0
 20
4330.127018922193
 30
0.0
 40
25.0
  0
CIRCLE
  5
43
330
17
100
AcDbEntity
  8
metal
100
AcDbCircle
 10
0.0
 20
4330.127018922193
 30
0.0
 40
35.0
  0
CIRCLE
  5
44
330
17
100
AcDbEntity
  8
etch
100
AcDbCircle
 10
0.0
 20
4330.127018922193
 30
0.0
 40
25.0
  0
CIRCLE
  5
45
330
17
100
AcDbEntity
  8
metal
100
AcDbCircle
 10
2500.0
 20
4330.127018922193
 30
0.0
 40
35.0
  0
CIRCLE
  5
46
330
17
100
AcDbEntity
  8
etch
100
AcDbCircle
 10
2500.0
 20
4330.127018922193
 30
0.0
 40
25.0
  0
CIRCLE
  5
47
330
17
100
AcDbEntity
  8
metal
100
AcDbCircle
 10
5000.0
 20
4330.127018922193
 30
0.0
 40
35.0
  0
CIRCLE
  5
48
330
17
100
AcDbEntity
  8
etch
100
AcDbCircle
 10
5000.0
 20
4330.127018922193
 30
0.0
 40
25.0
  0
CIRCLE
  5
49
330
17
100
AcDbEntity
  8
metal
100
AcDbCircle
 10
-6250.0
 20
2165.0635094610966
 30
0.0
 40
35.0
  0
CIRCLE
  5
4A
330
17
100
AcDbEntity
  8
etch
100
AcDbCircle
 10
-6250.0
 20
2165.0635094610966
 30
0.0
 40
25.0
  0
CIRCLE
  5
4B
330
17
100
AcDbEntity
  8
metal
100
AcDbCircle
 10
-3750.0
 20
2165.0635094610966
 30
0.0
 40
35.0
  0
CIRCLE
  5
4C
330
17
100
AcDbEntity
  8
etch
100
AcDbCircle
 10
-3750.0
 20
2165.0635094610966
 30
0.0
 40
25.0
  0
CIRCLE
  5
4D
330
17
100
AcDbEntity
  8
metal
100
AcDbCircle
 10
-1250.0
 20
2165.0635094610966
 30
0.0
 40
35.0
  0
CIRCLE
  5
4E
330
17
100
AcDbEntity
  8
etch
100
AcDbCircle
 10
-1250.0
 20
2165.0635094610966
 30
0.0
 40
25.0
  0
CIRCLE
  5
4F
330
17
100
AcDbEntity
  8
metal
100
AcDbCircle
 10
1250.0
 20
2165.0635094610966
 30
0.0
 40
35.0
  0
CIRCLE
  5
50
330
17
100
AcDbEntity
  8
etch
100
AcDbCircle
 10
1250.0
 20
2165.0635094610966
 30
0.0
 40
25.0
  0
CIRCLE
  5
51
330
17
100
AcDbEntity
  8
metal
100
AcDbCircle
 10
3750.0
 20
2165.0635094610966
 30
0.0
 40
35.0
  0
CIRCLE
  5
52
330
17
100
AcDbEntity
  8
etch
100
AcDbCircle
 10
3750.0
 20
2165.0635094610966
 30
0.0
 40
25.0
  0
CIRCLE
  5
53
330
17
100
AcDbEntity
  8
metal
100
AcDbCircle
 10
6250.0
 20
2165.0635094610966
 30
0.0
 40
35.0
  0
CIRCLE
  5
54
330
17
100
AcDbEntity
  8
etch
100
AcDbCircle
 10
6250.0
 20
2165.0635094610966
 30
0.0
 40
25.0
  0
CIRCLE
  5
55
330
17
100
AcDbEntity
  8
metal
100
AcDbCircle
 10
-7500.0
 20
0.0
 30
0.0
 40
35.0
  0
CIRCLE
  5
56
330
17
100
AcDbEntity
  8
etch
100
AcDbCircle
 10
-7500.0
 20
0.0
 30
0.0
 40
25.0
  0
CIRCLE
  5
57
330
17
100
AcDbEntity
  8
metal
100
AcDbCircle
 10
-5000.0
 20
0.0
 30
0.0
 40
35.0
  0
CIRCLE
  5
58
330
17
100
AcDbEntity
  8
etch
100
AcDbCircle
 10
-5000.0
 20
0.0
 30
0.0
 40
25.0
  0
CIRCLE
  5
59
330
17
100
AcDbEntity
  8
metal
100
AcDbCircle
 10
-2500.0
 20
0.0
 30
0.0
 40
35.0
  0
CIRCLE
  5
5A
330
17
100
AcDbEntity
  8
etch
100
AcDbCircle
 10
-2500.0
 20
0.0
 30
0.0
 40
25.0
  0
CIRCLE
  5
5B
330
17
100
AcDbEntity
  8
metal
100
AcDbCircle
 10
0.0
 20
0.0
 30
0.0
 40
35.0
  0
CIRCLE
  5
5C
330
17
100
AcDbEntity
  8
etch
100
AcDbCircle
 10
0.0
 20
0.0
 30
0.0
 40
25.0
  0
CIRCLE
  5
5D
330
17
100
AcDbEntity
  8
metal
100
AcDbCircle
 10
2500.0
 20
0.0
 30
0.0
 40
35.0
  0
CIRCLE
  5
5E
330
17
100
AcDbEntity
  8
etch
100
AcDbCircle
 10
2500.0
 20
0.0
 30
0.0
 40
25.0
  0
CIRCLE
  5
5F
330
17
100
AcDbEntity
  8
metal
100
AcDbCircle
 10
5000.0
 20
0.0
 30
0.0
 40
35.0
  0
CIRCLE
  5
60
330
17
100
AcDbEntity
  8
etch
100
AcDbCircle
 10
5000.0
 20
0.0
 30
0.0
 40
25.0
  0
CIRCLE
  5
61
330
17
100
AcDbEntity
  8
metal
100
AcDbCircle
 10
7500.0
 20
0.0
 30
0.0
 40
35.0
  0
CIRCLE
  5
62
330
17
100
AcDbEntity
  8
etch
100
AcDbCircle
 10
7500.0
 20
0.0
 30
0.0
 40
25.0
  0
CIRCLE
  5
63
330
17
100
AcDbEntity
  8
metal
100
AcDbCircle
 10
-6250.0
 20
-2165.0635094610966
 30
0.0
 40
35.0
  0
CIRCLE
  5
64
330
17
100
AcDbEntity
  8
etch
100
AcDbCircle
 10
-6250.0
 20
-2165.0635094610966
 30
0.0
 40
25.0
  0
CIRCLE
  5
65
330
17
100
AcDbEntity
  8
metal
100
AcDbCircle
 10
-3750.0
 20
-2165.0635094610966
 30
0.0
 40
35.0
  0
CIRCLE
  5
66
330
17
100
AcDbEntity
  8
etch
100
AcDbCircle
 10
-3750.0
 20
-2165.0635094610966
 30
0.0
 40
25.0
  0
CIRCLE
  5
67
330
17
100
AcDbEntity
  8
metal
100
AcDbCircle
 10
-1250.0
 20
-2165.0635094610966
 30
0.0
 40
35.0
  0
CIRCLE
  5
68
330
17
100
AcDbEntity
  8
etch
100
AcDbCircle
 10
-1250.0
 20
-2165.0635094610966
 30
0.0
 40
25.0
  0
CIRCLE
  5
69
330
17
100
AcDbEntity
  8
metal
100
AcDbCircle
 10
1250.0
 20
-2165.0635094610966
 30
0.0
 40
35.0
  0
CIRCLE
  5
6A
330
17
100
AcDbEntity
  8
etch
100
AcDbCircle
 10
1250.0
 20
-2165.0635094610966
 30
0.0
 40
25.0
  0
CIRCLE
  5
6B
330
17
100
AcDbEntity
  8
metal
100
AcDbCircle
 10
3750.0
 20
-2165.0635094610966
 30
0.0
 40
35.0
  0
CIRCLE
  5
6C
330
17
100
AcDbEntity
  8
etch
100
AcDbCircle
 10
3750.0
 20
-2165.0635094610966
 30
0.0
 40
25.0
  0
CIRCLE
  5
6D
330
17
100
AcDbEntity
  8
metal
100
AcDbCircle
 10
6250.0
 20
-2165.0635094610966
 30
0.0
 40
35.0
  0
CIRCLE
  5
6E
330
17
100
AcDbEntity
  8
etch
100
AcDbCircle
 10
6250.0
 20
-2165.0635094610966
 30
0.0
 40
25.0
  0
CIRCLE
  5
6F
330
17
100
AcDbEntity
  8
metal
100
AcDbCircle
 10
-5000.0
 20
-4330.127018922193
 30
0.0
 40
35.0
  0
CIRCLE
  5
70
330
17
100
AcDbEntity
  8
etch
100
AcDbCircle
 10
-5000.0
 20
-4330.127018922193
 30
0.0
 40
25.0
  0
CIRCLE
  5
71
330
17
100
AcDbEntity
  8
metal
100
AcDbCircle
 10
-2500.0
 20
-4330.127018922193
 30
0.0
 40
35.0
  0
CIRCLE
  5
72
330
17
100
AcDbEntity
  8
etch
100
AcDbCircle
 10
-2500.0
 20
-4330.127018922193
 30
0.0
 40
25.0
  0
CIRCLE
  5
73
330
17
100
AcDbEntity
  8
metal
100
AcDbCircle
 10
0.0
 20
-4330.127018922193
 30
0.0
 40
35.0
  0
CIRCLE
  5
74
330
17
100
AcDbEntity
  8
etch
100
AcDbCircle
 10
0.0
 20
-4330.127018922193
 30
0.0
 40
25.0
  0
CIRCLE
  5
75
330
17
100
AcDbEntity
  8
metal
100
AcDbCircle
 10
2500.0
 20
-4330.127018922193
 30
0.0
 40
35.0
  0
CIRCLE
  5
76
330
17
100
AcDbEntity
  8
etch
100
AcDbCircle
 10
2500.0
 20
-4330.127018922193
 30
0.0
 40
25.0
  0
CIRCLE
  5
77
330
17
100
AcDbEntity
  8
metal
100
AcDbCircle
 10
5000.0
 20
-4330.127018922193
 30
0.0
 40
35.0
  0
CIRCLE
  5
78
330
17
100
AcDbEntity
  8
etch
100
AcDbCircle
 10
5000.0
 20
-4330.127018922193
 30
0.0
 40
25.0
  0
CIRCLE
  5
79
330
17
100
AcDbEntity
  8
metal
100
AcDbCircle
 10
-3750.0
 20
-6495.190528383289
 30
0.0
 40
35.0
  0
CIRCLE
  5
7A
330
17
100
AcDbEntity
  8
etch
100
AcDbCircle
 10
-3750.0
 20
-6495.190528383289
 30
0.0
 40
25.0
  0
CIRCLE
  5
7B
330
17
100
AcDbEntity
  8
metal
100
AcDbCircle
 10
-1250.0
 20
-6495.190528383289
 30
0.0
 40
35.0
  0
CIRCLE
  5
7C
330
17
100
AcDbEntity
  8
etch
100
AcDbCircle
 10
-1250.0
 20
-6495.190528383289
 30
0.0
 40
25.0
  0
CIRCLE
  5
7D
330
17
100
AcDbEntity
  8
metal
100
AcDbCircle
 10
1250.0
 20
-6495.190528383289
 30
0.0
 40
35.0
  0
CIRCLE
  5
7E
330
17
100
AcDbEntity
  8
etch
100
AcDbCircle
 10
1250.0
 20
-6495.190528383289
 30
0.0
 40
25.0
  0
CIRCLE
  5
7F
330
17
100
AcDbEntity
  8
metal
100
AcDbCircle
 10
3750.0
 20
-6495.190528383289
 30
0.0
 40
35.0
  0
CIRCLE
  5
80
330
17
100
AcDbEntity
  8
etch
100
AcDbCircle
 10
3750.0
 20
-6495.190528383289
 30
0.0
 40
25.0
  0
LWPOLYLINE
  5
81
330
17
100
AcDbEntity
  8
metal
100
AcDbPolyline
 90
2
 70
0
 10
3750.0
 20
6495.190528383289
 40
10.0
 41
10.0
 10
3611.4359353944897
 20
6255.190528383289
 40
10.0
 41
10.0
  0
LWPOLYLINE
  5
82
330
17
100
AcDbEntity
  8
metal
100
AcDbPolyline
 90
2
 70
0
 10
1250.0
 20
6495.190528383289
 40
10.0
 41
10.0
 10
1157.62395692966
 20
6335.190528383289
 40
10.0
 41
10.0
  0
LWPOLYLINE
  5
83
330
17
100
AcDbEntity
  8
metal
100
AcDbPolyline
 90
2
 70
0
 10
-1250.0
 20
6495.190528383289
 40
10.0
 41
10.0
 10
-1296.18802153517
 20
6415.190528383289
 40
10.0
 41
10.0
  0
LWPOLYLINE
  5
84
330
17
100
AcDbEntity
  8
metal
100
AcDbPolyline
 90
2
 70
0
 10
-3750.0
 20
6495.190528383289
 40
10.0
 41
10.0
 10
-3750.0
 20
6495.190528383289
 40
10.0
 41
10.0
  0
LWPOLYLINE
  5
85
330
17
100
AcDbEntity
  8
metal
100
AcDbPolyline
 90
2
 70
0
 10
-5000.0
 20
4330.127018922193
 40
10.0
 41
10.0
 10
-4815.24791385932
 20
4010.127018922193
 40
10.0
 41
10.0
  0
LWPOLYLINE
  5
86
330
17
100
AcDbEntity
  8
metal
100
AcDbPolyline
 90
2
 70
0
 10
-2500.0
 20
4330.127018922193
 40
10.0
 41
10.0
 10
-2361.4359353944897
 20
4090.127018922193
 40
10.0
 41
10.0
  0
LWPOLYLINE
  5
87
330
17
100
AcDbEntity
  8
metal
100
AcDbPolyline
 90
2
 70
0
 10
0.0
 20
4330.127018922193
 40
10.0
 41
10.0
 10
92.37604307034013
 20
4170.127018922193
 40
10.0
 41
10.0
  0
LWPOLYLINE
  5
88
330
17
100
AcDbEntity
  8
metal
100
AcDbPolyline
 90
2
 70
0
 10
2500.0
 20
4330.127018922193
 40
10.0
 41
10.0
 10
2546.1880215351703
 20
4250.127018922193
 40
10.0
 41
10.0
  0
LWPOLYLINE
  5
89
330
17
100
AcDbEntity
  8
metal
100
AcDbPolyline
 90
2
 70
0
 10
5000.0
 20
4330.127018922193
 40
10.0
 41
10.0
 10
5000.0
 20
4330.127018922193
 40
10.0
 41
10.0
  0
LWPOLYLINE
  5
8A
330
17
100
AcDbEntity
  8
metal
100
AcDbPolyline
 90
2
 70
0
 10
6250.0
 20
2165.0635094610966
 40
10.0
 41
10.0
 10
6019.05989232415
 20
1765.0635094610966
 40
10.0
 41
10.0
  0
LWPOLYLINE
  5
8B
330
17
100
AcDbEntity
  8
metal
100
AcDbPolyline
 90
2
 70
0
 10
3750.0
 20
2165.0635094610966
 40
10.0
 41
10.0
 10
3565.24791385932
 20
1845.0635094610966
 40
10.0
 41
10.0
  0
LWPOLYLINE
  5
8C
330
17
100
AcDbEntity
  8
metal
100
AcDbPolyline
 90
2
 70
0
 10
1250.0
 20
2165.0635094610966
 40
10.0
 41
10.0
 10
1111.43593539449
 20
1925.0635094610966
 40
10.0
 41
10.0
  0
LWPOLYLINE
  5
8D
330
17
100
AcDbEntity
  8
metal
100
AcDbPolyline
 90
2
 70
0
 10
-1250.0
 20
2165.0635094610966
 40
10.0
 41
10.0
 10
-1342.37604307034
 20
2005.0635094610966
 40
10.0
 41
10.0
  0
LWPOLYLINE
  5
8E
330
17
100
AcDbEntity
  8
metal
100
AcDbPolyline
 90
2
 70
0
 10
-3750.0
 20
2165.0635094610966
 40
10.0
 41
10.0
 10
-3796.1880215351703
 20
2085.0635094610966
 40
10.0
 41
10.0
  0
LWPOLYLINE
  5
8F
330
17
100
AcDbEntity
  8
metal
100
AcDbPolyline
 90
2
 70
0
 10
-6250.0
 20
2165.0635094610966
 40
10.0
 41
10.0
 10
-6250.0
 20
2165.0635094610966
 40
10.0
 41
10.0
  0
LWPOLYLINE
  5
90
330
17
100
AcDbEntity
  8
metal
100
AcDbPolyline
 90
2
 70
0
 10
-7500.0
 20
0.0
 40
10.0
 41
10.0
 10
-7222.871870788979
 20
-480.0
 40
10.0
 41
10.0
  0
LWPOLYLINE
  5
91
330
17
100
AcDbEntity
  8
metal
100
AcDbPolyline
 90
2
 70
0
 10
-5000.0
 20
0.0
 40
10.0
 41
10.0
 10
-4769.05989232415
 20
-400.0
 40
10.0
 41
10.0
  0
LWPOLYLINE
  5
92
330
17
100
AcDbEntity
  8
metal
100
AcDbPolyline
 90
2
 70
0
 10
-2500.0
 20
0.0
 40
10.0
 41
10.0
 10
-2315.24791385932
 20
-320.0
 40
10.0
 41
10.0
  0
LWPOLYLINE
  5
93
330
17
100
AcDbEntity
  8
metal
100
AcDbPolyline
 90
2
 70
0
 10
0.0
 20
0.0
 40
10.0
 41
10.0
 10
138.5640646055102
 20
-240.0
 40
10.0
 41
10.0
  0
LWPOLYLINE
  5
94
330
17
100
AcDbEntity
  8
metal
100
AcDbPolyline
 90
2
 70
0
 10
2500.0
 20
0.0
 40
10.0
 41
10.0
 10
2592.37604307034
 20
-160.0
 40
10.0
 41
10.0
  0
LWPOLYLINE
  5
95
330
17
100
AcDbEntity
  8
metal
100
AcDbPolyline
 90
2
 70
0
 10
5000.0
 20
0.0
 40
10.0
 41
10.0
 10
5046.18802153517
 20
-80.0
 40
10.0
 41
10.0
  0
LWPOLYLINE
  5
96
330
17
100
AcDbEntity
  8
metal
100
AcDbPolyline
 90
2
 70
0
 10
7500.0
 20
0.0
 40
10.0
 41
10.0
 10
7500.0
 20
0.0
 40
10.0
 41
10.0
  0
LWPOLYLINE
  5
97
330
17
100
AcDbEntity
  8
metal
100
AcDbPolyline
 90
2
 70
0
 10
6250.0
 20
-2165.0635094610966
 40
10.0
 41
10.0
 10
6019.05989232415
 20
-2565.0635094610966
 40
10.0
 41
10.0
  0
LWPOLYLINE
  5
98
330
17
100
AcDbEntity
  8
metal
100
AcDbPolyline
 90
2
 70
0
 10
3750.0
 20
-2165.0635094610966
 40
10.0
 41
10.0
 10
3565.24791385932
 20
-2485.0635094610966
 40
10.0
 41
10.0
  0
LWPOLYLINE
  5
99
330
17
100
AcDbEntity
  8
metal
100
AcDbPolyline
 90
2
 70
0
 10
1250.0
 20
-2165.0635094610966
 40
10.0
 41
10.0
 10
1111.43593539449
 20
-2405.0635094610966
 40
10.0
 41
10.0
  0
LWPOLYLINE
  5
9A
330
17
100
AcDbEntity
  8
metal
100
AcDbPolyline
 90
2
 70
0
 10
-1250.0
 20
-2165.0635094610966
 40
10.0
 41
10.0
 10
-1342.37604307034
 20
-2325.0635094610966
 40
10.0
 41
10.0
  0
LWPOLYLINE
  5
9B
330
17
100
AcDbEntity
  8
metal
100
AcDbPolyline
 90
2
 70
0
 10
-3750.0
 20
-2165.0635094610966
 40
10.0
 41
10.0
 10
-3796.1880215351703
 20
-2245.0635094610966
 40
10.0
 41
10.0
  0
LWPOLYLINE
  5
9C
330
17
100
AcDbEntity
  8
metal
100
AcDbPolyline
 90
2
 70
0
 10
-6250.0
 20
-2165.0635094610966
 40
10.0
 41
10.0
 10
-6250.0
 20
-2165.0635094610966
 40
10.0
 41
10.0
  0
LWPOLYLINE
  5
9D
330
17
100
AcDbEntity
  8
metal
100
AcDbPolyline
 90
2
 70
0
 10
-5000.0
 20
-4330.127018922193
 40
10.0
 41
10.0
 10
-4815.24791385932
 20
-4650.127018922193
 40
10.0
 41
10.0
  0
LWPOLYLINE
  5
9E
330
17
100
AcDbEntity
  8
metal
100
AcDbPolyline
 90
2
 70
0
 10
-2500.0
 20
-4330.127018922193
 40
10.0
 41
10.0
 10
-2361.4359353944897
 20
-4570.127018922193
 40
10.0
 41
10.0
  0
LWPOLYLINE
  5
9F
330
17
100
AcDbEntity
  8
metal
100
AcDbPolyline
 90
2
 70
0
 10
0.0
 20
-4330.127018922193
 40
10.0
 41
10.0
 10
92.37604307034013
 20
-4490.127018922193
 40
10.0
 41
10.0
  0
LWPOLYLINE
  5
A0
330
17
100
AcDbEntity
  8
metal
100
AcDbPolyline
 90
2
 70
0
 10
2500.0
 20
-4330.127018922193
 40
10.0
 41
10.0
 10
2546.1880215351703
 20
-4410.127018922193
 40
10.0
 41
10.0
  0
LWPOLYLINE
  5
A1
330
17
100
AcDbEntity
  8
metal
100
AcDbPolyline
 90
2
 70
0
 10
5000.0
 20
-4330.127018922193
 40
10.0
 41
10.0
 10
5000.0
 20
-4330.127018922193
 40
10.0
 41
10.0
  0
LWPOLYLINE
  5
A2
330
17
100
AcDbEntity
  8
metal
100
AcDbPolyline
 90
2
 70
0
 10
3750.0
 20
-6495.190528383289
 40
10.0
 41
10.0
 10
3611.4359353944897
 20
-6735.190528383289
 40
10.0
 41
10.0
  0
LWPOLYLINE
  5
A3
330
17
100
AcDbEntity
  8
metal
100
AcDbPolyline
 90
2
 70
0
 10
1250.0
 20
-6495.190528383289
 40
10.0
 41
10.0
 10
1157.62395692966
 20
-6655.190528383289
 40
10.0
 41
10.0
  0
LWPOLYLINE
  5
A4
330
17
100
AcDbEntity
  8
metal
100
AcDbPolyline
 90
2
 70
0
 10
-1250.0
 20
-6495.190528383289
 40
10.0
 41
10.0
 10
-1296.18802153517
 20
-6575.190528383289
 40
10.0
 41
10.0
  0
LWPOLYLINE
  5
A5
330
17
100
AcDbEntity
  8
metal
100
AcDbPolyline
 90
2
 70
0
 10
-3750.0
 20
-6495.190528383289
 40
10.0
 41
10.0
 10
-3750.0
 20
-6495.190528383289
 40
10.0
 41
10.0
  0
LWPOLYLINE
  5
A6
330
17
100
AcDbEntity
  8
metal
100
AcDbPolyline
 90
2
 70
0
 10
3611.4359353944897
 20
6255.190528383289
 40
10.0
 41
10.0
 10
-5000.0
 20
6255.190528383289
 40
10.0
 41
10.0
  0
LWPOLYLINE
  5
A7
330
17
100
AcDbEntity
  8
metal
100
AcDbPolyline
 90
2
 70
0
 10
1157.62395692966
 20
6335.190528383289
 40
10.0
 41
10.0
 10
-5000.0
 20
6335.190528383289
 40
10.0
 41
10.0
  0
LWPOLYLINE
  5
A8
330
17
100
AcDbEntity
  8
metal
100
AcDbPolyline
 90
2
 70
0
 10
-1296.18802153517
 20
6415.190528383289
 40
10.0
 41
10.0
 10
-5000.0
 20
6415.190528383289
 40
10.0
 41
10.0
  0
LWPOLYLINE
  5
A9
330
17
100
AcDbEntity
  8
metal
100
AcDbPolyline
 90
2
 70
0
 10
-3750.0
 20
6495.190528383289
 40
10.0
 41
10.0
 10
-5000.0
 20
6495.190528383289
 40
10.0
 41
10.0
  0
LWPOLYLINE
  5
AA
330
17
100
AcDbEntity
  8
metal
100
AcDbPolyline
 90
2
 70
0
 10
-4815.24791385932
 20
4010.127018922193
 40
10.0
 41
10.0
 10
6250.0
 20
4010.127018922193
 40
10.0
 41
10.0
  0
LWPOLYLINE
  5
AB
330
17
100
AcDbEntity
  8
metal
100
AcDbPolyline
 90
2
 70
0
 10
-2361.4359353944897
 20
4090.127018922193
 40
10.0
 41
10.0
 10
6250.0
 20
4090.127018922193
 40
10.0
 41
10.0
  0
LWPOLYLINE
  5
AC
330
17
100
AcDbEntity
  8
metal
100
AcDbPolyline
 90
2
 70
0
 10
92.37604307034013
 20
4170.127018922193
 40
10.0
 41
10.0
 10
6250.0
 20
4170.127018922193
 40
10.0
 41
10.0
  0
LWPOLYLINE
  5
AD
330
17
100
AcDbEntity
  8
metal
100
AcDbPolyline
 90
2
 70
0
 10
2546.1880215351703
 20
4250.127018922193
 40
10.0
 41
10.0
 10
6250.0
 20
4250.127018922193
 40
10.0
 41
10.0
  0
LWPOLYLINE
  5
AE
330
17
100
AcDbEntity
  8
metal
100
AcDbPolyline
 90
2
 70
0
 10
5000.0
 20
4330.127018922193
 40
10.0
 41
10.0
 10
6250.0
 20
4330.127018922193
 40
10.0
 41
10.0
  0
LWPOLYLINE
  5
AF
330
17
100
AcDbEntity
  8
metal
100
AcDbPolyline
 90
2
 70
0
 10
6019.05989232415
 20
1765.0635094610966
 40
10.0
 41
10.0
 10
-7500.0
 20
1765.0635094610966
 40
10.0
 41
10.0
  0
LWPOLYLINE
  5
B0
330
17
100
AcDbEntity
  8
metal
100
AcDbPolyline
 90
2
 70
0
 10
3565.24791385932
 20
1845.0635094610966
 40
10.0
 41
10.0
 10
-7500.0
 20
1845.0635094610966
 40
10.0
 41
10.0
  0
LWPOLYLINE
  5
B1
330
17
100
AcDbEntity
  8
metal
100
AcDbPolyline
 90
2
 70
0
 10
1111.43593539449
 20
1925.0635094610966
 40
10.0
 41
10.0
 10
-7500.0
 20
1925.0635094610966
 40
10.0
 41
10.0
  0
LWPOLYLINE
  5
B2
330
17
100
AcDbEntity
  8
metal
100
AcDbPolyline
 90
2
 70
0
 10
-1342.37604307034
 20
2005.0635094610966
 40
10.0
 41
10.0
 10
-7500.0
 20
2005.0635094610966
 40
10.0
 41
10.0
  0
LWPOLYLINE
  5
B3
330
17
100
AcDbEntity
  8
metal
100
AcDbPolyline
 90
2
 70
0
 10
-3796.1880215351703
 20
2085.0635094610966
 40
10.0
 41
10.0
 10
-7500.0
 20
2085.0635094610966
 40
10.0
 41
10.0
  0
LWPOLYLINE
  5
B4
330
17
100
AcDbEntity
  8
metal
100
AcDbPolyline
 90
2
 70
0
 10
-6250.0
 20
2165.0635094610966
 40
10.0
 41
10.0
 10
-7500.0
 20
2165.0635094610966
 40
10.0
 41
10.0
  0
LWPOLYLINE
  5
B5
330
17
100
AcDbEntity
  8
metal
100
AcDbPolyline
 90
2
 70
0
 10
-7222.871870788979
 20
-480.0
 40
10.0
 41
10.0
 10
7812.5
 20
-480.0
 40
10.0
 41
10.0
  0
LWPOLYLINE
  5
B6
330
17
100
AcDbEntity
  8
metal
100
AcDbPolyline
 90
2
 70
0
 10
-4769.05989232415
 20
-400.0
 40
10.0
 41
10.0
 10
7812.5
 20
-400.0
 40
10.0
 41
10.0
  0
LWPOLYLINE
  5
B7
330
17
100
AcDbEntity
  8
metal
100
AcDbPolyline
 90
2
 70
0
 10
-2315.24791385932
 20
-320.0
 40
10.0
 41
10.0
 10
7812.5
 20
-320.0
 40
10.0
 41
10.0
  0
LWPOLYLINE
  5
B8
330
17
100
AcDbEntity
  8
metal
100
AcDbPolyline
 90
2
 70
0
 10
138.5640646055102
 20
-240.0
 40
10.0
 41
10.0
 10
7812.5
 20
-240.0
 40
10.0
 41
10.0
  0
LWPOLYLINE
  5
B9
330
17
100
AcDbEntity
  8
metal
100
AcDbPolyline
 90
2
 70
0
 10
2592.37604307034
 20
-160.0
 40
10.0
 41
10.0
 10
7812.5
 20
-160.0
 40
10.0
 41
10.0
  0
LWPOLYLINE
  5
BA
330
17
100
AcDbEntity
  8
metal
100
AcDbPolyline
 90
2
 70
0
 10
5046.18802153517
 20
-80.0
 40
10.0
 41
10.0
 10
7812.5
 20
-80.0
 40
10.0
 41
10.0
  0
LWPOLYLINE
  5
BB
330
17
100
AcDbEntity
  8
metal
100
AcDbPolyline
 90
2
 70
0
 10
7500.0
 20
0.0
 40
10.0
 41
10.0
 10
7812.5
 20
0.0
 40
10.0
 41
10.0
  0
LWPOLYLINE
  5
BC
330
17
100
AcDbEntity
  8
metal
100
AcDbPolyline
 90
2
 70
0
 10
6019.05989232415
 20
-2565.0635094610966
 40
10.0
 41
10.0
 10
-6562.5
 20
-2565.0635094610966
 40
10.0
 41
10.0
  0
LWPOLYLINE
  5
BD
330
17
100
AcDbEntity
  8
metal
100
AcDbPolyline
 90
2
 70
0
 10
3565.24791385932
 20
-2485.0635094610966
 40
10.0
 41
10.0
 10
-6562.5
 20
-2485.0635094610966
 40
10.0
 41
10.0
  0
LWPOLYLINE
  5
BE
330
17
100
AcDbEntity
  8
metal
100
AcDbPolyline
 90
2
 70
0
 10
1111.43593539449
 20
-2405.0635094610966
 40
10.0
 41
10.0
 10
-6562.5
 20
-2405.0635094610966
 40
10.0
 41
10.0
  0
LWPOLYLINE
  5
BF
330
17
100
AcDbEntity
  8
metal
100
AcDbPolyline
 90
2
 70
0
 10
-1342.37604307034
 20
-2325.0635094610966
 40
10.0
 41
10.0
 10
-6562.5
 20
-2325.0635094610966
 40
10.0
 41
10.0
  0
LWPOLYLINE
  5
C0
330
17
100
AcDbEntity
  8
metal
100
AcDbPolyline
 90
2
 70
0
 10
-3796.1880215351703
 20
-2245.0635094610966
 40
10.0
 41
10.0
 10
-6562.5
 20
-2245.0635094610966
 40
10.0
 41
10.0
  0
LWPOLYLINE
  5
C1
330
17
100
AcDbEntity
  8
metal
100
AcDbPolyline
 90
2
 70
0
 10
-6250.0
 20
-2165.0635094610966
 40
10.0
 41
10.0
 10
-6562.5
 20
-2165.0635094610966
 40
10.0
 41
10.0
  0
LWPOLYLINE
  5
C2
330
17
100
AcDbEntity
  8
metal
100
AcDbPolyline
 90
2
 70
0
 10
-4815.24791385932
 20
-4650.127018922193
 40
10.0
 41
10.0
 10
5312.5
 20
-4650.127018922193
 40
10.0
 41
10.0
  0
LWPOLYLINE
  5
C3
330
17
100
AcDbEntity
  8
metal
100
AcDbPolyline
 90
2
 70
0
 10
-2361.4359353944897
 20
-4570.127018922193
 40
10.0
 41
10.0
 10
5312.5
 20
-4570.127018922193
 40
10.0
 41
10.0
  0
LWPOLYLINE
  5
C4
330
17
100
AcDbEntity
  8
metal
100
AcDbPolyline
 90
2
 70
0
 10
92.37604307034013
 20
-4490.127018922193
 40
10.0
 41
10.0
 10
5312.5
 20
-4490.127018922193
 40
10.0
 41
10.0
  0
LWPOLYLINE
  5
C5
330
17
100
AcDbEntity
  8
metal
100
AcDbPolyline
 90
2
 70
0
 10
2546.1880215351703
 20
-4410.127018922193
 40
10.0
 41
10.0
 10
5312.5
 20
-4410.127018922193
 40
10.0
 41
10.0
  0
LWPOLYLINE
  5
C6
330
17
100
AcDbEntity
  8
metal
100
AcDbPolyline
 90
2
 70
0
 10
5000.0
 20
-4330.127018922193
 40
10.0
 41
10.0
 10
5312.5
 20
-4330.127018922193
 40
10.0
 41
10.0
  0
LWPOLYLINE
  5
C7
330
17
100
AcDbEntity
  8
metal
100
AcDbPolyline
 90
2
 70
0
 10
3611.4359353944897
 20
-6735.190528383289
 40
10.0
 41
10.0
 10
-4062.5
 20
-6735.190528383289
 40
10.0
 41
10.0
  0
LWPOLYLINE
  5
C8
330
17
100
AcDbEntity
  8
metal
100
AcDbPolyline
 90
2
 70
0
 10
1157.62395692966
 20
-6655.190528383289
 40
10.0
 41
10.0
 10
-4062.5
 20
-6655.190528383289
 40
10.0
 41
10.0
  0
LWPOLYLINE
  5
C9
330
17
100
AcDbEntity
  8
metal
100
AcDbPolyline
 90
2
 70
0
 10
-1296.18802153517
 20
-6575.190528383289
 40
10.0
 41
10.0
 10
-4062.5
 20
-6575.190528383289
 40
10.0
 41
10.0
  0
LWPOLYLINE
  5
CA
330
17
100
AcDbEntity
  8
metal
100
AcDbPolyline
 90
2
 70
0
 10
-3750.0
 20
-6495.190528383289
 40
10.0
 41
10.0
 10
-4062.5
 20
-6495.190528383289
 40
10.0
 41
10.0
  0
LWPOLYLINE
  5
CB
330
17
100
AcDbEntity
  8
metal
100
AcDbPolyline
 90
2
 70
0
 10
-7269.05989232415
 20
2565.063509461096
 40
10.0
 41
10.0
 10
-7500.0
 20
2565.063509461096
 40
10.0
 41
10.0
  0
LWPOLYLINE
  5
CC
330
17
100
AcDbEntity
  8
metal
100
AcDbPolyline
 90
2
 70
0
 10
-7280.606897707942
 20
2465.063509461096
 40
10.0
 41
10.0
 10
-7500.0
 20
2465.063509461096
 40
10.0
 41
10.0
  0
LWPOLYLINE
  5
CD
330
17
100
AcDbEntity
  8
metal
100
AcDbPolyline
 90
2
 70
0
 10
-7292.153903091735
 20
2365.063509461096
 40
10.0
 41
10.0
 10
-7500.0
 20
2365.063509461096
 40
10.0
 41
10.0
  0
LWPOLYLINE
  5
CE
330
17
100
AcDbEntity
  8
metal
100
AcDbPolyline
 90
2
 70
0
 10
-7303.700908475527
 20
2265.063509461096
 40
10.0
 41
10.0
 10
-7500.0
 20
2265.063509461096
 40
10.0
 41
10.0
  0
LWPOLYLINE
  5
CF
330
17
100
AcDbEntity
  8
metal
100
AcDbPolyline
 90
2
 70
0
 10
-8432.457351945706
 20
550.0
 40
10.0
 41
10.0
 10
-10000.0
 20
550.0
 40
10.0
 41
10.0
  0
LWPOLYLINE
  5
D0
330
17
100
AcDbEntity
  8
metal
100
AcDbPolyline
 90
2
 70
0
 10
-8444.004357329499
 20
450.0
 40
10.0
 41
10.0
 10
-10000.0
 20
450.0
 40
10.0
 41
10.0
  0
LWPOLYLINE
  5
D1
330
17
100
AcDbEntity
  8
metal
100
AcDbPolyline
 90
2
 70
0
 10
-8455.551362713291
 20
350.0
 40
10.0
 41
10.0
 10
-10000.0
 20
350.0
 40
10.0
 41
10.0
  0
LWPOLYLINE
  5
D2
330
17
100
AcDbEntity
  8
metal
100
AcDbPolyline
 90
2
 70
0
 10
-8467.098368097084
 20
250.0
 40
10.0
 41
10.0
 10
-10000.0
 20
250.0
 40
10.0
 41
10.0
  0
LWPOLYLINE
  5
D3
330
17
100
AcDbEntity
  8
metal
100
AcDbPolyline
 90
2
 70
0
 10
-8478.645373480877
 20
150.0
 40
10.0
 41
10.0
 10
-10000.0
 20
150.0
 40
10.0
 41
10.0
  0
LWPOLYLINE
  5
D4
330
17
100
AcDbEntity
  8
metal
100
AcDbPolyline
 90
2
 70
0
 10
-8490.192378864669
 20
50.0
 40
10.0
 41
10.0
 10
-10000.0
 20
50.0
 40
10.0
 41
10.0
  0
LWPOLYLINE
  5
D5
330
17
100
AcDbEntity
  8
metal
100
AcDbPolyline
 90
2
 70
0
 10
-5248.991470389141
 20
-4680.127018922192
 40
10.0
 41
10.0
 10
-6562.5
 20
-4680.127018922192
 40
10.0
 41
10.0
  0
LWPOLYLINE
  5
D6
330
17
100
AcDbEntity
  8
metal
100
AcDbPolyline
 90
2
 70
0
 10
-5260.538475772933
 20
-4580.127018922192
 40
10.0
 41
10.0
 10
-6562.5
 20
-4580.127018922192
 40
10.0
 41
10.0
  0
LWPOLYLINE
  5
D7
330
17
100
AcDbEntity
  8
metal
100
AcDbPolyline
 90
2
 70
0
 10
-5272.085481156726
 20
-4480.127018922192
 40
10.0
 41
10.0
 10
-6562.5
 20
-4480.127018922192
 40
10.0
 41
10.0
  0
LWPOLYLINE
  5
D8
330
17
100
AcDbEntity
  8
metal
100
AcDbPolyline
 90
2
 70
0
 10
-5283.632486540519
 20
-4380.127018922192
 40
10.0
 41
10.0
 10
-6562.5
 20
-4380.127018922192
 40
10.0
 41
10.0
  0
LWPOLYLINE
  5
D9
330
17
100
AcDbEntity
  8
metal
100
AcDbPolyline
 90
2
 70
0
 10
-7725.897459621556
 20
-550.0
 40
10.0
 41
10.0
 10
-8750.0
 20
-550.0
 40
10.0
 41
10.0
  0
LWPOLYLINE
  5
DA
330
17
100
AcDbEntity
  8
metal
100
AcDbPolyline
 90
2
 70
0
 10
-7737.444465005348
 20
-450.0
 40
10.0
 41
10.0
 10
-8750.0
 20
-450.0
 40
10.0
 41
10.0
  0
LWPOLYLINE
  5
DB
330
17
100
AcDbEntity
  8
metal
100
AcDbPolyline
 90
2
 70
0
 10
-7748.991470389141
 20
-350.0
 40
10.0
 41
10.0
 10
-8750.0
 20
-350.0
 40
10.0
 41
10.0
  0
LWPOLYLINE
  5
DC
330
17
100
AcDbEntity
  8
metal
100
AcDbPolyline
 90
2
 70
0
 10
-7760.538475772933
 20
-250.0
 40
10.0
 41
10.0
 10
-8750.0
 20
-250.0
 40
10.0
 41
10.0
  0
LWPOLYLINE
  5
DD
330
17
100
AcDbEntity
  8
metal
100
AcDbPolyline
 90
2
 70
0
 10
-7772.085481156726
 20
-150.0
 40
10.0
 41
10.0
 10
-8750.0
 20
-150.0
 40
10.0
 41
10.0
  0
LWPOLYLINE
  5
DE
330
17
100
AcDbEntity
  8
metal
100
AcDbPolyline
 90
2
 70
0
 10
-7783.632486540519
 20
-50.0
 40
10.0
 41
10.0
 10
-8750.0
 20
-50.0
 40
10.0
 41
10.0
  0
LWPOLYLINE
  5
DF
330
17
100
AcDbEntity
  8
metal
100
AcDbPolyline
 90
2
 70
0
 10
6487.444465005348
 20
-2615.0635094610966
 40
10.0
 41
10.0
 10
7812.5
 20
-2615.0635094610966
 40
10.0
 41
10.0
  0
LWPOLYLINE
  5
E0
330
17
100
AcDbEntity
  8
metal
100
AcDbPolyline
 90
2
 70
0
 10
6498.991470389141
 20
-2515.0635094610966
 40
10.0
 41
10.0
 10
7812.5
 20
-2515.0635094610966
 40
10.0
 41
10.0
  0
LWPOLYLINE
  5
E1
330
17
100
AcDbEntity
  8
metal
100
AcDbPolyline
 90
2
 70
0
 10
6510.538475772933
 20
-2415.0635094610966
 40
10.0
 41
10.0
 10
7812.5
 20
-2415.0635094610966
 40
10.0
 41
10.0
  0
LWPOLYLINE
  5
E2
330
17
100
AcDbEntity
  8
metal
100
AcDbPolyline
 90
2
 70
0
 10
6522.085481156726
 20
-2315.0635094610966
 40
10.0
 41
10.0
 10
7812.5
 20
-2315.0635094610966
 40
10.0
 41
10.0
  0
LWPOLYLINE
  5
E3
330
17
100
AcDbEntity
  8
metal
100
AcDbPolyline
 90
2
 70
0
 10
6533.632486540519
 20
-2215.0635094610966
 40
10.0
 41
10.0
 10
7812.5
 20
-2215.0635094610966
 40
10.0
 41
10.0
  0
LWPOLYLINE
  5
E4
330
17
100
AcDbEntity
  8
metal
100
AcDbPolyline
 90
2
 70
0
 10
8964.350454237763
 20
1515.0635094610966
 40
10.0
 41
10.0
 10
10000.0
 20
1515.0635094610966
 40
10.0
 41
10.0
  0
LWPOLYLINE
  5
E5
330
17
100
AcDbEntity
  8
metal
100
AcDbPolyline
 90
2
 70
0
 10
8975.897459621556
 20
1615.0635094610966
 40
10.0
 41
10.0
 10
10000.0
 20
1615.0635094610966
 40
10.0
 41
10.0
  0
LWPOLYLINE
  5
E6
330
17
100
AcDbEntity
  8
metal
100
AcDbPolyline
 90
2
 70
0
 10
8987.444465005348
 20
1715.0635094610966
 40
10.0
 41
10.0
 10
10000.0
 20
1715.0635094610966
 40
10.0
 41
10.0
  0
LWPOLYLINE
  5
E7
330
17
100
AcDbEntity
  8
metal
100
AcDbPolyline
 90
2
 70
0
 10
8998.99147038914
 20
1815.0635094610966
 40
10.0
 41
10.0
 10
10000.0
 20
1815.0635094610966
 40
10.0
 41
10.0
  0
LWPOLYLINE
  5
E8
330
17
100
AcDbEntity
  8
metal
100
AcDbPolyline
 90
2
 70
0
 10
9010.538475772933
 20
1915.0635094610966
 40
10.0
 41
10.0
 10
10000.0
 20
1915.0635094610966
 40
10.0
 41
10.0
  0
LWPOLYLINE
  5
E9
330
17
100
AcDbEntity
  8
metal
100
AcDbPolyline
 90
2
 70
0
 10
9022.085481156726
 20
2015.0635094610966
 40
10.0
 41
10.0
 10
10000.0
 20
2015.0635094610966
 40
10.0
 41
10.0
  0
LWPOLYLINE
  5
EA
330
17
100
AcDbEntity
  8
metal
100
AcDbPolyline
 90
2
 70
0
 10
9033.632486540519
 20
2115.0635094610966
 40
10.0
 41
10.0
 10
10000.0
 20
2115.0635094610966
 40
10.0
 41
10.0
  0
LWPOLYLINE
  5
EB
330
17
100
AcDbEntity
  8
metal
100
AcDbPolyline
 90
2
 70
0
 10
7240.192378864668
 20
2615.0635094610966
 40
10.0
 41
10.0
 10
8750.0
 20
2615.0635094610966
 40
10.0
 41
10.0
  0
LWPOLYLINE
  5
EC
330
17
100
AcDbEntity
  8
metal
100
AcDbPolyline
 90
2
 70
0
 10
7251.739384248461
 20
2515.0635094610966
 40
10.0
 41
10.0
 10
8750.0
 20
2515.0635094610966
 40
10.0
 41
10.0
  0
LWPOLYLINE
  5
ED
330
17
100
AcDbEntity
  8
metal
100
AcDbPolyline
 90
2
 70
0
 10
7263.286389632253
 20
2415.0635094610966
 40
10.0
 41
10.0
 10
8750.0
 20
2415.0635094610966
 40
10.0
 41
10.0
  0
LWPOLYLINE
  5
EE
330
17
100
AcDbEntity
  8
metal
100
AcDbPolyline
 90
2
 70
0
 10
7274.833395016046
 20
2315.0635094610966
 40
10.0
 41
10.0
 10
8750.0
 20
2315.0635094610966
 40
10.0
 41
10.0
  0
LWPOLYLINE
  5
EF
330
17
100
AcDbEntity
  8
metal
100
AcDbPolyline
 90
2
 70
0
 10
7286.380400399838
 20
2215.0635094610966
 40
10.0
 41
10.0
 10
8750.0
 20
2215.0635094610966
 40
10.0
 41
10.0
  0
LWPOLYLINE
  5
F0
330
17
100
AcDbEntity
  8
metal
100
AcDbPolyline
 90
2
 70
0
 10
-5000.0
 20
6495.190528383289
 40
10.0
 41
10.0
 10
-7269.05989232415
 20
2565.063509461096
 40
10.0
 41
10.0
  0
LWPOLYLINE
  5
F1
330
17
100
AcDbEntity
  8
metal
100
AcDbPolyline
 90
2
 70
0
 10
-5000.0
 20
6415.190528383289
 40
10.0
 41
10.0
 10
-7280.606897707942
 20
2465.063509461096
 40
10.0
 41
10.0
  0
LWPOLYLINE
  5
F2
330
17
100
AcDbEntity
  8
metal
100
AcDbPolyline
 90
2
 70
0
 10
-5000.0
 20
6335.190528383289
 40
10.0
 41
10.0
 10
-7292.153903091735
 20
2365.063509461096
 40
10.0
 41
10.0
  0
LWPOLYLINE
  5
F3
330
17
100
AcDbEntity
  8
metal
100
AcDbPolyline
 90
2
 70
0
 10
-5000.0
 20
6255.190528383289
 40
10.0
 41
10.0
 10
-7303.700908475527
 20
2265.063509461096
 40
10.0
 41
10.0
  0
LWPOLYLINE
  5
F4
330
17
100
AcDbEntity
  8
metal
100
AcDbPolyline
 90
2
 70
0
 10
-7500.0
 20
2165.0635094610966
 40
10.0
 41
10.0
 10
-8432.457351945706
 20
550.0
 40
10.0
 41
10.0
  0
LWPOLYLINE
  5
F5
330
17
100
AcDbEntity
  8
metal
100
AcDbPolyline
 90
2
 70
0
 10
-7500.0
 20
2085.0635094610966
 40
10.0
 41
10.0
 10
-8444.004357329499
 20
450.0
 40
10.0
 41
10.0
  0
LWPOLYLINE
  5
F6
330
17
100
AcDbEntity
  8
metal
100
AcDbPolyline
 90
2
 70
0
 10
-7500.0
 20
2005.0635094610966
 40
10.0
 41
10.0
 10
-8455.551362713291
 20
350.0
 40
10.0
 41
10.0
  0
LWPOLYLINE
  5
F7
330
17
100
AcDbEntity
  8
metal
100
AcDbPolyline
 90
2
 70
0
 10
-7500.0
 20
1925.0635094610966
 40
10.0
 41
10.0
 10
-8467.098368097084
 20
250.0
 40
10.0
 41
10.0
  0
LWPOLYLINE
  5
F8
330
17
100
AcDbEntity
  8
metal
100
AcDbPolyline
 90
2
 70
0
 10
-7500.0
 20
1845.0635094610966
 40
10.0
 41
10.0
 10
-8478.645373480877
 20
150.0
 40
10.0
 41
10.0
  0
LWPOLYLINE
  5
F9
330
17
100
AcDbEntity
  8
metal
100
AcDbPolyline
 90
2
 70
0
 10
-7500.0
 20
1765.0635094610966
 40
10.0
 41
10.0
 10
-8490.192378864669
 20
50.0
 40
10.0
 41
10.0
  0
LWPOLYLINE
  5
FA
330
17
100
AcDbEntity
  8
metal
100
AcDbPolyline
 90
2
 70
0
 10
-4062.5
 20
-6735.190528383289
 40
10.0
 41
10.0
 10
-5248.991470389141
 20
-4680.127018922192
 40
10.0
 41
10.0
  0
LWPOLYLINE
  5
FB
330
17
100
AcDbEntity
  8
metal
100
AcDbPolyline
 90
2
 70
0
 10
-4062.5
 20
-6655.190528383289
 40
10.0
 41
10.0
 10
-5260.538475772933
 20
-4580.127018922192
 40
10.0
 41
10.0
  0
LWPOLYLINE
  5
FC
330
17
100
AcDbEntity
  8
metal
100
AcDbPolyline
 90
2
 70
0
 10
-4062.5
 20
-6575.190528383289
 40
10.0
 41
10.0
 10
-5272.085481156726
 20
-4480.127018922192
 40
10.0
 41
10.0
  0
LWPOLYLINE
  5
FD
330
17
100
AcDbEntity
  8
metal
100
AcDbPolyline
 90
2
 70
0
 10
-4062.5
 20
-6495.190528383289
 40
10.0
 41
10.0
 10
-5283.632486540519
 20
-4380.127018922192
 40
10.0
 41
10.0
  0
LWPOLYLINE
  5
FE
330
17
100
AcDbEntity
  8
metal
100
AcDbPolyline
 90
2
 70
0
 10
-6562.5
 20
-2565.0635094610966
 40
10.0
 41
10.0
 10
-7725.897459621556
 20
-550.0
 40
10.0
 41
10.0
  0
LWPOLYLINE
  5
FF
330
17
100
AcDbEntity
  8
metal
100
AcDbPolyline
 90
2
 70
0
 10
-6562.5
 20
-2485.0635094610966
 40
10.0
 41
10.0
 10
-7737.444465005348
 20
-450.0
 40
10.0
 41
10.0
  0
LWPOLYLINE
  5
100
330
17
100
AcDbEntity
  8
metal
100
AcDbPolyline
 90
2
 70
0
 10
-6562.5
 20
-2405.0635094610966
 40
10.0
 41
10.0
 10
-7748.991470389141
 20
-350.0
 40
10.0
 41
10.0
  0
LWPOLYLINE
  5
101
330
17
100
AcDbEntity
  8
metal
100
AcDbPolyline
 90
2
 70
0
 10
-6562.5
 20
-2325.0635094610966
 40
10.0
 41
10.0
 10
-7760.538475772933
 20
-250.0
 40
10.0
 41
10.0
  0
LWPOLYLINE
  5
102
330
17
100
AcDbEntity
  8
metal
100
AcDbPolyline
 90
2
 70
0
 10
-6562.5
 20
-2245.0635094610966
 40
10.0
 41
10.0
 10
-7772.085481156726
 20
-150.0
 40
10.0
 41
10.0
  0
LWPOLYLINE
  5
103
330
17
100
AcDbEntity
  8
metal
100
AcDbPolyline
 90
2
 70
0
 10
-6562.5
 20
-2165.0635094610966
 40
10.0
 41
10.0
 10
-7783.632486540519
 20
-50.0
 40
10.0
 41
10.0
  0
LWPOLYLINE
  5
104
330
17
100
AcDbEntity
  8
metal
100
AcDbPolyline
 90
2
 70
0
 10
5312.5
 20
-4650.127018922193
 40
10.0
 41
10.0
 10
6487.444465005348
 20
-2615.0635094610966
 40
10.0
 41
10.0
  0
LWPOLYLINE
  5
105
330
17
100
AcDbEntity
  8
metal
100
AcDbPolyline
 90
2
 70
0
 10
5312.5
 20
-4570.127018922193
 40
10.0
 41
10.0
 10
6498.991470389141
 20
-2515.0635094610966
 40
10.0
 41
10.0
  0
LWPOLYLINE
  5
106
330
17
100
AcDbEntity
  8
metal
100
AcDbPolyline
 90
2
 70
0
 10
5312.5
 20
-4490.127018922193
 40
10.0
 41
10.0
 10
6510.538475772933
 20
-2415.0635094610966
 40
10.0
 41
10.0
  0
LWPOLYLINE
  5
107
330
17
100
AcDbEntity
  8
metal
100
AcDbPolyline
 90
2
 70
0
 10
5312.5
 20
-4410.127018922193
 40
10.0
 41
10.0
 10
6522.085481156726
 20
-2315.0635094610966
 40
10.0
 41
10.0
  0
LWPOLYLINE
  5
108
330
17
100
AcDbEntity
  8
metal
100
AcDbPolyline
 90
2
 70
0
 10
5312.5
 20
-4330.127018922193
 40
10.0
 41
10.0
 10
6533.632486540519
 20
-2215.0635094610966
 40
10.0
 41
10.0
  0
LWPOLYLINE
  5
109
330
17
100
AcDbEntity
  8
metal
100
AcDbPolyline
 90
2
 70
0
 10
7812.5
 20
-480.0
 40
10.0
 41
10.0
 10
8964.350454237763
 20
1515.0635094610966
 40
10.0
 41
10.0
  0
LWPOLYLINE
  5
10A
330
17
100
AcDbEntity
  8
metal
100
AcDbPolyline
 90
2
 70
0
 10
7812.5
 20
-400.0
 40
10.0
 41
10.0
 10
8975.897459621556
 20
1615.0635094610966
 40
10.0
 41
10.0
  0
LWPOLYLINE
  5
10B
330
17
100
AcDbEntity
  8
metal
100
AcDbPolyline
 90
2
 70
0
 10
7812.5
 20
-320.0
 40
10.0
 41
10.0
 10
8987.444465005348
 20
1715.0635094610966
 40
10.0
 41
10.0
  0
LWPOLYLINE
  5
10C
330
17
100
AcDbEntity
  8
metal
100
AcDbPolyline
 90
2
 70
0
 10
7812.5
 20
-240.0
 40
10.0
 41
10.0
 10
8998.99147038914
 20
1815.0635094610966
 40
10.0
 41
10.0
  0
LWPOLYLINE
  5
10D
330
17
100
AcDbEntity
  8
metal
100
AcDbPolyline
 90
2
 70
0
 10
7812.5
 20
-160.0
 40
10.0
 41
10.0
 10
9010.538475772933
 20
1915.0635094610966
 40
10.0
 41
10.0
  0
LWPOLYLINE
  5
10E
330
17
100
AcDbEntity
  8
metal
100
AcDbPolyline
 90
2
 70
0
 10
7812.5
 20
-80.0
 40
10.0
 41
10.0
 10
9022.085481156726
 20
2015.0635094610966
 40
10.0
 41
10.0
  0
LWPOLYLINE
  5
10F
330
17
100
AcDbEntity
  8
metal
100
AcDbPolyline
 90
2
 70
0
 10
7812.5
 20
0.0
 40
10.0
 41
10.0
 10
9033.632486540519
 20
2115.0635094610966
 40
10.0
 41
10.0
  0
LWPOLYLINE
  5
110
330
17
100
AcDbEntity
  8
metal
100
AcDbPolyline
 90
2
 70
0
 10
6250.0
 20
4330.127018922193
 40
10.0
 41
10.0
 10
7240.192378864668
 20
2615.0635094610966
 40
10.0
 41
10.0
  0
LWPOLYLINE
  5
111
330
17
100
AcDbEntity
  8
metal
100
AcDbPolyline
 90
2
 70
0
 10
6250.0
 20
4250.127018922193
 40
10.0
 41
10.0
 10
7251.739384248461
 20
2515.0635094610966
 40
10.0
 41
10.0
  0
LWPOLYLINE
  5
112
330
17
100
AcDbEntity
  8
metal
100
AcDbPolyline
 90
2
 70
0
 10
6250.0
 20
4170.127018922193
 40
10.0
 41
10.0
 10
7263.286389632253
 20
2415.0635094610966
 40
10.0
 41
10.0
  0
LWPOLYLINE
  5
113
330
17
100
AcDbEntity
  8
metal
100
AcDbPolyline
 90
2
 70
0
 10
6250.0
 20
4090.127018922193
 40
10.0
 41
10.0
 10
7274.833395016046
 20
2315.0635094610966
 40
10.0
 41
10.0
  0
LWPOLYLINE
  5
114
330
17
100
AcDbEntity
  8
metal
100
AcDbPolyline
 90
2
 70
0
 10
6250.0
 20
4010.127018922193
 40
10.0
 41
10.0
 10
7286.380400399838
 20
2215.0635094610966
 40
10.0
 41
10.0
  0
LWPOLYLINE
  5
115
330
17
100
AcDbEntity
  8
metal
100
AcDbPolyline
 90
2
 70
0
 10
-7500.0
 20
2565.063509461096
 40
10.0
 41
10.0
 10
-7500.0
 20
2565.063509461096
 40
10.0
 41
10.0
  0
LWPOLYLINE
  5
116
330
17
100
AcDbEntity
  8
metal
100
AcDbPolyline
 90
2
 70
0
 10
-8432.457351945706
 20
949.9999999999995
 40
10.0
 41
10.0
 10
-10000.0
 20
949.9999999999995
 40
10.0
 41
10.0
  0
LWPOLYLINE
  5
117
330
17
100
AcDbEntity
  8
metal
100
AcDbPolyline
 90
2
 70
0
 10
-7500.0
 20
2465.063509461096
 40
10.0
 41
10.0
 10
-7500.0
 20
2465.063509461096
 40
10.0
 41
10.0
  0
LWPOLYLINE
  5
118
330
17
100
AcDbEntity
  8
metal
100
AcDbPolyline
 90
2
 70
0
 10
-8432.457351945706
 20
849.9999999999995
 40
10.0
 41
10.0
 10
-10000.0
 20
849.9999999999995
 40
10.0
 41
10.0
  0
LWPOLYLINE
  5
119
330
17
100
AcDbEntity
  8
metal
100
AcDbPolyline
 90
2
 70
0
 10
-7500.0
 20
2365.063509461096
 40
10.0
 41
10.0
 10
-7500.0
 20
2365.063509461096
 40
10.0
 41
10.0
  0
LWPOLYLINE
  5
11A
330
17
100
AcDbEntity
  8
metal
100
AcDbPolyline
 90
2
 70
0
 10
-8432.457351945706
 20
749.9999999999995
 40
10.0
 41
10.0
 10
-10000.0
 20
749.9999999999995
 40
10.0
 41
10.0
  0
LWPOLYLINE
  5
11B
330
17
100
AcDbEntity
  8
metal
100
AcDbPolyline
 90
2
 70
0
 10
-7500.0
 20
2265.063509461096
 40
10.0
 41
10.0
 10
-7500.0
 20
2265.063509461096
 40
10.0
 41
10.0
  0
LWPOLYLINE
  5
11C
330
17
100
AcDbEntity
  8
metal
100
AcDbPolyline
 90
2
 70
0
 10
-8432.457351945706
 20
649.9999999999995
 40
10.0
 41
10.0
 10
-10000.0
 20
649.9999999999995
 40
10.0
 41
10.0
  0
LWPOLYLINE
  5
11D
330
17
100
AcDbEntity
  8
metal
100
AcDbPolyline
 90
2
 70
0
 10
-6562.5
 20
-4680.127018922192
 40
10.0
 41
10.0
 10
-6562.5
 20
-4680.127018922192
 40
10.0
 41
10.0
  0
LWPOLYLINE
  5
11E
330
17
100
AcDbEntity
  8
metal
100
AcDbPolyline
 90
2
 70
0
 10
-8716.089838486225
 20
-949.9999999999991
 40
10.0
 41
10.0
 10
-9062.5
 20
-949.9999999999991
 40
10.0
 41
10.0
  0
LWPOLYLINE
  5
11F
330
17
100
AcDbEntity
  8
metal
100
AcDbPolyline
 90
2
 70
0
 10
-6562.5
 20
-4580.127018922192
 40
10.0
 41
10.0
 10
-6562.5
 20
-4580.127018922192
 40
10.0
 41
10.0
  0
LWPOLYLINE
  5
120
330
17
100
AcDbEntity
  8
metal
100
AcDbPolyline
 90
2
 70
0
 10
-8716.089838486225
 20
-849.9999999999991
 40
10.0
 41
10.0
 10
-9062.5
 20
-849.9999999999991
 40
10.0
 41
10.0
  0
LWPOLYLINE
  5
121
330
17
100
AcDbEntity
  8
metal
100
AcDbPolyline
 90
2
 70
0
 10
-6562.5
 20
-4480.127018922192
 40
10.0
 41
10.0
 10
-6562.5
 20
-4480.127018922192
 40
10.0
 41
10.0
  0
LWPOLYLINE
  5
122
330
17
100
AcDbEntity
  8
metal
100
AcDbPolyline
 90
2
 70
0
 10
-8716.089838486225
 20
-749.9999999999991
 40
10.0
 41
10.0
 10
-9062.5
 20
-749.9999999999991
 40
10.0
 41
10.0
  0
LWPOLYLINE
  5
123
330
17
100
AcDbEntity
  8
metal
100
AcDbPolyline
 90
2
 70
0
 10
-6562.5
 20
-4380.127018922192
 40
10.0
 41
10.0
 10
-6562.5
 20
-4380.127018922192
 40
10.0
 41
10.0
  0
LWPOLYLINE
  5
124
330
17
100
AcDbEntity
  8
metal
100
AcDbPolyline
 90
2
 70
0
 10
-8716.089838486225
 20
-649.9999999999991
 40
10.0
 41
10.0
 10
-9062.5
 20
-649.9999999999991
 40
10.0
 41
10.0
  0
LWPOLYLINE
  5
125
330
17
100
AcDbEntity
  8
metal
100
AcDbPolyline
 90
2
 70
0
 10
7812.5
 20
-2615.0635094610966
 40
10.0
 41
10.0
 10
7812.5
 20
-2615.0635094610966
 40
10.0
 41
10.0
  0
LWPOLYLINE
  5
126
330
17
100
AcDbEntity
  8
metal
100
AcDbPolyline
 90
2
 70
0
 10
9908.354811567262
 20
1015.0635094610966
 40
10.0
 41
10.0
 10
10312.5
 20
1015.0635094610966
 40
10.0
 41
10.0
  0
LWPOLYLINE
  5
127
330
17
100
AcDbEntity
  8
metal
100
AcDbPolyline
 90
2
 70
0
 10
7812.5
 20
-2515.0635094610966
 40
10.0
 41
10.0
 10
7812.5
 20
-2515.0635094610966
 40
10.0
 41
10.0
  0
LWPOLYLINE
  5
128
330
17
100
AcDbEntity
  8
metal
100
AcDbPolyline
 90
2
 70
0
 10
9908.354811567262
 20
1115.0635094610966
 40
10.0
 41
10.0
 10
10312.5
 20
1115.0635094610966
 40
10.0
 41
10.0
  0
LWPOLYLINE
  5
129
330
17
100
AcDbEntity
  8
metal
100
AcDbPolyline
 90
2
 70
0
 10
7812.5
 20
-2415.0635094610966
 40
10.0
 41
10.0
 10
7812.5
 20
-2415.0635094610966
 40
10.0
 41
10.0
  0
LWPOLYLINE
  5
12A
330
17
100
AcDbEntity
  8
metal
100
AcDbPolyline
 90
2
 70
0
 10
9908.354811567262
 20
1215.0635094610966
 40
10.0
 41
10.0
 10
10312.5
 20
1215.0635094610966
 40
10.0
 41
10.0
  0
LWPOLYLINE
  5
12B
330
17
100
AcDbEntity
  8
metal
100
AcDbPolyline
 90
2
 70
0
 10
7812.5
 20
-2315.0635094610966
 40
10.0
 41
10.0
 10
7812.5
 20
-2315.0635094610966
 40
10.0
 41
10.0
  0
LWPOLYLINE
  5
12C
330
17
100
AcDbEntity
  8
metal
100
AcDbPolyline
 90
2
 70
0
 10
9908.354811567262
 20
1315.0635094610966
 40
10.0
 41
10.0
 10
10312.5
 20
1315.0635094610966
 40
10.0
 41
10.0
  0
LWPOLYLINE
  5
12D
330
17
100
AcDbEntity
  8
metal
100
AcDbPolyline
 90
2
 70
0
 10
7812.5
 20
-2215.0635094610966
 40
10.0
 41
10.0
 10
7812.5
 20
-2215.0635094610966
 40
10.0
 41
10.0
  0
LWPOLYLINE
  5
12E
330
17
100
AcDbEntity
  8
metal
100
AcDbPolyline
 90
2
 70
0
 10
9908.354811567262
 20
1415.0635094610966
 40
10.0
 41
10.0
 10
10312.5
 20
1415.0635094610966
 40
10.0
 41
10.0
  0
LWPOLYLINE
  5
12F
330
17
100
AcDbEntity
  8
metal
100
AcDbPolyline
 90
2
 70
0
 10
-7500.0
 20
2565.063509461096
 40
10.0
 41
10.0
 10
-8432.457351945706
 20
949.9999999999995
 40
10.0
 41
10.0
  0
LWPOLYLINE
  5
130
330
17
100
AcDbEntity
  8
metal
100
AcDbPolyline
 90
2
 70
0
 10
-7500.0
 20
2465.063509461096
 40
10.0
 41
10.0
 10
-8432.457351945706
 20
849.9999999999995
 40
10.0
 41
10.0
  0
LWPOLYLINE
  5
131
330
17
100
AcDbEntity
  8
metal
100
AcDbPolyline
 90
2
 70
0
 10
-7500.0
 20
2365.063509461096
 40
10.0
 41
10.0
 10
-8432.457351945706
 20
749.9999999999995
 40
10.0
 41
10.0
  0
LWPOLYLINE
  5
132
330
17
100
AcDbEntity
  8
metal
100
AcDbPolyline
 90
2
 70
0
 10
-7500.0
 20
2265.063509461096
 40
10.0
 41
10.0
 10
-8432.457351945706
 20
649.9999999999995
 40
10.0
 41
10.0
  0
LWPOLYLINE
  5
133
330
17
100
AcDbEntity
  8
metal
100
AcDbPolyline
 90
2
 70
0
 10
-6562.5
 20
-4680.127018922192
 40
10.0
 41
10.0
 10
-8716.089838486225
 20
-949.9999999999991
 40
10.0
 41
10.0
  0
LWPOLYLINE
  5
134
330
17
100
AcDbEntity
  8
metal
100
AcDbPolyline
 90
2
 70
0
 10
-6562.5
 20
-4580.127018922192
 40
10.0
 41
10.0
 10
-8716.089838486225
 20
-849.9999999999991
 40
10.0
 41
10.0
  0
LWPOLYLINE
  5
135
330
17
100
AcDbEntity
  8
metal
100
AcDbPolyline
 90
2
 70
0
 10
-6562.5
 20
-4480.127018922192
 40
10.0
 41
10.0
 10
-8716.089838486225
 20
-749.9999999999991
 40
10.0
 41
10.0
  0
LWPOLYLINE
  5
136
330
17
100
AcDbEntity
  8
metal
100
AcDbPolyline
 90
2
 70
0
 10
-6562.5
 20
-4380.127018922192
 40
10.0
 41
10.0
 10
-8716.089838486225
 20
-649.9999999999991
 40
10.0
 41
10.0
  0
LWPOLYLINE
  5
137
330
17
100
AcDbEntity
  8
metal
100
AcDbPolyline
 90
2
 70
0
 10
7812.5
 20
-2615.0635094610966
 40
10.0
 41
10.0
 10
9908.354811567262
 20
1015.0635094610966
 40
10.0
 41
10.0
  0
LWPOLYLINE
  5
138
330
17
100
AcDbEntity
  8
metal
100
AcDbPolyline
 90
2
 70
0
 10
7812.5
 20
-2515.0635094610966
 40
10.0
 41
10.0
 10
9908.354811567262
 20
1115.0635094610966
 40
10.0
 41
10.0
  0
LWPOLYLINE
  5
139
330
17
100
AcDbEntity
  8
metal
100
AcDbPolyline
 90
2
 70
0
 10
7812.5
 20
-2415.0635094610966
 40
10.0
 41
10.0
 10
9908.354811567262
 20
1215.0635094610966
 40
10.0
 41
10.0
  0
LWPOLYLINE
  5
13A
330
17
100
AcDbEntity
  8
metal
100
AcDbPolyline
 90
2
 70
0
 10
7812.5
 20
-2315.0635094610966
 40
10.0
 41
10.0
 10
9908.354811567262
 20
1315.0635094610966
 40
10.0
 41
10.0
  0
LWPOLYLINE
  5
13B
330
17
100
AcDbEntity
  8
metal
100
AcDbPolyline
 90
2
 70
0
 10
7812.5
 20
-2215.0635094610966
 40
10.0
 41
10.0
 10
9908.354811567262
 20
1415.0635094610966
 40
10.0
 41
10.0
  0
POLYLINE
  5
13C
330
17
100
AcDbEntity
  8
metal
100
AcDb2dPolyline
 66
1
 10
0.0
 20
0.0
 30
0.0
 70
1
  0
VERTEX
  5
13E
330
17
100
AcDbEntity
  8
metal
100
AcDbVertex
100
AcDb2dVertex
 10
18627.45836551854
 20
1230.0
 30
0.0
 70
0
  0
VERTEX
  5
13F
330
17
100
AcDbEntity
  8
metal
100
AcDbVertex
100
AcDb2dVertex
 10
18987.45836551854
 20
1230.0
 30
0.0
 70
0
  0
VERTEX
  5
140
330
17
100
AcDbEntity
  8
metal
100
AcDbVertex
100
AcDb2dVertex
 10
18987.45836551854
 20
870.0
 30
0.0
 70
0
  0
VERTEX
  5
141
330
17
100
AcDbEntity
  8
metal
100
AcDbVertex
100
AcDb2dVertex
 10
18627.45836551854
 20
870.0
 30
0.0
 70
0
  0
VERTEX
  5
142
330
17
100
AcDbEntity
  8
metal
100
AcDbVertex
100
AcDb2dVertex
 10
18627.45836551854
 20
1230.0
 30
0.0
 70
0
  0
SEQEND
  5
13D
330
17
100
AcDbEntity
  8
metal
  0
POLYLINE
  5
143
330
17
100
AcDbEntity
  8
metal
100
AcDb2dPolyline
 66
1
 10
0.0
 20
0.0
 30
0.0
 70
1
  0
VERTEX
  5
145
330
17
100
AcDbEntity
  8
metal
100
AcDbVertex
100
AcDb2dVertex
 10
-18987.45836551854
 20
1230.0
 30
0.0
 70
0
  0
VERTEX
  5
146
330
17
100
AcDbEntity
  8
metal
100
AcDbVertex
100
AcDb2dVertex
 10
-18627.45836551854
 20
1230.0
 30
0.0
 70
0
  0
VERTEX
  5
147
330
17
100
AcDbEntity
  8
metal
100
AcDbVertex
100
AcDb2dVertex
 10
-18627.45836551854
 20
870.0
 30
0.0
 70
0
  0
VERTEX
  5
148
330
17
100
AcDbEntity
  8
metal
100
AcDbVertex
100
AcDb2dVertex
 10
-18987.45836551854
 20
870.0
 30
0.0
 70
0
  0
VERTEX
  5
149
330
17
100
AcDbEntity
  8
metal
100
AcDbVertex
100
AcDb2dVertex
 10
-18987.45836551854
 20
1230.0
 30
0.0
 70
0
  0
SEQEND
  5
144
330
17
100
AcDbEntity
  8
metal
  0
POLYLINE
  5
14A
330
17
100
AcDbEntity
  8
etch
100
AcDb2dPolyline
 66
1
 10
0.0
 20
0.0
 30
0.0
 70
1
  0
VERTEX
  5
14C
330
17
100
AcDbEntity
  8
etch
100
AcDbVertex
100
AcDb2dVertex
 10
18632.45836551854
 20
1225.0
 30
0.0
 70
0
  0
VERTEX
  5
14D
330
17
100
AcDbEntity
  8
etch
100
AcDbVertex
100
AcDb2dVertex
 10
18982.45836551854
 20
1225.0
 30
0.0
 70
0
  0
VERTEX
  5
14E
330
17
100
AcDbEntity
  8
etch
100
AcDbVertex
100
AcDb2dVertex
 10
18982.45836551854
 20
875.0
 30
0.0
 70
0
  0
VERTEX
  5
14F
330
17
100
AcDbEntity
  8
etch
100
AcDbVertex
100
AcDb2dVertex
 10
18632.45836551854
 20
875.0
 30
0.0
 70
0
  0
VERTEX
  5
150
330
17
100
AcDbEntity
  8
etch
100
AcDbVertex
100
AcDb2dVertex
 10
18632.45836551854
 20
1225.0
 30
0.0
 70
0
  0
SEQEND
  5
14B
330
17
100
AcDbEntity
  8
etch
  0
POLYLINE
  5
151
330
17
100
AcDbEntity
  8
etch
100
AcDb2dPolyline
 66
1
 10
0.0
 20
0.0
 30
0.0
 70
1
  0
VERTEX
  5
153
330
17
100
AcDbEntity
  8
etch
100
AcDbVertex
100
AcDb2dVertex
 10
-18982.45836551854
 20
1225.0
 30
0.0
 70
0
  0
VERTEX
  5
154
330
17
100
AcDbEntity
  8
etch
100
AcDbVertex
100
AcDb2dVertex
 10
-18632.45836551854
 20
1225.0
 30
0.0
 70
0
  0
VERTEX
  5
155
330
17
100
AcDbEntity
  8
etch
100
AcDbVertex
100
AcDb2dVertex
 10
-18632.45836551854
 20
875.0
 30
0.0
 70
0
  0
VERTEX
  5
156
330
17
100
AcDbEntity
  8
etch
100
AcDbVertex
100
AcDb2dVertex
 10
-18982.45836551854
 20
875.0
 30
0.0
 70
0
  0
VERTEX
  5
157
330
17
100
AcDbEntity
  8
etch
100
AcDbVertex
100
AcDb2dVertex
 10
-18982.45836551854
 20
1225.0
 30
0.0
 70
0
  0
SEQEND
  5
152
330
17
100
AcDbEntity
  8
etch
  0
POLYLINE
  5
158
330
17
100
AcDbEntity
  8
metal
100
AcDb2dPolyline
 66
1
 10
0.0
 20
0.0
 30
0.0
 70
1
  0
VERTEX
  5
15A
330
17
100
AcDbEntity
  8
metal
100
AcDbVertex
100
AcDb2dVertex
 10
17927.45836551854
 20
1230.0
 30
0.0
 70
0
  0
VERTEX
  5
15B
330
17
100
AcDbEntity
  8
metal
100
AcDbVertex
100
AcDb2dVertex
 10
18287.45836551854
 20
1230.0
 30
0.0
 70
0
  0
VERTEX
  5
15C
330
17
100
AcDbEntity
  8
metal
100
AcDbVertex
100
AcDb2dVertex
 10
18287.45836551854
 20
870.0
 30
0.0
 70
0
  0
VERTEX
  5
15D
330
17
100
AcDbEntity
  8
metal
100
AcDbVertex
100
AcDb2dVertex
 10
17927.45836551854
 20
870.0
 30
0.0
 70
0
  0
VERTEX
  5
15E
330
17
100
AcDbEntity
  8
metal
100
AcDbVertex
100
AcDb2dVertex
 10
17927.45836551854
 20
1230.0
 30
0.0
 70
0
  0
SEQEND
  5
159
330
17
100
AcDbEntity
  8
metal
  0
POLYLINE
  5
15F
330
17
100
AcDbEntity
  8
metal
100
AcDb2dPolyline
 66
1
 10
0.0
 20
0.0
 30
0.0
 70
1
  0
VERTEX
  5
161
330
17
100
AcDbEntity
  8
metal
100
AcDbVertex
100
AcDb2dVertex
 10
-18287.45836551854
 20
1230.0
 30
0.0
 70
0
  0
VERTEX
  5
162
330
17
100
AcDbEntity
  8
metal
100
AcDbVertex
100
AcDb2dVertex
 10
-17927.45836551854
 20
1230.0
 30
0.0
 70
0
  0
VERTEX
  5
163
330
17
100
AcDbEntity
  8
metal
100
AcDbVertex
100
AcDb2dVertex
 10
-17927.45836551854
 20
870.0
 30
0.0
 70
0
  0
VERTEX
  5
164
330
17
100
AcDbEntity
  8
metal
100
AcDbVertex
100
AcDb2dVertex
 10
-18287.45836551854
 20
870.0
 30
0.0
 70
0
  0
VERTEX
  5
165
330
17
100
AcDbEntity
  8
metal
100
AcDbVertex
100
AcDb2dVertex
 10
-18287.45836551854
 20
1230.0
 30
0.0
 70
0
  0
SEQEND
  5
160
330
17
100
AcDbEntity
  8
metal
  0
POLYLINE
  5
166
330
17
100
AcDbEntity
  8
etch
100
AcDb2dPolyline
 66
1
 10
0.0
 20
0.0
 30
0.0
 70
1
  0
VERTEX
  5
168
330
17
100
AcDbEntity
  8
etch
100
AcDbVertex
100
AcDb2dVertex
 10
17932.45836551854
 20
1225.0
 30
0.0
 70
0
  0
VERTEX
  5
169
330
17
100
AcDbEntity
  8
etch
100
AcDbVertex
100
AcDb2dVertex
 10
18282.45836551854
 20
1225.0
 30
0.0
 70
0
  0
VERTEX
  5
16A
330
17
100
AcDbEntity
  8
etch
100
AcDbVertex
100
AcDb2dVertex
 10
18282.45836551854
 20
875.0
 30
0.0
 70
0
  0
VERTEX
  5
16B
330
17
100
AcDbEntity
  8
etch
100
AcDbVertex
100
AcDb2dVertex
 10
17932.45836551854
 20
875.0
 30
0.0
 70
0
  0
VERTEX
  5
16C
330
17
100
AcDbEntity
  8
etch
100
AcDbVertex
100
AcDb2dVertex
 10
17932.45836551854
 20
1225.0
 30
0.0
 70
0
  0
SEQEND
  5
167
330
17
100
AcDbEntity
  8
etch
  0
POLYLINE
  5
16D
330
17
100
AcDbEntity
  8
etch
100
AcDb2dPolyline
 66
1
 10
0.0
 20
0.0
 30
0.0
 70
1
  0
VERTEX
  5
16F
330
17
100
AcDbEntity
  8
etch
100
AcDbVertex
100
AcDb2dVertex
 10
-18282.45836551854
 20
1225.0
 30
0.0
 70
0
  0
VERTEX
  5
170
330
17
100
AcDbEntity
  8
etch
100
AcDbVertex
100
AcDb2dVertex
 10
-17932.45836551854
 20
1225.0
 30
0.0
 70
0
  0
VERTEX
  5
171
330
17
100
AcDbEntity
  8
etch
100
AcDbVertex
100
AcDb2dVertex
 10
-17932.45836551854
 20
875.0
 30
0.0
 70
0
  0
VERTEX
  5
172
330
17
100
AcDbEntity
  8
etch
100
AcDbVertex
100
AcDb2dVertex
 10
-18282.45836551854
 20
875.0
 30
0.0
 70
0
  0
VERTEX
  5
173
330
17
100
AcDbEntity
  8
etch
100
AcDbVertex
100
AcDb2dVertex
 10
-18282.45836551854
 20
1225.0
 30
0.0
 70
0
  0
SEQEND
  5
16E
330
17
100
AcDbEntity
  8
etch
  0
POLYLINE
  5
174
330
17
100
AcDbEntity
  8
metal
100
AcDb2dPolyline
 66
1
 10
0.0
 20
0.0
 30
0.0
 70
1
  0
VERTEX
  5
176
330
17
100
AcDbEntity
  8
metal
100
AcDbVertex
100
AcDb2dVertex
 10
17227.45836551854
 20
1230.0
 30
0.0
 70
0
  0
VERTEX
  5
177
330
17
100
AcDbEntity
  8
metal
100
AcDbVertex
100
AcDb2dVertex
 10
17587.45836551854
 20
1230.0
 30
0.0
 70
0
  0
VERTEX
  5
178
330
17
100
AcDbEntity
  8
metal
100
AcDbVertex
100
AcDb2dVertex
 10
17587.45836551854
 20
870.0
 30
0.0
 70
0
  0
VERTEX
  5
179
330
17
100
AcDbEntity
  8
metal
100
AcDbVertex
100
AcDb2dVertex
 10
17227.45836551854
 20
870.0
 30
0.0
 70
0
  0
VERTEX
  5
17A
330
17
100
AcDbEntity
  8
metal
100
AcDbVertex
100
AcDb2dVertex
 10
17227.45836551854
 20
1230.0
 30
0.0
 70
0
  0
SEQEND
  5
175
330
17
100
AcDbEntity
  8
metal
  0
POLYLINE
  5
17B
330
17
100
AcDbEntity
  8
metal
100
AcDb2dPolyline
 66
1
 10
0.0
 20
0.0
 30
0.0
 70
1
  0
VERTEX
  5
17D
330
17
100
AcDbEntity
  8
metal
100
AcDbVertex
100
AcDb2dVertex
 10
-17587.45836551854
 20
1230.0
 30
0.0
 70
0
  0
VERTEX
  5
17E
330
17
100
AcDbEntity
  8
metal
100
AcDbVertex
100
AcDb2dVertex
 10
-17227.45836551854
 20
1230.0
 30
0.0
 70
0
  0
VERTEX
  5
17F
330
17
100
AcDbEntity
  8
metal
100
AcDbVertex
100
AcDb2dVertex
 10
-17227.45836551854
 20
870.0
 30
0.0
 70
0
  0
VERTEX
  5
180
330
17
100
AcDbEntity
  8
metal
100
AcDbVertex
100
AcDb2dVertex
 10
-17587.45836551854
 20
870.0
 30
0.0
 70
0
  0
VERTEX
  5
181
330
17
100
AcDbEntity
  8
metal
100
AcDbVertex
100
AcDb2dVertex
 10
-17587.45836551854
 20
1230.0
 30
0.0
 70
0
  0
SEQEND
  5
17C
330
17
100
AcDbEntity
  8
metal
  0
POLYLINE
  5
182
330
17
100
AcDbEntity
  8
etch
100
AcDb2dPolyline
 66
1
 10
0.0
 20
0.0
 30
0.0
 70
1
  0
VERTEX
  5
184
330
17
100
AcDbEntity
  8
etch
100
AcDbVertex
100
AcDb2dVertex
 10
17232.45836551854
 20
1225.0
 30
0.0
 70
0
  0
VERTEX
  5
185
330
17
100
AcDbEntity
  8
etch
100
AcDbVertex
100
AcDb2dVertex
 10
17582.45836551854
 20
1225.0
 30
0.0
 70
0
  0
VERTEX
  5
186
330
17
100
AcDbEntity
  8
etch
100
AcDbVertex
100
AcDb2dVertex
 10
17582.45836551854
 20
875.0
 30
0.0
 70
0
  0
VERTEX
  5
187
330
17
100
AcDbEntity
  8
etch
100
AcDbVertex
100
AcDb2dVertex
 10
17232.45836551854
 20
875.0
 30
0.0
 70
0
  0
VERTEX
  5
188
330
17
100
AcDbEntity
  8
etch
100
AcDbVertex
100
AcDb2dVertex
 10
17232.45836551854
 20
1225.0
 30
0.0
 70
0
  0
SEQEND
  5
183
330
17
100
AcDbEntity
  8
etch
  0
POLYLINE
  5
189
330
17
100
AcDbEntity
  8
etch
100
AcDb2dPolyline
 66
1
 10
0.0
 20
0.0
 30
0.0
 70
1
  0
VERTEX
  5
18B
330
17
100
AcDbEntity
  8
etch
100
AcDbVertex
100
AcDb2dVertex
 10
-17582.45836551854
 20
1225.0
 30
0.0
 70
0
  0
VERTEX
  5
18C
330
17
100
AcDbEntity
  8
etch
100
AcDbVertex
100
AcDb2dVertex
 10
-17232.45836551854
 20
1225.0
 30
0.0
 70
0
  0
VERTEX
  5
18D
330
17
100
AcDbEntity
  8
etch
100
AcDbVertex
100
AcDb2dVertex
 10
-17232.45836551854
 20
875.0
 30
0.0
 70
0
  0
VERTEX
  5
18E
330
17
100
AcDbEntity
  8
etch
100
AcDbVertex
100
AcDb2dVertex
 10
-17582.45836551854
 20
875.0
 30
0.0
 70
0
  0
VERTEX
  5
18F
330
17
100
AcDbEntity
  8
etch
100
AcDbVertex
100
AcDb2dVertex
 10
-17582.45836551854
 20
1225.0
 30
0.0
 70
0
  0
SEQEND
  5
18A
330
17
100
AcDbEntity
  8
etch
  0
POLYLINE
  5
190
330
17
100
AcDbEntity
  8
metal
100
AcDb2dPolyline
 66
1
 10
0.0
 20
0.0
 30
0.0
 70
1
  0
VERTEX
  5
192
330
17
100
AcDbEntity
  8
metal
100
AcDbVertex
100
AcDb2dVertex
 10
16527.45836551854
 20
1230.0
 30
0.0
 70
0
  0
VERTEX
  5
193
330
17
100
AcDbEntity
  8
metal
100
AcDbVertex
100
AcDb2dVertex
 10
16887.45836551854
 20
1230.0
 30
0.0
 70
0
  0
VERTEX
  5
194
330
17
100
AcDbEntity
  8
metal
100
AcDbVertex
100
AcDb2dVertex
 10
16887.45836551854
 20
870.0
 30
0.0
 70
0
  0
VERTEX
  5
195
330
17
100
AcDbEntity
  8
metal
100
AcDbVertex
100
AcDb2dVertex
 10
16527.45836551854
 20
870.0
 30
0.0
 70
0
  0
VERTEX
  5
196
330
17
100
AcDbEntity
  8
metal
100
AcDbVertex
100
AcDb2dVertex
 10
16527.45836551854
 20
1230.0
 30
0.0
 70
0
  0
SEQEND
  5
191
330
17
100
AcDbEntity
  8
metal
  0
POLYLINE
  5
197
330
17
100
AcDbEntity
  8
metal
100
AcDb2dPolyline
 66
1
 10
0.0
 20
0.0
 30
0.0
 70
1
  0
VERTEX
  5
199
330
17
100
AcDbEntity
  8
metal
100
AcDbVertex
100
AcDb2dVertex
 10
-16887.45836551854
 20
1230.0
 30
0.0
 70
0
  0
VERTEX
  5
19A
330
17
100
AcDbEntity
  8
metal
100
AcDbVertex
100
AcDb2dVertex
 10
-16527.45836551854
 20
1230.0
 30
0.0
 70
0
  0
VERTEX
  5
19B
330
17
100
AcDbEntity
  8
metal
100
AcDbVertex
100
AcDb2dVertex
 10
-16527.45836551854
 20
870.0
 30
0.0
 70
0
  0
VERTEX
  5
19C
330
17
100
AcDbEntity
  8
metal
100
AcDbVertex
100
AcDb2dVertex
 10
-16887.45836551854
 20
870.0
 30
0.0
 70
0
  0
VERTEX
  5
19D
330
17
100
AcDbEntity
  8
metal
100
AcDbVertex
100
AcDb2dVertex
 10
-16887.45836551854
 20
1230.0
 30
0.0
 70
0
  0
SEQEND
  5
198
330
17
100
AcDbEntity
  8
metal
  0
POLYLINE
  5
19E
330
17
100
AcDbEntity
  8
etch
100
AcDb2dPolyline
 66
1
 10
0.0
 20
0.0
 30
0.0
 70
1
  0
VERTEX
  5
1A0
330
17
100
AcDbEntity
  8
etch
100
AcDbVertex
100
AcDb2dVertex
 10
16532.45836551854
 20
1225.0
 30
0.0
 70
0
  0
VERTEX
  5
1A1
330
17
100
AcDbEntity
  8
etch
100
AcDbVertex
100
AcDb2dVertex
 10
16882.45836551854
 20
1225.0
 30
0.0
 70
0
  0
VERTEX
  5
1A2
330
17
100
AcDbEntity
  8
etch
100
AcDbVertex
100
AcDb2dVertex
 10
16882.45836551854
 20
875.0
 30
0.0
 70
0
  0
VERTEX
  5
1A3
330
17
100
AcDbEntity
  8
etch
100
AcDbVertex
100
AcDb2dVertex
 10
16532.45836551854
 20
875.0
 30
0.0
 70
0
  0
VERTEX
  5
1A4
330
17
100
AcDbEntity
  8
etch
100
AcDbVertex
100
AcDb2dVertex
 10
16532.45836551854
 20
1225.0
 30
0.0
 70
0
  0
SEQEND
  5
19F
330
17
100
AcDbEntity
  8
etch
  0
POLYLINE
  5
1A5
330
17
100
AcDbEntity
  8
etch
100
AcDb2dPolyline
 66
1
 10
0.0
 20
0.0
 30
0.0
 70
1
  0
VERTEX
  5
1A7
330
17
100
AcDbEntity
  8
etch
100
AcDbVertex
100
AcDb2dVertex
 10
-16882.45836551854
 20
1225.0
 30
0.0
 70
0
  0
VERTEX
  5
1A8
330
17
100
AcDbEntity
  8
etch
100
AcDbVertex
100
AcDb2dVertex
 10
-16532.45836551854
 20
1225.0
 30
0.0
 70
0
  0
VERTEX
  5
1A9
330
17
100
AcDbEntity
  8
etch
100
AcDbVertex
100
AcDb2dVertex
 10
-16532.45836551854
 20
875.0
 30
0.0
 70
0
  0
VERTEX
  5
1AA
330
17
100
AcDbEntity
  8
etch
100
AcDbVertex
100
AcDb2dVertex
 10
-16882.45836551854
 20
875.0
 30
0.0
 70
0
  0
VERTEX
  5
1AB
330
17
100
AcDbEntity
  8
etch
100
AcDbVertex
100
AcDb2dVertex
 10
-16882.45836551854
 20
1225.0
 30
0.0
 70
0
  0
SEQEND
  5
1A6
330
17
100
AcDbEntity
  8
etch
  0
POLYLINE
  5
1AC
330
17
100
AcDbEntity
  8
metal
100
AcDb2dPolyline
 66
1
 10
0.0
 20
0.0
 30
0.0
 70
1
  0
VERTEX
  5
1AE
330
17
100
AcDbEntity
  8
metal
100
AcDbVertex
100
AcDb2dVertex
 10
18627.45836551854
 20
530.0
 30
0.0
 70
0
  0
VERTEX
  5
1AF
330
17
100
AcDbEntity
  8
metal
100
AcDbVertex
100
AcDb2dVertex
 10
18987.45836551854
 20
530.0
 30
0.0
 70
0
  0
VERTEX
  5
1B0
330
17
100
AcDbEntity
  8
metal
100
AcDbVertex
100
AcDb2dVertex
 10
18987.45836551854
 20
170.0
 30
0.0
 70
0
  0
VERTEX
  5
1B1
330
17
100
AcDbEntity
  8
metal
100
AcDbVertex
100
AcDb2dVertex
 10
18627.45836551854
 20
170.0
 30
0.0
 70
0
  0
VERTEX
  5
1B2
330
17
100
AcDbEntity
  8
metal
100
AcDbVertex
100
AcDb2dVertex
 10
18627.45836551854
 20
530.0
 30
0.0
 70
0
  0
SEQEND
  5
1AD
330
17
100
AcDbEntity
  8
metal
  0
POLYLINE
  5
1B3
330
17
100
AcDbEntity
  8
metal
100
AcDb2dPolyline
 66
1
 10
0.0
 20
0.0
 30
0.0
 70
1
  0
VERTEX
  5
1B5
330
17
100
AcDbEntity
  8
metal
100
AcDbVertex
100
AcDb2dVertex
 10
-18987.45836551854
 20
530.0
 30
0.0
 70
0
  0
VERTEX
  5
1B6
330
17
100
AcDbEntity
  8
metal
100
AcDbVertex
100
AcDb2dVertex
 10
-18627.45836551854
 20
530.0
 30
0.0
 70
0
  0
VERTEX
  5
1B7
330
17
100
AcDbEntity
  8
metal
100
AcDbVertex
100
AcDb2dVertex
 10
-18627.45836551854
 20
170.0
 30
0.0
 70
0
  0
VERTEX
  5
1B8
330
17
100
AcDbEntity
  8
metal
100
AcDbVertex
100
AcDb2dVertex
 10
-18987.45836551854
 20
170.0
 30
0.0
 70
0
  0
VERTEX
  5
1B9
330
17
100
AcDbEntity
  8
metal
100
AcDbVertex
100
AcDb2dVertex
 10
-18987.45836551854
 20
530.0
 30
0.0
 70
0
  0
SEQEND
  5
1B4
330
17
100
AcDbEntity
  8
metal
  0
POLYLINE
  5
1BA
330
17
100
AcDbEntity
  8
etch
100
AcDb2dPolyline
 66
1
 10
0.0
 20
0.0
 30
0.0
 70
1
  0
VERTEX
  5
1BC
330
17
100
AcDbEntity
  8
etch
100
AcDbVertex
100
AcDb2dVertex
 10
18632.45836551854
 20
525.0
 30
0.0
 70
0
  0
VERTEX
  5
1BD
330
17
100
AcDbEntity
  8
etch
100
AcDbVertex
100
AcDb2dVertex
 10
18982.45836551854
 20
525.0
 30
0.0
 70
0
  0
VERTEX
  5
1BE
330
17
100
AcDbEntity
  8
etch
100
AcDbVertex
100
AcDb2dVertex
 10
18982.45836551854
 20
175.0
 30
0.0
 70
0
  0
VERTEX
  5
1BF
330
17
100
AcDbEntity
  8
etch
100
AcDbVertex
100
AcDb2dVertex
 10
18632.45836551854
 20
175.0
 30
0.0
 70
0
  0
VERTEX
  5
1C0
330
17
100
AcDbEntity
  8
etch
100
AcDbVertex
100
AcDb2dVertex
 10
18632.45836551854
 20
525.0
 30
0.0
 70
0
  0
SEQEND
  5
1BB
330
17
100
AcDbEntity
  8
etch
  0
POLYLINE
  5
1C1
330
17
100
AcDbEntity
  8
etch
100
AcDb2dPolyline
 66
1
 10
0.0
 20
0.0
 30
0.0
 70
1
  0
VERTEX
  5
1C3
330
17
100
AcDbEntity
  8
etch
100
AcDbVertex
100
AcDb2dVertex
 10
-18982.45836551854
 20
525.0
 30
0.0
 70
0
  0
VERTEX
  5
1C4
330
17
100
AcDbEntity
  8
etch
100
AcDbVertex
100
AcDb2dVertex
 10
-18632.45836551854
 20
525.0
 30
0.0
 70
0
  0
VERTEX
  5
1C5
330
17
100
AcDbEntity
  8
etch
100
AcDbVertex
100
AcDb2dVertex
 10
-18632.45836551854
 20
175.0
 30
0.0
 70
0
  0
VERTEX
  5
1C6
330
17
100
AcDbEntity
  8
etch
100
AcDbVertex
100
AcDb2dVertex
 10
-18982.45836551854
 20
175.0
 30
0.0
 70
0
  0
VERTEX
  5
1C7
330
17
100
AcDbEntity
  8
etch
100
AcDbVertex
100
AcDb2dVertex
 10
-18982.45836551854
 20
525.0
 30
0.0
 70
0
  0
SEQEND
  5
1C2
330
17
100
AcDbEntity
  8
etch
  0
POLYLINE
  5
1C8
330
17
100
AcDbEntity
  8
metal
100
AcDb2dPolyline
 66
1
 10
0.0
 20
0.0
 30
0.0
 70
1
  0
VERTEX
  5
1CA
330
17
100
AcDbEntity
  8
metal
100
AcDbVertex
100
AcDb2dVertex
 10
17927.45836551854
 20
530.0
 30
0.0
 70
0
  0
VERTEX
  5
1CB
330
17
100
AcDbEntity
  8
metal
100
AcDbVertex
100
AcDb2dVertex
 10
18287.45836551854
 20
530.0
 30
0.0
 70
0
  0
VERTEX
  5
1CC
330
17
100
AcDbEntity
  8
metal
100
AcDbVertex
100
AcDb2dVertex
 10
18287.45836551854
 20
170.0
 30
0.0
 70
0
  0
VERTEX
  5
1CD
330
17
100
AcDbEntity
  8
metal
100
AcDbVertex
100
AcDb2dVertex
 10
17927.45836551854
 20
170.0
 30
0.0
 70
0
  0
VERTEX
  5
1CE
330
17
100
AcDbEntity
  8
metal
100
AcDbVertex
100
AcDb2dVertex
 10
17927.45836551854
 20
530.0
 30
0.0
 70
0
  0
SEQEND
  5
1C9
330
17
100
AcDbEntity
  8
metal
  0
POLYLINE
  5
1CF
330
17
100
AcDbEntity
  8
metal
100
AcDb2dPolyline
 66
1
 10
0.0
 20
0.0
 30
0.0
 70
1
  0
VERTEX
  5
1D1
330
17
100
AcDbEntity
  8
metal
100
AcDbVertex
100
AcDb2dVertex
 10
-18287.45836551854
 20
530.0
 30
0.0
 70
0
  0
VERTEX
  5
1D2
330
17
100
AcDbEntity
  8
metal
100
AcDbVertex
100
AcDb2dVertex
 10
-17927.45836551854
 20
530.0
 30
0.0
 70
0
  0
VERTEX
  5
1D3
330
17
100
AcDbEntity
  8
metal
100
AcDbVertex
100
AcDb2dVertex
 10
-17927.45836551854
 20
170.0
 30
0.0
 70
0
  0
VERTEX
  5
1D4
330
17
100
AcDbEntity
  8
metal
100
AcDbVertex
100
AcDb2dVertex
 10
-18287.45836551854
 20
170.0
 30
0.0
 70
0
  0
VERTEX
  5
1D5
330
17
100
AcDbEntity
  8
metal
100
AcDbVertex
100
AcDb2dVertex
 10
-18287.45836551854
 20
530.0
 30
0.0
 70
0
  0
SEQEND
  5
1D0
330
17
100
AcDbEntity
  8
metal
  0
POLYLINE
  5
1D6
330
17
100
AcDbEntity
  8
etch
100
AcDb2dPolyline
 66
1
 10
0.0
 20
0.0
 30
0.0
 70
1
  0
VERTEX
  5
1D8
330
17
100
AcDbEntity
  8
etch
100
AcDbVertex
100
AcDb2dVertex
 10
17932.45836551854
 20
525.0
 30
0.0
 70
0
  0
VERTEX
  5
1D9
330
17
100
AcDbEntity
  8
etch
100
AcDbVertex
100
AcDb2dVertex
 10
18282.45836551854
 20
525.0
 30
0.0
 70
0
  0
VERTEX
  5
1DA
330
17
100
AcDbEntity
  8
etch
100
AcDbVertex
100
AcDb2dVertex
 10
18282.45836551854
 20
175.0
 30
0.0
 70
0
  0
VERTEX
  5
1DB
330
17
100
AcDbEntity
  8
etch
100
AcDbVertex
100
AcDb2dVertex
 10
17932.45836551854
 20
175.0
 30
0.0
 70
0
  0
VERTEX
  5
1DC
330
17
100
AcDbEntity
  8
etch
100
AcDbVertex
100
AcDb2dVertex
 10
17932.45836551854
 20
525.0
 30
0.0
 70
0
  0
SEQEND
  5
1D7
330
17
100
AcDbEntity
  8
etch
  0
POLYLINE
  5
1DD
330
17
100
AcDbEntity
  8
etch
100
AcDb2dPolyline
 66
1
 10
0.0
 20
0.0
 30
0.0
 70
1
  0
VERTEX
  5
1DF
330
17
100
AcDbEntity
  8
etch
100
AcDbVertex
100
AcDb2dVertex
 10
-18282.45836551854
 20
525.0
 30
0.0
 70
0
  0
VERTEX
  5
1E0
330
17
100
AcDbEntity
  8
etch
100
AcDbVertex
100
AcDb2dVertex
 10
-17932.45836551854
 20
525.0
 30
0.0
 70
0
  0
VERTEX
  5
1E1
330
17
100
AcDbEntity
  8
etch
100
AcDbVertex
100
AcDb2dVertex
 10
-17932.45836551854
 20
175.0
 30
0.0
 70
0
  0
VERTEX
  5
1E2
330
17
100
AcDbEntity
  8
etch
100
AcDbVertex
100
AcDb2dVertex
 10
-18282.45836551854
 20
175.0
 30
0.0
 70
0
  0
VERTEX
  5
1E3
330
17
100
AcDbEntity
  8
etch
100
AcDbVertex
100
AcDb2dVertex
 10
-18282.45836551854
 20
525.0
 30
0.0
 70
0
  0
SEQEND
  5
1DE
330
17
100
AcDbEntity
  8
etch
  0
POLYLINE
  5
1E4
330
17
100
AcDbEntity
  8
metal
100
AcDb2dPolyline
 66
1
 10
0.0
 20
0.0
 30
0.0
 70
1
  0
VERTEX
  5
1E6
330
17
100
AcDbEntity
  8
metal
100
AcDbVertex
100
AcDb2dVertex
 10
17227.45836551854
 20
530.0
 30
0.0
 70
0
  0
VERTEX
  5
1E7
330
17
100
AcDbEntity
  8
metal
100
AcDbVertex
100
AcDb2dVertex
 10
17587.45836551854
 20
530.0
 30
0.0
 70
0
  0
VERTEX
  5
1E8
330
17
100
AcDbEntity
  8
metal
100
AcDbVertex
100
AcDb2dVertex
 10
17587.45836551854
 20
170.0
 30
0.0
 70
0
  0
VERTEX
  5
1E9
330
17
100
AcDbEntity
  8
metal
100
AcDbVertex
100
AcDb2dVertex
 10
17227.45836551854
 20
170.0
 30
0.0
 70
0
  0
VERTEX
  5
1EA
330
17
100
AcDbEntity
  8
metal
100
AcDbVertex
100
AcDb2dVertex
 10
17227.45836551854
 20
530.0
 30
0.0
 70
0
  0
SEQEND
  5
1E5
330
17
100
AcDbEntity
  8
metal
  0
POLYLINE
  5
1EB
330
17
100
AcDbEntity
  8
metal
100
AcDb2dPolyline
 66
1
 10
0.0
 20
0.0
 30
0.0
 70
1
  0
VERTEX
  5
1ED
330
17
100
AcDbEntity
  8
metal
100
AcDbVertex
100
AcDb2dVertex
 10
-17587.45836551854
 20
530.0
 30
0.0
 70
0
  0
VERTEX
  5
1EE
330
17
100
AcDbEntity
  8
metal
100
AcDbVertex
100
AcDb2dVertex
 10
-17227.45836551854
 20
530.0
 30
0.0
 70
0
  0
VERTEX
  5
1EF
330
17
100
AcDbEntity
  8
metal
100
AcDbVertex
100
AcDb2dVertex
 10
-17227.45836551854
 20
170.0
 30
0.0
 70
0
  0
VERTEX
  5
1F0
330
17
100
AcDbEntity
  8
metal
100
AcDbVertex
100
AcDb2dVertex
 10
-17587.45836551854
 20
170.0
 30
0.0
 70
0
  0
VERTEX
  5
1F1
330
17
100
AcDbEntity
  8
metal
100
AcDbVertex
100
AcDb2dVertex
 10
-17587.45836551854
 20
530.0
 30
0.0
 70
0
  0
SEQEND
  5
1EC
330
17
100
AcDbEntity
  8
metal
  0
POLYLINE
  5
1F2
330
17
100
AcDbEntity
  8
etch
100
AcDb2dPolyline
 66
1
 10
0.0
 20
0.0
 30
0.0
 70
1
  0
VERTEX
  5
1F4
330
17
100
AcDbEntity
  8
etch
100
AcDbVertex
100
AcDb2dVertex
 10
17232.45836551854
 20
525.0
 30
0.0
 70
0
  0
VERTEX
  5
1F5
330
17
100
AcDbEntity
  8
etch
100
AcDbVertex
100
AcDb2dVertex
 10
17582.45836551854
 20
525.0
 30
0.0
 70
0
  0
VERTEX
  5
1F6
330
17
100
AcDbEntity
  8
etch
100
AcDbVertex
100
AcDb2dVertex
 10
17582.45836551854
 20
175.0
 30
0.0
 70
0
  0
VERTEX
  5
1F7
330
17
100
AcDbEntity
  8
etch
100
AcDbVertex
100
AcDb2dVertex
 10
17232.45836551854
 20
175.0
 30
0.0
 70
0
  0
VERTEX
  5
1F8
330
17
100
AcDbEntity
  8
etch
100
AcDbVertex
100
AcDb2dVertex
 10
17232.45836551854
 20
525.0
 30
0.0
 70
0
  0
SEQEND
  5
1F3
330
17
100
AcDbEntity
  8
etch
  0
POLYLINE
  5
1F9
330
17
100
AcDbEntity
  8
etch
100
AcDb2dPolyline
 66
1
 10
0.0
 20
0.0
 30
0.0
 70
1
  0
VERTEX
  5
1FB
330
17
100
AcDbEntity
  8
etch
100
AcDbVertex
100
AcDb2dVertex
 10
-17582.45836551854
 20
525.0
 30
0.0
 70
0
  0
VERTEX
  5
1FC
330
17
100
AcDbEntity
  8
etch
100
AcDbVertex
100
AcDb2dVertex
 10
-17232.45836551854
 20
525.0
 30
0.0
 70
0
  0
VERTEX
  5
1FD
330
17
100
AcDbEntity
  8
etch
100
AcDbVertex
100
AcDb2dVertex
 10
-17232.45836551854
 20
175.0
 30
0.0
 70
0
  0
VERTEX
  5
1FE
330
17
100
AcDbEntity
  8
etch
100
AcDbVertex
100
AcDb2dVertex
 10
-17582.45836551854
 20
175.0
 30
0.0
 70
0
  0
VERTEX
  5
1FF
330
17
100
AcDbEntity
  8
etch
100
AcDbVertex
100
AcDb2dVertex
 10
-17582.45836551854
 20
525.0
 30
0.0
 70
0
  0
SEQEND
  5
1FA
330
17
100
AcDbEntity
  8
etch
  0
POLYLINE
  5
200
330
17
100
AcDbEntity
  8
metal
100
AcDb2dPolyline
 66
1
 10
0.0
 20
0.0
 30
0.0
 70
1
  0
VERTEX
  5
202
330
17
100
AcDbEntity
  8
metal
100
AcDbVertex
100
AcDb2dVertex
 10
16527.45836551854
 20
530.0
 30
0.0
 70
0
  0
VERTEX
  5
203
330
17
100
AcDbEntity
  8
metal
100
AcDbVertex
100
AcDb2dVertex
 10
16887.45836551854
 20
530.0
 30
0.0
 70
0
  0
VERTEX
  5
204
330
17
100
AcDbEntity
  8
metal
100
AcDbVertex
100
AcDb2dVertex
 10
16887.45836551854
 20
170.0
 30
0.0
 70
0
  0
VERTEX
  5
205
330
17
100
AcDbEntity
  8
metal
100
AcDbVertex
100
AcDb2dVertex
 10
16527.45836551854
 20
170.0
 30
0.0
 70
0
  0
VERTEX
  5
206
330
17
100
AcDbEntity
  8
metal
100
AcDbVertex
100
AcDb2dVertex
 10
16527.45836551854
 20
530.0
 30
0.0
 70
0
  0
SEQEND
  5
201
330
17
100
AcDbEntity
  8
metal
  0
POLYLINE
  5
207
330
17
100
AcDbEntity
  8
metal
100
AcDb2dPolyline
 66
1
 10
0.0
 20
0.0
 30
0.0
 70
1
  0
VERTEX
  5
209
330
17
100
AcDbEntity
  8
metal
100
AcDbVertex
100
AcDb2dVertex
 10
-16887.45836551854
 20
530.0
 30
0.0
 70
0
  0
VERTEX
  5
20A
330
17
100
AcDbEntity
  8
metal
100
AcDbVertex
100
AcDb2dVertex
 10
-16527.45836551854
 20
530.0
 30
0.0
 70
0
  0
VERTEX
  5
20B
330
17
100
AcDbEntity
  8
metal
100
AcDbVertex
100
AcDb2dVertex
 10
-16527.45836551854
 20
170.0
 30
0.0
 70
0
  0
VERTEX
  5
20C
330
17
100
AcDbEntity
  8
metal
100
AcDbVertex
100
AcDb2dVertex
 10
-16887.45836551854
 20
170.0
 30
0.0
 70
0
  0
VERTEX
  5
20D
330
17
100
AcDbEntity
  8
metal
100
AcDbVertex
100
AcDb2dVertex
 10
-16887.45836551854
 20
530.0
 30
0.0
 70
0
  0
SEQEND
  5
208
330
17
100
AcDbEntity
  8
metal
  0
POLYLINE
  5
20E
330
17
100
AcDbEntity
  8
etch
100
AcDb2dPolyline
 66
1
 10
0.0
 20
0.0
 30
0.0
 70
1
  0
VERTEX
  5
210
330
17
100
AcDbEntity
  8
etch
100
AcDbVertex
100
AcDb2dVertex
 10
16532.45836551854
 20
525.0
 30
0.0
 70
0
  0
VERTEX
  5
211
330
17
100
AcDbEntity
  8
etch
100
AcDbVertex
100
AcDb2dVertex
 10
16882.45836551854
 20
525.0
 30
0.0
 70
0
  0
VERTEX
  5
212
330
17
100
AcDbEntity
  8
etch
100
AcDbVertex
100
AcDb2dVertex
 10
16882.45836551854
 20
175.0
 30
0.0
 70
0
  0
VERTEX
  5
213
330
17
100
AcDbEntity
  8
etch
100
AcDbVertex
100
AcDb2dVertex
 10
16532.45836551854
 20
175.0
 30
0.0
 70
0
  0
VERTEX
  5
214
330
17
100
AcDbEntity
  8
etch
100
AcDbVertex
100
AcDb2dVertex
 10
16532.45836551854
 20
525.0
 30
0.0
 70
0
  0
SEQEND
  5
20F
330
17
100
AcDbEntity
  8
etch
  0
POLYLINE
  5
215
330
17
100
AcDbEntity
  8
etch
100
AcDb2dPolyline
 66
1
 10
0.0
 20
0.0
 30
0.0
 70
1
  0
VERTEX
  5
217
330
17
100
AcDbEntity
  8
etch
100
AcDbVertex
100
AcDb2dVertex
 10
-16882.45836551854
 20
525.0
 30
0.0
 70
0
  0
VERTEX
  5
218
330
17
100
AcDbEntity
  8
etch
100
AcDbVertex
100
AcDb2dVertex
 10
-16532.45836551854
 20
525.0
 30
0.0
 70
0
  0
VERTEX
  5
219
330
17
100
AcDbEntity
  8
etch
100
AcDbVertex
100
AcDb2dVertex
 10
-16532.45836551854
 20
175.0
 30
0.0
 70
0
  0
VERTEX
  5
21A
330
17
100
AcDbEntity
  8
etch
100
AcDbVertex
100
AcDb2dVertex
 10
-16882.45836551854
 20
175.0
 30
0.0
 70
0
  0
VERTEX
  5
21B
330
17
100
AcDbEntity
  8
etch
100
AcDbVertex
100
AcDb2dVertex
 10
-16882.45836551854
 20
525.0
 30
0.0
 70
0
  0
SEQEND
  5
216
330
17
100
AcDbEntity
  8
etch
  0
POLYLINE
  5
21C
330
17
100
AcDbEntity
  8
metal
100
AcDb2dPolyline
 66
1
 10
0.0
 20
0.0
 30
0.0
 70
1
  0
VERTEX
  5
21E
330
17
100
AcDbEntity
  8
metal
100
AcDbVertex
100
AcDb2dVertex
 10
18627.45836551854
 20
-170.0
 30
0.0
 70
0
  0
VERTEX
  5
21F
330
17
100
AcDbEntity
  8
metal
100
AcDbVertex
100
AcDb2dVertex
 10
18987.45836551854
 20
-170.0
 30
0.0
 70
0
  0
VERTEX
  5
220
330
17
100
AcDbEntity
  8
metal
100
AcDbVertex
100
AcDb2dVertex
 10
18987.45836551854
 20
-530.0
 30
0.0
 70
0
  0
VERTEX
  5
221
330
17
100
AcDbEntity
  8
metal
100
AcDbVertex
100
AcDb2dVertex
 10
18627.45836551854
 20
-530.0
 30
0.0
 70
0
  0
VERTEX
  5
222
330
17
100
AcDbEntity
  8
metal
100
AcDbVertex
100
AcDb2dVertex
 10
18627.45836551854
 20
-170.0
 30
0.0
 70
0
  0
SEQEND
  5
21D
330
17
100
AcDbEntity
  8
metal
  0
POLYLINE
  5
223
330
17
100
AcDbEntity
  8
metal
100
AcDb2dPolyline
 66
1
 10
0.0
 20
0.0
 30
0.0
 70
1
  0
VERTEX
  5
225
330
17
100
AcDbEntity
  8
metal
100
AcDbVertex
100
AcDb2dVertex
 10
-18987.45836551854
 20
-170.0
 30
0.0
 70
0
  0
VERTEX
  5
226
330
17
100
AcDbEntity
  8
metal
100
AcDbVertex
100
AcDb2dVertex
 10
-18627.45836551854
 20
-170.0
 30
0.0
 70
0
  0
VERTEX
  5
227
330
17
100
AcDbEntity
  8
metal
100
AcDbVertex
100
AcDb2dVertex
 10
-18627.45836551854
 20
-530.0
 30
0.0
 70
0
  0
VERTEX
  5
228
330
17
100
AcDbEntity
  8
metal
100
AcDbVertex
100
AcDb2dVertex
 10
-18987.45836551854
 20
-530.0
 30
0.0
 70
0
  0
VERTEX
  5
229
330
17
100
AcDbEntity
  8
metal
100
AcDbVertex
100
AcDb2dVertex
 10
-18987.45836551854
 20
-170.0
 30
0.0
 70
0
  0
SEQEND
  5
224
330
17
100
AcDbEntity
  8
metal
  0
POLYLINE
  5
22A
330
17
100
AcDbEntity
  8
etch
100
AcDb2dPolyline
 66
1
 10
0.0
 20
0.0
 30
0.0
 70
1
  0
VERTEX
  5
22C
330
17
100
AcDbEntity
  8
etch
100
AcDbVertex
100
AcDb2dVertex
 10
18632.45836551854
 20
-175.0
 30
0.0
 70
0
  0
VERTEX
  5
22D
330
17
100
AcDbEntity
  8
etch
100
AcDbVertex
100
AcDb2dVertex
 10
18982.45836551854
 20
-175.0
 30
0.0
 70
0
  0
VERTEX
  5
22E
330
17
100
AcDbEntity
  8
etch
100
AcDbVertex
100
AcDb2dVertex
 10
18982.45836551854
 20
-525.0
 30
0.0
 70
0
  0
VERTEX
  5
22F
330
17
100
AcDbEntity
  8
etch
100
AcDbVertex
100
AcDb2dVertex
 10
18632.45836551854
 20
-525.0
 30
0.0
 70
0
  0
VERTEX
  5
230
330
17
100
AcDbEntity
  8
etch
100
AcDbVertex
100
AcDb2dVertex
 10
18632.45836551854
 20
-175.0
 30
0.0
 70
0
  0
SEQEND
  5
22B
330
17
100
AcDbEntity
  8
etch
  0
POLYLINE
  5
231
330
17
100
AcDbEntity
  8
etch
100
AcDb2dPolyline
 66
1
 10
0.0
 20
0.0
 30
0.0
 70
1
  0
VERTEX
  5
233
330
17
100
AcDbEntity
  8
etch
100
AcDbVertex
100
AcDb2dVertex
 10
-18982.45836551854
 20
-175.0
 30
0.0
 70
0
  0
VERTEX
  5
234
330
17
100
AcDbEntity
  8
etch
100
AcDbVertex
100
AcDb2dVertex
 10
-18632.45836551854
 20
-175.0
 30
0.0
 70
0
  0
VERTEX
  5
235
330
17
100
AcDbEntity
  8
etch
100
AcDbVertex
100
AcDb2dVertex
 10
-18632.45836551854
 20
-525.0
 30
0.0
 70
0
  0
VERTEX
  5
236
330
17
100
AcDbEntity
  8
etch
100
AcDbVertex
100
AcDb2dVertex
 10
-18982.45836551854
 20
-525.0
 30
0.0
 70
0
  0
VERTEX
  5
237
330
17
100
AcDbEntity
  8
etch
100
AcDbVertex
100
AcDb2dVertex
 10
-18982.45836551854
 20
-175.0
 30
0.0
 70
0
  0
SEQEND
  5
232
330
17
100
AcDbEntity
  8
etch
  0
POLYLINE
  5
238
330
17
100
AcDbEntity
  8
metal
100
AcDb2dPolyline
 66
1
 10
0.0
 20
0.0
 30
0.0
 70
1
  0
VERTEX
  5
23A
330
17
100
AcDbEntity
  8
metal
100
AcDbVertex
100
AcDb2dVertex
 10
17927.45836551854
 20
-170.0
 30
0.0
 70
0
  0
VERTEX
  5
23B
330
17
100
AcDbEntity
  8
metal
100
AcDbVertex
100
AcDb2dVertex
 10
18287.45836551854
 20
-170.0
 30
0.0
 70
0
  0
VERTEX
  5
23C
330
17
100
AcDbEntity
  8
metal
100
AcDbVertex
100
AcDb2dVertex
 10
18287.45836551854
 20
-530.0
 30
0.0
 70
0
  0
VERTEX
  5
23D
330
17
100
AcDbEntity
  8
metal
100
AcDbVertex
100
AcDb2dVertex
 10
17927.45836551854
 20
-530.0
 30
0.0
 70
0
  0
VERTEX
  5
23E
330
17
100
AcDbEntity
  8
metal
100
AcDbVertex
100
AcDb2dVertex
 10
17927.45836551854
 20
-170.0
 30
0.0
 70
0
  0
SEQEND
  5
239
330
17
100
AcDbEntity
  8
metal
  0
POLYLINE
  5
23F
330
17
100
AcDbEntity
  8
metal
100
AcDb2dPolyline
 66
1
 10
0.0
 20
0.0
 30
0.0
 70
1
  0
VERTEX
  5
241
330
17
100
AcDbEntity
  8
metal
100
AcDbVertex
100
AcDb2dVertex
 10
-18287.45836551854
 20
-170.0
 30
0.0
 70
0
  0
VERTEX
  5
242
330
17
100
AcDbEntity
  8
metal
100
AcDbVertex
100
AcDb2dVertex
 10
-17927.45836551854
 20
-170.0
 30
0.0
 70
0
  0
VERTEX
  5
243
330
17
100
AcDbEntity
  8
metal
100
AcDbVertex
100
AcDb2dVertex
 10
-17927.45836551854
 20
-530.0
 30
0.0
 70
0
  0
VERTEX
  5
244
330
17
100
AcDbEntity
  8
metal
100
AcDbVertex
100
AcDb2dVertex
 10
-18287.45836551854
 20
-530.0
 30
0.0
 70
0
  0
VERTEX
  5
245
330
17
100
AcDbEntity
  8
metal
100
AcDbVertex
100
AcDb2dVertex
 10
-18287.45836551854
 20
-170.0
 30
0.0
 70
0
  0
SEQEND
  5
240
330
17
100
AcDbEntity
  8
metal
  0
POLYLINE
  5
246
330
17
100
AcDbEntity
  8
etch
100
AcDb2dPolyline
 66
1
 10
0.0
 20
0.0
 30
0.0
 70
1
  0
VERTEX
  5
248
330
17
100
AcDbEntity
  8
etch
100
AcDbVertex
100
AcDb2dVertex
 10
17932.45836551854
 20
-175.0
 30
0.0
 70
0
  0
VERTEX
  5
249
330
17
100
AcDbEntity
  8
etch
100
AcDbVertex
100
AcDb2dVertex
 10
18282.45836551854
 20
-175.0
 30
0.0
 70
0
  0
VERTEX
  5
24A
330
17
100
AcDbEntity
  8
etch
100
AcDbVertex
100
AcDb2dVertex
 10
18282.45836551854
 20
-525.0
 30
0.0
 70
0
  0
VERTEX
  5
24B
330
17
100
AcDbEntity
  8
etch
100
AcDbVertex
100
AcDb2dVertex
 10
17932.45836551854
 20
-525.0
 30
0.0
 70
0
  0
VERTEX
  5
24C
330
17
100
AcDbEntity
  8
etch
100
AcDbVertex
100
AcDb2dVertex
 10
17932.45836551854
 20
-175.0
 30
0.0
 70
0
  0
SEQEND
  5
247
330
17
100
AcDbEntity
  8
etch
  0
POLYLINE
  5
24D
330
17
100
AcDbEntity
  8
etch
100
AcDb2dPolyline
 66
1
 10
0.0
 20
0.0
 30
0.0
 70
1
  0
VERTEX
  5
24F
330
17
100
AcDbEntity
  8
etch
100
AcDbVertex
100
AcDb2dVertex
 10
-18282.45836551854
 20
-175.0
 30
0.0
 70
0
  0
VERTEX
  5
250
330
17
100
AcDbEntity
  8
etch
100
AcDbVertex
100
AcDb2dVertex
 10
-17932.45836551854
 20
-175.0
 30
0.0
 70
0
  0
VERTEX
  5
251
330
17
100
AcDbEntity
  8
etch
100
AcDbVertex
100
AcDb2dVertex
 10
-17932.45836551854
 20
-525.0
 30
0.0
 70
0
  0
VERTEX
  5
252
330
17
100
AcDbEntity
  8
etch
100
AcDbVertex
100
AcDb2dVertex
 10
-18282.45836551854
 20
-525.0
 30
0.0
 70
0
  0
VERTEX
  5
253
330
17
100
AcDbEntity
  8
etch
100
AcDbVertex
100
AcDb2dVertex
 10
-18282.45836551854
 20
-175.0
 30
0.0
 70
0
  0
SEQEND
  5
24E
330
17
100
AcDbEntity
  8
etch
  0
POLYLINE
  5
254
330
17
100
AcDbEntity
  8
metal
100
AcDb2dPolyline
 66
1
 10
0.0
 20
0.0
 30
0.0
 70
1
  0
VERTEX
  5
256
330
17
100
AcDbEntity
  8
metal
100
AcDbVertex
100
AcDb2dVertex
 10
17227.45836551854
 20
-170.0
 30
0.0
 70
0
  0
VERTEX
  5
257
330
17
100
AcDbEntity
  8
metal
100
AcDbVertex
100
AcDb2dVertex
 10
17587.45836551854
 20
-170.0
 30
0.0
 70
0
  0
VERTEX
  5
258
330
17
100
AcDbEntity
  8
metal
100
AcDbVertex
100
AcDb2dVertex
 10
17587.45836551854
 20
-530.0
 30
0.0
 70
0
  0
VERTEX
  5
259
330
17
100
AcDbEntity
  8
metal
100
AcDbVertex
100
AcDb2dVertex
 10
17227.45836551854
 20
-530.0
 30
0.0
 70
0
  0
VERTEX
  5
25A
330
17
100
AcDbEntity
  8
metal
100
AcDbVertex
100
AcDb2dVertex
 10
17227.45836551854
 20
-170.0
 30
0.0
 70
0
  0
SEQEND
  5
255
330
17
100
AcDbEntity
  8
metal
  0
POLYLINE
  5
25B
330
17
100
AcDbEntity
  8
metal
100
AcDb2dPolyline
 66
1
 10
0.0
 20
0.0
 30
0.0
 70
1
  0
VERTEX
  5
25D
330
17
100
AcDbEntity
  8
metal
100
AcDbVertex
100
AcDb2dVertex
 10
-17587.45836551854
 20
-170.0
 30
0.0
 70
0
  0
VERTEX
  5
25E
330
17
100
AcDbEntity
  8
metal
100
AcDbVertex
100
AcDb2dVertex
 10
-17227.45836551854
 20
-170.0
 30
0.0
 70
0
  0
VERTEX
  5
25F
330
17
100
AcDbEntity
  8
metal
100
AcDbVertex
100
AcDb2dVertex
 10
-17227.45836551854
 20
-530.0
 30
0.0
 70
0
  0
VERTEX
  5
260
330
17
100
AcDbEntity
  8
metal
100
AcDbVertex
100
AcDb2dVertex
 10
-17587.45836551854
 20
-530.0
 30
0.0
 70
0
  0
VERTEX
  5
261
330
17
100
AcDbEntity
  8
metal
100
AcDbVertex
100
AcDb2dVertex
 10
-17587.45836551854
 20
-170.0
 30
0.0
 70
0
  0
SEQEND
  5
25C
330
17
100
AcDbEntity
  8
metal
  0
POLYLINE
  5
262
330
17
100
AcDbEntity
  8
etch
100
AcDb2dPolyline
 66
1
 10
0.0
 20
0.0
 30
0.0
 70
1
  0
VERTEX
  5
264
330
17
100
AcDbEntity
  8
etch
100
AcDbVertex
100
AcDb2dVertex
 10
17232.45836551854
 20
-175.0
 30
0.0
 70
0
  0
VERTEX
  5
265
330
17
100
AcDbEntity
  8
etch
100
AcDbVertex
100
AcDb2dVertex
 10
17582.45836551854
 20
-175.0
 30
0.0
 70
0
  0
VERTEX
  5
266
330
17
100
AcDbEntity
  8
etch
100
AcDbVertex
100
AcDb2dVertex
 10
17582.45836551854
 20
-525.0
 30
0.0
 70
0
  0
VERTEX
  5
267
330
17
100
AcDbEntity
  8
etch
100
AcDbVertex
100
AcDb2dVertex
 10
17232.45836551854
 20
-525.0
 30
0.0
 70
0
  0
VERTEX
  5
268
330
17
100
AcDbEntity
  8
etch
100
AcDbVertex
100
AcDb2dVertex
 10
17232.45836551854
 20
-175.0
 30
0.0
 70
0
  0
SEQEND
  5
263
330
17
100
AcDbEntity
  8
etch
  0
POLYLINE
  5
269
330
17
100
AcDbEntity
  8
etch
100
AcDb2dPolyline
 66
1
 10
0.0
 20
0.0
 30
0.0
 70
1
  0
VERTEX
  5
26B
330
17
100
AcDbEntity
  8
etch
100
AcDbVertex
100
AcDb2dVertex
 10
-17582.45836551854
 20
-175.0
 30
0.0
 70
0
  0
VERTEX
  5
26C
330
17
100
AcDbEntity
  8
etch
100
AcDbVertex
100
AcDb2dVertex
 10
-17232.45836551854
 20
-175.0
 30
0.0
 70
0
  0
VERTEX
  5
26D
330
17
100
AcDbEntity
  8
etch
100
AcDbVertex
100
AcDb2dVertex
 10
-17232.45836551854
 20
-525.0
 30
0.0
 70
0
  0
VERTEX
  5
26E
330
17
100
AcDbEntity
  8
etch
100
AcDbVertex
100
AcDb2dVertex
 10
-17582.45836551854
 20
-525.0
 30
0.0
 70
0
  0
VERTEX
  5
26F
330
17
100
AcDbEntity
  8
etch
100
AcDbVertex
100
AcDb2dVertex
 10
-17582.45836551854
 20
-175.0
 30
0.0
 70
0
  0
SEQEND
  5
26A
330
17
100
AcDbEntity
  8
etch
  0
POLYLINE
  5
270
330
17
100
AcDbEntity
  8
metal
100
AcDb2dPolyline
 66
1
 10
0.0
 20
0.0
 30
0.0
 70
1
  0
VERTEX
  5
272
330
17
100
AcDbEntity
  8
metal
100
AcDbVertex
100
AcDb2dVertex
 10
16527.45836551854
 20
-170.0
 30
0.0
 70
0
  0
VERTEX
  5
273
330
17
100
AcDbEntity
  8
metal
100
AcDbVertex
100
AcDb2dVertex
 10
16887.45836551854
 20
-170.0
 30
0.0
 70
0
  0
VERTEX
  5
274
330
17
100
AcDbEntity
  8
metal
100
AcDbVertex
100
AcDb2dVertex
 10
16887.45836551854
 20
-530.0
 30
0.0
 70
0
  0
VERTEX
  5
275
330
17
100
AcDbEntity
  8
metal
100
AcDbVertex
100
AcDb2dVertex
 10
16527.45836551854
 20
-530.0
 30
0.0
 70
0
  0
VERTEX
  5
276
330
17
100
AcDbEntity
  8
metal
100
AcDbVertex
100
AcDb2dVertex
 10
16527.45836551854
 20
-170.0
 30
0.0
 70
0
  0
SEQEND
  5
271
330
17
100
AcDbEntity
  8
metal
  0
POLYLINE
  5
277
330
17
100
AcDbEntity
  8
metal
100
AcDb2dPolyline
 66
1
 10
0.0
 20
0.0
 30
0.0
 70
1
  0
VERTEX
  5
279
330
17
100
AcDbEntity
  8
metal
100
AcDbVertex
100
AcDb2dVertex
 10
-16887.45836551854
 20
-170.0
 30
0.0
 70
0
  0
VERTEX
  5
27A
330
17
100
AcDbEntity
  8
metal
100
AcDbVertex
100
AcDb2dVertex
 10
-16527.45836551854
 20
-170.0
 30
0.0
 70
0
  0
VERTEX
  5
27B
330
17
100
AcDbEntity
  8
metal
100
AcDbVertex
100
AcDb2dVertex
 10
-16527.45836551854
 20
-530.0
 30
0.0
 70
0
  0
VERTEX
  5
27C
330
17
100
AcDbEntity
  8
metal
100
AcDbVertex
100
AcDb2dVertex
 10
-16887.45836551854
 20
-530.0
 30
0.0
 70
0
  0
VERTEX
  5
27D
330
17
100
AcDbEntity
  8
metal
100
AcDbVertex
100
AcDb2dVertex
 10
-16887.45836551854
 20
-170.0
 30
0.0
 70
0
  0
SEQEND
  5
278
330
17
100
AcDbEntity
  8
metal
  0
POLYLINE
  5
27E
330
17
100
AcDbEntity
  8
etch
100
AcDb2dPolyline
 66
1
 10
0.0
 20
0.0
 30
0.0
 70
1
  0
VERTEX
  5
280
330
17
100
AcDbEntity
  8
etch
100
AcDbVertex
100
AcDb2dVertex
 10
16532.45836551854
 20
-175.0
 30
0.0
 70
0
  0
VERTEX
  5
281
330
17
100
AcDbEntity
  8
etch
100
AcDbVertex
100
AcDb2dVertex
 10
16882.45836551854
 20
-175.0
 30
0.0
 70
0
  0
VERTEX
  5
282
330
17
100
AcDbEntity
  8
etch
100
AcDbVertex
100
AcDb2dVertex
 10
16882.45836551854
 20
-525.0
 30
0.0
 70
0
  0
VERTEX
  5
283
330
17
100
AcDbEntity
  8
etch
100
AcDbVertex
100
AcDb2dVertex
 10
16532.45836551854
 20
-525.0
 30
0.0
 70
0
  0
VERTEX
  5
284
330
17
100
AcDbEntity
  8
etch
100
AcDbVertex
100
AcDb2dVertex
 10
16532.45836551854
 20
-175.0
 30
0.0
 70
0
  0
SEQEND
  5
27F
330
17
100
AcDbEntity
  8
etch
  0
POLYLINE
  5
285
330
17
100
AcDbEntity
  8
etch
100
AcDb2dPolyline
 66
1
 10
0.0
 20
0.0
 30
0.0
 70
1
  0
VERTEX
  5
287
330
17
100
AcDbEntity
  8
etch
100
AcDbVertex
100
AcDb2dVertex
 10
-16882.45836551854
 20
-175.0
 30
0.0
 70
0
  0
VERTEX
  5
288
330
17
100
AcDbEntity
  8
etch
100
AcDbVertex
100
AcDb2dVertex
 10
-16532.45836551854
 20
-175.0
 30
0.0
 70
0
  0
VERTEX
  5
289
330
17
100
AcDbEntity
  8
etch
100
AcDbVertex
100
AcDb2dVertex
 10
-16532.45836551854
 20
-525.0
 30
0.0
 70
0
  0
VERTEX
  5
28A
330
17
100
AcDbEntity
  8
etch
100
AcDbVertex
100
AcDb2dVertex
 10
-16882.45836551854
 20
-525.0
 30
0.0
 70
0
  0
VERTEX
  5
28B
330
17
100
AcDbEntity
  8
etch
100
AcDbVertex
100
AcDb2dVertex
 10
-16882.45836551854
 20
-175.0
 30
0.0
 70
0
  0
SEQEND
  5
286
330
17
100
AcDbEntity
  8
etch
  0
POLYLINE
  5
28C
330
17
100
AcDbEntity
  8
metal
100
AcDb2dPolyline
 66
1
 10
0.0
 20
0.0
 30
0.0
 70
1
  0
VERTEX
  5
28E
330
17
100
AcDbEntity
  8
metal
100
AcDbVertex
100
AcDb2dVertex
 10
18627.45836551854
 20
-870.0
 30
0.0
 70
0
  0
VERTEX
  5
28F
330
17
100
AcDbEntity
  8
metal
100
AcDbVertex
100
AcDb2dVertex
 10
18987.45836551854
 20
-870.0
 30
0.0
 70
0
  0
VERTEX
  5
290
330
17
100
AcDbEntity
  8
metal
100
AcDbVertex
100
AcDb2dVertex
 10
18987.45836551854
 20
-1230.0
 30
0.0
 70
0
  0
VERTEX
  5
291
330
17
100
AcDbEntity
  8
metal
100
AcDbVertex
100
AcDb2dVertex
 10
18627.45836551854
 20
-1230.0
 30
0.0
 70
0
  0
VERTEX
  5
292
330
17
100
AcDbEntity
  8
metal
100
AcDbVertex
100
AcDb2dVertex
 10
18627.45836551854
 20
-870.0
 30
0.0
 70
0
  0
SEQEND
  5
28D
330
17
100
AcDbEntity
  8
metal
  0
POLYLINE
  5
293
330
17
100
AcDbEntity
  8
metal
100
AcDb2dPolyline
 66
1
 10
0.0
 20
0.0
 30
0.0
 70
1
  0
VERTEX
  5
295
330
17
100
AcDbEntity
  8
metal
100
AcDbVertex
100
AcDb2dVertex
 10
-18987.45836551854
 20
-870.0
 30
0.0
 70
0
  0
VERTEX
  5
296
330
17
100
AcDbEntity
  8
metal
100
AcDbVertex
100
AcDb2dVertex
 10
-18627.45836551854
 20
-870.0
 30
0.0
 70
0
  0
VERTEX
  5
297
330
17
100
AcDbEntity
  8
metal
100
AcDbVertex
100
AcDb2dVertex
 10
-18627.45836551854
 20
-1230.0
 30
0.0
 70
0
  0
VERTEX
  5
298
330
17
100
AcDbEntity
  8
metal
100
AcDbVertex
100
AcDb2dVertex
 10
-18987.45836551854
 20
-1230.0
 30
0.0
 70
0
  0
VERTEX
  5
299
330
17
100
AcDbEntity
  8
metal
100
AcDbVertex
100
AcDb2dVertex
 10
-18987.45836551854
 20
-870.0
 30
0.0
 70
0
  0
SEQEND
  5
294
330
17
100
AcDbEntity
  8
metal
  0
POLYLINE
  5
29A
330
17
100
AcDbEntity
  8
etch
100
AcDb2dPolyline
 66
1
 10
0.0
 20
0.0
 30
0.0
 70
1
  0
VERTEX
  5
29C
330
17
100
AcDbEntity
  8
etch
100
AcDbVertex
100
AcDb2dVertex
 10
18632.45836551854
 20
-875.0
 30
0.0
 70
0
  0
VERTEX
  5
29D
330
17
100
AcDbEntity
  8
etch
100
AcDbVertex
100
AcDb2dVertex
 10
18982.45836551854
 20
-875.0
 30
0.0
 70
0
  0
VERTEX
  5
29E
330
17
100
AcDbEntity
  8
etch
100
AcDbVertex
100
AcDb2dVertex
 10
18982.45836551854
 20
-1225.0
 30
0.0
 70
0
  0
VERTEX
  5
29F
330
17
100
AcDbEntity
  8
etch
100
AcDbVertex
100
AcDb2dVertex
 10
18632.45836551854
 20
-1225.0
 30
0.0
 70
0
  0
VERTEX
  5
2A0
330
17
100
AcDbEntity
  8
etch
100
AcDbVertex
100
AcDb2dVertex
 10
18632.45836551854
 20
-875.0
 30
0.0
 70
0
  0
SEQEND
  5
29B
330
17
100
AcDbEntity
  8
etch
  0
POLYLINE
  5
2A1
330
17
100
AcDbEntity
  8
etch
100
AcDb2dPolyline
 66
1
 10
0.0
 20
0.0
 30
0.0
 70
1
  0
VERTEX
  5
2A3
330
17
100
AcDbEntity
  8
etch
100
AcDbVertex
100
AcDb2dVertex
 10
-18982.45836551854
 20
-875.0
 30
0.0
 70
0
  0
VERTEX
  5
2A4
330
17
100
AcDbEntity
  8
etch
100
AcDbVertex
100
AcDb2dVertex
 10
-18632.45836551854
 20
-875.0
 30
0.0
 70
0
  0
VERTEX
  5
2A5
330
17
100
AcDbEntity
  8
etch
100
AcDbVertex
100
AcDb2dVertex
 10
-18632.45836551854
 20
-1225.0
 30
0.0
 70
0
  0
VERTEX
  5
2A6
330
17
100
AcDbEntity
  8
etch
100
AcDbVertex
100
AcDb2dVertex
 10
-18982.45836551854
 20
-1225.0
 30
0.0
 70
0
  0
VERTEX
  5
2A7
330
17
100
AcDbEntity
  8
etch
100
AcDbVertex
100
AcDb2dVertex
 10
-18982.45836551854
 20
-875.0
 30
0.0
 70
0
  0
SEQEND
  5
2A2
330
17
100
AcDbEntity
  8
etch
  0
POLYLINE
  5
2A8
330
17
100
AcDbEntity
  8
metal
100
AcDb2dPolyline
 66
1
 10
0.0
 20
0.0
 30
0.0
 70
1
  0
VERTEX
  5
2AA
330
17
100
AcDbEntity
  8
metal
100
AcDbVertex
100
AcDb2dVertex
 10
17927.45836551854
 20
-870.0
 30
0.0
 70
0
  0
VERTEX
  5
2AB
330
17
100
AcDbEntity
  8
metal
100
AcDbVertex
100
AcDb2dVertex
 10
18287.45836551854
 20
-870.0
 30
0.0
 70
0
  0
VERTEX
  5
2AC
330
17
100
AcDbEntity
  8
metal
100
AcDbVertex
100
AcDb2dVertex
 10
18287.45836551854
 20
-1230.0
 30
0.0
 70
0
  0
VERTEX
  5
2AD
330
17
100
AcDbEntity
  8
metal
100
AcDbVertex
100
AcDb2dVertex
 10
17927.45836551854
 20
-1230.0
 30
0.0
 70
0
  0
VERTEX
  5
2AE
330
17
100
AcDbEntity
  8
metal
100
AcDbVertex
100
AcDb2dVertex
 10
17927.45836551854
 20
-870.0
 30
0.0
 70
0
  0
SEQEND
  5
2A9
330
17
100
AcDbEntity
  8
metal
  0
POLYLINE
  5
2AF
330
17
100
AcDbEntity
  8
metal
100
AcDb2dPolyline
 66
1
 10
0.0
 20
0.0
 30
0.0
 70
1
  0
VERTEX
  5
2B1
330
17
100
AcDbEntity
  8
metal
100
AcDbVertex
100
AcDb2dVertex
 10
-18287.45836551854
 20
-870.0
 30
0.0
 70
0
  0
VERTEX
  5
2B2
330
17
100
AcDbEntity
  8
metal
100
AcDbVertex
100
AcDb2dVertex
 10
-17927.45836551854
 20
-870.0
 30
0.0
 70
0
  0
VERTEX
  5
2B3
330
17
100
AcDbEntity
  8
metal
100
AcDbVertex
100
AcDb2dVertex
 10
-17927.45836551854
 20
-1230.0
 30
0.0
 70
0
  0
VERTEX
  5
2B4
330
17
100
AcDbEntity
  8
metal
100
AcDbVertex
100
AcDb2dVertex
 10
-18287.45836551854
 20
-1230.0
 30
0.0
 70
0
  0
VERTEX
  5
2B5
330
17
100
AcDbEntity
  8
metal
100
AcDbVertex
100
AcDb2dVertex
 10
-18287.45836551854
 20
-870.0
 30
0.0
 70
0
  0
SEQEND
  5
2B0
330
17
100
AcDbEntity
  8
metal
  0
POLYLINE
  5
2B6
330
17
100
AcDbEntity
  8
etch
100
AcDb2dPolyline
 66
1
 10
0.0
 20
0.0
 30
0.0
 70
1
  0
VERTEX
  5
2B8
330
17
100
AcDbEntity
  8
etch
100
AcDbVertex
100
AcDb2dVertex
 10
17932.45836551854
 20
-875.0
 30
0.0
 70
0
  0
VERTEX
  5
2B9
330
17
100
AcDbEntity
  8
etch
100
AcDbVertex
100
AcDb2dVertex
 10
18282.45836551854
 20
-875.0
 30
0.0
 70
0
  0
VERTEX
  5
2BA
330
17
100
AcDbEntity
  8
etch
100
AcDbVertex
100
AcDb2dVertex
 10
18282.45836551854
 20
-1225.0
 30
0.0
 70
0
  0
VERTEX
  5
2BB
330
17
100
AcDbEntity
  8
etch
100
AcDbVertex
100
AcDb2dVertex
 10
17932.45836551854
 20
-1225.0
 30
0.0
 70
0
  0
VERTEX
  5
2BC
330
17
100
AcDbEntity
  8
etch
100
AcDbVertex
100
AcDb2dVertex
 10
17932.45836551854
 20
-875.0
 30
0.0
 70
0
  0
SEQEND
  5
2B7
330
17
100
AcDbEntity
  8
etch
  0
POLYLINE
  5
2BD
330
17
100
AcDbEntity
  8
etch
100
AcDb2dPolyline
 66
1
 10
0.0
 20
0.0
 30
0.0
 70
1
  0
VERTEX
  5
2BF
330
17
100
AcDbEntity
  8
etch
100
AcDbVertex
100
AcDb2dVertex
 10
-18282.45836551854
 20
-875.0
 30
0.0
 70
0
  0
VERTEX
  5
2C0
330
17
100
AcDbEntity
  8
etch
100
AcDbVertex
100
AcDb2dVertex
 10
-17932.45836551854
 20
-875.0
 30
0.0
 70
0
  0
VERTEX
  5
2C1
330
17
100
AcDbEntity
  8
etch
100
AcDbVertex
100
AcDb2dVertex
 10
-17932.45836551854
 20
-1225.0
 30
0.0
 70
0
  0
VERTEX
  5
2C2
330
17
100
AcDbEntity
  8
etch
100
AcDbVertex
100
AcDb2dVertex
 10
-18282.45836551854
 20
-1225.0
 30
0.0
 70
0
  0
VERTEX
  5
2C3
330
17
100
AcDbEntity
  8
etch
100
AcDbVertex
100
AcDb2dVertex
 10
-18282.45836551854
 20
-875.0
 30
0.0
 70
0
  0
SEQEND
  5
2BE
330
17
100
AcDbEntity
  8
etch
  0
POLYLINE
  5
2C4
330
17
100
AcDbEntity
  8
metal
100
AcDb2dPolyline
 66
1
 10
0.0
 20
0.0
 30
0.0
 70
1
  0
VERTEX
  5
2C6
330
17
100
AcDbEntity
  8
metal
100
AcDbVertex
100
AcDb2dVertex
 10
17227.45836551854
 20
-870.0
 30
0.0
 70
0
  0
VERTEX
  5
2C7
330
17
100
AcDbEntity
  8
metal
100
AcDbVertex
100
AcDb2dVertex
 10
17587.45836551854
 20
-870.0
 30
0.0
 70
0
  0
VERTEX
  5
2C8
330
17
100
AcDbEntity
  8
metal
100
AcDbVertex
100
AcDb2dVertex
 10
17587.45836551854
 20
-1230.0
 30
0.0
 70
0
  0
VERTEX
  5
2C9
330
17
100
AcDbEntity
  8
metal
100
AcDbVertex
100
AcDb2dVertex
 10
17227.45836551854
 20
-1230.0
 30
0.0
 70
0
  0
VERTEX
  5
2CA
330
17
100
AcDbEntity
  8
metal
100
AcDbVertex
100
AcDb2dVertex
 10
17227.45836551854
 20
-870.0
 30
0.0
 70
0
  0
SEQEND
  5
2C5
330
17
100
AcDbEntity
  8
metal
  0
POLYLINE
  5
2CB
330
17
100
AcDbEntity
  8
metal
100
AcDb2dPolyline
 66
1
 10
0.0
 20
0.0
 30
0.0
 70
1
  0
VERTEX
  5
2CD
330
17
100
AcDbEntity
  8
metal
100
AcDbVertex
100
AcDb2dVertex
 10
-17587.45836551854
 20
-870.0
 30
0.0
 70
0
  0
VERTEX
  5
2CE
330
17
100
AcDbEntity
  8
metal
100
AcDbVertex
100
AcDb2dVertex
 10
-17227.45836551854
 20
-870.0
 30
0.0
 70
0
  0
VERTEX
  5
2CF
330
17
100
AcDbEntity
  8
metal
100
AcDbVertex
100
AcDb2dVertex
 10
-17227.45836551854
 20
-1230.0
 30
0.0
 70
0
  0
VERTEX
  5
2D0
330
17
100
AcDbEntity
  8
metal
100
AcDbVertex
100
AcDb2dVertex
 10
-17587.45836551854
 20
-1230.0
 30
0.0
 70
0
  0
VERTEX
  5
2D1
330
17
100
AcDbEntity
  8
metal
100
AcDbVertex
100
AcDb2dVertex
 10
-17587.45836551854
 20
-870.0
 30
0.0
 70
0
  0
SEQEND
  5
2CC
330
17
100
AcDbEntity
  8
metal
  0
POLYLINE
  5
2D2
330
17
100
AcDbEntity
  8
etch
100
AcDb2dPolyline
 66
1
 10
0.0
 20
0.0
 30
0.0
 70
1
  0
VERTEX
  5
2D4
330
17
100
AcDbEntity
  8
etch
100
AcDbVertex
100
AcDb2dVertex
 10
17232.45836551854
 20
-875.0
 30
0.0
 70
0
  0
VERTEX
  5
2D5
330
17
100
AcDbEntity
  8
etch
100
AcDbVertex
100
AcDb2dVertex
 10
17582.45836551854
 20
-875.0
 30
0.0
 70
0
  0
VERTEX
  5
2D6
330
17
100
AcDbEntity
  8
etch
100
AcDbVertex
100
AcDb2dVertex
 10
17582.45836551854
 20
-1225.0
 30
0.0
 70
0
  0
VERTEX
  5
2D7
330
17
100
AcDbEntity
  8
etch
100
AcDbVertex
100
AcDb2dVertex
 10
17232.45836551854
 20
-1225.0
 30
0.0
 70
0
  0
VERTEX
  5
2D8
330
17
100
AcDbEntity
  8
etch
100
AcDbVertex
100
AcDb2dVertex
 10
17232.45836551854
 20
-875.0
 30
0.0
 70
0
  0
SEQEND
  5
2D3
330
17
100
AcDbEntity
  8
etch
  0
POLYLINE
  5
2D9
330
17
100
AcDbEntity
  8
etch
100
AcDb2dPolyline
 66
1
 10
0.0
 20
0.0
 30
0.0
 70
1
  0
VERTEX
  5
2DB
330
17
100
AcDbEntity
  8
etch
100
AcDbVertex
100
AcDb2dVertex
 10
-17582.45836551854
 20
-875.0
 30
0.0
 70
0
  0
VERTEX
  5
2DC
330
17
100
AcDbEntity
  8
etch
100
AcDbVertex
100
AcDb2dVertex
 10
-17232.45836551854
 20
-875.0
 30
0.0
 70
0
  0
VERTEX
  5
2DD
330
17
100
AcDbEntity
  8
etch
100
AcDbVertex
100
AcDb2dVertex
 10
-17232.45836551854
 20
-1225.0
 30
0.0
 70
0
  0
VERTEX
  5
2DE
330
17
100
AcDbEntity
  8
etch
100
AcDbVertex
100
AcDb2dVertex
 10
-17582.45836551854
 20
-1225.0
 30
0.0
 70
0
  0
VERTEX
  5
2DF
330
17
100
AcDbEntity
  8
etch
100
AcDbVertex
100
AcDb2dVertex
 10
-17582.45836551854
 20
-875.0
 30
0.0
 70
0
  0
SEQEND
  5
2DA
330
17
100
AcDbEntity
  8
etch
  0
POLYLINE
  5
2E0
330
17
100
AcDbEntity
  8
metal
100
AcDb2dPolyline
 66
1
 10
0.0
 20
0.0
 30
0.0
 70
1
  0
VERTEX
  5
2E2
330
17
100
AcDbEntity
  8
metal
100
AcDbVertex
100
AcDb2dVertex
 10
16527.45836551854
 20
-870.0
 30
0.0
 70
0
  0
VERTEX
  5
2E3
330
17
100
AcDbEntity
  8
metal
100
AcDbVertex
100
AcDb2dVertex
 10
16887.45836551854
 20
-870.0
 30
0.0
 70
0
  0
VERTEX
  5
2E4
330
17
100
AcDbEntity
  8
metal
100
AcDbVertex
100
AcDb2dVertex
 10
16887.45836551854
 20
-1230.0
 30
0.0
 70
0
  0
VERTEX
  5
2E5
330
17
100
AcDbEntity
  8
metal
100
AcDbVertex
100
AcDb2dVertex
 10
16527.45836551854
 20
-1230.0
 30
0.0
 70
0
  0
VERTEX
  5
2E6
330
17
100
AcDbEntity
  8
metal
100
AcDbVertex
100
AcDb2dVertex
 10
16527.45836551854
 20
-870.0
 30
0.0
 70
0
  0
SEQEND
  5
2E1
330
17
100
AcDbEntity
  8
metal
  0
POLYLINE
  5
2E7
330
17
100
AcDbEntity
  8
metal
100
AcDb2dPolyline
 66
1
 10
0.0
 20
0.0
 30
0.0
 70
1
  0
VERTEX
  5
2E9
330
17
100
AcDbEntity
  8
metal
100
AcDbVertex
100
AcDb2dVertex
 10
-16887.45836551854
 20
-870.0
 30
0.0
 70
0
  0
VERTEX
  5
2EA
330
17
100
AcDbEntity
  8
metal
100
AcDbVertex
100
AcDb2dVertex
 10
-16527.45836551854
 20
-870.0
 30
0.0
 70
0
  0
VERTEX
  5
2EB
330
17
100
AcDbEntity
  8
metal
100
AcDbVertex
100
AcDb2dVertex
 10
-16527.45836551854
 20
-1230.0
 30
0.0
 70
0
  0
VERTEX
  5
2EC
330
17
100
AcDbEntity
  8
metal
100
AcDbVertex
100
AcDb2dVertex
 10
-16887.45836551854
 20
-1230.0
 30
0.0
 70
0
  0
VERTEX
  5
2ED
330
17
100
AcDbEntity
  8
metal
100
AcDbVertex
100
AcDb2dVertex
 10
-16887.45836551854
 20
-870.0
 30
0.0
 70
0
  0
SEQEND
  5
2E8
330
17
100
AcDbEntity
  8
metal
  0
POLYLINE
  5
2EE
330
17
100
AcDbEntity
  8
etch
100
AcDb2dPolyline
 66
1
 10
0.0
 20
0.0
 30
0.0
 70
1
  0
VERTEX
  5
2F0
330
17
100
AcDbEntity
  8
etch
100
AcDbVertex
100
AcDb2dVertex
 10
16532.45836551854
 20
-875.0
 30
0.0
 70
0
  0
VERTEX
  5
2F1
330
17
100
AcDbEntity
  8
etch
100
AcDbVertex
100
AcDb2dVertex
 10
16882.45836551854
 20
-875.0
 30
0.0
 70
0
  0
VERTEX
  5
2F2
330
17
100
AcDbEntity
  8
etch
100
AcDbVertex
100
AcDb2dVertex
 10
16882.45836551854
 20
-1225.0
 30
0.0
 70
0
  0
VERTEX
  5
2F3
330
17
100
AcDbEntity
  8
etch
100
AcDbVertex
100
AcDb2dVertex
 10
16532.45836551854
 20
-1225.0
 30
0.0
 70
0
  0
VERTEX
  5
2F4
330
17
100
AcDbEntity
  8
etch
100
AcDbVertex
100
AcDb2dVertex
 10
16532.45836551854
 20
-875.0
 30
0.0
 70
0
  0
SEQEND
  5
2EF
330
17
100
AcDbEntity
  8
etch
  0
POLYLINE
  5
2F5
330
17
100
AcDbEntity
  8
etch
100
AcDb2dPolyline
 66
1
 10
0.0
 20
0.0
 30
0.0
 70
1
  0
VERTEX
  5
2F7
330
17
100
AcDbEntity
  8
etch
100
AcDbVertex
100
AcDb2dVertex
 10
-16882.45836551854
 20
-875.0
 30
0.0
 70
0
  0
VERTEX
  5
2F8
330
17
100
AcDbEntity
  8
etch
100
AcDbVertex
100
AcDb2dVertex
 10
-16532.45836551854
 20
-875.0
 30
0.0
 70
0
  0
VERTEX
  5
2F9
330
17
100
AcDbEntity
  8
etch
100
AcDbVertex
100
AcDb2dVertex
 10
-16532.45836551854
 20
-1225.0
 30
0.0
 70
0
  0
VERTEX
  5
2FA
330
17
100
AcDbEntity
  8
etch
100
AcDbVertex
100
AcDb2dVertex
 10
-16882.45836551854
 20
-1225.0
 30
0.0
 70
0
  0
VERTEX
  5
2FB
330
17
100
AcDbEntity
  8
etch
100
AcDbVertex
100
AcDb2dVertex
 10
-16882.45836551854
 20
-875.0
 30
0.0
 70
0
  0
SEQEND
  5
2F6
330
17
100
AcDbEntity
  8
etch
  0
LWPOLYLINE
  5
2FC
330
17
100
AcDbEntity
  8
metal
100
AcDbPolyline
 90
2
 70
0
 10
18807.45836551854
 20
1050.0
 40
10.0
 41
10.0
 10
18422.45836551854
 20
1435.0
 40
10.0
 41
10.0
  0
LWPOLYLINE
  5
2FD
330
17
100
AcDbEntity
  8
metal
100
AcDbPolyline
 90
2
 70
0
 10
18107.45836551854
 20
1050.0
 40
10.0
 41
10.0
 10
17792.45836551854
 20
1365.0
 40
10.0
 41
10.0
  0
LWPOLYLINE
  5
2FE
330
17
100
AcDbEntity
  8
metal
100
AcDbPolyline
 90
2
 70
0
 10
17407.45836551854
 20
1050.0
 40
10.0
 41
10.0
 10
17162.45836551854
 20
1295.0
 40
10.0
 41
10.0
  0
LWPOLYLINE
  5
2FF
330
17
100
AcDbEntity
  8
metal
100
AcDbPolyline
 90
2
 70
0
 10
16707.45836551854
 20
1050.0
 40
10.0
 41
10.0
 10
16532.45836551854
 20
1225.0
 40
10.0
 41
10.0
  0
LWPOLYLINE
  5
300
330
17
100
AcDbEntity
  8
metal
100
AcDbPolyline
 90
2
 70
0
 10
18807.45836551854
 20
350.0
 40
10.0
 41
10.0
 10
18422.45836551854
 20
735.0
 40
10.0
 41
10.0
  0
LWPOLYLINE
  5
301
330
17
100
AcDbEntity
  8
metal
100
AcDbPolyline
 90
2
 70
0
 10
18107.45836551854
 20
350.0
 40
10.0
 41
10.0
 10
17792.45836551854
 20
665.0
 40
10.0
 41
10.0
  0
LWPOLYLINE
  5
302
330
17
100
AcDbEntity
  8
metal
100
AcDbPolyline
 90
2
 70
0
 10
17407.45836551854
 20
350.0
 40
10.0
 41
10.0
 10
17162.45836551854
 20
595.0
 40
10.0
 41
10.0
  0
LWPOLYLINE
  5
303
330
17
100
AcDbEntity
  8
metal
100
AcDbPolyline
 90
2
 70
0
 10
16707.45836551854
 20
350.0
 40
10.0
 41
10.0
 10
16532.45836551854
 20
525.0
 40
10.0
 41
10.0
  0
LWPOLYLINE
  5
304
330
17
100
AcDbEntity
  8
metal
100
AcDbPolyline
 90
2
 70
0
 10
18807.45836551854
 20
-350.0
 40
10.0
 41
10.0
 10
18422.45836551854
 20
-735.0
 40
10.0
 41
10.0
  0
LWPOLYLINE
  5
305
330
17
100
AcDbEntity
  8
metal
100
AcDbPolyline
 90
2
 70
0
 10
18107.45836551854
 20
-350.0
 40
10.0
 41
10.0
 10
17792.45836551854
 20
-665.0
 40
10.0
 41
10.0
  0
LWPOLYLINE
  5
306
330
17
100
AcDbEntity
  8
metal
100
AcDbPolyline
 90
2
 70
0
 10
17407.45836551854
 20
-350.0
 40
10.0
 41
10.0
 10
17162.45836551854
 20
-595.0
 40
10.0
 41
10.0
  0
LWPOLYLINE
  5
307
330
17
100
AcDbEntity
  8
metal
100
AcDbPolyline
 90
2
 70
0
 10
16707.45836551854
 20
-350.0
 40
10.0
 41
10.0
 10
16532.45836551854
 20
-525.0
 40
10.0
 41
10.0
  0
LWPOLYLINE
  5
308
330
17
100
AcDbEntity
  8
metal
100
AcDbPolyline
 90
2
 70
0
 10
18807.45836551854
 20
-1050.0
 40
10.0
 41
10.0
 10
18422.45836551854
 20
-1435.0
 40
10.0
 41
10.0
  0
LWPOLYLINE
  5
309
330
17
100
AcDbEntity
  8
metal
100
AcDbPolyline
 90
2
 70
0
 10
18107.45836551854
 20
-1050.0
 40
10.0
 41
10.0
 10
17792.45836551854
 20
-1365.0
 40
10.0
 41
10.0
  0
LWPOLYLINE
  5
30A
330
17
100
AcDbEntity
  8
metal
100
AcDbPolyline
 90
2
 70
0
 10
17407.45836551854
 20
-1050.0
 40
10.0
 41
10.0
 10
17162.45836551854
 20
-1295.0
 40
10.0
 41
10.0
  0
LWPOLYLINE
  5
30B
330
17
100
AcDbEntity
  8
metal
100
AcDbPolyline
 90
2
 70
0
 10
16707.45836551854
 20
-1050.0
 40
10.0
 41
10.0
 10
16532.45836551854
 20
-1225.0
 40
10.0
 41
10.0
  0
LWPOLYLINE
  5
30C
330
17
100
AcDbEntity
  8
metal
100
AcDbPolyline
 90
2
 70
0
 10
16007.458365518542
 20
1435.0
 40
10.0
 41
10.0
 10
15611.973431123648
 20
750.0
 40
10.0
 41
10.0
  0
LWPOLYLINE
  5
30D
330
17
100
AcDbEntity
  8
metal
100
AcDbPolyline
 90
2
 70
0
 10
16047.872884361816
 20
1365.0
 40
10.0
 41
10.0
 10
15635.067441891233
 20
650.0
 40
10.0
 41
10.0
  0
LWPOLYLINE
  5
30E
330
17
100
AcDbEntity
  8
metal
100
AcDbPolyline
 90
2
 70
0
 10
16088.28740320509
 20
1295.0
 40
10.0
 41
10.0
 10
15658.161452658818
 20
550.0
 40
10.0
 41
10.0
  0
LWPOLYLINE
  5
30F
330
17
100
AcDbEntity
  8
metal
100
AcDbPolyline
 90
2
 70
0
 10
16128.701922048363
 20
1225.0
 40
10.0
 41
10.0
 10
15681.255463426403
 20
450.0
 40
10.0
 41
10.0
  0
LWPOLYLINE
  5
310
330
17
100
AcDbEntity
  8
metal
100
AcDbPolyline
 90
2
 70
0
 10
16169.116440891637
 20
735.0
 40
10.0
 41
10.0
 10
15946.836587253632
 20
350.0
 40
10.0
 41
10.0
  0
LWPOLYLINE
  5
311
330
17
100
AcDbEntity
  8
metal
100
AcDbPolyline
 90
2
 70
0
 10
16209.530959734911
 20
665.0
 40
10.0
 41
10.0
 10
15969.930598021218
 20
250.0
 40
10.0
 41
10.0
  0
LWPOLYLINE
  5
312
330
17
100
AcDbEntity
  8
metal
100
AcDbPolyline
 90
2
 70
0
 10
16249.945478578184
 20
595.0
 40
10.0
 41
10.0
 10
15993.0246087888
 20
150.0
 40
10.0
 41
10.0
  0
LWPOLYLINE
  5
313
330
17
100
AcDbEntity
  8
metal
100
AcDbPolyline
 90
2
 70
0
 10
16290.359997421458
 20
525.0
 40
10.0
 41
10.0
 10
16016.118619556386
 20
50.0
 40
10.0
 41
10.0
  0
LWPOLYLINE
  5
314
330
17
100
AcDbEntity
  8
metal
100
AcDbPolyline
 90
2
 70
0
 10
16007.458365518542
 20
-1435.0
 40
10.0
 41
10.0
 10
15611.973431123648
 20
-750.0
 40
10.0
 41
10.0
  0
LWPOLYLINE
  5
315
330
17
100
AcDbEntity
  8
metal
100
AcDbPolyline
 90
2
 70
0
 10
15967.043846675268
 20
-1365.0
 40
10.0
 41
10.0
 10
15554.238404204685
 20
-650.0
 40
10.0
 41
10.0
  0
LWPOLYLINE
  5
316
330
17
100
AcDbEntity
  8
metal
100
AcDbPolyline
 90
2
 70
0
 10
15926.629327831994
 20
-1295.0
 40
10.0
 41
10.0
 10
15496.503377285722
 20
-550.0
 40
10.0
 41
10.0
  0
LWPOLYLINE
  5
317
330
17
100
AcDbEntity
  8
metal
100
AcDbPolyline
 90
2
 70
0
 10
15886.21480898872
 20
-1225.0
 40
10.0
 41
10.0
 10
15438.76835036676
 20
-450.0
 40
10.0
 41
10.0
  0
LWPOLYLINE
  5
318
330
17
100
AcDbEntity
  8
metal
100
AcDbPolyline
 90
2
 70
0
 10
15845.800290145446
 20
-735.0
 40
10.0
 41
10.0
 10
15623.52043650744
 20
-350.0
 40
10.0
 41
10.0
  0
LWPOLYLINE
  5
319
330
17
100
AcDbEntity
  8
metal
100
AcDbPolyline
 90
2
 70
0
 10
15805.385771302172
 20
-665.0
 40
10.0
 41
10.0
 10
15565.785409588478
 20
-250.0
 40
10.0
 41
10.0
  0
LWPOLYLINE
  5
31A
330
17
100
AcDbEntity
  8
metal
100
AcDbPolyline
 90
2
 70
0
 10
15764.9712524589
 20
-595.0
 40
10.0
 41
10.0
 10
15508.050382669517
 20
-150.0
 40
10.0
 41
10.0
  0
LWPOLYLINE
  5
31B
330
17
100
AcDbEntity
  8
metal
100
AcDbPolyline
 90
2
 70
0
 10
15724.556733615625
 20
-525.0
 40
10.0
 41
10.0
 10
15450.315355750554
 20
-50.0
 40
10.0
 41
10.0
  0
LWPOLYLINE
  5
31C
330
17
100
AcDbEntity
  8
metal
100
AcDbPolyline
 90
2
 70
0
 10
18422.45836551854
 20
1435.0
 40
10.0
 41
10.0
 10
16007.458365518542
 20
1435.0
 40
10.0
 41
10.0
  0
LWPOLYLINE
  5
31D
330
17
100
AcDbEntity
  8
metal
100
AcDbPolyline
 90
2
 70
0
 10
17792.45836551854
 20
1365.0
 40
10.0
 41
10.0
 10
16007.458365518542
 20
1365.0
 40
10.0
 41
10.0
  0
LWPOLYLINE
  5
31E
330
17
100
AcDbEntity
  8
metal
100
AcDbPolyline
 90
2
 70
0
 10
17162.45836551854
 20
1295.0
 40
10.0
 41
10.0
 10
16007.458365518542
 20
1295.0
 40
10.0
 41
10.0
  0
LWPOLYLINE
  5
31F
330
17
100
AcDbEntity
  8
metal
100
AcDbPolyline
 90
2
 70
0
 10
16532.45836551854
 20
1225.0
 40
10.0
 41
10.0
 10
16007.458365518542
 20
1225.0
 40
10.0
 41
10.0
  0
LWPOLYLINE
  5
320
330
17
100
AcDbEntity
  8
metal
100
AcDbPolyline
 90
2
 70
0
 10
18422.45836551854
 20
735.0
 40
10.0
 41
10.0
 10
16007.458365518542
 20
735.0
 40
10.0
 41
10.0
  0
LWPOLYLINE
  5
321
330
17
100
AcDbEntity
  8
metal
100
AcDbPolyline
 90
2
 70
0
 10
17792.45836551854
 20
665.0
 40
10.0
 41
10.0
 10
16007.458365518542
 20
665.0
 40
10.0
 41
10.0
  0
LWPOLYLINE
  5
322
330
17
100
AcDbEntity
  8
metal
100
AcDbPolyline
 90
2
 70
0
 10
17162.45836551854
 20
595.0
 40
10.0
 41
10.0
 10
16007.458365518542
 20
595.0
 40
10.0
 41
10.0
  0
LWPOLYLINE
  5
323
330
17
100
AcDbEntity
  8
metal
100
AcDbPolyline
 90
2
 70
0
 10
16532.45836551854
 20
525.0
 40
10.0
 41
10.0
 10
16007.458365518542
 20
525.0
 40
10.0
 41
10.0
  0
LWPOLYLINE
  5
324
330
17
100
AcDbEntity
  8
metal
100
AcDbPolyline
 90
2
 70
0
 10
18422.45836551854
 20
-735.0
 40
10.0
 41
10.0
 10
16007.458365518542
 20
-735.0
 40
10.0
 41
10.0
  0
LWPOLYLINE
  5
325
330
17
100
AcDbEntity
  8
metal
100
AcDbPolyline
 90
2
 70
0
 10
17792.45836551854
 20
-665.0
 40
10.0
 41
10.0
 10
16007.458365518542
 20
-665.0
 40
10.0
 41
10.0
  0
LWPOLYLINE
  5
326
330
17
100
AcDbEntity
  8
metal
100
AcDbPolyline
 90
2
 70
0
 10
17162.45836551854
 20
-595.0
 40
10.0
 41
10.0
 10
16007.458365518542
 20
-595.0
 40
10.0
 41
10.0
  0
LWPOLYLINE
  5
327
330
17
100
AcDbEntity
  8
metal
100
AcDbPolyline
 90
2
 70
0
 10
16532.45836551854
 20
-525.0
 40
10.0
 41
10.0
 10
16007.458365518542
 20
-525.0
 40
10.0
 41
10.0
  0
LWPOLYLINE
  5
328
330
17
100
AcDbEntity
  8
metal
100
AcDbPolyline
 90
2
 70
0
 10
18422.45836551854
 20
-1435.0
 40
10.0
 41
10.0
 10
16007.458365518542
 20
-1435.0
 40
10.0
 41
10.0
  0
LWPOLYLINE
  5
329
330
17
100
AcDbEntity
  8
metal
100
AcDbPolyline
 90
2
 70
0
 10
17792.45836551854
 20
-1365.0
 40
10.0
 41
10.0
 10
16007.458365518542
 20
-1365.0
 40
10.0
 41
10.0
  0
LWPOLYLINE
  5
32A
330
17
100
AcDbEntity
  8
metal
100
AcDbPolyline
 90
2
 70
0
 10
17162.45836551854
 20
-1295.0
 40
10.0
 41
10.0
 10
16007.458365518542
 20
-1295.0
 40
10.0
 41
10.0
  0
LWPOLYLINE
  5
32B
330
17
100
AcDbEntity
  8
metal
100
AcDbPolyline
 90
2
 70
0
 10
16532.45836551854
 20
-1225.0
 40
10.0
 41
10.0
 10
16007.458365518542
 20
-1225.0
 40
10.0
 41
10.0
  0
LWPOLYLINE
  5
32C
330
17
100
AcDbEntity
  8
metal
100
AcDbPolyline
 90
2
 70
0
 10
16007.458365518542
 20
1435.0
 40
10.0
 41
10.0
 10
16007.458365518542
 20
1435.0
 40
10.0
 41
10.0
  0
LWPOLYLINE
  5
32D
330
17
100
AcDbEntity
  8
metal
100
AcDbPolyline
 90
2
 70
0
 10
16007.458365518542
 20
1365.0
 40
10.0
 41
10.0
 10
16047.872884361816
 20
1365.0
 40
10.0
 41
10.0
  0
LWPOLYLINE
  5
32E
330
17
100
AcDbEntity
  8
metal
100
AcDbPolyline
 90
2
 70
0
 10
16007.458365518542
 20
1295.0
 40
10.0
 41
10.0
 10
16088.28740320509
 20
1295.0
 40
10.0
 41
10.0
  0
LWPOLYLINE
  5
32F
330
17
100
AcDbEntity
  8
metal
100
AcDbPolyline
 90
2
 70
0
 10
16007.458365518542
 20
1225.0
 40
10.0
 41
10.0
 10
16128.701922048363
 20
1225.0
 40
10.0
 41
10.0
  0
LWPOLYLINE
  5
330
330
17
100
AcDbEntity
  8
metal
100
AcDbPolyline
 90
2
 70
0
 10
16007.458365518542
 20
735.0
 40
10.0
 41
10.0
 10
16169.116440891637
 20
735.0
 40
10.0
 41
10.0
  0
LWPOLYLINE
  5
331
330
17
100
AcDbEntity
  8
metal
100
AcDbPolyline
 90
2
 70
0
 10
16007.458365518542
 20
665.0
 40
10.0
 41
10.0
 10
16209.530959734911
 20
665.0
 40
10.0
 41
10.0
  0
LWPOLYLINE
  5
332
330
17
100
AcDbEntity
  8
metal
100
AcDbPolyline
 90
2
 70
0
 10
16007.458365518542
 20
595.0
 40
10.0
 41
10.0
 10
16249.945478578184
 20
595.0
 40
10.0
 41
10.0
  0
LWPOLYLINE
  5
333
330
17
100
AcDbEntity
  8
metal
100
AcDbPolyline
 90
2
 70
0
 10
16007.458365518542
 20
525.0
 40
10.0
 41
10.0
 10
16290.359997421458
 20
525.0
 40
10.0
 41
10.0
  0
LWPOLYLINE
  5
334
330
17
100
AcDbEntity
  8
metal
100
AcDbPolyline
 90
2
 70
0
 10
16007.458365518542
 20
-1435.0
 40
10.0
 41
10.0
 10
16007.458365518542
 20
-1435.0
 40
10.0
 41
10.0
  0
LWPOLYLINE
  5
335
330
17
100
AcDbEntity
  8
metal
100
AcDbPolyline
 90
2
 70
0
 10
16007.458365518542
 20
-1365.0
 40
10.0
 41
10.0
 10
15967.043846675268
 20
-1365.0
 40
10.0
 41
10.0
  0
LWPOLYLINE
  5
336
330
17
100
AcDbEntity
  8
metal
100
AcDbPolyline
 90
2
 70
0
 10
16007.458365518542
 20
-1295.0
 40
10.0
 41
10.0
 10
15926.629327831994
 20
-1295.0
 40
10.0
 41
10.0
  0
LWPOLYLINE
  5
337
330
17
100
AcDbEntity
  8
metal
100
AcDbPolyline
 90
2
 70
0
 10
16007.458365518542
 20
-1225.0
 40
10.0
 41
10.0
 10
15886.21480898872
 20
-1225.0
 40
10.0
 41
10.0
  0
LWPOLYLINE
  5
338
330
17
100
AcDbEntity
  8
metal
100
AcDbPolyline
 90
2
 70
0
 10
16007.458365518542
 20
-735.0
 40
10.0
 41
10.0
 10
15845.800290145446
 20
-735.0
 40
10.0
 41
10.0
  0
LWPOLYLINE
  5
339
330
17
100
AcDbEntity
  8
metal
100
AcDbPolyline
 90
2
 70
0
 10
16007.458365518542
 20
-665.0
 40
10.0
 41
10.0
 10
15805.385771302172
 20
-665.0
 40
10.0
 41
10.0
  0
LWPOLYLINE
  5
33A
330
17
100
AcDbEntity
  8
metal
100
AcDbPolyline
 90
2
 70
0
 10
16007.458365518542
 20
-595.0
 40
10.0
 41
10.0
 10
15764.9712524589
 20
-595.0
 40
10.0
 41
10.0
  0
LWPOLYLINE
  5
33B
330
17
100
AcDbEntity
  8
metal
100
AcDbPolyline
 90
2
 70
0
 10
16007.458365518542
 20
-525.0
 40
10.0
 41
10.0
 10
15724.556733615625
 20
-525.0
 40
10.0
 41
10.0
  0
LWPOLYLINE
  5
33C
330
17
100
AcDbEntity
  8
metal
100
AcDbPolyline
 90
2
 70
0
 10
-18807.45836551854
 20
1050.0
 40
10.0
 41
10.0
 10
-18422.45836551854
 20
1435.0
 40
10.0
 41
10.0
  0
LWPOLYLINE
  5
33D
330
17
100
AcDbEntity
  8
metal
100
AcDbPolyline
 90
2
 70
0
 10
-18107.45836551854
 20
1050.0
 40
10.0
 41
10.0
 10
-17792.45836551854
 20
1365.0
 40
10.0
 41
10.0
  0
LWPOLYLINE
  5
33E
330
17
100
AcDbEntity
  8
metal
100
AcDbPolyline
 90
2
 70
0
 10
-17407.45836551854
 20
1050.0
 40
10.0
 41
10.0
 10
-17162.45836551854
 20
1295.0
 40
10.0
 41
10.0
  0
LWPOLYLINE
  5
33F
330
17
100
AcDbEntity
  8
metal
100
AcDbPolyline
 90
2
 70
0
 10
-16707.45836551854
 20
1050.0
 40
10.0
 41
10.0
 10
-16532.45836551854
 20
1225.0
 40
10.0
 41
10.0
  0
LWPOLYLINE
  5
340
330
17
100
AcDbEntity
  8
metal
100
AcDbPolyline
 90
2
 70
0
 10
-18807.45836551854
 20
350.0
 40
10.0
 41
10.0
 10
-18422.45836551854
 20
735.0
 40
10.0
 41
10.0
  0
LWPOLYLINE
  5
341
330
17
100
AcDbEntity
  8
metal
100
AcDbPolyline
 90
2
 70
0
 10
-18107.45836551854
 20
350.0
 40
10.0
 41
10.0
 10
-17792.45836551854
 20
665.0
 40
10.0
 41
10.0
  0
LWPOLYLINE
  5
342
330
17
100
AcDbEntity
  8
metal
100
AcDbPolyline
 90
2
 70
0
 10
-17407.45836551854
 20
350.0
 40
10.0
 41
10.0
 10
-17162.45836551854
 20
595.0
 40
10.0
 41
10.0
  0
LWPOLYLINE
  5
343
330
17
100
AcDbEntity
  8
metal
100
AcDbPolyline
 90
2
 70
0
 10
-16707.45836551854
 20
350.0
 40
10.0
 41
10.0
 10
-16532.45836551854
 20
525.0
 40
10.0
 41
10.0
  0
LWPOLYLINE
  5
344
330
17
100
AcDbEntity
  8
metal
100
AcDbPolyline
 90
2
 70
0
 10
-18807.45836551854
 20
-350.0
 40
10.0
 41
10.0
 10
-18422.45836551854
 20
-735.0
 40
10.0
 41
10.0
  0
LWPOLYLINE
  5
345
330
17
100
AcDbEntity
  8
metal
100
AcDbPolyline
 90
2
 70
0
 10
-18107.45836551854
 20
-350.0
 40
10.0
 41
10.0
 10
-17792.45836551854
 20
-665.0
 40
10.0
 41
10.0
  0
LWPOLYLINE
  5
346
330
17
100
AcDbEntity
  8
metal
100
AcDbPolyline
 90
2
 70
0
 10
-17407.45836551854
 20
-350.0
 40
10.0
 41
10.0
 10
-17162.45836551854
 20
-595.0
 40
10.0
 41
10.0
  0
LWPOLYLINE
  5
347
330
17
100
AcDbEntity
  8
metal
100
AcDbPolyline
 90
2
 70
0
 10
-16707.45836551854
 20
-350.0
 40
10.0
 41
10.0
 10
-16532.45836551854
 20
-525.0
 40
10.0
 41
10.0
  0
LWPOLYLINE
  5
348
330
17
100
AcDbEntity
  8
metal
100
AcDbPolyline
 90
2
 70
0
 10
-18807.45836551854
 20
-1050.0
 40
10.0
 41
10.0
 10
-18422.45836551854
 20
-1435.0
 40
10.0
 41
10.0
  0
LWPOLYLINE
  5
349
330
17
100
AcDbEntity
  8
metal
100
AcDbPolyline
 90
2
 70
0
 10
-18107.45836551854
 20
-1050.0
 40
10.0
 41
10.0
 10
-17792.45836551854
 20
-1365.0
 40
10.0
 41
10.0
  0
LWPOLYLINE
  5
34A
330
17
100
AcDbEntity
  8
metal
100
AcDbPolyline
 90
2
 70
0
 10
-17407.45836551854
 20
-1050.0
 40
10.0
 41
10.0
 10
-17162.45836551854
 20
-1295.0
 40
10.0
 41
10.0
  0
LWPOLYLINE
  5
34B
330
17
100
AcDbEntity
  8
metal
100
AcDbPolyline
 90
2
 70
0
 10
-16707.45836551854
 20
-1050.0
 40
10.0
 41
10.0
 10
-16532.45836551854
 20
-1225.0
 40
10.0
 41
10.0
  0
LWPOLYLINE
  5
34C
330
17
100
AcDbEntity
  8
metal
100
AcDbPolyline
 90
2
 70
0
 10
-16007.458365518542
 20
1435.0
 40
10.0
 41
10.0
 10
-15611.973431123648
 20
750.0
 40
10.0
 41
10.0
  0
LWPOLYLINE
  5
34D
330
17
100
AcDbEntity
  8
metal
100
AcDbPolyline
 90
2
 70
0
 10
-16047.872884361816
 20
1365.0
 40
10.0
 41
10.0
 10
-15635.067441891233
 20
650.0
 40
10.0
 41
10.0
  0
LWPOLYLINE
  5
34E
330
17
100
AcDbEntity
  8
metal
100
AcDbPolyline
 90
2
 70
0
 10
-16088.28740320509
 20
1295.0
 40
10.0
 41
10.0
 10
-15658.161452658818
 20
550.0
 40
10.0
 41
10.0
  0
LWPOLYLINE
  5
34F
330
17
100
AcDbEntity
  8
metal
100
AcDbPolyline
 90
2
 70
0
 10
-16128.701922048363
 20
1225.0
 40
10.0
 41
10.0
 10
-15681.255463426403
 20
450.0
 40
10.0
 41
10.0
  0
LWPOLYLINE
  5
350
330
17
100
AcDbEntity
  8
metal
100
AcDbPolyline
 90
2
 70
0
 10
-16169.116440891637
 20
735.0
 40
10.0
 41
10.0
 10
-15946.836587253632
 20
350.0
 40
10.0
 41
10.0
  0
LWPOLYLINE
  5
351
330
17
100
AcDbEntity
  8
metal
100
AcDbPolyline
 90
2
 70
0
 10
-16209.530959734911
 20
665.0
 40
10.0
 41
10.0
 10
-15969.930598021218
 20
250.0
 40
10.0
 41
10.0
  0
LWPOLYLINE
  5
352
330
17
100
AcDbEntity
  8
metal
100
AcDbPolyline
 90
2
 70
0
 10
-16249.945478578184
 20
595.0
 40
10.0
 41
10.0
 10
-15993.0246087888
 20
150.0
 40
10.0
 41
10.0
  0
LWPOLYLINE
  5
353
330
17
100
AcDbEntity
  8
metal
100
AcDbPolyline
 90
2
 70
0
 10
-16290.359997421458
 20
525.0
 40
10.0
 41
10.0
 10
-16016.118619556386
 20
50.0
 40
10.0
 41
10.0
  0
LWPOLYLINE
  5
354
330
17
100
AcDbEntity
  8
metal
100
AcDbPolyline
 90
2
 70
0
 10
-16007.458365518542
 20
-1435.0
 40
10.0
 41
10.0
 10
-15611.973431123648
 20
-750.0
 40
10.0
 41
10.0
  0
LWPOLYLINE
  5
355
330
17
100
AcDbEntity
  8
metal
100
AcDbPolyline
 90
2
 70
0
 10
-15967.043846675268
 20
-1365.0
 40
10.0
 41
10.0
 10
-15554.238404204685
 20
-650.0
 40
10.0
 41
10.0
  0
LWPOLYLINE
  5
356
330
17
100
AcDbEntity
  8
metal
100
AcDbPolyline
 90
2
 70
0
 10
-15926.629327831994
 20
-1295.0
 40
10.0
 41
10.0
 10
-15496.503377285722
 20
-550.0
 40
10.0
 41
10.0
  0
LWPOLYLINE
  5
357
330
17
100
AcDbEntity
  8
metal
100
AcDbPolyline
 90
2
 70
0
 10
-15886.21480898872
 20
-1225.0
 40
10.0
 41
10.0
 10
-15438.76835036676
 20
-450.0
 40
10.0
 41
10.0
  0
LWPOLYLINE
  5
358
330
17
100
AcDbEntity
  8
metal
100
AcDbPolyline
 90
2
 70
0
 10
-15845.800290145446
 20
-735.0
 40
10.0
 41
10.0
 10
-15623.52043650744
 20
-350.0
 40
10.0
 41
10.0
  0
LWPOLYLINE
  5
359
330
17
100
AcDbEntity
  8
metal
100
AcDbPolyline
 90
2
 70
0
 10
-15805.385771302172
 20
-665.0
 40
10.0
 41
10.0
 10
-15565.785409588478
 20
-250.0
 40
10.0
 41
10.0
  0
LWPOLYLINE
  5
35A
330
17
100
AcDbEntity
  8
metal
100
AcDbPolyline
 90
2
 70
0
 10
-15764.9712524589
 20
-595.0
 40
10.0
 41
10.0
 10
-15508.050382669517
 20
-150.0
 40
10.0
 41
10.0
  0
LWPOLYLINE
  5
35B
330
17
100
AcDbEntity
  8
metal
100
AcDbPolyline
 90
2
 70
0
 10
-15724.556733615625
 20
-525.0
 40
10.0
 41
10.0
 10
-15450.315355750554
 20
-50.0
 40
10.0
 41
10.0
  0
LWPOLYLINE
  5
35C
330
17
100
AcDbEntity
  8
metal
100
AcDbPolyline
 90
2
 70
0
 10
-18422.45836551854
 20
1435.0
 40
10.0
 41
10.0
 10
-16007.458365518542
 20
1435.0
 40
10.0
 41
10.0
  0
LWPOLYLINE
  5
35D
330
17
100
AcDbEntity
  8
metal
100
AcDbPolyline
 90
2
 70
0
 10
-17792.45836551854
 20
1365.0
 40
10.0
 41
10.0
 10
-16007.458365518542
 20
1365.0
 40
10.0
 41
10.0
  0
LWPOLYLINE
  5
35E
330
17
100
AcDbEntity
  8
metal
100
AcDbPolyline
 90
2
 70
0
 10
-17162.45836551854
 20
1295.0
 40
10.0
 41
10.0
 10
-16007.458365518542
 20
1295.0
 40
10.0
 41
10.0
  0
LWPOLYLINE
  5
35F
330
17
100
AcDbEntity
  8
metal
100
AcDbPolyline
 90
2
 70
0
 10
-16532.45836551854
 20
1225.0
 40
10.0
 41
10.0
 10
-16007.458365518542
 20
1225.0
 40
10.0
 41
10.0
  0
LWPOLYLINE
  5
360
330
17
100
AcDbEntity
  8
metal
100
AcDbPolyline
 90
2
 70
0
 10
-18422.45836551854
 20
735.0
 40
10.0
 41
10.0
 10
-16007.458365518542
 20
735.0
 40
10.0
 41
10.0
  0
LWPOLYLINE
  5
361
330
17
100
AcDbEntity
  8
metal
100
AcDbPolyline
 90
2
 70
0
 10
-17792.45836551854
 20
665.0
 40
10.0
 41
10.0
 10
-16007.458365518542
 20
665.0
 40
10.0
 41
10.0
  0
LWPOLYLINE
  5
362
330
17
100
AcDbEntity
  8
metal
100
AcDbPolyline
 90
2
 70
0
 10
-17162.45836551854
 20
595.0
 40
10.0
 41
10.0
 10
-16007.458365518542
 20
595.0
 40
10.0
 41
10.0
  0
LWPOLYLINE
  5
363
330
17
100
AcDbEntity
  8
metal
100
AcDbPolyline
 90
2
 70
0
 10
-16532.45836551854
 20
525.0
 40
10.0
 41
10.0
 10
-16007.458365518542
 20
525.0
 40
10.0
 41
10.0
  0
LWPOLYLINE
  5
364
330
17
100
AcDbEntity
  8
metal
100
AcDbPolyline
 90
2
 70
0
 10
-18422.45836551854
 20
-735.0
 40
10.0
 41
10.0
 10
-16007.458365518542
 20
-735.0
 40
10.0
 41
10.0
  0
LWPOLYLINE
  5
365
330
17
100
AcDbEntity
  8
metal
100
AcDbPolyline
 90
2
 70
0
 10
-17792.45836551854
 20
-665.0
 40
10.0
 41
10.0
 10
-16007.458365518542
 20
-665.0
 40
10.0
 41
10.0
  0
LWPOLYLINE
  5
366
330
17
100
AcDbEntity
  8
metal
100
AcDbPolyline
 90
2
 70
0
 10
-17162.45836551854
 20
-595.0
 40
10.0
 41
10.0
 10
-16007.458365518542
 20
-595.0
 40
10.0
 41
10.0
  0
LWPOLYLINE
  5
367
330
17
100
AcDbEntity
  8
metal
100
AcDbPolyline
 90
2
 70
0
 10
-16532.45836551854
 20
-525.0
 40
10.0
 41
10.0
 10
-16007.458365518542
 20
-525.0
 40
10.0
 41
10.0
  0
LWPOLYLINE
  5
368
330
17
100
AcDbEntity
  8
metal
100
AcDbPolyline
 90
2
 70
0
 10
-18422.45836551854
 20
-1435.0
 40
10.0
 41
10.0
 10
-16007.458365518542
 20
-1435.0
 40
10.0
 41
10.0
  0
LWPOLYLINE
  5
369
330
17
100
AcDbEntity
  8
metal
100
AcDbPolyline
 90
2
 70
0
 10
-17792.45836551854
 20
-1365.0
 40
10.0
 41
10.0
 10
-16007.458365518542
 20
-1365.0
 40
10.0
 41
10.0
  0
LWPOLYLINE
  5
36A
330
17
100
AcDbEntity
  8
metal
100
AcDbPolyline
 90
2
 70
0
 10
-17162.45836551854
 20
-1295.0
 40
10.0
 41
10.0
 10
-16007.458365518542
 20
-1295.0
 40
10.0
 41
10.0
  0
LWPOLYLINE
  5
36B
330
17
100
AcDbEntity
  8
metal
100
AcDbPolyline
 90
2
 70
0
 10
-16532.45836551854
 20
-1225.0
 40
10.0
 41
10.0
 10
-16007.458365518542
 20
-1225.0
 40
10.0
 41
10.0
  0
LWPOLYLINE
  5
36C
330
17
100
AcDbEntity
  8
metal
100
AcDbPolyline
 90
2
 70
0
 10
-16007.458365518542
 20
1435.0
 40
10.0
 41
10.0
 10
-16007.458365518542
 20
1435.0
 40
10.0
 41
10.0
  0
LWPOLYLINE
  5
36D
330
17
100
AcDbEntity
  8
metal
100
AcDbPolyline
 90
2
 70
0
 10
-16007.458365518542
 20
1365.0
 40
10.0
 41
10.0
 10
-16047.872884361816
 20
1365.0
 40
10.0
 41
10.0
  0
LWPOLYLINE
  5
36E
330
17
100
AcDbEntity
  8
metal
100
AcDbPolyline
 90
2
 70
0
 10
-16007.458365518542
 20
1295.0
 40
10.0
 41
10.0
 10
-16088.28740320509
 20
1295.0
 40
10.0
 41
10.0
  0
LWPOLYLINE
  5
36F
330
17
100
AcDbEntity
  8
metal
100
AcDbPolyline
 90
2
 70
0
 10
-16007.458365518542
 20
1225.0
 40
10.0
 41
10.0
 10
-16128.701922048363
 20
1225.0
 40
10.0
 41
10.0
  0
LWPOLYLINE
  5
370
330
17
100
AcDbEntity
  8
metal
100
AcDbPolyline
 90
2
 70
0
 10
-16007.458365518542
 20
735.0
 40
10.0
 41
10.0
 10
-16169.116440891637
 20
735.0
 40
10.0
 41
10.0
  0
LWPOLYLINE
  5
371
330
17
100
AcDbEntity
  8
metal
100
AcDbPolyline
 90
2
 70
0
 10
-16007.458365518542
 20
665.0
 40
10.0
 41
10.0
 10
-16209.530959734911
 20
665.0
 40
10.0
 41
10.0
  0
LWPOLYLINE
  5
372
330
17
100
AcDbEntity
  8
metal
100
AcDbPolyline
 90
2
 70
0
 10
-16007.458365518542
 20
595.0
 40
10.0
 41
10.0
 10
-16249.945478578184
 20
595.0
 40
10.0
 41
10.0
  0
LWPOLYLINE
  5
373
330
17
100
AcDbEntity
  8
metal
100
AcDbPolyline
 90
2
 70
0
 10
-16007.458365518542
 20
525.0
 40
10.0
 41
10.0
 10
-16290.359997421458
 20
525.0
 40
10.0
 41
10.0
  0
LWPOLYLINE
  5
374
330
17
100
AcDbEntity
  8
metal
100
AcDbPolyline
 90
2
 70
0
 10
-16007.458365518542
 20
-1435.0
 40
10.0
 41
10.0
 10
-16007.458365518542
 20
-1435.0
 40
10.0
 41
10.0
  0
LWPOLYLINE
  5
375
330
17
100
AcDbEntity
  8
metal
100
AcDbPolyline
 90
2
 70
0
 10
-16007.458365518542
 20
-1365.0
 40
10.0
 41
10.0
 10
-15967.043846675268
 20
-1365.0
 40
10.0
 41
10.0
  0
LWPOLYLINE
  5
376
330
17
100
AcDbEntity
  8
metal
100
AcDbPolyline
 90
2
 70
0
 10
-16007.458365518542
 20
-1295.0
 40
10.0
 41
10.0
 10
-15926.629327831994
 20
-1295.0
 40
10.0
 41
10.0
  0
LWPOLYLINE
  5
377
330
17
100
AcDbEntity
  8
metal
100
AcDbPolyline
 90
2
 70
0
 10
-16007.458365518542
 20
-1225.0
 40
10.0
 41
10.0
 10
-15886.21480898872
 20
-1225.0
 40
10.0
 41
10.0
  0
LWPOLYLINE
  5
378
330
17
100
AcDbEntity
  8
metal
100
AcDbPolyline
 90
2
 70
0
 10
-16007.458365518542
 20
-735.0
 40
10.0
 41
10.0
 10
-15845.800290145446
 20
-735.0
 40
10.0
 41
10.0
  0
LWPOLYLINE
  5
379
330
17
100
AcDbEntity
  8
metal
100
AcDbPolyline
 90
2
 70
0
 10
-16007.458365518542
 20
-665.0
 40
10.0
 41
10.0
 10
-15805.385771302172
 20
-665.0
 40
10.0
 41
10.0
  0
LWPOLYLINE
  5
37A
330
17
100
AcDbEntity
  8
metal
100
AcDbPolyline
 90
2
 70
0
 10
-16007.458365518542
 20
-595.0
 40
10.0
 41
10.0
 10
-15764.9712524589
 20
-595.0
 40
10.0
 41
10.0
  0
LWPOLYLINE
  5
37B
330
17
100
AcDbEntity
  8
metal
100
AcDbPolyline
 90
2
 70
0
 10
-16007.458365518542
 20
-525.0
 40
10.0
 41
10.0
 10
-15724.556733615625
 20
-525.0
 40
10.0
 41
10.0
  0
ENDSEC
  0
SECTION
  2
OBJECTS
  0
DICTIONARY
  5
A
330
0
100
AcDbDictionary
281
1
  3
ACAD_COLOR
350
B
  3
ACAD_GROUP
350
C
  3
ACAD_LAYOUT
350
D
  3
ACAD_MATERIAL
350
E
  3
ACAD_MLEADERSTYLE
350
F
  3
ACAD_MLINESTYLE
350
10
  3
ACAD_PLOTSETTINGS
350
11
  3
ACAD_PLOTSTYLENAME
350
12
  3
ACAD_SCALELIST
350
14
  3
ACAD_TABLESTYLE
350
15
  3
ACAD_VISUALSTYLE
350
16
  0
DICTIONARY
  5
B
330
A
100
AcDbDictionary
281
1
  0
DICTIONARY
  5
C
330
A
100
AcDbDictionary
281
1
  0
DICTIONARY
  5
D
330
A
100
AcDbDictionary
281
1
  3
Model
350
1A
  3
Layout1
350
1E
  0
DICTIONARY
  5
E
330
A
100
AcDbDictionary
281
1
  3
ByBlock
350
1F
  3
ByLayer
350
20
  3
Global
350
21
  0
DICTIONARY
  5
F
330
A
100
AcDbDictionary
281
1
  3
Standard
350
2C
  0
DICTIONARY
  5
10
330
A
100
AcDbDictionary
281
1
  3
Standard
350
22
  0
DICTIONARY
  5
11
330
A
100
AcDbDictionary
281
1
  0
ACDBDICTIONARYWDFLT
  5
12
330
A
100
AcDbDictionary
281
1
  3
Normal
350
13
100
AcDbDictionaryWithDefault
340
13
  0
ACDBPLACEHOLDER
  5
13
330
12
  0
DICTIONARY
  5
14
330
A
100
AcDbDictionary
281
1
  0
DICTIONARY
  5
15
330
A
100
AcDbDictionary
281
1
  0
DICTIONARY
  5
16
330
A
100
AcDbDictionary
281
1
  0
LAYOUT
  5
1A
330
D
100
AcDbPlotSettings
  1

  2
Adobe PDF
  4
A4
  6

 40
3.175
 41
3.175
 42
3.175
 43
3.175
 44
209.91
 45
297.03
 46
0.0
 47
0.0
 48
0.0
 49
0.0
140
0.0
141
0.0
142
1.0
143
1.0
 70
1024
 72
0
 73
1
 74
5
  7

 75
16
 76
0
 77
2
 78
300
147
1.0
148
0.0
149
0.0
100
AcDbLayout
  1
Model
 70
1
 71
0
 10
-3.175
 20
-3.175
 11
293.857
 21
206.735
 12
0.0
 22
0.0
 32
0.0
 14
29.068
 24
20.356
 34
0.0
 15
261.614
 25
183.204
 35
0.0
146
0.0
 13
0.0
 23
0.0
 33
0.0
 16
1.0
 26
0.0
 36
0.0
 17
0.0
 27
1.0
 37
0.0
 76
1
330
17
  0
LAYOUT
  5
1E
330
D
100
AcDbPlotSettings
  1

  2
Adobe PDF
  4
A4
  6

 40
3.175
 41
3.175
 42
3.175
 43
3.175
 44
209.91
 45
297.03
 46
0.0
 47
0.0
 48
0.0
 49
0.0
140
0.0
141
0.0
142
1.0
143
1.0
 70
0
 72
0
 73
1
 74
5
  7

 75
16
 76
0
 77
2
 78
300
147
1.0
148
0.0
149
0.0
100
AcDbLayout
  1
Layout1
 70
1
 71
1
 10
-3.175
 20
-3.175
 11
293.857
 21
206.735
 12
0.0
 22
0.0
 32
0.0
 14
29.068
 24
20.356
 34
0.0
 15
261.614
 25
183.204
 35
0.0
146
0.0
 13
0.0
 23
0.0
 33
0.0
 16
1.0
 26
0.0
 36
0.0
 17
0.0
 27
1.0
 37
0.0
 76
1
330
1B
  0
MATERIAL
  5
1F
102
{ACAD_REACTORS
330
E
102
}
330
E
100
AcDbMaterial
  1
ByBlock
  2

 70
0
 40
1.0
 71
1
 41
1.0
 91
-1023410177
 42
1.0
 72
1
  3

 73
1
 74
1
 75
1
 44
0.5
 73
0
 45
1.0
 46
1.0
 77
1
  4

 78
1
 79
1
170
1
 48
1.0
171
1
  6

172
1
173
1
174
1
140
1.0
141
1.0
175
1
  7

176
1
177
1
178
1
143
1.0
179
1
  8

270
1
271
1
272
1
145
1.0
146
1.0
273
1
  9

274
1
275
1
276
1
 42
1.0
 72
1
  3

 73
1
 74
1
 75
1
 94
63
  0
MATERIAL
  5
20
102
{ACAD_REACTORS
330
E
102
}
330
E
100
AcDbMaterial
  1
ByLayer
  2

 70
0
 40
1.0
 71
1
 41
1.0
 91
-1023410177
 42
1.0
 72
1
  3

 73
1
 74
1
 75
1
 44
0.5
 73
0
 45
1.0
 46
1.0
 77
1
  4

 78
1
 79
1
170
1
 48
1.0
171
1
  6

172
1
173
1
174
1
140
1.0
141
1.0
175
1
  7

176
1
177
1
178
1
143
1.0
179
1
  8

270
1
271
1
272
1
145
1.0
146
1.0
273
1
  9

274
1
275
1
276
1
 42
1.0
 72
1
  3

 73
1
 74
1
 75
1
 94
63
  0
MATERIAL
  5
21
102
{ACAD_REACTORS
330
E
102
}
330
E
100
AcDbMaterial
  1
Global
  2

 70
0
 40
1.0
 71
1
 41
1.0
 91
-1023410177
 42
1.0
 72
1
  3

 73
1
 74
1
 75
1
 44
0.5
 73
0
 45
1.0
 46
1.0
 77
1
  4

 78
1
 79
1
170
1
 48
1.0
171
1
  6

172
1
173
1
174
1
140
1.0
141
1.0
175
1
  7

176
1
177
1
178
1
143
1.0
179
1
  8

270
1
271
1
272
1
145
1.0
146
1.0
273
1
  9

274
1
275
1
276
1
 42
1.0
 72
1
  3

 73
1
 74
1
 75
1
 94
63
  0
MLINESTYLE
  5
22
102
{ACAD_REACTORS
330
10
102
}
330
10
100
AcDbMlineStyle
  2
Standard
 70
0
  3

 62
256
 51
90.0
 52
90.0
 71
2
 49
0.5
 62
256
  6
BYLAYER
 49
-0.5
 62
256
  6
BYLAYER
  0
MLEADERSTYLE
  5
2C
102
{ACAD_REACTORS
330
F
102
}
330
F
100
AcDbMLeaderStyle
179
2
170
2
171
1
172
0
 90
2
 40
0.0
 41
0.0
173
1
 91
-1056964608
 92
-2
290
1
 42
2.0
291
1
 43
8.0
  3
Standard
 44
4.0
300

342
29
174
1
175
1
176
0
178
1
 93
-1056964608
 45
4.0
292
0
297
0
 46
4.0
 94
-1056964608
 47
1.0
 49
0.0
140
1.0
294
1
141
0.0
177
0
142
1.0
295
0
296
0
143
3.75
271
0
272
9
272
9
  0
ENDSEC
  0
EOF
